#define max_disabled_width 11
#define max_disabled_height 11
static unsigned char max_disabled_bits[] = {
   0xff, 0x07, 0xff, 0x07, 0x01, 0x04, 0x01, 0x04, 0x01, 0x04, 0x01, 0x04,
   0x01, 0x04, 0x01, 0x04, 0x01, 0x04, 0x01, 0x04, 0xff, 0x07 };
