#define max20_width 22
#define max20_height 22
static unsigned char max20_bits[] = {
   0xff, 0xff, 0x3f, 0xff, 0xff, 0x3f, 0xff, 0xff, 0x3f, 0xff, 0xff, 0x3f,
   0xff, 0xff, 0x3f, 0xff, 0xff, 0x3f, 0x00, 0x00, 0x00, 0x00, 0x00, 0x00,
   0x00, 0x00, 0x00, 0x00, 0x00, 0x00, 0x00, 0x00, 0x00, 0x00, 0x00, 0x00,
   0x00, 0x00, 0x00, 0x00, 0x00, 0x00, 0x00, 0x00, 0x00, 0x00, 0x00, 0x00,
   0x00, 0x00, 0x00, 0x00, 0x00, 0x00, 0x00, 0x00, 0x00, 0x00, 0x00, 0x00,
   0x00, 0x00, 0x00, 0x00, 0x00, 0x00 };
