#define iconify_hover5_width 22
#define iconify_hover5_height 22
static unsigned char iconify_hover5_bits[] = {
   0x00, 0x1e, 0x00, 0x00, 0x1e, 0x00, 0x00, 0x1e, 0x00, 0x00, 0x1e, 0x00,
   0x00, 0x1e, 0x00, 0x00, 0x1e, 0x00, 0x00, 0x1e, 0x00, 0x00, 0x1e, 0x00,
   0x00, 0x1e, 0x00, 0x00, 0x1e, 0x00, 0x00, 0x1e, 0x00, 0x00, 0x1e, 0x00,
   0x00, 0x1e, 0x00, 0x00, 0x1e, 0x00, 0x00, 0x1e, 0x00, 0x00, 0x1e, 0x00,
   0x00, 0x1e, 0x00, 0x00, 0x1e, 0x00, 0x00, 0x1e, 0x00, 0x00, 0x1e, 0x00,
   0x00, 0x1e, 0x00, 0x00, 0x1e, 0x00 };
