#define bullet4_width 9
#define bullet4_height 9
static unsigned char bullet4_bits[] = {
   0x00, 0x00, 0x00, 0x00, 0x20, 0x00, 0x40, 0x00, 0xfe, 0x00, 0x40, 0x00,
   0x20, 0x00, 0x00, 0x00, 0x00, 0x00 };
