#define close_hover_width 16
#define close_hover_height 16
static unsigned char close_hover_bits[] = {
   0x00, 0x00, 0x00, 0x08, 0x00, 0x1c, 0x00, 0x3e, 0x00, 0x7f, 0x80, 0x3f,
   0xc0, 0x1f, 0xe0, 0x0f, 0xf0, 0x07, 0xf8, 0x03, 0xfc, 0x01, 0xfe, 0x00,
   0x7c, 0x00, 0x38, 0x00, 0x10, 0x00, 0x00, 0x00 };
