<?xml version="1.0" encoding="UTF-8" standalone="no"?>
<svg
   width="22"
   height="22"
   version="1.1"
   id="svg7"
   sodipodi:docname="folder-html.svg"
   inkscape:version="1.1.2 (0a00cf5339, 2022-02-04, custom)"
   xmlns:inkscape="http://www.inkscape.org/namespaces/inkscape"
   xmlns:sodipodi="http://sodipodi.sourceforge.net/DTD/sodipodi-0.dtd"
   xmlns="http://www.w3.org/2000/svg"
   xmlns:svg="http://www.w3.org/2000/svg">
  <sodipodi:namedview
     id="namedview9"
     pagecolor="#ffffff"
     bordercolor="#666666"
     borderopacity="1.0"
     inkscape:pageshadow="2"
     inkscape:pageopacity="0.0"
     inkscape:pagecheckerboard="0"
     showgrid="false"
     inkscape:zoom="23.539459"
     inkscape:cx="8.9849134"
     inkscape:cy="14.84741"
     inkscape:window-width="1920"
     inkscape:window-height="1026"
     inkscape:window-x="1920"
     inkscape:window-y="30"
     inkscape:window-maximized="1"
     inkscape:current-layer="svg7" />
  <defs
     id="defs3">
    <style
       id="current-color-scheme"
       type="text/css">.ColorScheme-Text { color:#ffffff; }</style>
    <style
       id="current-color-scheme-3"
       type="text/css">.ColorScheme-Text {
        color:#dfdfdf;
      }</style>
  </defs>
  <g
     id="g2301"
     transform="matrix(1.35,0,0,1.35,0.1195759,0.11299047)">
    <path
       id="path4"
       class="ColorScheme-Text"
       d="m 8.0585938,0.21875 c -0.081318,0 -0.1614739,0.001962 -0.2421876,0.003906 C 7.0235357,0.24676263 6.2597474,0.3883181 5.5429688,0.63085938 5.4214791,0.6719763 5.3003903,0.71685883 5.1816406,0.76367188 5.1448817,0.77815514 5.1087222,0.79362447 5.0722656,0.80859375 4.9907526,0.84212883 4.9101384,0.8759498 4.8300781,0.91210938 4.7142048,0.96459907 4.6010248,1.020328 4.4882812,1.078125 4.3755085,1.1358637 4.2638032,1.1948346 4.1542969,1.2578125 3.7137266,1.5111822 3.2993836,1.8075883 2.9179688,2.1386719 2.8727269,2.1779419 2.8294913,2.2174829 2.7851562,2.2578125 2.6922353,2.3421848 2.6003886,2.4288803 2.5117188,2.5175781 2.4230878,2.6063246 2.3363523,2.6961655 2.2519531,2.7890625 2.1253349,2.9283449 2.0031674,3.0724781 1.8867188,3.2207031 1.6538019,3.5170463 1.442849,3.8316291 1.2539062,4.1601562 1.1909189,4.2696362 1.129978,4.3794416 1.0722656,4.4921875 1.0434045,4.5485653 1.0158748,4.6049637 0.98828125,4.6621094 0.90559814,4.8336146 0.82811264,5.009385 0.7578125,5.1875 0.73441162,5.2468911 0.71148896,5.307116 0.68945312,5.3671875 0.60140732,5.6074834 0.52548493,5.8528773 0.4609375,6.1035156 0.4290538,6.2286258 0.39917786,6.3548136 0.37304688,6.4824219 v 0.00195 c -0.026131,0.127686 -0.0485661,0.2549703 -0.0683594,0.3847656 -0.0197932,0.1298829 -0.0353726,0.2606734 -0.0488281,0.3925782 -0.0268135,0.2636926 -0.0410156,0.5318875 -0.0410156,0.8027343 0,0.270808 0.0142021,0.5389931 0.0410156,0.8027344 0.013358,0.1318561 0.0289374,0.2627245 0.0488281,0.3925781 0.0197932,0.1298051 0.0423259,0.2591105 0.0683594,0.3867188 0.026131,0.1276083 0.0557144,0.2536304 0.0878906,0.3789067 0.0645474,0.250638 0.14049907,0.496032 0.22851562,0.736328 0.0439742,0.120114 0.0910346,0.238192 0.140625,0.355469 0.0495319,0.117265 0.10318181,0.233325 0.15820313,0.347656 0.0274961,0.05715 0.0551233,0.115477 0.0839843,0.171875 0.057722,0.112717 0.118624,0.222522 0.1816406,0.332031 0.188933,0.328527 0.3999152,0.643032 0.6328126,0.939453 0.1164681,0.148177 0.2386161,0.2923 0.3652343,0.431641 0.084438,0.09293 0.1709885,0.182786 0.2597657,0.271484 0.088728,0.08875 0.1805652,0.175335 0.2734374,0.259766 0.4179106,0.37985 0.8763182,0.714651 1.3691407,0.998047 0.1095161,0.06289 0.2212116,0.123921 0.3339843,0.18164 0.2255164,0.115516 0.4558307,0.22073 0.6933594,0.314453 0.1187205,0.04685 0.2398385,0.09171 0.3613282,0.132813 0.7897699,0.267279 1.6355958,0.412109 2.515625,0.412109 0.5999693,0 1.1846968,-0.06783 1.7460937,-0.195312 0.2620316,-0.05959 0.5181576,-0.131744 0.7695316,-0.216797 0.121519,-0.04102 0.2425,-0.08603 0.361328,-0.132813 0.237499,-0.09361 0.469796,-0.198888 0.695312,-0.314453 0.112773,-0.05774 0.222574,-0.116738 0.332032,-0.179687 0.492851,-0.283347 0.953183,-0.620198 1.371093,-1 0.09292,-0.08447 0.182786,-0.171068 0.271485,-0.259766 0.08873,-0.08865 0.175347,-0.178616 0.259765,-0.271484 0.126589,-0.139283 0.248815,-0.283416 0.365235,-0.431641 0.184282,-0.234464 0.354698,-0.479576 0.511719,-0.734375 0.04154,-0.06736 0.08356,-0.136307 0.123046,-0.205078 0.06299,-0.109451 0.121975,-0.219256 0.179688,-0.332031 0.02886,-0.05638 0.05834,-0.11473 0.08594,-0.171875 0.05519,-0.114282 0.10665,-0.230332 0.15625,-0.347656 0.04963,-0.117326 0.09669,-0.235287 0.140625,-0.355469 0.08805,-0.240296 0.163978,-0.485729 0.228516,-0.736328 0.03227,-0.1253638 0.06176,-0.2512984 0.08789,-0.3789067 0.02603,-0.1277152 0.05042,-0.2568943 0.07031,-0.3867188 0.01979,-0.1298536 0.03537,-0.2606929 0.04883,-0.3925781 0.02681,-0.2636829 0.04102,-0.5318876 0.04102,-0.8027344 0,-0.2708079 -0.0142,-0.5390514 -0.04102,-0.8027343 C 15.849826,7.1298043 15.834344,6.9990235 15.814453,6.8691406 15.79466,6.7393356 15.770272,6.6119833 15.744141,6.484375 15.71801,6.3567667 15.688524,6.2287619 15.65625,6.1035156 15.591703,5.8529065 15.515722,5.6074834 15.427734,5.3671875 15.405796,5.307116 15.382678,5.2469203 15.359375,5.1875 15.289172,5.009385 15.213503,4.8355677 15.130859,4.6640625 15.103363,4.6069071 15.073783,4.5505379 15.044922,4.4941406 14.9872,4.3813947 14.928241,4.269646 14.865234,4.1601562 14.676292,3.8315999 14.463366,3.5171241 14.230469,3.2207031 14.114001,3.0725364 13.991882,2.9284032 13.865234,2.7890625 13.780894,2.6962335 13.694217,2.606276 13.605469,2.5175781 13.516838,2.4288317 13.426857,2.342214 13.333984,2.2578125 13.15409,2.0942877 12.966053,1.9393567 12.771484,1.7929688 12.514055,1.5992622 12.243545,1.4211714 11.962891,1.2597656 11.853384,1.1968752 11.743583,1.1358345 11.630859,1.078125 11.579569,1.05188 11.528435,1.027032 11.476562,1.001953 c -0.0623,-0.0301329 -0.12628,-0.0613632 -0.189453,-0.0898437 -0.02642,-0.011956 -0.05356,-0.0215387 -0.08008,-0.0332031 -0.09,-0.0395617 -0.179743,-0.0790748 -0.271484,-0.11523437 -9.75e-4,-5.2491e-4 -0.0029,-9.4222e-4 -0.0039,-0.001953 -0.09772,-0.0383952 -0.197266,-0.0747026 -0.296875,-0.109375 C 10.61468,0.64553983 10.5945,0.63766363 10.57422,0.63085943 10.341946,0.55222203 10.104759,0.48452045 9.8632812,0.42773438 9.7878134,0.40994619 9.7129764,0.39455595 9.6367188,0.37890625 9.5817266,0.36763069 9.526056,0.35571506 9.4707031,0.34570312 9.0580774,0.2706623 8.635544,0.2284405 8.203125,0.22070312 8.1554457,0.2198283 8.1065168,0.21875 8.0585938,0.21875 Z m 0,0.421875 c 0.5073213,0 1.0033668,0.0510011 1.4824218,0.1484375 C 9.5209296,0.841941 9.4557046,0.8181856 9.4003906,0.84375 9.3485186,0.8678564 9.3285856,0.9173336 9.2734375,0.9277344 9.1201617,0.9566037 8.9939819,0.8896711 8.8613281,0.8945313 c -0.00585,0.0573499 0.064011,0.0909259 0.099609,0.1093749 0.1202318,0.062988 0.2191715,0.054572 0.3886719,0.050781 0.086876,-0.00194 0.1870797,0.025933 0.2617187,-0.025391 0.047289,-0.0322715 0.044398,-0.10502786 0.083984,-0.14453123 0.016868,-0.0167189 0.040473,-0.0325861 0.068359,-0.046875 0.083268,0.019635 0.1657925,0.0400461 0.2480473,0.0625 -0.013846,0.0567666 -0.1042894,0.043157 -0.1054692,0.11914053 0.0586,0.035188 0.1953462,-0.018151 0.2480472,-0.0781249 0.02038,0.005832 0.04027,0.0114543 0.06055,0.0175781 0.119217,0.0362568 0.236872,0.0752249 0.353515,0.1171876 0.166264,0.059877 0.329675,0.1261129 0.490235,0.1972656 -0.03081,0.018177 -0.06469,0.041113 -0.0918,0.041016 -0.06972,-4.374e-4 -0.09808,-0.093004 -0.175781,-0.058594 -0.0068,0.090107 0.09548,0.1263463 0.160156,0.1679687 0.07001,0.045102 0.143076,0.089584 0.167969,0.1679687 -0.06855,0.1453188 -0.178559,-0.00684 -0.28711,-0.00781 C 10.712404,1.583129 10.53945,1.8103081 10.4375,1.625 c 0.02535,-0.098185 0.133694,-0.1140065 0.160156,-0.2109375 -0.0233,0.00389 -0.04593,0.012444 -0.06836,0.021484 -0.04007,0.015844 -0.08021,0.036626 -0.121094,0.058594 -0.05363,0.028869 -0.109944,0.057977 -0.173828,0.072266 -0.05879,0.012928 -0.115444,0.01013 -0.167969,0.025391 -0.1008476,0.02955 -0.1726081,0.1032303 -0.2792966,0.1425781 -0.041634,0.015261 -0.091425,0.010907 -0.1347656,0.025391 -0.101755,0.033924 -0.2231624,0.095509 -0.328125,0.1523438 C 9.2169061,1.9700424 9.0959309,2.0300936 9.0292969,2.0878906 8.993318,2.1188984 8.8991065,2.228601 8.9023438,2.2636719 c 0.0039,0.05006 0.099203,0.067953 0.1015624,0.1191406 -0.00195,0.031008 -0.055507,0.097534 -0.017578,0.1425781 0.034516,0.04102 0.1044701,0.00854 0.1777344,0.017578 0.1287828,0.015941 0.2137093,0.1212794 0.3125,0.1757812 0.074688,0.041214 0.1851905,0.090909 0.2695313,0.1015625 0.1157856,0.014483 0.2459334,-0.034041 0.2617181,0.058594 0.01531,0.089038 -0.1101989,0.1199089 -0.11914,0.1757813 0.062402,0.082234 -0.041308,0.1212735 -0.041016,0.1933594 2.732e-4,0.058322 0.071983,0.1470559 0.1347657,0.1523437 0.084926,0.0068 0.2088543,-0.083256 0.2441403,-0.1679687 0.04193,-0.1009358 0.02453,-0.238995 0.101563,-0.3125 0.392745,0.01079 0.724531,-0.1777058 0.699219,-0.5800781 -0.0029,-0.039756 -0.02596,-0.091092 -0.01758,-0.1347657 0.01228,-0.065029 0.124254,-0.1189379 0.109375,-0.2011719 0.04232,-0.013025 0.0682,-0.047445 0.08984,-0.085937 0.03227,-0.05735 0.05713,-0.1229036 0.117188,-0.1445313 0.0039,-0.00194 0.0071,-0.00293 0.01172,-0.00391 0.03432,-0.00778 0.07162,-0.00134 0.109375,0.00977 0.06728,0.019829 0.140418,0.054272 0.220703,0.048828 0.04085,-0.00292 0.09371,-0.039035 0.134765,-0.033203 0.08239,0.01147 0.131455,0.1112054 0.19336,0.1582031 0.0547,0.041797 0.11299,0.028287 0.126953,0.083984 -0.01619,0.093412 -0.08144,0.097841 -0.07617,0.1835937 v 0.00195 c 0.0059,0.077082 0.08692,0.1369009 0.126953,0.1445313 0.06143,0.01147 0.149608,-0.02162 0.210938,-0.050781 0.0662,-0.031299 0.125764,-0.099487 0.183593,-0.1464843 0.08259,0.063376 0.164246,0.1287089 0.244141,0.1953125 0.0088,0.037423 0.01465,0.070907 0.01758,0.09375 0.0118,0.090982 -0.01132,0.1604001 -0.0078,0.2441406 0.01082,0.1418583 0.189239,0.1268406 0.277343,0.2011719 0.02652,0.022551 0.03656,0.080078 0.05859,0.109375 0.0428,0.056961 0.09492,0.058389 0.101563,0.1191406 0.01579,0.1453187 -0.130985,0.1561857 -0.117188,0.3183594 -0.03042,0.06289 -0.107764,0.060664 -0.101562,0.1445312 0.0097,0.1328184 0.200052,0.031118 0.251953,0.1347657 0.02808,0.055697 -0.0049,0.096366 -0.02539,0.1757812 0.06542,0.077762 0.06652,0.2010066 -0.04883,0.2011719 -0.0701,0 -0.08927,-0.0743 -0.160156,-0.091797 -0.03939,-0.00982 -0.09434,-0.00854 -0.144532,-0.017578 -0.0429,-0.00778 -0.09412,-0.02053 -0.134765,-0.025391 -0.104046,-0.012345 -0.215819,0.018862 -0.277344,-0.041016 0.100292,-0.1329836 0.23238,-0.2643815 0.361328,-0.3789062 0.03832,-0.034215 0.121083,-0.058415 0.101563,-0.1269532 -0.07176,-0.06289 -0.158866,0.00487 -0.226563,0.042969 -0.07108,0.039951 -0.156121,0.097477 -0.236328,0.109375 -0.139391,0.020607 -0.325559,-0.04106 -0.439453,0.033203 -0.0157,0.063474 0.129636,0.038962 0.109375,0.1347657 -0.05577,0.00875 -0.10746,0.013588 -0.150391,-0.025391 -0.0392,-0.035188 -0.01762,-0.088146 -0.04297,-0.109375 -0.04319,-0.035771 -0.204792,-0.045159 -0.277344,-0.033203 -0.08853,0.014386 -0.167506,0.066983 -0.177734,0.1425781 0.106356,0.049768 0.28173,-0.050873 0.320312,0.076172 -0.05831,0.1047072 -0.194209,0.1623439 -0.175781,0.3027344 0.0068,0.054239 0.07081,0.1267075 0.117187,0.1347656 0.04661,0.00778 0.07215,-0.03748 0.117188,-0.033203 0.04768,0.00486 0.03778,0.05709 0.09375,0.048828 0.08112,-0.034604 0.1258,-0.147866 0.21875,-0.1425781 0.111534,0.1351707 -0.100469,0.2012643 -0.21875,0.2441406 -0.134906,0.048796 -0.311294,0.075934 -0.414063,0.1191406 -0.05392,0.022454 -0.256334,0.2184806 -0.285156,0.066406 -0.02057,-0.1096743 0.09947,-0.077706 0.125,-0.1679688 -0.13046,-0.02537 -0.25042,0.05647 -0.369141,0.1015625 -0.169393,0.06396 -0.457163,0.1030144 -0.498046,0.2929688 -0.0078,0.038006 0.01558,0.1094247 -0.0098,0.1347656 -0.02018,0.020413 -0.140551,0.025083 -0.19336,0.042969 -0.08132,0.027897 -0.152891,0.086069 -0.203124,0.099609 -0.03793,0.010401 -0.09315,0.00834 -0.117188,0.017578 C 9.964265,5.084547 9.9401337,5.174216 9.8632812,5.234375 9.8317876,5.2589674 9.7613866,5.2779476 9.7363281,5.3027344 9.6926465,5.346087 9.6863639,5.454441 9.609375,5.4707031 9.560428,5.4745931 9.52069,5.4348961 9.4746094,5.4628931 c -0.00585,0.1073123 0.038892,0.2528299 -0.00781,0.3613282 -0.099834,0.081262 -0.2101802,0.1373359 -0.3378907,0.2089843 -0.070593,0.039756 -0.1334439,0.051078 -0.21875,0.09375 C 8.8496065,6.1570861 8.794227,6.2285212 8.7246094,6.2695312 8.5636893,6.36411 8.3698554,6.475374 8.3710938,6.7148438 c 2.73e-4,0.051809 0.026573,0.1093546 0.033203,0.1699218 0.0039,0.035674 -0.0039,0.070445 0,0.109375 0.010043,0.087969 0.07381,0.1990137 0,0.2597656 C 8.2908416,7.2074432 8.1457548,7.1919776 8.0664062,7.1113281 8.0446629,7.0283166 8.1116054,6.9603897 8.1015625,6.8847656 8.0937622,6.8240137 8.006807,6.7148173 7.9570312,6.7070312 7.9057443,6.699255 7.8595851,6.7542769 7.8066406,6.75 7.7436533,6.7451398 7.6844047,6.6577982 7.6035156,6.6484375 7.4849609,6.6346347 7.3969332,6.6745242 7.265625,6.65625 7.1385095,6.7240006 7.103057,6.8459112 6.9472656,6.8339844 6.8923711,6.8300962 6.8407601,6.7884158 6.7773438,6.7753906 6.7086036,6.761199 6.6047708,6.735277 6.5332031,6.7402344 6.3897265,6.7499547 6.285354,6.8540576 6.1621094,6.9179688 6.0533635,6.974541 5.8994807,7.0449213 5.8671875,7.1621094 c -0.017746,0.063085 -0.00296,0.150604 -0.025391,0.2089844 -0.014918,0.038395 -0.046418,0.072836 -0.066406,0.109375 -0.094481,0.1723217 -0.1732862,0.4005695 -0.1015625,0.6484374 0.010628,0.036743 0.1038887,0.2452149 0.1425781,0.2871094 0.043487,0.04656 0.1711592,0.1159044 0.2441407,0.1171875 0.06172,9.721e-4 0.1354842,-0.032276 0.1953125,-0.042969 0.069325,-0.012345 0.1557431,-0.013082 0.21875,-0.033203 0.1822246,-0.058225 0.1457054,-0.3038239 0.328125,-0.3867187 0.079661,-0.035965 0.172475,-0.043588 0.3125,-0.050781 0.044462,0.037326 0.064736,0.1032633 0.058594,0.1601563 -0.00488,0.042964 -0.046421,0.081321 -0.068359,0.1425781 -0.019111,0.053656 -0.0221,0.1168426 -0.041016,0.1601563 -0.025058,0.056669 -0.081467,0.099018 -0.1015625,0.1523437 -0.013163,0.034702 -0.0047,0.078056 -0.015625,0.109375 -0.019403,0.055406 -0.094966,0.093381 -0.060547,0.1503906 0.1804695,0.071639 0.3991527,-0.019395 0.5566406,0.00977 0.066497,0.012053 0.2043633,0.091082 0.203125,0.1933593 -8.191e-4,0.076499 -0.060072,0.1252245 -0.068359,0.2089844 -0.010238,0.1052905 -0.053914,0.2350654 -0.058594,0.3203125 -0.0078,0.1396129 0.2046861,0.3808214 0.3535157,0.3789064 0.1602277,-0.0019 0.2542181,-0.1596598 0.4472656,-0.076172 0.06406,0.027606 0.1323861,0.132086 0.203125,0.126954 0.058307,-0.0039 0.1446118,-0.107156 0.1835937,-0.1777353 0.047484,-0.086025 0.050922,-0.1577901 0.1347657,-0.2011718 0.090483,-0.046755 0.1635306,-0.025298 0.2792969,-0.068359 0.051677,-0.019149 0.096001,-0.05181 0.1425781,-0.083984 0.040854,-0.027995 0.08382,-0.1017059 0.1347656,-0.050781 0.067277,0.06707 -0.08243,0.1059206 -0.025391,0.1777344 0.1169166,0.061821 0.1770563,-0.1144949 0.2617187,-0.1171876 0.027009,-8.456e-4 0.1199092,0.052296 0.1679688,0.083984 0.065717,0.043061 0.088228,0.1031514 0.1601562,0.1171875 0.046216,0.00875 0.1205896,-0.016658 0.1855476,-0.00781 0.086,0.012248 0.137953,0.085928 0.203124,0.083984 0.07937,-0.00194 0.117578,-0.088965 0.185547,-0.1015625 0.148771,-0.027217 0.204029,0.016595 0.269532,0.109375 0.07342,0.012734 0.07537,-0.085191 0.142578,-0.050781 -0.03686,0.073291 0.01342,0.1067989 0.04297,0.1679688 0.01911,0.03927 0.01536,0.066974 0.0332,0.083984 0.04017,0.0383 0.118783,0.03894 0.177734,0.07617 0.06221,0.03908 0.09661,0.111515 0.167969,0.19336 0.07342,0.08369 0.196872,0.17162 0.294922,0.177734 0.09263,0.0058 0.167561,-0.02701 0.24414,-0.01758 0.174356,0.02139 0.28231,0.107448 0.404297,0.201171 0.06815,0.0523 0.130464,0.0897 0.152344,0.152344 0.0154,0.04374 0.0078,0.10134 0.02539,0.150389 0.03725,0.104794 0.190118,0.156791 0.134765,0.337892 0.02535,0.05317 0.08147,0.0722 0.142578,0.109375 0.04885,0.02974 0.09161,0.09109 0.144531,0.09961 0.03423,0.0058 0.07192,-0.0095 0.101563,-0.0078 0.09585,0.0068 0.161087,0.04409 0.244141,0.07617 0.05148,0.01983 0.116118,0.02755 0.15039,0.05078 0.0428,0.02887 0.0488,0.124836 0.101563,0.15039 0.03452,0.01672 0.112482,-0.0068 0.169922,0 0.09048,0.0104 0.213194,0.0668 0.294921,0.06836 0.04963,9.73e-4 0.09075,-0.02098 0.134766,-0.01758 0.10233,0.0078 0.182341,0.07237 0.261719,0.144532 -1.015335,1.636863 -2.648938,2.852155 -4.572266,3.316407 C 9.793948,15.209435 9.772746,15.134064 9.769528,15.060559 9.762698,14.90065 9.788237,14.788395 9.761718,14.640637 9.74212,14.528873 9.716147,14.357448 9.67578,14.287121 9.630636,14.208871 9.454566,14.077065 9.3652332,14.027356 9.3062432,13.994696 9.236119,13.982776 9.1718738,13.951186 9.0346191,13.883907 8.7672789,13.741223 8.7070312,13.605469 8.6895781,13.566393 8.6925488,13.514328 8.6738281,13.470703 8.6372643,13.384484 8.5605394,13.309721 8.5058594,13.226562 8.4017547,13.067888 8.317782,12.868924 8.2109375,12.705078 8.1569205,12.621872 8.1100051,12.527211 8.0507812,12.460938 8.0160699,12.421861 7.90488,12.38498 7.890625,12.326172 7.871612,12.248312 7.8131,12.141588 7.822266,12.082031 c 0.012188,-0.08029 0.1682125,-0.143525 0.1679688,-0.216797 -2.73e-4,-0.06221 -0.082147,-0.0995 -0.099609,-0.152343 -0.042512,-0.128561 0.023419,-0.203478 0.074219,-0.310547 0.016771,-0.03519 0.033328,-0.0932 0.050781,-0.119141 0.030909,-0.04627 0.093609,-0.05927 0.1347656,-0.109375 0.023011,-0.02809 0.038328,-0.08527 0.068359,-0.125 0.06406,-0.08496 0.1670041,-0.116676 0.1933594,-0.193359 0.021451,-0.0625 0.035019,-0.375946 0.00977,-0.480469 -0.014625,-0.06056 -0.072202,-0.110668 -0.09375,-0.167969 -0.038124,-0.101528 -0.045672,-0.2131244 -0.1503906,-0.2109372 -0.064645,9.72e-4 -0.1108072,0.074038 -0.1523438,0.1191402 -0.00995,0.05998 -0.00576,0.124265 -0.068359,0.142578 C 7.8611851,10.2861 7.8246786,10.156883 7.7128906,10.123047 7.668429,10.109536 7.59814,10.110098 7.5703125,10.097656 7.4887019,10.061108 7.4629611,9.9427919 7.3769531,9.8964844 7.3049954,9.8580891 7.2428126,9.8715023 7.1992188,9.8125 7.181083,9.7718691 7.1943283,9.6970022 7.1894531,9.6425781 7.0971172,9.5886304 7.0196754,9.3873275 6.9121094,9.3398438 6.8408342,9.3081554 6.7317745,9.3114802 6.6425781,9.28125 6.6006515,9.2670583 6.5672556,9.2496631 6.5234375,9.2402344 6.4694205,9.2281812 6.4148857,9.226074 6.3730469,9.2050781 6.2061694,9.1224555 6.1168154,8.8556029 5.9101562,8.8613281 5.8220129,8.8632722 5.736125,8.9457985 5.65625,8.9453125 5.576882,8.9448751 5.4433402,8.8820604 5.34375,8.8359375 5.2402986,8.7879192 5.1263411,8.762297 5.0410156,8.71875 4.9720805,8.6835625 4.9235191,8.6184986 4.8632812,8.5917969 4.817162,8.5713842 4.7507318,8.5686667 4.7128906,8.5507812 4.6590686,8.525314 4.6021609,8.4703593 4.5351562,8.4238281 4.4715839,8.3798923 4.4028867,8.3127815 4.4003906,8.2558594 4.3974655,8.1899556 4.4619247,8.1336501 4.46875,8.0703125 4.4904933,7.8699671 4.3411044,7.7257861 4.2480469,7.6074219 4.1791118,7.519453 4.0984465,7.444689 4.0292969,7.3632812 c 0.0039,-0.054045 0.0039,-0.063249 0,-0.1171874 -0.05236,-0.05074 -0.09701,-0.1271219 -0.1523438,-0.203125 C 3.8269337,6.9744404 3.731328,6.9010967 3.71875,6.8242188 3.703247,6.7296398 3.754729,6.6484101 3.71875,6.5566406 3.658785,6.4043525 3.445404,6.4724626 3.4726562,6.6738281 c 0.0078,0.055503 0.085701,0.1305202 0.109375,0.1855469 0.024279,0.056086 0.020348,0.1257935 0.042969,0.1933594 0.021743,0.064737 0.086774,0.1204277 0.109375,0.1933594 0.035784,0.1151857 0.035501,0.2385485 0.068359,0.3105468 0.028959,0.06396 0.1340372,0.125693 0.074219,0.203125 C 3.7971951,7.7762902 3.7683501,7.6967079 3.71875,7.6503906 3.691059,7.6246318 3.5894683,7.5755605 3.5742188,7.515625 3.5614457,7.4661486 3.6065199,7.3984579 3.5917969,7.3378906 3.5628383,7.2191667 3.3231139,7.2159246 3.3222656,7.09375 3.3218269,7.0170567 3.4209682,7.00775 3.421875,6.9335938 3.4225283,6.852429 3.311105,6.7836636 3.2871094,6.7148438 3.2651711,6.6517588 3.2620967,6.5516468 3.2539062,6.4628906 3.246106,6.3795875 3.2553413,6.2830207 3.2363281,6.21875 3.21907,6.1609141 3.1319635,6.0818183 3.0761719,6.0507812 3.0023616,6.0097615 2.944338,6.0268684 2.9082031,5.9667969 c -0.031396,-0.05249 -0.051769,-0.1621778 -0.058594,-0.21875 -0.012188,-0.101169 -0.00392,-0.2123393 -0.00977,-0.3203125 -0.00585,-0.1081385 -0.016576,-0.2119187 0,-0.328125 0.041732,-0.081359 0.119588,-0.1205613 0.1621093,-0.2011719 0.029641,-0.056086 0.032963,-0.1258836 0.066406,-0.1855469 C 3.1300792,4.6030025 3.2650438,4.5028545 3.3554688,4.3945312 3.4529724,4.2778389 3.5425502,4.1646419 3.5996094,4.03125 3.6200851,3.9839121 3.6739134,3.8803153 3.6660156,3.8222656 3.6549002,3.7413926 3.5035638,3.6744436 3.515625,3.578125 3.5234253,3.5184423 3.6074908,3.5178798 3.6328125,3.4589844 3.6457805,3.4285598 3.6575206,3.3448991 3.6582031,3.3085938 3.6591782,3.227429 3.6164319,3.1433069 3.6328125,3.0566406 3.646658,2.982669 3.757802,2.9522778 3.7011719,2.8710938 3.6450098,2.7907067 3.5426273,2.913429 3.4804688,2.8613281 3.423429,2.8135042 3.4927817,2.755957 3.4980469,2.6679688 3.4999969,2.6329755 3.4767635,2.5942737 3.4804688,2.5683594 3.4853439,2.5307418 3.5605164,2.4666597 3.5410156,2.4414062 3.5105945,2.4029138 3.477357,2.3257458 3.4296875,2.2636719 4.3697691,1.511689 5.4966836,0.9814186 6.7285156,0.7578125 h 0.00195 c 0.015308,0.0260504 0.026914,0.0569866 0.064453,0.0683594 0.07342,-0.0380064 0.1476266,0.002916 0.2285156,0 0.078783,-0.002916 0.1494914,-0.0389991 0.2363281,-0.0253906 0.153461,0.0240092 0.367367,0.17513819 0.4882813,0.09375 0.030421,-0.0206071 0.023285,-0.0580122 0.050781,-0.11132813 0.021841,-0.0426722 0.055209,-0.0880575 0.076172,-0.140625 0.061135,-0.001944 0.1221761,-0.001953 0.1835938,-0.001953 z"
       style="fill:#008fe0;fill-opacity:1" />
    <path
       style="fill:#00ca56;fill-opacity:1;stroke-width:0.0234828"
       d="M 9.8026846,15.237492 C 9.794108,15.223614 9.784469,15.082486 9.7812648,14.923874 9.7752728,14.627272 9.7304229,14.346467 9.6757029,14.262953 9.6224286,14.181647 9.4090166,14.031494 9.2684116,13.976392 9.1221282,13.919064 8.9060448,13.794217 8.8029256,13.707448 8.763338,13.674137 8.7254598,13.610588 8.7058654,13.544606 8.688191,13.48509 8.629644,13.374417 8.5757612,13.298665 8.5218782,13.222914 8.4218243,13.058229 8.3534191,12.932699 8.1713186,12.598526 8.0935023,12.484421 7.9939182,12.405549 c -0.060522,-0.04793 -0.1002119,-0.103364 -0.1239973,-0.17317 -0.048718,-0.142979 -0.046297,-0.15466 0.0548,-0.264337 0.0858,-0.09308 0.088214,-0.09954 0.054401,-0.145515 -0.01946,-0.02646 -0.050202,-0.08056 -0.068314,-0.120223 -0.031261,-0.06845 -0.029439,-0.08018 0.035899,-0.231086 0.042882,-0.09904 0.1011642,-0.189131 0.1545971,-0.238964 0.047172,-0.04399 0.085767,-0.09104 0.085767,-0.104545 0,-0.01351 0.053494,-0.07762 0.1188762,-0.142486 0.1181529,-0.117212 0.1189724,-0.118958 0.1347191,-0.286997 0.019487,-0.207953 0.00268,-0.32171 -0.064946,-0.439665 -0.028616,-0.04991 -0.059181,-0.115507 -0.067922,-0.145769 -0.021435,-0.07421 -0.075071,-0.1320492 -0.1224499,-0.1320492 -0.059233,0 -0.1743437,0.1073682 -0.1743437,0.1626162 0,0.05547 -0.0381,0.101483 -0.084027,0.101483 -0.017164,0 -0.063901,-0.02871 -0.1038599,-0.06379 C 7.7831588,10.145972 7.712323,10.110822 7.6657045,10.102942 7.56171,10.085373 7.5508036,10.078157 7.4743894,9.9763695 7.4377356,9.9275446 7.380951,9.8845601 7.3324991,9.8689622 7.2182902,9.832195 7.1966988,9.8093377 7.1966988,9.7251988 c 0,-0.053586 -0.026719,-0.1091757 -0.096552,-0.2008814 C 6.9636349,9.3450467 6.9413436,9.3297983 6.7565337,9.2892705 6.3543989,9.2010848 6.3836261,9.2143604 6.2115499,9.041725 6.0088387,8.8383549 5.9785853,8.8298777 5.7261161,8.9057052 5.6409294,8.9312905 5.6180571,8.9294303 5.5060336,8.8878076 5.1654776,8.7612732 5.0429903,8.7069531 4.9560844,8.643919 4.9039391,8.6060972 4.8296613,8.568353 4.7910225,8.5600431 4.7096414,8.5425411 4.538363,8.4231954 4.4586223,8.3284289 L 4.4035693,8.2630021 4.4483859,8.145889 C 4.4865335,8.046203 4.4895538,8.0152255 4.4686824,7.9377149 4.4436675,7.8448169 4.2404522,7.5568326 4.117594,7.4401741 4.072311,7.3971761 4.049519,7.3543751 4.049519,7.3123361 c 0,-0.061565 -0.018297,-0.089678 -0.2357741,-0.3622684 -0.092156,-0.1155108 -0.092641,-0.1170709 -0.07962,-0.2565042 0.011564,-0.1238414 0.0076,-0.145788 -0.033827,-0.1872141 -0.086643,-0.086643 -0.2107043,-0.035776 -0.235533,0.096572 -0.011581,0.061732 -0.00178,0.096104 0.05161,0.1809353 0.036249,0.0576 0.072664,0.1443412 0.080923,0.1927593 0.00826,0.048418 0.039748,0.1259253 0.069977,0.1722382 0.030228,0.046313 0.067874,0.1519758 0.083657,0.2348065 0.015783,0.082831 0.049807,0.1847597 0.075609,0.2265082 0.044252,0.071601 0.061998,0.1477401 0.034435,0.1477401 -0.00686,0 -0.071989,-0.051995 -0.1447233,-0.1155433 C 3.5846081,7.5273486 3.5840622,7.5263716 3.5963555,7.4277854 3.6114509,7.3067288 3.6043521,7.2950662 3.4663051,7.2141247 3.3399476,7.1400372 3.3235782,7.0991487 3.3876605,7.0176814 3.4491842,6.9394667 3.4453048,6.902187 3.3655768,6.8054631 3.2939799,6.7186038 3.2585734,6.5651526 3.257664,6.3377719 3.2570342,6.1803079 3.1985834,6.1040737 3.0050128,6.0082531 2.8870737,5.9498714 2.8703638,5.8911864 2.8511812,5.4679989 L 2.8356706,5.1258188 2.9252748,5.0173852 C 2.9745572,4.9577468 3.0308841,4.860765 3.0504459,4.80187 3.0759692,4.7250267 3.1337222,4.6440775 3.2549651,4.515207 3.4464804,4.3116437 3.5431446,4.1785666 3.6210627,4.0112035 3.6932469,3.8561565 3.6895534,3.8064447 3.5983494,3.7054926 3.5049485,3.6021091 3.5030191,3.5761413 3.5842748,3.5160665 3.6606395,3.4596076 3.6862571,3.3379455 3.6530145,3.1896106 3.6332697,3.1015054 3.6361476,3.0786073 3.6748322,3.0160143 3.75839,2.880815 3.7105056,2.7990596 3.5774012,2.8496658 c -0.032876,0.012499 -0.068864,0.017109 -0.079973,0.010243 -0.023716,-0.014657 -0.00637,-0.2275061 0.028036,-0.3439998 0.020634,-0.069867 0.017441,-0.092082 -0.023114,-0.1608179 -0.02588,-0.043864 -0.047055,-0.084159 -0.047055,-0.089543 0,-0.00538 0.096561,-0.081458 0.2145805,-0.1690516 0.6663632,-0.4945728 1.5167781,-0.9173047 2.305365,-1.14597202 0.4616757,-0.13387253 0.710319,-0.18291036 0.7624286,-0.15036735 0.031459,0.0196462 0.1227717,0.0264918 0.301593,0.0226101 0.2329241,-0.005056 0.273133,1.8685e-4 0.4379092,0.0571011 0.224322,0.0774818 0.2598369,0.0661197 0.3464075,-0.11082413 l 0.061907,-0.12653303 0.398385,0.0145286 c 0.3378797,0.012322 0.6942479,0.0488009 1.129705,0.11563984 0.089555,0.0137459 0.1114489,0.0526299 0.029634,0.0526299 -0.021862,0 -0.066659,0.0211671 -0.099549,0.047038 -0.055368,0.0435522 -0.075975,0.0459239 -0.2780712,0.0320048 -0.2217552,-0.0152731 -0.2510526,-0.005489 -0.1789522,0.0597605 0.085815,0.0776611 0.1962077,0.10328749 0.4449411,0.10328749 0.2656977,0 0.245578,0.00839 0.3807865,-0.1587287 0.046527,-0.0575063 0.052122,-0.0587805 0.1528341,-0.0348066 0.1058652,0.0252007 0.1316732,0.0524549 0.071527,0.0755352 -0.018157,0.006967 -0.033012,0.0314159 -0.033012,0.0543299 0,0.055619 0.075333,0.054612 0.1873617,-0.0025 l 0.08663,-0.0441652 0.143611,0.0466323 c 0.07899,0.025648 0.271249,0.096359 0.427251,0.1571352 0.216557,0.084368 0.275086,0.1152901 0.24747,0.1307446 -0.02462,0.013781 -0.05174,0.00933 -0.08496,-0.013933 -0.069,-0.048331 -0.12703,-0.04371 -0.12703,0.010115 0,0.029317 0.03906,0.069421 0.115543,0.1186278 0.06355,0.040886 0.138157,0.098699 0.165795,0.1284729 0.0457,0.049227 0.04703,0.056807 0.01474,0.083605 -0.02926,0.024288 -0.04778,0.024477 -0.105272,0.00107 -0.130076,-0.052949 -0.165847,-0.052102 -0.278073,0.00658 -0.125298,0.065517 -0.18161,0.071786 -0.220786,0.024582 -0.02263,-0.027264 -0.01362,-0.048118 0.05232,-0.1211088 0.0728,-0.080582 0.099,-0.1320633 0.06721,-0.1320633 -0.0068,0 -0.08659,0.034256 -0.177208,0.076125 -0.09062,0.041869 -0.218055,0.085976 -0.283192,0.098018 -0.06514,0.012041 -0.1710866,0.050865 -0.2354458,0.086276 -0.064359,0.035411 -0.1665349,0.076108 -0.2270576,0.090439 -0.1139061,0.026971 -0.5217903,0.2311243 -0.6388835,0.3197719 -0.036668,0.02776 -0.086187,0.08705 -0.1100413,0.1317546 l -0.043372,0.081282 0.051966,0.042357 c 0.042723,0.034822 0.049498,0.055515 0.038089,0.1163299 -0.017913,0.095484 0.012965,0.1204174 0.1491279,0.1204174 0.090892,0 0.1290742,0.015076 0.2530498,0.099912 0.1885238,0.1290063 0.2435812,0.149594 0.4428936,0.165612 0.1921549,0.015443 0.2206269,0.052594 0.1204435,0.1571632 -0.037907,0.039567 -0.054822,0.075799 -0.046054,0.098649 0.00762,0.019863 -9.948e-4,0.057321 -0.01915,0.08324 -0.044705,0.063826 -0.041524,0.108602 0.012606,0.1774169 0.1136213,0.1444461 0.3511824,0.0072 0.3825714,-0.2210196 0.0086,-0.062555 0.0272,-0.1280352 0.04132,-0.1455124 0.01412,-0.017477 0.09824,-0.043222 0.186934,-0.057212 0.378863,-0.059758 0.541548,-0.2336029 0.537773,-0.5746638 -0.0014,-0.1273161 0.0069,-0.1751275 0.03653,-0.2090784 0.0211,-0.024209 0.08048,-0.1083907 0.131967,-0.1870702 0.05148,-0.07868 0.107861,-0.1511122 0.125282,-0.1609615 0.01819,-0.010284 0.08396,-0.00271 0.154501,0.017799 0.08582,0.024947 0.158655,0.03123 0.24173,0.02085 0.11578,-0.014466 0.120784,-0.012804 0.190465,0.06327 0.03936,0.042969 0.09869,0.088443 0.13186,0.1010519 0.06763,0.025715 0.07565,0.06133 0.02799,0.124348 -0.06375,0.084285 -0.03826,0.1929192 0.0568,0.2420761 0.09361,0.048407 0.251844,-7.313e-4 0.375886,-0.116726 l 0.05924,-0.055399 0.116823,0.09282 c 0.129932,0.1032355 0.15445,0.1646035 0.134172,0.3358246 -0.01585,0.1337936 0.02789,0.204086 0.149692,0.2405783 0.0496,0.014862 0.10659,0.050753 0.126636,0.079759 0.02005,0.029006 0.06368,0.085413 0.09697,0.1253498 0.0744,0.089267 0.07499,0.1123145 0.0055,0.2145829 -0.03026,0.044534 -0.05502,0.1009023 -0.05502,0.1252637 0,0.024361 -0.02563,0.06806 -0.05696,0.097107 -0.07214,0.066889 -0.06584,0.1506767 0.01294,0.1721743 0.18822,0.051362 0.187259,0.050737 0.18278,0.1187777 -0.0024,0.035843 -0.0051,0.080024 -0.0062,0.098181 -10e-4,0.018157 0.0042,0.063287 0.01167,0.1002889 0.0096,0.047828 0.0032,0.075868 -0.02227,0.096994 -0.03065,0.025442 -0.04574,0.022373 -0.104855,-0.021333 -0.06877,-0.050844 -0.341937,-0.1073611 -0.527537,-0.1091444 -0.04468,-4.292e-4 -0.08641,-0.00915 -0.09273,-0.019385 -0.01185,-0.01917 0.219364,-0.2684987 0.367805,-0.3966246 0.174339,-0.1504797 0.02091,-0.1797645 -0.237859,-0.045401 -0.167996,0.08723 -0.182623,0.090821 -0.31912,0.078344 -0.166479,-0.015217 -0.272146,0.00697 -0.282219,0.059247 -0.0039,0.020312 0.0016,0.036932 0.0123,0.036932 0.01068,0 0.03864,0.014541 0.06214,0.032313 0.04034,0.030509 0.03862,0.032351 -0.03072,0.033012 -0.06188,5.899e-4 -0.07741,-0.00983 -0.09869,-0.0662 -0.02763,-0.073193 -0.0817,-0.09648 -0.224019,-0.09648 -0.132635,0 -0.204527,0.025931 -0.245575,0.088578 -0.03162,0.048251 -0.03246,0.059636 -0.0058,0.077583 0.0172,0.011568 0.06845,0.016612 0.113888,0.011209 0.102649,-0.012207 0.170479,0.00431 0.170479,0.041515 0,0.0156 -0.03466,0.069852 -0.07703,0.1205607 -0.08645,0.1034738 -0.100259,0.1991316 -0.04097,0.2837837 0.03135,0.044764 0.04847,0.049786 0.131092,0.038462 0.05312,-0.00728 0.100877,-0.00356 0.10829,0.00843 0.02361,0.03821 0.07348,0.022925 0.15301,-0.046901 0.07799,-0.068475 0.14376,-0.073444 0.14376,-0.010861 0,0.068023 -0.149979,0.1364294 -0.532811,0.2430189 -0.06911,0.019242 -0.174855,0.065568 -0.234983,0.102946 -0.06013,0.037378 -0.119951,0.061393 -0.132939,0.053366 -0.04163,-0.025729 -0.0253,-0.093864 0.03141,-0.1310182 0.06531,-0.042789 0.07252,-0.101061 0.01252,-0.101061 -0.04024,0 -0.487751,0.1578665 -0.668865,0.2359535 -0.112648,0.048568 -0.168965,0.1246251 -0.168965,0.2281906 0,0.080154 -0.0038,0.084675 -0.08253,0.097109 -0.04539,0.00717 -0.133399,0.036673 -0.195571,0.065555 -0.06217,0.028883 -0.148438,0.059155 -0.191704,0.067272 C 10.018541,5.050757 9.9750046,5.07961 9.935774,5.131044 9.90407,5.172609 9.838921,5.2313699 9.7909974,5.2616227 9.7430734,5.2918757 9.6949554,5.3400577 9.6840676,5.368695 9.6575896,5.438339 9.6218896,5.457321 9.5319591,5.449573 l -0.075211,-0.00648 0.013599,0.1456283 c 0.00748,0.080096 0.00518,0.1676424 -0.0051,0.1945486 -0.019932,0.052139 -0.2973742,0.2275244 -0.4639358,0.2932769 -0.05447,0.021503 -0.1599604,0.08426 -0.2344224,0.1394606 -0.074462,0.0552 -0.1750968,0.1276105 -0.2236332,0.1609116 -0.052199,0.035814 -0.1079192,0.1011825 -0.1364031,0.1600224 -0.041495,0.085717 -0.046163,0.1214796 -0.033754,0.2585724 0.00792,0.087504 0.024682,0.2121505 0.037248,0.2769934 0.015295,0.078926 0.015542,0.1252014 7.461e-4,0.1399969 -0.028689,0.028689 -0.310571,-0.063185 -0.3272546,-0.1066617 -0.00658,-0.017158 -0.00145,-0.072669 0.01142,-0.1233553 C 8.1396065,6.808022 8.0190389,6.6639084 7.8744559,6.7184825 7.8153886,6.740778 7.7951707,6.7369778 7.7112737,6.6878107 7.6234005,6.6363136 7.6001004,6.6326112 7.4284261,6.6428639 7.2539667,6.6532831 7.2348554,6.659351 7.1452547,6.732772 7.0924076,6.7760764 7.0254167,6.8125949 6.9963862,6.8139244 6.9673556,6.8152537 6.8594218,6.7940956 6.7565333,6.7669062 6.5249763,6.7057149 6.4743373,6.7163413 6.1834566,6.8871641 5.9205143,7.04158 5.8651651,7.1008191 5.8479397,7.2462611 c -0.0074,0.062504 -0.042459,0.1634868 -0.079603,0.2293023 -0.0931,0.1649639 -0.1425681,0.3725497 -0.1261691,0.5294483 0.015485,0.1481545 0.1387539,0.4112022 0.2160398,0.4610155 0.1193374,0.076917 0.195669,0.087343 0.369797,0.050508 C 6.5474091,8.4489692 6.5563442,8.4440702 6.6441356,8.28836 6.6877976,8.210919 6.7489891,8.1285994 6.7801169,8.1054263 c 0.067518,-0.050263 0.3045099,-0.088849 0.3450546,-0.056179 0.036434,0.029358 0.034984,0.1363832 -0.00285,0.2104425 -0.016699,0.032686 -0.037591,0.094093 -0.046427,0.1364587 -0.00884,0.042366 -0.038169,0.10674 -0.065186,0.1430536 -0.027017,0.036314 -0.055985,0.095736 -0.064375,0.1320495 -0.00839,0.036314 -0.032221,0.098587 -0.052959,0.1383844 -0.054428,0.1044514 -0.021498,0.1163394 0.3033245,0.1094994 0.2559501,-0.00539 0.2799923,-0.00231 0.3453284,0.044297 0.095008,0.067768 0.1039353,0.1109976 0.054024,0.2616179 -0.023412,0.070651 -0.054744,0.1982486 -0.069628,0.2835495 -0.025124,0.1439865 -0.023768,0.1615469 0.018922,0.245228 0.051662,0.1012664 0.1998416,0.2381962 0.2793638,0.2581552 0.02886,0.0072 0.094963,-0.0025 0.1468945,-0.021599 0.263163,-0.096905 0.2879166,-0.096212 0.4239192,0.01187 0.046039,0.03659 0.1013909,0.06652 0.1230044,0.06652 0.054807,0 0.1741238,-0.1250781 0.2215126,-0.2322084 0.056123,-0.1268762 0.1039404,-0.1616757 0.2599023,-0.1891479 0.090157,-0.015881 0.1747233,-0.049539 0.2474733,-0.098496 0.1458109,-0.098123 0.1903393,-0.094177 0.124627,0.011045 -0.061969,0.099229 0.066611,0.1569477 0.1483718,0.066603 0.078798,-0.087071 0.1121608,-0.091976 0.2151414,-0.031625 0.052617,0.030836 0.1135126,0.075784 0.1353237,0.099885 0.031299,0.034585 0.067927,0.043851 0.1737976,0.043965 0.09683,1.101e-4 0.152502,0.012306 0.200165,0.043871 0.08589,0.056879 0.116203,0.055319 0.213806,-0.011004 0.106963,-0.072683 0.215852,-0.072829 0.284572,-3.808e-4 0.05373,0.056644 0.116264,0.071575 0.139862,0.033393 0.0075,-0.012105 0.02351,-0.022008 0.03561,-0.022008 0.0121,0 0.017,0.0081 0.01088,0.018009 -0.0061,0.00991 0.01179,0.067481 0.0398,0.127947 0.04307,0.092965 0.06621,0.1157721 0.149874,0.1477221 0.07261,0.02773 0.125424,0.07189 0.198457,0.165935 0.13942,0.179533 0.282848,0.25016 0.469239,0.231064 0.161391,-0.01653 0.259832,0.01093 0.422009,0.117747 0.179358,0.118132 0.239004,0.183388 0.256909,0.281075 0.0089,0.04837 0.05126,0.139327 0.09422,0.202131 0.05567,0.08139 0.07442,0.128852 0.06529,0.165245 -0.0164,0.06534 -0.0065,0.07833 0.139412,0.182095 0.09386,0.06677 0.143288,0.08683 0.220083,0.08933 0.05447,0.0018 0.17432,0.03035 0.266332,0.0635 0.143382,0.05166 0.172431,0.07104 0.203221,0.135609 0.03416,0.07163 0.04162,0.07535 0.151823,0.07557 0.06374,1.33e-4 0.165419,0.01551 0.225942,0.03417 0.06884,0.02123 0.144874,0.0289 0.20307,0.0205 0.10091,-0.01457 0.214466,0.02551 0.281206,0.09926 0.03527,0.03897 0.02909,0.05279 -0.124547,0.278556 -0.972118,1.428516 -2.390065,2.465355 -4.043826,2.956946 -0.3305763,0.09827 -0.3239805,0.09708 -0.3454064,0.06241 z"
       id="path3215" />
  </g>
</svg>
