<svg xmlns="http://www.w3.org/2000/svg" viewBox="0 0 32 32">
  <defs>
    <linearGradient id="background" x1="0" y1="0%" x2="0" y2="100%">
      <stop offset="0%" style="stop-color:#4CAF50"/> <!-- Green 500 -->
      <stop offset="100%" style="stop-color:#388E3C"/> <!-- Green 700 -->
    </linearGradient>
    <style type="text/css">
      .symbol { fill: white }
    </style>
  </defs>
  <circle style="fill:url(#background)" cx="16" cy="16" r="13"/>
  <g class="symbol" transform="scale(0.5)">
    <path d="m 42.69,27.52 c -0.84,1.4 -1.92,2.84 -3.56,4.36 -1.28,1.2 -2.12,2.24 -2.6,3.08 -0.4,0.76 -0.64,1.96 -0.64,2.76 v 0.4 c 0,1.08 -0.96,1.88 -2.04,1.88 h -3.4 c -1.12,0 -2,-0.88 -2,-2 v -0.64 c 0,-1.8 0.4,-3.36 1.16,-4.64 0.76,-1.32 2.08,-2.8 4,-4.48 1.12,-1 1.92,-1.88 2.44,-2.64 0.52,-0.76 0.76,-1.6 0.76,-2.56 0,-1.16 -0.44,-2.16 -1.28,-2.96 -0.88,-0.8 -2,-1.2 -3.4,-1.2 -1.48,0 -2.96,0.4 -3.84,1.2 -0.48,0.48 -0.84,0.92 -1.16,1.52 0,0.28 -0.4,0.84 -0.4,1.04 -0.4,0.68 -0.96,1.36 -1.88,1.36 h -2.76 c -1.04,0 -1.88,-0.76 -2,-1.8 0,-0.32 0,-0.64 0.1,-0.96 0.72,-2.88 2.08,-4.64 3.6,-6.08 2.24,-2 5.12,-3.16 8.12,-3.16 2.36,0 4.44,0.48 6.28,1.4 1.84,0.92 3.16,2.2 4.2,3.84 1,1.64 1.52,3.4 1.52,5.4 0,1.96 -0.44,3.6 -1.24,5"/>
    <circle cx="32" cy="48" r="4"/>
  </g>
</svg>
