<svg xmlns="http://www.w3.org/2000/svg" viewBox="0 0 32 32">
  <defs>
    <linearGradient id="surface-left" x1="0" y1="0%" x2="100%" y2="100%">
      <stop offset="0%" style="stop-color:#EF9A9A"/> <!-- Red 200 -->
      <stop offset="100%" style="stop-color:#EF5350"/> <!-- Red 400 -->
    </linearGradient>
    <linearGradient id="border-left" x1="0" y1="0%" x2="100%" y2="100%">
      <stop offset="0%" style="stop-color:#FFEBEE"/> <!-- Red 50 -->
      <stop offset="100%" style="stop-color:#EF9A9A"/> <!-- Red 200 -->
    </linearGradient>
    <linearGradient id="surface-right" x1="0" y1="0%" x2="100%" y2="100%">
      <stop offset="0%" style="stop-color:#F44336"/> <!-- Red 500 -->
      <stop offset="100%" style="stop-color:#D32F2F"/> <!-- Red 700 -->
    </linearGradient>
    <linearGradient id="border-right" x1="0" y1="0%" x2="100%" y2="100%">
      <stop offset="0%" style="stop-color:#EF9A9A"/> <!-- Red 200 -->
      <stop offset="100%" style="stop-color:#EF5350"/> <!-- Red 400 -->
    </linearGradient>
  </defs>
  <path style="fill:url(#surface-left)" d="M 16,3 l -11,3.67 v 9.33 a 11,13 0 0 0 11,13"/>
  <path style="fill:url(#surface-right)" d="M 16,3 l 11,3.67 v 9.33 a 11,13 0 0 1 -11,13"/>
  <path style="fill:url(#border-left)" d="M 16,5 v -2 l -11,3.67 v 9.33 a 11,13 0 0 0 11,13 v -2 a 9,11 0 0 1 -9,-11 v -8"/>
  <path style="fill:url(#border-right)" d="M 16,5 v -2 l 11,3.67 v 9.33 a 11,13 0 0 1 -11,13 v -2 a 9,11 0 0 0 9,-11 v -8"/>
</svg>
