<?xml version="1.0" encoding="UTF-8" standalone="no"?>
<svg
   viewBox="0 0 22 22"
   version="1.1"
   id="svg11"
   sodipodi:docname="folder-remote2.svg"
   inkscape:version="1.1.2 (0a00cf5339, 2022-02-04)"
   xmlns:inkscape="http://www.inkscape.org/namespaces/inkscape"
   xmlns:sodipodi="http://sodipodi.sourceforge.net/DTD/sodipodi-0.dtd"
   xmlns="http://www.w3.org/2000/svg"
   xmlns:svg="http://www.w3.org/2000/svg">
  <sodipodi:namedview
     id="namedview13"
     pagecolor="#ffffff"
     bordercolor="#666666"
     borderopacity="1.0"
     inkscape:pageshadow="2"
     inkscape:pageopacity="0.0"
     inkscape:pagecheckerboard="0"
     showgrid="false"
     inkscape:zoom="32.212349"
     inkscape:cx="11.393146"
     inkscape:cy="10.384216"
     inkscape:window-width="1920"
     inkscape:window-height="991"
     inkscape:window-x="1920"
     inkscape:window-y="32"
     inkscape:window-maximized="1"
     inkscape:current-layer="svg11" />
  <defs
     id="defs7">
    <linearGradient
       id="symbol"
       x1="0"
       y1="0"
       x2="0"
       y2="22"
       gradientUnits="userSpaceOnUse">
      <stop
         offset="0%"
         style="stop-color:#E0E0E0"
         id="stop2" />
      <!-- Gray 300 -->
      <stop
         offset="100%"
         style="stop-color:#BDBDBD"
         id="stop4" />
      <!-- Gray 400 -->
    </linearGradient>
  </defs>
  <path
     style="fill:url(#symbol)"
     d="m 5,8 c -5.33333102,0 -5.33333102,8 0,8 5.333331,0 5.333331,-8 0,-8 M 19,1 c -5.333331,0 -5.333331,8 0,8 5.333331,0 5.333331,-8 0,-8 m 0,14 c -5.333331,0 -5.333331,8 0,8 5.333331,0 5.333331,-8 0,-8 M 18.17,4.287 4.926,10.912 c 0.4186545,0.532208 0.7248445,1.143907 0.9,1.798 L 19.07,6.088 C 18.650985,5.5549025 18.344778,4.9421485 18.17,4.287 Z M 5.83,11.29 c -0.1749037,0.654797 -0.481105,1.267199 -0.9,1.8 l 13.24,6.62 c 0.174904,-0.654797 0.481105,-1.267199 0.9,-1.8 z"
     id="path9"
     sodipodi:nodetypes="csccsccsccccccccccc"
     transform="translate(-1,-1)" />
</svg>
