<svg xmlns="http://www.w3.org/2000/svg" viewBox="0 0 22 22">
  <defs>
    <linearGradient id="symbol" x1="0" y1="0" x2="0" y2="22" gradientUnits="userSpaceOnUse">
      <stop offset="0%" style="stop-color:#E0E0E0"/> <!-- Gray 300 -->
      <stop offset="100%" style="stop-color:#BDBDBD"/> <!-- Gray 400 -->
    </linearGradient>
  </defs>
  <path style="fill:url(#symbol)" transform="translate(-1,-1)"
        d="M 17.72 4.143 L 18.69 6.475 L 18.65 6.492 A 8 2.667 0 0 1 19.82 7.41 L 20 6 A 8 2.667 0 0 0 17.72 4.143 z
           M 6.258 4.146 A 8 2.667 0 0 0 4 6 L 4.18 7.41 A 8 2.667 0 0 1 5.654 6.354 A 2 2 0 0 1 6.258 4.146 z
           M 4,6 a 8,2.667 0 0 0 16,0 l -1.75,14 c -0.4125,3.3 -12.0875,3.3 -12.5,0
           M 14.9 1.623 A 1 1 0 0 0 14.55 1.697 L 7.154 4.76 A 1 1 0 0 0 6.613 6.064 L 7.039 7.094 A 8 2.667 0 0 0 17.76 6.846 L 15.85 2.238 A 1 1 0 0 0 14.9 1.623 z"/>
</svg>
