<?xml version="1.0" encoding="UTF-8" standalone="no"?>
<svg
   viewBox="0 0 64 64"
   version="1.1"
   id="svg19"
   sodipodi:docname="user-desktop2.svg"
   inkscape:version="1.1.2 (0a00cf5339, 2022-02-04)"
   xmlns:inkscape="http://www.inkscape.org/namespaces/inkscape"
   xmlns:sodipodi="http://sodipodi.sourceforge.net/DTD/sodipodi-0.dtd"
   xmlns:xlink="http://www.w3.org/1999/xlink"
   xmlns="http://www.w3.org/2000/svg"
   xmlns:svg="http://www.w3.org/2000/svg">
  <sodipodi:namedview
     id="namedview21"
     pagecolor="#ffffff"
     bordercolor="#666666"
     borderopacity="1.0"
     inkscape:pageshadow="2"
     inkscape:pageopacity="0.0"
     inkscape:pagecheckerboard="0"
     showgrid="false"
     inkscape:snap-global="false"
     inkscape:zoom="13.586561"
     inkscape:cx="32.605749"
     inkscape:cy="36.76427"
     inkscape:window-width="1920"
     inkscape:window-height="991"
     inkscape:window-x="1920"
     inkscape:window-y="32"
     inkscape:window-maximized="1"
     inkscape:current-layer="svg19" />
  <defs
     id="defs9">
    <linearGradient
       inkscape:collect="always"
       id="linearGradient3934">
      <stop
         style="stop-color:#1e88e5;stop-opacity:1;"
         offset="0"
         id="stop3930" />
      <stop
         style="stop-color:#62aeff;stop-opacity:1"
         offset="1"
         id="stop3932" />
    </linearGradient>
    <linearGradient
       inkscape:collect="always"
       id="linearGradient930">
      <stop
         style="stop-color:#ffffff;stop-opacity:1;"
         offset="0"
         id="stop926" />
      <stop
         style="stop-color:#ffffff;stop-opacity:0;"
         offset="1"
         id="stop928" />
    </linearGradient>
    <linearGradient
       id="desktop"
       x1="27.961401"
       y1="59.17643"
       x2="27.961401"
       y2="13.782899"
       xlink:href="#linearGradient930"
       gradientTransform="scale(1.1401754,0.87705802)"
       gradientUnits="userSpaceOnUse">
      <stop
         offset="0%"
         style="stop-color:#1E88E5"
         id="stop2" />
      <!-- Blue 600 -->
      <stop
         offset="100%"
         style="stop-color:#3299ff;stop-opacity:1"
         id="stop4" />
      <!-- Blue 700 -->
    </linearGradient>
    <style
       type="text/css"
       id="style7">
      .desktop { fill: url(#desktop) }
      .panel { fill: #90CAF9 /* Blue 200 */ }
      .lighten { fill: white; fill-opacity: 0.125 }
      .darken { fill:black; fill-opacity: 0.125 }
    </style>
    <linearGradient
       inkscape:collect="always"
       xlink:href="#linearGradient3934"
       id="linearGradient3936"
       x1="30.91646"
       y1="52.006737"
       x2="30.91646"
       y2="12.052926"
       gradientUnits="userSpaceOnUse" />
  </defs>
  <rect
     class="desktop"
     x="6"
     y="12"
     width="52"
     height="40"
     rx="2.67"
     ry="2.67"
     id="rect11"
     style="fill-opacity:1;fill:url(#linearGradient3936);opacity:1" />
  <path
     class="panel"
     d="m 24.733231,46.638849 a 1.4555343,1.4555343 0 0 0 -1.455534,1.455534 V 51 h 17.444606 v -2.905617 a 1.4555343,1.4555343 0 0 0 -1.455534,-1.455534"
     id="path13"
     style="stroke-width:0.545144" />
  <path
     class="lighten"
     d="m 8.67,12 a 2.67,2.67 0 0 0 -2.67,2.67 a 2.67,1.67 0 0 1 2.67,-1.67 h 46.66 a 2.67,1.67 0 0 1 2.67,1.67 a 2.67,2.67 0 0 0 -2.67,-2.67"
     id="path15" />
  <path
     class="darken"
     d="m 8.67,51 a 2.67,1.67 0 0 1 -2.67,-1.67 a 2.67,2.67 0 0 0 2.67,2.67 h 46.66 a 2.67,2.67 0 0 0 2.67,-2.67 a 2.67,1.67 0 0 1 -2.67,1.67"
     id="path17" />
  <path
     sodipodi:type="star"
     style="opacity:1;fill:#ffffff;fill-opacity:1;fill-rule:evenodd;stroke:#000000;stroke-width:0;stroke-linecap:round;stroke-linejoin:round;stroke-miterlimit:4;stroke-dasharray:none"
     id="path966"
     inkscape:flatsided="false"
     sodipodi:sides="8"
     sodipodi:cx="26.292652"
     sodipodi:cy="48.819552"
     sodipodi:r1="1.6435717"
     sodipodi:r2="0.82178587"
     sodipodi:arg1="1.5707963"
     sodipodi:arg2="1.9634954"
     inkscape:rounded="0"
     inkscape:randomized="0"
     d="m 26.292652,50.463125 -0.314484,-0.88434 -0.847697,0.402949 0.40295,-0.847697 -0.884341,-0.314484 0.884341,-0.314483 -0.40295,-0.847697 0.847697,0.402949 0.314484,-0.88434 0.314484,0.88434 0.847697,-0.402949 -0.40295,0.847697 0.884341,0.314483 -0.884341,0.314484 0.40295,0.847697 -0.847697,-0.402949 z" />
  <path
     sodipodi:type="star"
     style="opacity:1;fill:#ffffff;fill-opacity:1;fill-rule:evenodd;stroke:#000000;stroke-width:0;stroke-linecap:round;stroke-linejoin:round;stroke-miterlimit:4;stroke-dasharray:none"
     id="path1128"
     inkscape:flatsided="false"
     sodipodi:sides="8"
     sodipodi:cx="30.025377"
     sodipodi:cy="48.819552"
     sodipodi:r1="1.6435717"
     sodipodi:r2="0.82178587"
     sodipodi:arg1="1.5707963"
     sodipodi:arg2="1.9634954"
     inkscape:rounded="0"
     inkscape:randomized="0"
     d="m 30.025377,50.463125 -0.314484,-0.88434 -0.847696,0.402949 0.402949,-0.847697 -0.88434,-0.314484 0.88434,-0.314483 -0.402949,-0.847697 0.847696,0.402949 0.314484,-0.88434 0.314484,0.88434 0.847697,-0.402949 -0.40295,0.847697 0.884341,0.314483 -0.884341,0.314484 0.40295,0.847697 -0.847697,-0.402949 z" />
  <path
     sodipodi:type="star"
     style="opacity:1;fill:#ffffff;fill-opacity:1;fill-rule:evenodd;stroke:#000000;stroke-width:0;stroke-linecap:round;stroke-linejoin:round;stroke-miterlimit:4;stroke-dasharray:none"
     id="path1130"
     inkscape:flatsided="false"
     sodipodi:sides="8"
     sodipodi:cx="33.68222"
     sodipodi:cy="48.819552"
     sodipodi:r1="1.6435717"
     sodipodi:r2="0.82178587"
     sodipodi:arg1="1.5707963"
     sodipodi:arg2="1.9634954"
     inkscape:rounded="0"
     inkscape:randomized="0"
     d="m 33.682221,50.463125 -0.314484,-0.88434 -0.847697,0.402949 0.402949,-0.847697 -0.88434,-0.314484 0.88434,-0.314483 -0.402949,-0.847697 0.847697,0.402949 0.314483,-0.88434 0.314484,0.88434 0.847697,-0.402949 -0.402949,0.847697 0.88434,0.314483 -0.88434,0.314484 0.402949,0.847697 -0.847697,-0.402949 z" />
  <path
     sodipodi:type="star"
     style="opacity:1;fill:#ffffff;fill-opacity:1;fill-rule:evenodd;stroke:#000000;stroke-width:0;stroke-linecap:round;stroke-linejoin:round;stroke-miterlimit:4;stroke-dasharray:none"
     id="path1132"
     inkscape:flatsided="false"
     sodipodi:sides="8"
     sodipodi:cx="37.707348"
     sodipodi:cy="48.819297"
     sodipodi:r1="1.6435717"
     sodipodi:r2="0.82178587"
     sodipodi:arg1="1.5707963"
     sodipodi:arg2="1.9634954"
     inkscape:rounded="0"
     inkscape:randomized="0"
     d="m 37.707348,50.46287 -0.314484,-0.884341 -0.847697,0.40295 0.40295,-0.847697 -0.884341,-0.314484 0.884341,-0.314484 -0.40295,-0.847697 0.847697,0.40295 0.314484,-0.884341 0.314484,0.884341 0.847697,-0.40295 -0.40295,0.847697 0.884341,0.314484 -0.884341,0.314484 0.40295,0.847696 -0.847697,-0.402949 z" />
</svg>
