<?xml version="1.0" encoding="UTF-8" standalone="no"?>
<svg
   viewBox="0 0 64 64"
   version="1.1"
   id="svg21"
   sodipodi:docname="folder-linux.svg"
   inkscape:version="1.1.2 (0a00cf5339, 2022-02-04)"
   inkscape:export-filename="/home/josh/.icons/Joyful/places/64x64/folder-blue.png"
   inkscape:export-xdpi="96"
   inkscape:export-ydpi="96"
   xmlns:inkscape="http://www.inkscape.org/namespaces/inkscape"
   xmlns:sodipodi="http://sodipodi.sourceforge.net/DTD/sodipodi-0.dtd"
   xmlns:xlink="http://www.w3.org/1999/xlink"
   xmlns="http://www.w3.org/2000/svg"
   xmlns:svg="http://www.w3.org/2000/svg">
  <sodipodi:namedview
     id="namedview23"
     pagecolor="#ffffff"
     bordercolor="#666666"
     borderopacity="1.0"
     inkscape:pageshadow="2"
     inkscape:pageopacity="0.0"
     inkscape:pagecheckerboard="0"
     showgrid="false"
     inkscape:zoom="10.458875"
     inkscape:cx="14.533112"
     inkscape:cy="29.974544"
     inkscape:window-width="1920"
     inkscape:window-height="991"
     inkscape:window-x="1920"
     inkscape:window-y="32"
     inkscape:window-maximized="1"
     inkscape:current-layer="svg21"
     inkscape:snap-global="false" />
  <defs
     id="defs9">
    <linearGradient
       id="folder-front"
       x1="0%"
       y1="0%"
       x2="0%"
       y2="100%">
      <stop
         offset="0%"
         style="stop-color:#90CAF9"
         id="stop2" />
      <!-- Blue 200 -->
      <stop
         offset="100%"
         style="stop-color:#64B5F6"
         id="stop4" />
      <!-- Blue 300 -->
    </linearGradient>
    <style
       type="text/css"
       id="style7">
      .folder-back { fill: #2196F3 /* Blue 500 */ }
      .folder-front { fill: url(#folder-front) }
      .lighten { fill: white; fill-opacity: 0.125 }
      .darken { fill: black; fill-opacity: 0.125 }
    </style>
    <style
       id="current-color-scheme"
       type="text/css">.ColorScheme-Text { color:#dedede; } .ColorScheme-Text { color:#dedede; }</style>
    <linearGradient
       inkscape:collect="always"
       xlink:href="#folder-front"
       id="linearGradient1006"
       x1="4.7067872"
       y1="28.044607"
       x2="4.7067872"
       y2="68.836763"
       gradientTransform="scale(1.2747549,0.78446454)"
       gradientUnits="userSpaceOnUse" />
    <linearGradient
       inkscape:collect="always"
       xlink:href="#folder-front"
       id="linearGradient1008"
       x1="4.7067872"
       y1="28.044607"
       x2="4.7067872"
       y2="68.836763"
       gradientTransform="scale(1.2747549,0.78446454)"
       gradientUnits="userSpaceOnUse" />
    <style
       id="current-color-scheme-3"
       type="text/css">
   .ColorScheme-Text { color:#dfdfdf; } .ColorScheme-Highlight { color:#4285f4; } .ColorScheme-NeutralText { color:#ff9800; } .ColorScheme-PositiveText { color:#4caf50; } .ColorScheme-NegativeText { color:#f44336; }
  </style>
    <style
       id="current-color-scheme-6"
       type="text/css">
   .ColorScheme-Text { color:#eeeeee; } .ColorScheme-Highlight { color:#424242; }
  </style>
    <style
       id="current-color-scheme-7"
       type="text/css">
   .ColorScheme-Text { color:#FFFFFF; } .ColorScheme-Highlight { color:#5294e2; }
  </style>
    <linearGradient
       id="arrongin"
       x1="0%"
       x2="0%"
       y1="0%"
       y2="100%">
      <stop
         offset="0%"
         style="stop-color:#dd9b44; stop-opacity:1"
         id="stop9750" />
      <stop
         offset="100%"
         style="stop-color:#ad6c16; stop-opacity:1"
         id="stop9752" />
    </linearGradient>
    <linearGradient
       id="aurora"
       x1="0%"
       x2="0%"
       y1="0%"
       y2="100%">
      <stop
         offset="0%"
         style="stop-color:#09D4DF; stop-opacity:1"
         id="stop9755" />
      <stop
         offset="100%"
         style="stop-color:#9269F4; stop-opacity:1"
         id="stop9757" />
    </linearGradient>
    <linearGradient
       id="fitdance"
       x1="0%"
       x2="0%"
       y1="0%"
       y2="100%">
      <stop
         offset="0%"
         style="stop-color:#1AD6AB; stop-opacity:1"
         id="stop9760" />
      <stop
         offset="100%"
         style="stop-color:#329DB6; stop-opacity:1"
         id="stop9762" />
    </linearGradient>
    <linearGradient
       id="oomox"
       x1="0%"
       x2="0%"
       y1="0%"
       y2="100%">
      <stop
         offset="0%"
         style="stop-color:#efefe7; stop-opacity:1"
         id="stop9765" />
      <stop
         offset="100%"
         style="stop-color:#8f8f8b; stop-opacity:1"
         id="stop9767" />
    </linearGradient>
    <linearGradient
       id="rainblue"
       x1="0%"
       x2="0%"
       y1="0%"
       y2="100%">
      <stop
         offset="0%"
         style="stop-color:#00F260; stop-opacity:1"
         id="stop9770" />
      <stop
         offset="100%"
         style="stop-color:#0575E6; stop-opacity:1"
         id="stop9772" />
    </linearGradient>
    <linearGradient
       id="sunrise"
       x1="0%"
       x2="0%"
       y1="0%"
       y2="100%">
      <stop
         offset="0%"
         style="stop-color: #FF8501; stop-opacity:1"
         id="stop9775" />
      <stop
         offset="100%"
         style="stop-color: #FFCB01; stop-opacity:1"
         id="stop9777" />
    </linearGradient>
    <linearGradient
       id="telinkrin"
       x1="0%"
       x2="0%"
       y1="0%"
       y2="100%">
      <stop
         offset="0%"
         style="stop-color: #b2ced6; stop-opacity:1"
         id="stop9780" />
      <stop
         offset="100%"
         style="stop-color: #6da5b7; stop-opacity:1"
         id="stop9782" />
    </linearGradient>
    <linearGradient
       id="60spsycho"
       x1="0%"
       x2="0%"
       y1="0%"
       y2="100%">
      <stop
         offset="0%"
         style="stop-color: #df5940; stop-opacity:1"
         id="stop9785" />
      <stop
         offset="25%"
         style="stop-color: #d8d15f; stop-opacity:1"
         id="stop9787" />
      <stop
         offset="50%"
         style="stop-color: #e9882a; stop-opacity:1"
         id="stop9789" />
      <stop
         offset="100%"
         style="stop-color: #279362; stop-opacity:1"
         id="stop9791" />
    </linearGradient>
    <linearGradient
       id="90ssummer"
       x1="0%"
       x2="0%"
       y1="0%"
       y2="100%">
      <stop
         offset="0%"
         style="stop-color: #f618c7; stop-opacity:1"
         id="stop9794" />
      <stop
         offset="20%"
         style="stop-color: #94ffab; stop-opacity:1"
         id="stop9796" />
      <stop
         offset="50%"
         style="stop-color: #fbfd54; stop-opacity:1"
         id="stop9798" />
      <stop
         offset="100%"
         style="stop-color: #0f83ae; stop-opacity:1"
         id="stop9800" />
    </linearGradient>
    <style
       id="current-color-scheme-5"
       type="text/css">.ColorScheme-Text { color:#dedede; }</style>
    <style
       type="text/css"
       id="current-color-scheme-35">
   .ColorScheme-Text { color:#F6F6F6; } .ColorScheme-Highlight { color:#ffffff; }
  </style>
    <style
       id="current-color-scheme-9"
       type="text/css">
   .ColorScheme-Text { color:#dfdfdf; } .ColorScheme-Highlight { color:#4285f4; } .ColorScheme-NeutralText { color:#ff9800; } .ColorScheme-PositiveText { color:#4caf50; } .ColorScheme-NegativeText { color:#f44336; }
  </style>
    <style
       id="current-color-scheme-1"
       type="text/css">
   .ColorScheme-Text { color:#dfdfdf; } .ColorScheme-Highlight { color:#4285f4; } .ColorScheme-NeutralText { color:#ff9800; } .ColorScheme-PositiveText { color:#4caf50; } .ColorScheme-NegativeText { color:#f44336; }
  </style>
    <style
       id="current-color-scheme-2"
       type="text/css">.ColorScheme-Text {
        color:#dfdfdf;
      }</style>
    <style
       id="current-color-scheme-70"
       type="text/css">
   .ColorScheme-Text { color:#eeeeee; } .ColorScheme-Highlight { color:#424242; }
  </style>
    <style
       id="current-color-scheme-93"
       type="text/css">
   .ColorScheme-Text { color:#dfdfdf; } .ColorScheme-Highlight { color:#4285f4; } .ColorScheme-NeutralText { color:#ff9800; } .ColorScheme-PositiveText { color:#4caf50; } .ColorScheme-NegativeText { color:#f44336; }
  </style>
    <style
       type="text/css"
       id="current-color-scheme-60">
      .ColorScheme-Text {
        color:#eff0f1;
      }
      </style>
    <style
       id="current-color-scheme-62"
       type="text/css">
   .ColorScheme-Text { color:#dfdfdf; } .ColorScheme-Highlight { color:#4285f4; } .ColorScheme-NeutralText { color:#ff9800; } .ColorScheme-PositiveText { color:#4caf50; } .ColorScheme-NegativeText { color:#f44336; }
  </style>
    <style
       id="current-color-scheme-61"
       type="text/css">.ColorScheme-Text {
        color:#dfdfdf;
      }</style>
    <style
       id="current-color-scheme-8"
       type="text/css">
   .ColorScheme-Text { color:#dfdfdf; } .ColorScheme-Highlight { color:#4285f4; } .ColorScheme-NeutralText { color:#ff9800; } .ColorScheme-PositiveText { color:#4caf50; } .ColorScheme-NegativeText { color:#f44336; }
  </style>
    <style
       id="current-color-scheme-79"
       type="text/css">
   .ColorScheme-Text { color:#d3dae3; } .ColorScheme-Highlight { color:#5294e2; }
  </style>
    <style
       id="current-color-scheme-20"
       type="text/css">
   .ColorScheme-Text { color:#d3dae3; } .ColorScheme-Highlight { color:#5294e2; }
  </style>
    <style
       id="current-color-scheme-23"
       type="text/css">
   .ColorScheme-Text { color:#dfdfdf; } .ColorScheme-Highlight { color:#4285f4; } .ColorScheme-NeutralText { color:#ff9800; } .ColorScheme-PositiveText { color:#4caf50; } .ColorScheme-NegativeText { color:#f44336; }
  </style>
    <style
       id="current-color-scheme-75"
       type="text/css">.ColorScheme-Text {
        color:#dfdfdf;
      }</style>
    <style
       id="current-color-scheme-92"
       type="text/css">
   .ColorScheme-Text { color:#dfdfdf; } .ColorScheme-Highlight { color:#4285f4; } .ColorScheme-NeutralText { color:#ff9800; } .ColorScheme-PositiveText { color:#4caf50; } .ColorScheme-NegativeText { color:#f44336; }
  </style>
    <style
       id="current-color-scheme-67"
       type="text/css">
   .ColorScheme-Text { color:#dfdfdf; } .ColorScheme-Highlight { color:#4285f4; } .ColorScheme-NeutralText { color:#ff9800; } .ColorScheme-PositiveText { color:#4caf50; } .ColorScheme-NegativeText { color:#f44336; }
  </style>
    <style
       id="current-color-scheme-53"
       type="text/css">
   .ColorScheme-Text { color:#FFFFFF; } .ColorScheme-Highlight { color:#5294e2; }
  </style>
    <style
       id="current-color-scheme-56"
       type="text/css">.ColorScheme-Text {
        color:#dfdfdf;
      }</style>
    <style
       id="current-color-scheme-29"
       type="text/css">.ColorScheme-Text { color:#dedede; }</style>
    <style
       type="text/css"
       id="current-color-scheme-12">
      .ColorScheme-Text {
        color:#eff0f1;
      }
      </style>
    <style
       id="current-color-scheme-709"
       type="text/css">
   .ColorScheme-Text { color:#dfdfdf; } .ColorScheme-Highlight { color:#4285f4; } .ColorScheme-NeutralText { color:#ff9800; } .ColorScheme-PositiveText { color:#4caf50; } .ColorScheme-NegativeText { color:#f44336; }
  </style>
    <style
       type="text/css"
       id="current-color-scheme-36">
   .ColorScheme-Text { color:#F6F6F6; } .ColorScheme-Highlight { color:#ffffff; }
  </style>
    <style
       id="current-color-scheme-0"
       type="text/css">
   .ColorScheme-Text { color:#dfdfdf; } .ColorScheme-Highlight { color:#4285f4; } .ColorScheme-NeutralText { color:#ff9800; } .ColorScheme-PositiveText { color:#4caf50; } .ColorScheme-NegativeText { color:#f44336; }
  </style>
    <style
       id="current-color-scheme-626"
       type="text/css">
   .ColorScheme-Text { color:#dfdfdf; } .ColorScheme-Highlight { color:#4285f4; } .ColorScheme-NeutralText { color:#ff9800; } .ColorScheme-PositiveText { color:#4caf50; } .ColorScheme-NegativeText { color:#f44336; }
  </style>
    <style
       id="current-color-scheme-18"
       type="text/css">.ColorScheme-Text {
        color:#dfdfdf;
      }</style>
    <style
       id="current-color-scheme-792"
       type="text/css">.ColorScheme-Text {
        color:#dfdfdf;
      }</style>
    <style
       id="current-color-scheme-02"
       type="text/css">
   .ColorScheme-Text { color:#d3dae3; } .ColorScheme-Highlight { color:#5294e2; }
  </style>
    <style
       id="current-color-scheme-37"
       type="text/css">.ColorScheme-Text {
        color:#dfdfdf;
      }</style>
    <style
       id="current-color-scheme-59"
       type="text/css">.ColorScheme-Text {
        color:#dfdfdf;
      }</style>
    <style
       id="current-color-scheme-22"
       type="text/css">.ColorScheme-Text {
        color:#dfdfdf;
      }</style>
    <style
       id="current-color-scheme-5-8"
       type="text/css">.ColorScheme-Text {
        color:#dfdfdf;
      }</style>
    <style
       id="current-color-scheme-35-9"
       type="text/css">.ColorScheme-Text {
        color:#000000;
      }</style>
    <style
       id="current-color-scheme-3-7"
       type="text/css">.ColorScheme-Text {
        color:#000000;
      }</style>
    <style
       id="current-color-scheme-9-3"
       type="text/css">.ColorScheme-Text {
        color:#000000;
      }</style>
    <style
       id="current-color-scheme-3-3"
       type="text/css">.ColorScheme-Text {
        color:#000000;
      }</style>
    <style
       id="current-color-scheme-2-6"
       type="text/css">.ColorScheme-Text {
        color:#000000;
      }</style>
    <style
       id="current-color-scheme-0-1"
       type="text/css">.ColorScheme-Text { color:#5c616c; } .ColorScheme-Highlight { color:#5294e2; } .ColorScheme-ButtonBackground { color:#d3dae3; }</style>
    <style
       id="current-color-scheme-37-2"
       type="text/css">.ColorScheme-Text { color:#5c616c; } .ColorScheme-Highlight { color:#5294e2; } .ColorScheme-ButtonBackground { color:#d3dae3; }</style>
    <style
       id="current-color-scheme-3-5"
       type="text/css">.ColorScheme-Text { color:#5c616c; } .ColorScheme-Highlight { color:#5294e2; } .ColorScheme-ButtonBackground { color:#d3dae3; }</style>
    <style
       id="current-color-scheme-6-9"
       type="text/css">.ColorScheme-Text { color:#5c616c; } .ColorScheme-Highlight { color:#5294e2; } .ColorScheme-ButtonBackground { color:#d3dae3; }</style>
    <style
       id="current-color-scheme-31"
       type="text/css">.ColorScheme-Text {
        color:#dfdfdf;
      }</style>
    <style
       id="current-color-scheme-94"
       type="text/css">.ColorScheme-Text {
        color:#dfdfdf;
      }</style>
  </defs>
  <path
     class="folder-back"
     d="M 6,14.67 C 6,13.1954 7.1953997,12 8.67,12 h 11.126153 c 2,0 1.865602,0.144106 4,2 l 2.300128,2 H 55.33 c 1.4746,0 2.67,1.1954 2.67,2.67 v 6 C 58,23.1954 56.8046,22 55.33,22 H 8.67 C 7.1953997,22 6,23.1954 6,24.67"
     id="path11"
     sodipodi:nodetypes="cssscsscssc"
     style="fill:#3fa1ef;fill-opacity:1" />
  <path
     class="darken"
     d="M 8.67,21 A 3.67,3.67 0 0 0 6,22.15 v 2.52 A 2.67,2.67 0 0 1 8.67,22 H 55.33 A 2.67,2.67 0 0 1 58,24.67 V 22.15 A 3.67,3.67 0 0 0 55.33,21"
     id="path13" />
  <rect
     class="folder-front"
     x="6"
     y="22"
     width="52"
     height="32"
     rx="2.6700001"
     ry="2.6700001"
     id="rect15"
     style="fill:url(#linearGradient1006)" />
  <rect
     class="folder-front"
     x="8.6700001"
     y="19.681915"
     width="46.66"
     height="33.318085"
     id="rect27908"
     style="fill:#f2f2f2;stroke-width:0.989921"
     ry="1.1616622"
     rx="1.1616622" />
  <path
     class="lighten"
     d="M 8.67,22 A 2.67,2.67 0 0 0 6,24.67 2.67,1.67 0 0 1 8.67,23 H 55.33 A 2.67,1.67 0 0 1 58,24.67 2.67,2.67 0 0 0 55.33,22"
     id="path17" />
  <path
     class="darken"
     d="M 8.67,53 A 2.67,1.67 0 0 1 6,51.33 2.67,2.67 0 0 0 8.67,54 H 55.33 A 2.67,2.67 0 0 0 58,51.33 2.67,1.67 0 0 1 55.33,53"
     id="path19" />
  <rect
     class="folder-front"
     x="6"
     y="22"
     width="52"
     height="32"
     rx="2.6700001"
     ry="2.6700001"
     id="rect27795"
     style="fill:url(#linearGradient1008)" />
  <path
     class="darken"
     d="m 8.6700001,53 a 2.67,1.67 0 0 1 -2.67,-1.67 2.67,2.67 0 0 0 2.67,2.67 H 55.33 A 2.67,2.67 0 0 0 58,51.33 2.67,1.67 0 0 1 55.33,53"
     id="path19-3"
     style="fill:#000000;fill-opacity:0.125" />
  <path
     id="Page-1"
     d="m 35.829919,40.46075 c 0,-0.09375 -0.144551,-0.203108 -0.433661,-0.328099 0.02104,-0.07812 0.04072,-0.149724 0.05914,-0.214824 0.01837,-0.0651 0.03157,-0.132804 0.03941,-0.203109 0.0079,-0.07031 0.01577,-0.126296 0.02366,-0.167959 0.0079,-0.04169 0.0092,-0.10025 0.0037,-0.175767 -0.0053,-0.07552 -0.0079,-0.12629 -0.0079,-0.15233 0,-0.02603 -0.0092,-0.08333 -0.02758,-0.171863 -0.01837,-0.08854 -0.02889,-0.141918 -0.03156,-0.160144 -0.0025,-0.01825 -0.01577,-0.08333 -0.03941,-0.1953 -0.02374,-0.111968 -0.03818,-0.180973 -0.04347,-0.207012 -0.05258,-0.249983 -0.176096,-0.518187 -0.370588,-0.804626 -0.194489,-0.286439 -0.383721,-0.481733 -0.567698,-0.585893 0.126158,0.10416 0.275966,0.320288 0.449431,0.64839 0.457314,0.843685 0.599237,1.567582 0.42577,2.171708 -0.05783,0.208313 -0.189232,0.317679 -0.394232,0.328096 -0.16295,0.02085 -0.264141,-0.02732 -0.303559,-0.144523 -0.03941,-0.117176 -0.06046,-0.334602 -0.06308,-0.652288 -0.0025,-0.31769 -0.03287,-0.596311 -0.09068,-0.835876 -0.04726,-0.203109 -0.09851,-0.38278 -0.153699,-0.53902 -0.0552,-0.156239 -0.106445,-0.274715 -0.153755,-0.355439 -0.04731,-0.08072 -0.08804,-0.144521 -0.122208,-0.191394 -0.03418,-0.04688 -0.06833,-0.08593 -0.102503,-0.117181 -0.03418,-0.03127 -0.05387,-0.04947 -0.05914,-0.05468 -0.07359,-0.32289 -0.155066,-0.591099 -0.244425,-0.804624 -0.08937,-0.213526 -0.1669,-0.359349 -0.232601,-0.437468 -0.06571,-0.07812 -0.127472,-0.164049 -0.185292,-0.257792 -0.05782,-0.09374 -0.09724,-0.197897 -0.118272,-0.312475 -0.02104,-0.109365 -0.0052,-0.248675 0.04731,-0.417935 0.05257,-0.169259 0.0644,-0.298157 0.03548,-0.38669 -0.02894,-0.08854 -0.145884,-0.153636 -0.350891,-0.195299 -0.07885,-0.01561 -0.195801,-0.06249 -0.35087,-0.140611 -0.155063,-0.07812 -0.248366,-0.119783 -0.279903,-0.124989 -0.04202,-0.0052 -0.07097,-0.0729 -0.08673,-0.203114 -0.01575,-0.1302 0.0052,-0.262998 0.06308,-0.398403 0.05782,-0.135406 0.152437,-0.205717 0.283845,-0.210923 0.194493,-0.01561 0.328533,0.0625 0.402122,0.234354 0.0736,0.171864 0.0841,0.322892 0.03156,0.453092 -0.05782,0.09895 -0.06307,0.167958 -0.01575,0.207018 0.04731,0.03904 0.126158,0.04034 0.236544,0.0037 0.06833,-0.02085 0.102498,-0.114574 0.102498,-0.281226 v -0.289059 c -0.02627,-0.15624 -0.06177,-0.286433 -0.106444,-0.390594 -0.04469,-0.10416 -0.09987,-0.183581 -0.165578,-0.238263 -0.06571,-0.05468 -0.127467,-0.09374 -0.185292,-0.117175 -0.05782,-0.02343 -0.128781,-0.04299 -0.212884,-0.05859 -0.562444,0.04164 -0.796356,0.390589 -0.701739,1.046793 0,0.07812 -0.0026,0.117175 -0.0079,0.117175 -0.04731,-0.04688 -0.124837,-0.07421 -0.2326,-0.08202 -0.107752,-0.0079 -0.194487,-0.0064 -0.260194,0.0037 -0.06571,0.01042 -0.106444,-0.0026 -0.122213,-0.03904 0.0052,-0.296854 -0.03679,-0.531208 -0.126152,-0.703071 -0.08936,-0.171882 -0.207627,-0.260419 -0.354809,-0.265625 -0.141927,-0.0052 -0.250998,0.0664 -0.327219,0.214826 -0.07622,0.148427 -0.11958,0.303359 -0.130095,0.464806 -0.0052,0.07812 0.0037,0.174464 0.02758,0.289042 0.02366,0.114577 0.05782,0.212223 0.102498,0.292947 0.04469,0.08072 0.08542,0.115873 0.122218,0.105461 0.05256,-0.01561 0.09462,-0.05208 0.126154,-0.109366 0.02104,-0.04688 0.0026,-0.0677 -0.05519,-0.06249 -0.03679,0 -0.07753,-0.03775 -0.122213,-0.113269 -0.04469,-0.07552 -0.06965,-0.162747 -0.07491,-0.261702 -0.0052,-0.114571 0.01842,-0.210917 0.07097,-0.289037 0.05256,-0.07812 0.141922,-0.114576 0.268076,-0.109365 0.08936,0 0.160323,0.05468 0.212889,0.164048 0.05257,0.109366 0.07753,0.210917 0.07491,0.304665 -0.0026,0.09374 -0.0066,0.15103 -0.01183,0.171858 -0.115639,0.07812 -0.197119,0.153636 -0.244425,0.226546 -0.04202,0.06249 -0.114326,0.123687 -0.216829,0.183581 -0.102498,0.05989 -0.156377,0.09244 -0.161637,0.09765 -0.06833,0.07291 -0.109072,0.143219 -0.122213,0.210922 -0.01314,0.0677 0.0066,0.114577 0.05913,0.140617 0.07359,0.04169 0.139295,0.09244 0.19712,0.15233 0.05782,0.05989 0.09987,0.109367 0.126154,0.148426 0.02627,0.03904 0.07491,0.07291 0.145868,0.101556 0.07096,0.02862 0.164264,0.04558 0.279904,0.05077 0.247058,0.01042 0.515133,-0.02862 0.804243,-0.11718 0.01052,-0.0052 0.07096,-0.02343 0.181346,-0.05468 0.110385,-0.03127 0.201061,-0.05859 0.272022,-0.08203 0.07096,-0.02343 0.148495,-0.05729 0.232598,-0.101552 0.08411,-0.04428 0.1393,-0.08984 0.165583,-0.136713 0.04731,-0.07291 0.09987,-0.09374 0.15769,-0.06249 0.02627,0.01561 0.04338,0.03775 0.05124,0.0664 0.0079,0.02862 0,0.05989 -0.02365,0.09374 -0.02366,0.03386 -0.06702,0.05859 -0.130094,0.07422 -0.105131,0.03127 -0.253626,0.08723 -0.445486,0.167952 -0.191867,0.08072 -0.311447,0.131501 -0.358758,0.152331 -0.231284,0.09895 -0.415258,0.158842 -0.551931,0.179676 -0.131413,0.02603 -0.339037,0.02084 -0.622892,-0.01561 -0.05256,-0.01042 -0.07621,-0.0052 -0.07096,0.01561 0.0052,0.02084 0.04993,0.0703 0.134041,0.148426 0.131413,0.119783 0.307505,0.177068 0.528275,0.171863 0.08936,-0.0052 0.183979,-0.02343 0.28385,-0.05469 0.09988,-0.03127 0.194487,-0.0677 0.283849,-0.109367 0.08936,-0.04169 0.177406,-0.08723 0.264141,-0.136706 0.08673,-0.04947 0.165577,-0.09374 0.236538,-0.132804 0.07096,-0.03904 0.135354,-0.0703 0.193174,-0.09374 0.05782,-0.02343 0.103817,-0.02997 0.137981,-0.01955 0.03417,0.01042 0.05651,0.03904 0.06702,0.08593 0,0.01042 -0.0026,0.02214 -0.0079,0.03515 -0.0052,0.01301 -0.01575,0.02603 -0.03156,0.03904 -0.01575,0.01301 -0.03156,0.02473 -0.04731,0.03516 -0.01575,0.01042 -0.0381,0.02343 -0.06702,0.03904 -0.02889,0.01561 -0.05256,0.02733 -0.07096,0.03516 -0.01837,0.0079 -0.04469,0.02084 -0.07885,0.03904 -0.03417,0.0182 -0.05914,0.02997 -0.0749,0.03515 -0.147172,0.07292 -0.324578,0.187487 -0.532212,0.343727 -0.207629,0.156239 -0.382407,0.268203 -0.524329,0.33591 -0.141927,0.0677 -0.270708,0.0703 -0.386353,0.0079 -0.110384,-0.05729 -0.275962,-0.247377 -0.496737,-0.570269 -0.11564,-0.161451 -0.181347,-0.218736 -0.197115,-0.171862 -0.0052,0.01561 -0.0079,0.04169 -0.0079,0.07811 0,0.1302 -0.03941,0.277325 -0.118272,0.441373 -0.07884,0.164053 -0.156374,0.30857 -0.232589,0.433564 -0.07622,0.124988 -0.131414,0.276017 -0.165583,0.45309 -0.03417,0.177069 -0.0037,0.341118 0.09067,0.492146 -0.120899,0.03127 -0.285163,0.265606 -0.492792,0.703069 -0.207634,0.437473 -0.332474,0.804625 -0.374525,1.101481 -0.01052,0.09374 -0.01445,0.273415 -0.01183,0.53902 0.0026,0.265604 -0.01183,0.419234 -0.04339,0.460897 -0.04202,0.124996 -0.118272,0.132805 -0.228657,0.02343 -0.168206,-0.16144 -0.262823,-0.406214 -0.283851,-0.734309 -0.01052,-0.145823 0,-0.291645 0.03156,-0.437468 0.02104,-0.09895 0.01837,-0.145822 -0.0079,-0.140617 l -0.03156,0.03904 c -0.189233,0.33852 -0.16295,0.770771 0.07885,1.296773 0.02627,0.06249 0.09199,0.135408 0.19712,0.218732 0.105131,0.08333 0.168205,0.135407 0.189233,0.156242 0.105131,0.11978 0.378461,0.355439 0.820006,0.706978 0.441546,0.351531 0.685972,0.550738 0.733283,0.597608 0.0841,0.07812 0.130094,0.177067 0.137981,0.29685 0.0079,0.119781 -0.02889,0.231751 -0.110385,0.335912 -0.08148,0.104157 -0.201061,0.164053 -0.358757,0.179675 0.04203,0.07812 0.118272,0.193992 0.228657,0.347631 0.110385,0.153629 0.183973,0.294248 0.22077,0.421837 0.03679,0.127598 0.05519,0.311174 0.05519,0.550741 0.241799,-0.12499 0.260194,-0.364554 0.05519,-0.718691 -0.02104,-0.04164 -0.04862,-0.08333 -0.08279,-0.124996 -0.03417,-0.04164 -0.05913,-0.07291 -0.0749,-0.09374 -0.01575,-0.02085 -0.02104,-0.03645 -0.01575,-0.04688 0.01575,-0.02603 0.04993,-0.05076 0.102498,-0.07421 0.05257,-0.02343 0.105131,-0.01695 0.157696,0.01954 0.241799,0.270811 0.67808,0.364555 1.308858,0.281227 0.699118,-0.07812 1.164309,-0.304665 1.395593,-0.679636 0.120903,-0.197902 0.210262,-0.276022 0.268086,-0.234359 0.06308,0.03127 0.08936,0.166658 0.07884,0.406224 -0.0053,0.130197 -0.06571,0.36976 -0.181346,0.718694 -0.0473,0.119784 -0.06308,0.217432 -0.0473,0.292941 0.01575,0.07552 0.07885,0.11588 0.189232,0.121085 0.01576,-0.09895 0.05387,-0.299454 0.114327,-0.601511 0.06045,-0.302062 0.09593,-0.536421 0.106442,-0.703074 0.01052,-0.109364 -0.0065,-0.300756 -0.05123,-0.574175 -0.0447,-0.273415 -0.06439,-0.525999 -0.05914,-0.75775 0.0053,-0.231759 0.06571,-0.415334 0.181347,-0.550741 0.07885,-0.09375 0.212888,-0.140615 0.402121,-0.140615 0.0053,-0.192695 0.09593,-0.3307 0.272021,-0.414032 0.176094,-0.08333 0.366639,-0.110665 0.571642,-0.08202 0.205006,0.02862 0.362697,0.08723 0.473081,0.175766 z m -4.951598,-6.460434 c 0.01575,-0.08854 0.0092,-0.166656 -0.01973,-0.23436 -0.02889,-0.0677 -0.05913,-0.106762 -0.09068,-0.117179 -0.04731,-0.01042 -0.07096,0.0079 -0.07096,0.05469 0.01052,0.02603 0.02366,0.04169 0.03941,0.04688 0.05257,0 0.07096,0.03904 0.05519,0.11718 -0.01575,0.104155 0.0052,0.156235 0.06307,0.156235 0.01575,0 0.02365,-0.0079 0.02365,-0.02343 z m 1.900212,-0.124994 c 0,-0.05729 -0.01314,-0.108064 -0.03941,-0.15233 -0.02627,-0.04428 -0.05519,-0.07681 -0.08673,-0.09765 -0.03156,-0.02084 -0.05519,-0.02862 -0.07097,-0.02343 -0.07358,0.0052 -0.09198,0.02343 -0.05519,0.05469 0.01052,0.0052 0.02104,0.01042 0.03156,0.01561 0.07359,0.02084 0.120899,0.101552 0.141928,0.242168 0,0.01561 0.02104,0.01042 0.06308,-0.01561 z m 5.125061,8.846973 c 0.05783,0.0651 0.08936,0.127591 0.09462,0.187485 0.0053,0.05989 -0.0012,0.118482 -0.01972,0.175766 -0.01842,0.05729 -0.05914,0.114577 -0.122212,0.171864 -0.06308,0.05729 -0.124842,0.108066 -0.185287,0.152328 -0.06046,0.04429 -0.139301,0.09244 -0.236545,0.144524 -0.09724,0.05208 -0.180033,0.09505 -0.248367,0.128895 -0.06833,0.03386 -0.152436,0.07421 -0.252313,0.121086 -0.09987,0.04688 -0.170837,0.08073 -0.212887,0.101554 -0.199747,0.09895 -0.424459,0.24477 -0.67414,0.437465 -0.249685,0.192694 -0.448118,0.359349 -0.595299,0.499962 -0.08936,0.08334 -0.268077,0.134103 -0.536158,0.152334 -0.26808,0.01821 -0.50199,-0.01955 -0.701739,-0.113274 -0.09462,-0.04688 -0.172152,-0.108065 -0.232598,-0.183583 -0.06045,-0.07551 -0.103818,-0.141911 -0.130101,-0.199197 -0.02627,-0.05729 -0.0841,-0.108071 -0.173463,-0.152338 -0.08936,-0.04429 -0.212884,-0.069 -0.37058,-0.07421 -0.231284,-0.0052 -0.572954,-0.0079 -1.025013,-0.0079 -0.09987,0 -0.249681,0.0041 -0.449428,0.01172 -0.199747,0.0079 -0.352183,0.01431 -0.457314,0.01955 -0.231284,0.0052 -0.440226,0.04429 -0.626832,0.117181 -0.186606,0.07292 -0.327215,0.151031 -0.421831,0.234359 -0.09462,0.08333 -0.208948,0.157538 -0.342989,0.222639 -0.13404,0.06509 -0.274649,0.09504 -0.421831,0.08983 -0.152439,-0.0052 -0.44417,-0.08593 -0.875201,-0.242161 -0.431037,-0.156239 -0.814752,-0.268208 -1.151167,-0.335912 -0.09988,-0.02082 -0.233917,-0.04556 -0.402121,-0.07419 -0.168211,-0.02862 -0.299619,-0.05208 -0.394235,-0.0703 -0.09462,-0.0182 -0.198438,-0.04299 -0.31145,-0.07422 -0.113018,-0.03127 -0.201061,-0.06901 -0.26414,-0.113271 -0.06307,-0.04429 -0.107759,-0.09504 -0.134041,-0.152334 -0.05257,-0.119784 -0.03418,-0.292941 0.05519,-0.519495 0.08936,-0.226544 0.136668,-0.368455 0.141923,-0.425742 0.0053,-0.08334 -0.0052,-0.187487 -0.03156,-0.312479 -0.02627,-0.124991 -0.05257,-0.235655 -0.07885,-0.332002 -0.02627,-0.09635 -0.0381,-0.191393 -0.03548,-0.285138 0.0026,-0.09374 0.03025,-0.164051 0.08279,-0.210917 0.07359,-0.06249 0.223396,-0.09896 0.449427,-0.109367 0.226029,-0.01042 0.38372,-0.04169 0.473082,-0.09375 0.157696,-0.09374 0.268081,-0.184876 0.331155,-0.273414 0.06308,-0.08853 0.09462,-0.221334 0.09462,-0.398405 0,0.148428 0.139295,-0.234358 0.118272,-0.359351 -0.01575,-0.08333 -0.02104,-0.182275 -0.01575,-0.296845 0.0053,-0.151035 0.03156,-0.286441 0.07885,-0.406222 0.04731,-0.11978 0.110382,-0.242165 0.18923,-0.367154 0.07885,-0.124994 0.136667,-0.23436 0.173459,-0.328102 0.04202,-0.109373 0.111704,-0.296859 0.208947,-0.562464 0.09724,-0.265606 0.174778,-0.468714 0.232598,-0.609326 0.05782,-0.140617 0.136668,-0.299454 0.236544,-0.476528 0.09987,-0.177069 0.202369,-0.31768 0.3075,-0.42184 0.578218,-0.744742 0.904114,-1.252505 0.977708,-1.523322 -0.06308,-0.58329 -0.105131,-1.390508 -0.126159,-2.421684 -0.01052,-0.468719 0.05257,-0.863213 0.189233,-1.183506 0.136668,-0.320289 0.415263,-0.592402 0.83578,-0.816344 0.205002,-0.109366 0.478337,-0.164049 0.820012,-0.164049 0.278595,-0.0052 0.557185,0.02997 0.835775,0.105462 0.278595,0.07552 0.512506,0.183581 0.70174,0.324192 0.299623,0.218737 0.540104,0.535116 0.721454,0.949147 0.181346,0.414031 0.25888,0.798112 0.232598,1.152255 -0.02628,0.494754 0.05257,1.051999 0.236537,1.671747 0.178726,0.588497 0.528277,1.156154 1.048671,1.702993 0.289108,0.307269 0.550612,0.731712 0.784529,1.27334 0.23391,0.541628 0.390293,1.038979 0.469134,1.49207 0.04202,0.25519 0.0552,0.475221 0.0394,0.660102 -0.01576,0.184884 -0.04731,0.329404 -0.09462,0.43356 -0.04732,0.104161 0.06834,0.523401 0.141927,0.460903 0.0053,0.161448 0.02628,0.308571 0.06308,0.441374 0.0368,0.132805 0.07491,0.238264 0.11433,0.316384 0.03941,0.07811 0.0933,0.152333 0.161636,0.222635 0.06833,0.0703 0.123527,0.119784 0.165578,0.148427 0.04202,0.02867 0.09856,0.06249 0.169526,0.101555 0.07096,0.03904 0.114324,0.06379 0.130093,0.07421 0.10513,0.06249 0.186605,0.126297 0.244425,0.191397 z"
     style="fill:#f2f2f2;fill-opacity:1;fill-rule:evenodd" />
</svg>
