<?xml version="1.0" encoding="UTF-8" standalone="no"?>
<svg
   viewBox="0 0 64 64"
   version="1.1"
   id="svg21"
   sodipodi:docname="folder-html.svg"
   inkscape:version="1.1.2 (0a00cf5339, 2022-02-04)"
   inkscape:export-filename="/home/josh/.icons/Joyful/places/64x64/folder-blue.png"
   inkscape:export-xdpi="96"
   inkscape:export-ydpi="96"
   xmlns:inkscape="http://www.inkscape.org/namespaces/inkscape"
   xmlns:sodipodi="http://sodipodi.sourceforge.net/DTD/sodipodi-0.dtd"
   xmlns:xlink="http://www.w3.org/1999/xlink"
   xmlns="http://www.w3.org/2000/svg"
   xmlns:svg="http://www.w3.org/2000/svg">
  <sodipodi:namedview
     id="namedview23"
     pagecolor="#ffffff"
     bordercolor="#666666"
     borderopacity="1.0"
     inkscape:pageshadow="2"
     inkscape:pageopacity="0.0"
     inkscape:pagecheckerboard="0"
     showgrid="false"
     inkscape:zoom="10.458875"
     inkscape:cx="14.533112"
     inkscape:cy="29.974544"
     inkscape:window-width="1920"
     inkscape:window-height="991"
     inkscape:window-x="1920"
     inkscape:window-y="32"
     inkscape:window-maximized="1"
     inkscape:current-layer="svg21"
     inkscape:snap-global="false" />
  <defs
     id="defs9">
    <linearGradient
       id="folder-front"
       x1="0%"
       y1="0%"
       x2="0%"
       y2="100%">
      <stop
         offset="0%"
         style="stop-color:#90CAF9"
         id="stop2" />
      <!-- Blue 200 -->
      <stop
         offset="100%"
         style="stop-color:#64B5F6"
         id="stop4" />
      <!-- Blue 300 -->
    </linearGradient>
    <style
       type="text/css"
       id="style7">
      .folder-back { fill: #2196F3 /* Blue 500 */ }
      .folder-front { fill: url(#folder-front) }
      .lighten { fill: white; fill-opacity: 0.125 }
      .darken { fill: black; fill-opacity: 0.125 }
    </style>
    <style
       id="current-color-scheme"
       type="text/css">.ColorScheme-Text { color:#dedede; } .ColorScheme-Text { color:#dedede; }</style>
    <linearGradient
       inkscape:collect="always"
       xlink:href="#folder-front"
       id="linearGradient1006"
       x1="4.7067872"
       y1="28.044607"
       x2="4.7067872"
       y2="68.836763"
       gradientTransform="scale(1.2747549,0.78446454)"
       gradientUnits="userSpaceOnUse" />
    <linearGradient
       inkscape:collect="always"
       xlink:href="#folder-front"
       id="linearGradient1008"
       x1="4.7067872"
       y1="28.044607"
       x2="4.7067872"
       y2="68.836763"
       gradientTransform="scale(1.2747549,0.78446454)"
       gradientUnits="userSpaceOnUse" />
    <style
       id="current-color-scheme-3"
       type="text/css">
   .ColorScheme-Text { color:#dfdfdf; } .ColorScheme-Highlight { color:#4285f4; } .ColorScheme-NeutralText { color:#ff9800; } .ColorScheme-PositiveText { color:#4caf50; } .ColorScheme-NegativeText { color:#f44336; }
  </style>
    <style
       id="current-color-scheme-6"
       type="text/css">
   .ColorScheme-Text { color:#eeeeee; } .ColorScheme-Highlight { color:#424242; }
  </style>
    <style
       id="current-color-scheme-7"
       type="text/css">
   .ColorScheme-Text { color:#FFFFFF; } .ColorScheme-Highlight { color:#5294e2; }
  </style>
    <linearGradient
       id="arrongin"
       x1="0%"
       x2="0%"
       y1="0%"
       y2="100%">
      <stop
         offset="0%"
         style="stop-color:#dd9b44; stop-opacity:1"
         id="stop9750" />
      <stop
         offset="100%"
         style="stop-color:#ad6c16; stop-opacity:1"
         id="stop9752" />
    </linearGradient>
    <linearGradient
       id="aurora"
       x1="0%"
       x2="0%"
       y1="0%"
       y2="100%">
      <stop
         offset="0%"
         style="stop-color:#09D4DF; stop-opacity:1"
         id="stop9755" />
      <stop
         offset="100%"
         style="stop-color:#9269F4; stop-opacity:1"
         id="stop9757" />
    </linearGradient>
    <linearGradient
       id="fitdance"
       x1="0%"
       x2="0%"
       y1="0%"
       y2="100%">
      <stop
         offset="0%"
         style="stop-color:#1AD6AB; stop-opacity:1"
         id="stop9760" />
      <stop
         offset="100%"
         style="stop-color:#329DB6; stop-opacity:1"
         id="stop9762" />
    </linearGradient>
    <linearGradient
       id="oomox"
       x1="0%"
       x2="0%"
       y1="0%"
       y2="100%">
      <stop
         offset="0%"
         style="stop-color:#efefe7; stop-opacity:1"
         id="stop9765" />
      <stop
         offset="100%"
         style="stop-color:#8f8f8b; stop-opacity:1"
         id="stop9767" />
    </linearGradient>
    <linearGradient
       id="rainblue"
       x1="0%"
       x2="0%"
       y1="0%"
       y2="100%">
      <stop
         offset="0%"
         style="stop-color:#00F260; stop-opacity:1"
         id="stop9770" />
      <stop
         offset="100%"
         style="stop-color:#0575E6; stop-opacity:1"
         id="stop9772" />
    </linearGradient>
    <linearGradient
       id="sunrise"
       x1="0%"
       x2="0%"
       y1="0%"
       y2="100%">
      <stop
         offset="0%"
         style="stop-color: #FF8501; stop-opacity:1"
         id="stop9775" />
      <stop
         offset="100%"
         style="stop-color: #FFCB01; stop-opacity:1"
         id="stop9777" />
    </linearGradient>
    <linearGradient
       id="telinkrin"
       x1="0%"
       x2="0%"
       y1="0%"
       y2="100%">
      <stop
         offset="0%"
         style="stop-color: #b2ced6; stop-opacity:1"
         id="stop9780" />
      <stop
         offset="100%"
         style="stop-color: #6da5b7; stop-opacity:1"
         id="stop9782" />
    </linearGradient>
    <linearGradient
       id="60spsycho"
       x1="0%"
       x2="0%"
       y1="0%"
       y2="100%">
      <stop
         offset="0%"
         style="stop-color: #df5940; stop-opacity:1"
         id="stop9785" />
      <stop
         offset="25%"
         style="stop-color: #d8d15f; stop-opacity:1"
         id="stop9787" />
      <stop
         offset="50%"
         style="stop-color: #e9882a; stop-opacity:1"
         id="stop9789" />
      <stop
         offset="100%"
         style="stop-color: #279362; stop-opacity:1"
         id="stop9791" />
    </linearGradient>
    <linearGradient
       id="90ssummer"
       x1="0%"
       x2="0%"
       y1="0%"
       y2="100%">
      <stop
         offset="0%"
         style="stop-color: #f618c7; stop-opacity:1"
         id="stop9794" />
      <stop
         offset="20%"
         style="stop-color: #94ffab; stop-opacity:1"
         id="stop9796" />
      <stop
         offset="50%"
         style="stop-color: #fbfd54; stop-opacity:1"
         id="stop9798" />
      <stop
         offset="100%"
         style="stop-color: #0f83ae; stop-opacity:1"
         id="stop9800" />
    </linearGradient>
    <style
       id="current-color-scheme-5"
       type="text/css">.ColorScheme-Text { color:#dedede; }</style>
    <style
       type="text/css"
       id="current-color-scheme-35">
   .ColorScheme-Text { color:#F6F6F6; } .ColorScheme-Highlight { color:#ffffff; }
  </style>
    <style
       id="current-color-scheme-9"
       type="text/css">
   .ColorScheme-Text { color:#dfdfdf; } .ColorScheme-Highlight { color:#4285f4; } .ColorScheme-NeutralText { color:#ff9800; } .ColorScheme-PositiveText { color:#4caf50; } .ColorScheme-NegativeText { color:#f44336; }
  </style>
    <style
       id="current-color-scheme-1"
       type="text/css">
   .ColorScheme-Text { color:#dfdfdf; } .ColorScheme-Highlight { color:#4285f4; } .ColorScheme-NeutralText { color:#ff9800; } .ColorScheme-PositiveText { color:#4caf50; } .ColorScheme-NegativeText { color:#f44336; }
  </style>
    <style
       id="current-color-scheme-2"
       type="text/css">.ColorScheme-Text {
        color:#dfdfdf;
      }</style>
    <style
       id="current-color-scheme-70"
       type="text/css">
   .ColorScheme-Text { color:#eeeeee; } .ColorScheme-Highlight { color:#424242; }
  </style>
    <style
       id="current-color-scheme-93"
       type="text/css">
   .ColorScheme-Text { color:#dfdfdf; } .ColorScheme-Highlight { color:#4285f4; } .ColorScheme-NeutralText { color:#ff9800; } .ColorScheme-PositiveText { color:#4caf50; } .ColorScheme-NegativeText { color:#f44336; }
  </style>
    <style
       type="text/css"
       id="current-color-scheme-60">
      .ColorScheme-Text {
        color:#eff0f1;
      }
      </style>
    <style
       id="current-color-scheme-62"
       type="text/css">
   .ColorScheme-Text { color:#dfdfdf; } .ColorScheme-Highlight { color:#4285f4; } .ColorScheme-NeutralText { color:#ff9800; } .ColorScheme-PositiveText { color:#4caf50; } .ColorScheme-NegativeText { color:#f44336; }
  </style>
    <style
       id="current-color-scheme-61"
       type="text/css">.ColorScheme-Text {
        color:#dfdfdf;
      }</style>
    <style
       id="current-color-scheme-8"
       type="text/css">
   .ColorScheme-Text { color:#dfdfdf; } .ColorScheme-Highlight { color:#4285f4; } .ColorScheme-NeutralText { color:#ff9800; } .ColorScheme-PositiveText { color:#4caf50; } .ColorScheme-NegativeText { color:#f44336; }
  </style>
    <style
       id="current-color-scheme-79"
       type="text/css">
   .ColorScheme-Text { color:#d3dae3; } .ColorScheme-Highlight { color:#5294e2; }
  </style>
    <style
       id="current-color-scheme-20"
       type="text/css">
   .ColorScheme-Text { color:#d3dae3; } .ColorScheme-Highlight { color:#5294e2; }
  </style>
    <style
       id="current-color-scheme-23"
       type="text/css">
   .ColorScheme-Text { color:#dfdfdf; } .ColorScheme-Highlight { color:#4285f4; } .ColorScheme-NeutralText { color:#ff9800; } .ColorScheme-PositiveText { color:#4caf50; } .ColorScheme-NegativeText { color:#f44336; }
  </style>
    <style
       id="current-color-scheme-75"
       type="text/css">.ColorScheme-Text {
        color:#dfdfdf;
      }</style>
    <style
       id="current-color-scheme-92"
       type="text/css">
   .ColorScheme-Text { color:#dfdfdf; } .ColorScheme-Highlight { color:#4285f4; } .ColorScheme-NeutralText { color:#ff9800; } .ColorScheme-PositiveText { color:#4caf50; } .ColorScheme-NegativeText { color:#f44336; }
  </style>
    <style
       id="current-color-scheme-67"
       type="text/css">
   .ColorScheme-Text { color:#dfdfdf; } .ColorScheme-Highlight { color:#4285f4; } .ColorScheme-NeutralText { color:#ff9800; } .ColorScheme-PositiveText { color:#4caf50; } .ColorScheme-NegativeText { color:#f44336; }
  </style>
    <style
       id="current-color-scheme-53"
       type="text/css">
   .ColorScheme-Text { color:#FFFFFF; } .ColorScheme-Highlight { color:#5294e2; }
  </style>
    <style
       id="current-color-scheme-56"
       type="text/css">.ColorScheme-Text {
        color:#dfdfdf;
      }</style>
    <style
       id="current-color-scheme-29"
       type="text/css">.ColorScheme-Text { color:#dedede; }</style>
    <style
       type="text/css"
       id="current-color-scheme-12">
      .ColorScheme-Text {
        color:#eff0f1;
      }
      </style>
    <style
       id="current-color-scheme-709"
       type="text/css">
   .ColorScheme-Text { color:#dfdfdf; } .ColorScheme-Highlight { color:#4285f4; } .ColorScheme-NeutralText { color:#ff9800; } .ColorScheme-PositiveText { color:#4caf50; } .ColorScheme-NegativeText { color:#f44336; }
  </style>
    <style
       type="text/css"
       id="current-color-scheme-36">
   .ColorScheme-Text { color:#F6F6F6; } .ColorScheme-Highlight { color:#ffffff; }
  </style>
    <style
       id="current-color-scheme-0"
       type="text/css">
   .ColorScheme-Text { color:#dfdfdf; } .ColorScheme-Highlight { color:#4285f4; } .ColorScheme-NeutralText { color:#ff9800; } .ColorScheme-PositiveText { color:#4caf50; } .ColorScheme-NegativeText { color:#f44336; }
  </style>
    <style
       id="current-color-scheme-626"
       type="text/css">
   .ColorScheme-Text { color:#dfdfdf; } .ColorScheme-Highlight { color:#4285f4; } .ColorScheme-NeutralText { color:#ff9800; } .ColorScheme-PositiveText { color:#4caf50; } .ColorScheme-NegativeText { color:#f44336; }
  </style>
    <style
       id="current-color-scheme-18"
       type="text/css">.ColorScheme-Text {
        color:#dfdfdf;
      }</style>
    <style
       id="current-color-scheme-792"
       type="text/css">.ColorScheme-Text {
        color:#dfdfdf;
      }</style>
    <style
       id="current-color-scheme-02"
       type="text/css">
   .ColorScheme-Text { color:#d3dae3; } .ColorScheme-Highlight { color:#5294e2; }
  </style>
    <style
       id="current-color-scheme-37"
       type="text/css">.ColorScheme-Text {
        color:#dfdfdf;
      }</style>
    <style
       id="current-color-scheme-59"
       type="text/css">.ColorScheme-Text {
        color:#dfdfdf;
      }</style>
  </defs>
  <path
     class="folder-back"
     d="M 6,14.67 C 6,13.1954 7.1953997,12 8.67,12 h 11.126153 c 2,0 1.865602,0.144106 4,2 l 2.300128,2 H 55.33 c 1.4746,0 2.67,1.1954 2.67,2.67 v 6 C 58,23.1954 56.8046,22 55.33,22 H 8.67 C 7.1953997,22 6,23.1954 6,24.67"
     id="path11"
     sodipodi:nodetypes="cssscsscssc"
     style="fill:#3fa1ef;fill-opacity:1" />
  <path
     class="darken"
     d="M 8.67,21 A 3.67,3.67 0 0 0 6,22.15 v 2.52 A 2.67,2.67 0 0 1 8.67,22 H 55.33 A 2.67,2.67 0 0 1 58,24.67 V 22.15 A 3.67,3.67 0 0 0 55.33,21"
     id="path13" />
  <rect
     class="folder-front"
     x="6"
     y="22"
     width="52"
     height="32"
     rx="2.6700001"
     ry="2.6700001"
     id="rect15"
     style="fill:url(#linearGradient1006)" />
  <rect
     class="folder-front"
     x="8.6700001"
     y="19.681915"
     width="46.66"
     height="33.318085"
     id="rect27908"
     style="fill:#f2f2f2;stroke-width:0.989921"
     ry="1.1616622"
     rx="1.1616622" />
  <path
     class="lighten"
     d="M 8.67,22 A 2.67,2.67 0 0 0 6,24.67 2.67,1.67 0 0 1 8.67,23 H 55.33 A 2.67,1.67 0 0 1 58,24.67 2.67,2.67 0 0 0 55.33,22"
     id="path17" />
  <path
     class="darken"
     d="M 8.67,53 A 2.67,1.67 0 0 1 6,51.33 2.67,2.67 0 0 0 8.67,54 H 55.33 A 2.67,2.67 0 0 0 58,51.33 2.67,1.67 0 0 1 55.33,53"
     id="path19" />
  <rect
     class="folder-front"
     x="6"
     y="22"
     width="52"
     height="32"
     rx="2.6700001"
     ry="2.6700001"
     id="rect27795"
     style="fill:url(#linearGradient1008)" />
  <path
     class="darken"
     d="m 8.6700001,53 a 2.67,1.67 0 0 1 -2.67,-1.67 2.67,2.67 0 0 0 2.67,2.67 H 55.33 A 2.67,2.67 0 0 0 58,51.33 2.67,1.67 0 0 1 55.33,53"
     id="path19-3"
     style="fill:#000000;fill-opacity:0.125" />
  <path
     id="path4"
     class="ColorScheme-Text"
     d="m 31.999022,30.154296 c -0.08132,0 -0.161474,0.002 -0.242188,0.0039 -0.79287,0.02411 -1.556659,0.165662 -2.273437,0.408203 -0.121491,0.04112 -0.242579,0.086 -0.361329,0.132813 -0.03676,0.01448 -0.07292,0.02995 -0.109375,0.04492 -0.08151,0.03354 -0.162127,0.06736 -0.242187,0.103515 -0.115873,0.05249 -0.229053,0.108219 -0.341797,0.166016 -0.112772,0.05774 -0.224478,0.116709 -0.333984,0.179687 -0.440571,0.25337 -0.854913,0.549776 -1.236328,0.88086 -0.04524,0.03927 -0.08848,0.07881 -0.132813,0.11914 -0.09292,0.08437 -0.184768,0.171068 -0.273438,0.259766 -0.08863,0.08875 -0.175366,0.178587 -0.259765,0.271484 -0.126619,0.139283 -0.248786,0.283416 -0.365235,0.431641 -0.232917,0.296343 -0.44387,0.610926 -0.632812,0.939453 -0.06299,0.10948 -0.123929,0.219285 -0.181641,0.332031 -0.02886,0.05638 -0.05639,0.112777 -0.08398,0.169922 -0.08268,0.171505 -0.160169,0.347276 -0.230468,0.525391 -0.0234,0.05939 -0.04632,0.119616 -0.06836,0.179687 -0.08805,0.240296 -0.163968,0.48569 -0.228514,0.736328 -0.03188,0.125111 -0.06176,0.251298 -0.08789,0.378907 v 0.002 c -0.02613,0.127686 -0.04857,0.25497 -0.06836,0.384765 -0.01979,0.129883 -0.03537,0.260674 -0.04883,0.392579 -0.02681,0.263692 -0.04102,0.531887 -0.04102,0.802734 0,0.270808 0.0142,0.538993 0.04102,0.802734 0.01336,0.131856 0.02894,0.262725 0.04883,0.392578 0.01979,0.129805 0.04233,0.259111 0.06836,0.386719 0.02613,0.127608 0.05571,0.253631 0.08789,0.378907 0.06455,0.250638 0.140498,0.496032 0.228514,0.736328 0.04397,0.120114 0.09103,0.238192 0.140625,0.355469 0.04953,0.117265 0.103182,0.233325 0.158203,0.347656 0.0275,0.05715 0.05512,0.115477 0.08398,0.171875 0.05772,0.112717 0.118624,0.222522 0.181641,0.332031 0.188934,0.328527 0.399915,0.643032 0.632814,0.939453 0.116468,0.148177 0.238616,0.2923 0.365233,0.431641 0.08444,0.09293 0.170988,0.182786 0.259767,0.271484 0.08873,0.08875 0.180564,0.175335 0.273437,0.259766 0.417911,0.37985 0.876318,0.714651 1.369141,0.998047 0.109515,0.06289 0.221211,0.123921 0.333984,0.18164 0.225517,0.115516 0.455831,0.22073 0.693359,0.314453 0.11872,0.04685 0.239838,0.09171 0.361329,0.132813 0.78977,0.267279 1.635595,0.412109 2.515625,0.412109 0.599968,0 1.184696,-0.06783 1.746092,-0.195312 0.262033,-0.05959 0.518158,-0.131744 0.769532,-0.216797 0.12152,-0.04102 0.242501,-0.08603 0.361328,-0.132813 0.237499,-0.09361 0.469796,-0.198888 0.695312,-0.314453 0.112774,-0.05774 0.222575,-0.116738 0.332033,-0.179687 0.492851,-0.283347 0.953183,-0.620198 1.371092,-1 0.09292,-0.08447 0.182787,-0.171068 0.271485,-0.259766 0.08873,-0.08865 0.175347,-0.178616 0.259765,-0.271484 0.12659,-0.139283 0.248816,-0.283416 0.365235,-0.431641 0.184282,-0.234464 0.354698,-0.479576 0.511719,-0.734375 0.04154,-0.06736 0.08356,-0.136307 0.123046,-0.205078 0.06299,-0.109451 0.121975,-0.219256 0.179688,-0.332031 0.02886,-0.05638 0.05834,-0.11473 0.08594,-0.171875 0.05519,-0.114282 0.10665,-0.230332 0.15625,-0.347656 0.04963,-0.117326 0.09669,-0.235287 0.140625,-0.355469 0.08805,-0.240296 0.163978,-0.485729 0.228516,-0.736328 0.03227,-0.125364 0.06176,-0.251299 0.08789,-0.378907 0.02603,-0.127715 0.05042,-0.256894 0.07031,-0.386719 0.01979,-0.129853 0.03537,-0.260693 0.04883,-0.392578 0.02681,-0.263683 0.04102,-0.531887 0.04102,-0.802734 0,-0.270808 -0.0142,-0.539052 -0.04102,-0.802734 -0.01346,-0.131912 -0.02894,-0.262693 -0.04883,-0.392576 -0.01979,-0.129805 -0.04418,-0.257157 -0.07031,-0.384765 -0.02613,-0.127608 -0.05562,-0.255613 -0.08789,-0.38086 -0.06455,-0.250609 -0.140527,-0.496032 -0.228516,-0.736328 -0.02194,-0.06007 -0.04506,-0.120267 -0.06836,-0.179687 -0.0702,-0.178115 -0.145872,-0.351932 -0.228515,-0.523438 -0.0275,-0.05716 -0.05708,-0.113524 -0.08594,-0.169922 -0.05772,-0.112745 -0.116681,-0.224494 -0.179687,-0.333984 -0.188942,-0.328556 -0.401868,-0.643032 -0.634766,-0.939453 -0.116467,-0.148167 -0.238586,-0.2923 -0.365234,-0.431641 -0.08434,-0.09283 -0.171017,-0.182786 -0.259766,-0.271484 -0.08863,-0.08875 -0.178612,-0.175364 -0.271484,-0.259766 -0.179895,-0.163524 -0.367931,-0.318455 -0.5625,-0.464843 -0.25743,-0.193707 -0.52794,-0.371798 -0.808594,-0.533204 -0.109506,-0.06289 -0.219307,-0.123931 -0.332031,-0.18164 -0.05129,-0.02624 -0.102424,-0.05109 -0.154297,-0.07617 -0.0623,-0.03013 -0.126281,-0.06136 -0.189453,-0.08984 -0.02642,-0.01196 -0.05356,-0.02154 -0.08008,-0.0332 -0.09,-0.03956 -0.179743,-0.07907 -0.271484,-0.115234 -9.75e-4,-5.25e-4 -0.0029,-9.43e-4 -0.0039,-0.002 -0.09772,-0.03839 -0.197266,-0.0747 -0.296875,-0.109375 -0.02009,-0.0068 -0.04027,-0.01468 -0.06055,-0.02148 -0.232274,-0.07864 -0.46946,-0.146339 -0.710938,-0.203125 -0.07547,-0.01779 -0.150306,-0.03318 -0.226563,-0.04883 -0.05499,-0.01128 -0.110663,-0.02319 -0.166016,-0.0332 -0.412626,-0.07504 -0.835159,-0.117263 -1.267578,-0.125 -0.04768,-8.75e-4 -0.09661,-0.002 -0.144531,-0.002 z m 0,0.421875 c 0.507321,0 1.003367,0.051 1.482421,0.148437 -0.02009,0.05288 -0.08531,0.02912 -0.140625,0.05469 -0.05187,0.02411 -0.0718,0.07358 -0.126953,0.08398 -0.153276,0.02887 -0.279456,-0.03806 -0.41211,-0.0332 -0.0058,0.05735 0.06401,0.09093 0.09961,0.109375 0.120232,0.06299 0.219172,0.05457 0.388672,0.05078 0.08688,-0.0019 0.187081,0.02593 0.261719,-0.02539 0.04729,-0.03227 0.0444,-0.105028 0.08398,-0.144531 0.01687,-0.01672 0.04047,-0.03259 0.06836,-0.04687 0.08327,0.01963 0.165793,0.04005 0.248047,0.0625 -0.01385,0.05677 -0.104289,0.04316 -0.105469,0.11914 0.0586,0.03519 0.195346,-0.01815 0.248047,-0.07813 0.02038,0.0058 0.04027,0.01146 0.06055,0.01758 0.119217,0.03626 0.236873,0.07522 0.353515,0.117187 0.166264,0.05988 0.329675,0.126113 0.490235,0.197266 -0.03081,0.01818 -0.06469,0.04111 -0.0918,0.04102 -0.06972,-4.38e-4 -0.09808,-0.093 -0.175781,-0.05859 -0.0068,0.09011 0.09548,0.126346 0.160156,0.167968 0.07001,0.0451 0.143076,0.08958 0.167969,0.167969 -0.06855,0.145319 -0.178559,-0.0068 -0.28711,-0.0078 -0.119626,-8.57e-4 -0.29258,0.226322 -0.394529,0.04101 0.02535,-0.09819 0.133693,-0.114007 0.160156,-0.210938 -0.0233,0.0039 -0.04593,0.01244 -0.06836,0.02148 -0.04007,0.01584 -0.08021,0.03663 -0.121094,0.05859 -0.05363,0.02887 -0.109944,0.05798 -0.173828,0.07227 -0.05879,0.01293 -0.115444,0.01013 -0.167969,0.02539 -0.100848,0.02955 -0.172608,0.103231 -0.279297,0.142578 -0.04163,0.01526 -0.09142,0.01091 -0.134765,0.02539 -0.101756,0.03392 -0.223163,0.09551 -0.328125,0.152344 -0.107313,0.05793 -0.228288,0.117983 -0.294921,0.17578 -0.03598,0.03101 -0.13019,0.140711 -0.126953,0.175782 0.0039,0.05006 0.0992,0.06795 0.101562,0.11914 -0.0019,0.03101 -0.05551,0.09753 -0.01758,0.142578 0.03452,0.04102 0.104469,0.0085 0.177735,0.01758 0.128782,0.01594 0.213709,0.12128 0.3125,0.175782 0.07469,0.04121 0.185189,0.09091 0.269531,0.101562 0.115786,0.01448 0.245933,-0.03404 0.261718,0.05859 0.01531,0.08904 -0.1102,0.119909 -0.119141,0.175781 0.0624,0.08223 -0.04131,0.121274 -0.04102,0.19336 2.72e-4,0.05832 0.07198,0.147056 0.134766,0.152344 0.08493,0.0068 0.208853,-0.08326 0.24414,-0.167969 0.04193,-0.100936 0.02453,-0.238995 0.101563,-0.3125 0.392745,0.01079 0.724531,-0.177706 0.699219,-0.580078 -0.0029,-0.03976 -0.02596,-0.09109 -0.01758,-0.134766 0.01228,-0.06503 0.124254,-0.118938 0.109375,-0.201172 0.04232,-0.01302 0.0682,-0.04744 0.08984,-0.08594 0.03227,-0.05735 0.05713,-0.122903 0.117188,-0.144531 0.0039,-0.0019 0.0071,-0.0029 0.01172,-0.0039 0.03432,-0.0078 0.07162,-0.0013 0.109375,0.0098 0.06728,0.01983 0.140418,0.05427 0.220703,0.04883 0.04085,-0.0029 0.09371,-0.03904 0.134765,-0.0332 0.08239,0.01147 0.131456,0.111205 0.19336,0.158203 0.0547,0.0418 0.11299,0.02829 0.126953,0.08398 -0.01619,0.09341 -0.08144,0.09784 -0.07617,0.183594 v 0.0019 c 0.0059,0.07708 0.08692,0.136901 0.126953,0.144531 0.06143,0.01147 0.149608,-0.02162 0.210938,-0.05078 0.0662,-0.0313 0.125764,-0.09949 0.183593,-0.146484 0.08259,0.06338 0.164246,0.128709 0.244141,0.195312 0.0088,0.03742 0.01465,0.07091 0.01758,0.09375 0.0118,0.09098 -0.01132,0.1604 -0.0078,0.244141 0.01082,0.141858 0.189239,0.12684 0.277343,0.201172 0.02652,0.02255 0.03656,0.08008 0.05859,0.109375 0.0428,0.05696 0.09492,0.05839 0.101563,0.11914 0.01579,0.145319 -0.130985,0.156186 -0.117188,0.31836 -0.03042,0.06289 -0.107764,0.06066 -0.101562,0.144531 0.0097,0.132818 0.200052,0.03112 0.251953,0.134766 0.02808,0.0557 -0.0049,0.09637 -0.02539,0.175781 0.06542,0.07776 0.06652,0.201006 -0.04883,0.201172 -0.0701,0 -0.08927,-0.0743 -0.160156,-0.0918 -0.03939,-0.0098 -0.09434,-0.0085 -0.144532,-0.01758 -0.0429,-0.0078 -0.09412,-0.02053 -0.134765,-0.02539 -0.104046,-0.01234 -0.215819,0.01886 -0.277344,-0.04102 0.100292,-0.132984 0.23238,-0.264382 0.361328,-0.378907 0.03832,-0.03421 0.121083,-0.05842 0.101563,-0.126953 -0.07176,-0.06289 -0.158866,0.0049 -0.226563,0.04297 -0.07108,0.03995 -0.156121,0.09748 -0.236328,0.109375 -0.139391,0.02061 -0.325559,-0.04106 -0.439453,0.0332 -0.0157,0.06347 0.129636,0.03896 0.109375,0.134766 -0.05577,0.0087 -0.10746,0.01359 -0.150391,-0.02539 -0.0392,-0.03519 -0.01762,-0.08815 -0.04297,-0.109375 -0.04319,-0.03577 -0.204792,-0.04516 -0.277344,-0.0332 -0.08853,0.01439 -0.167506,0.06698 -0.177734,0.142578 0.106356,0.04977 0.28173,-0.05087 0.320312,0.07617 -0.05831,0.104707 -0.194209,0.162344 -0.175781,0.302734 0.0068,0.05424 0.07081,0.126708 0.117187,0.134766 0.04661,0.0078 0.07215,-0.03748 0.117188,-0.0332 0.04768,0.0049 0.03778,0.05709 0.09375,0.04883 0.08112,-0.0346 0.1258,-0.147866 0.21875,-0.142578 0.111534,0.135171 -0.100469,0.201264 -0.21875,0.244141 -0.134906,0.0488 -0.311294,0.07593 -0.414063,0.11914 -0.05392,0.02245 -0.256334,0.218481 -0.285156,0.06641 -0.02057,-0.109674 0.09947,-0.07771 0.125,-0.167969 -0.13046,-0.02537 -0.25042,0.05647 -0.369141,0.101563 -0.169393,0.06396 -0.457163,0.103014 -0.498046,0.292969 -0.0078,0.03801 0.01558,0.109424 -0.0098,0.134765 -0.02018,0.02041 -0.140551,0.02508 -0.19336,0.04297 -0.08132,0.0279 -0.152891,0.08607 -0.203124,0.09961 -0.03793,0.0104 -0.09315,0.0083 -0.117188,0.01758 -0.06696,0.02596 -0.09109,0.115626 -0.16794,0.175785 -0.03149,0.02459 -0.101894,0.04357 -0.126953,0.06836 -0.04368,0.04335 -0.04996,0.151707 -0.126953,0.167969 -0.04895,0.0039 -0.08868,-0.03581 -0.134766,-0.0078 -0.0059,0.107312 0.03889,0.25283 -0.0078,0.361328 -0.09983,0.08126 -0.21018,0.137336 -0.33789,0.208984 -0.07059,0.03976 -0.133444,0.05108 -0.21875,0.09375 -0.06055,0.03013 -0.115932,0.101566 -0.18555,0.142576 -0.16092,0.09458 -0.354754,0.205843 -0.353515,0.445313 2.73e-4,0.05181 0.02657,0.109354 0.0332,0.169921 0.0039,0.03567 -0.0039,0.07044 0,0.109375 0.01004,0.08797 0.07381,0.199014 0,0.259766 -0.113455,-0.04646 -0.258542,-0.06193 -0.337891,-0.142578 -0.02174,-0.08301 0.0452,-0.150938 0.03516,-0.226563 -0.0078,-0.06075 -0.09476,-0.169948 -0.144532,-0.177734 -0.05129,-0.0078 -0.09745,0.04725 -0.15039,0.04297 -0.06299,-0.0049 -0.122236,-0.0922 -0.203125,-0.101563 -0.118555,-0.0138 -0.206583,0.02609 -0.337891,0.0078 -0.127115,0.06775 -0.162568,0.189661 -0.318359,0.177734 -0.0549,-0.0039 -0.106506,-0.04557 -0.169922,-0.05859 -0.06874,-0.01419 -0.172573,-0.04011 -0.244141,-0.03516 -0.143476,0.0097 -0.247849,0.113823 -0.371094,0.177735 -0.108745,0.05657 -0.262628,0.126952 -0.294921,0.24414 -0.01775,0.06309 -0.003,0.150604 -0.02539,0.208985 -0.01492,0.0384 -0.04642,0.07284 -0.06641,0.109375 -0.09448,0.172321 -0.173287,0.400569 -0.101563,0.648437 0.01063,0.03674 0.103889,0.245215 0.142578,0.287109 0.04349,0.04656 0.171159,0.115905 0.244141,0.117188 0.06172,9.72e-4 0.135484,-0.03228 0.195312,-0.04297 0.06933,-0.01234 0.155743,-0.01308 0.21875,-0.0332 0.182225,-0.05823 0.145706,-0.303824 0.328125,-0.386719 0.07966,-0.03597 0.172475,-0.04359 0.3125,-0.05078 0.04446,0.03733 0.06474,0.103264 0.05859,0.160157 -0.0049,0.04296 -0.04642,0.08132 -0.06836,0.142578 -0.01911,0.05366 -0.0221,0.116842 -0.04102,0.160156 -0.02506,0.05667 -0.08147,0.09902 -0.101562,0.152344 -0.01316,0.0347 -0.0047,0.07806 -0.01563,0.109375 -0.0194,0.05541 -0.09497,0.09338 -0.06055,0.15039 0.180469,0.07164 0.399153,-0.01939 0.55664,0.0098 0.0665,0.01205 0.204364,0.09108 0.203125,0.19336 -8.19e-4,0.0765 -0.06007,0.125224 -0.06836,0.208984 -0.01024,0.10529 -0.05391,0.235065 -0.05859,0.320312 -0.0078,0.139613 0.204687,0.380821 0.353516,0.378906 0.160228,-0.0019 0.254219,-0.159659 0.447266,-0.07617 0.06406,0.02761 0.132386,0.132086 0.203125,0.126954 0.05831,-0.0039 0.144612,-0.107156 0.183593,-0.177735 0.04748,-0.08602 0.05092,-0.15779 0.134766,-0.201172 0.09048,-0.04675 0.163531,-0.0253 0.279297,-0.06836 0.05168,-0.01915 0.096,-0.05181 0.142578,-0.08398 0.04085,-0.028 0.08382,-0.101706 0.134766,-0.05078 0.06728,0.06707 -0.08243,0.105921 -0.02539,0.177735 0.116916,0.06182 0.177056,-0.114495 0.261718,-0.117188 0.02701,-8.46e-4 0.11991,0.0523 0.167969,0.08398 0.06572,0.04306 0.08823,0.103151 0.160156,0.117188 0.04622,0.0087 0.12059,-0.01666 0.185548,-0.0078 0.086,0.01225 0.137953,0.08593 0.203124,0.08398 0.07937,-0.0019 0.117578,-0.08897 0.185547,-0.101563 0.148771,-0.02722 0.204029,0.0166 0.269532,0.109375 0.07342,0.01273 0.07537,-0.08519 0.142578,-0.05078 -0.03686,0.07329 0.01342,0.106799 0.04297,0.167969 0.01911,0.03927 0.01536,0.06697 0.0332,0.08398 0.04017,0.0383 0.118783,0.03894 0.177734,0.07617 0.06221,0.03908 0.09661,0.111515 0.167969,0.19336 0.07342,0.08369 0.196872,0.17162 0.294922,0.177734 0.09263,0.0058 0.167561,-0.02701 0.24414,-0.01758 0.174356,0.02139 0.28231,0.107448 0.404297,0.201172 0.06815,0.0523 0.130464,0.0897 0.152344,0.152344 0.0154,0.04374 0.0078,0.101341 0.02539,0.15039 0.03725,0.104795 0.190118,0.156792 0.134765,0.337891 0.02535,0.05317 0.08147,0.0722 0.142578,0.109375 0.04885,0.02974 0.09161,0.09109 0.144531,0.09961 0.03423,0.0058 0.07192,-0.0095 0.101563,-0.0078 0.09585,0.0068 0.161087,0.04409 0.244141,0.07617 0.05148,0.01983 0.116118,0.02755 0.15039,0.05078 0.0428,0.02887 0.0488,0.124836 0.101563,0.15039 0.03452,0.01672 0.112482,-0.0068 0.169922,0 0.09048,0.0104 0.213194,0.0668 0.294921,0.06836 0.04963,9.72e-4 0.09075,-0.02098 0.134766,-0.01758 0.10233,0.0078 0.182341,0.07237 0.261719,0.144531 -1.015335,1.636862 -2.648938,2.852154 -4.572266,3.316406 -0.0068,-0.07378 -0.02803,-0.149151 -0.03125,-0.222656 -0.0068,-0.159909 0.01871,-0.272164 -0.0078,-0.419922 -0.0196,-0.111764 -0.04557,-0.283189 -0.08594,-0.353516 -0.04514,-0.07825 -0.221214,-0.210056 -0.310547,-0.259765 -0.05899,-0.03266 -0.129114,-0.04458 -0.193359,-0.07617 -0.137255,-0.06728 -0.404595,-0.209963 -0.464843,-0.345717 -0.01745,-0.03908 -0.01448,-0.09114 -0.0332,-0.134766 -0.03656,-0.08622 -0.113289,-0.160982 -0.167969,-0.244141 -0.104104,-0.158674 -0.188077,-0.357638 -0.294921,-0.521484 -0.05402,-0.08321 -0.100933,-0.177867 -0.160157,-0.24414 -0.03471,-0.03908 -0.145901,-0.07596 -0.160156,-0.134766 -0.01901,-0.07786 -0.07753,-0.184584 -0.06836,-0.244141 0.01219,-0.08029 0.168213,-0.143525 0.167969,-0.216797 -2.73e-4,-0.06221 -0.08215,-0.0995 -0.09961,-0.152343 -0.04251,-0.128561 0.02342,-0.203478 0.07422,-0.310547 0.01677,-0.03519 0.03333,-0.0932 0.05078,-0.119141 0.03091,-0.04627 0.09361,-0.05927 0.134765,-0.109375 0.02301,-0.02809 0.03833,-0.08527 0.06836,-0.125 0.06406,-0.08496 0.167005,-0.116676 0.19336,-0.193359 0.02145,-0.0625 0.03502,-0.375946 0.0098,-0.480469 -0.01463,-0.06056 -0.0722,-0.110668 -0.09375,-0.167969 -0.03812,-0.101528 -0.04567,-0.213125 -0.150391,-0.210937 -0.06464,9.72e-4 -0.110807,0.07404 -0.152344,0.11914 -0.0099,0.05998 -0.0058,0.124265 -0.06836,0.142578 -0.09585,0.02829 -0.132357,-0.100929 -0.244145,-0.134765 -0.04446,-0.01351 -0.114751,-0.01295 -0.142578,-0.02539 -0.08161,-0.03655 -0.107352,-0.154864 -0.19336,-0.201172 -0.07196,-0.0384 -0.13414,-0.02498 -0.177734,-0.08398 -0.01814,-0.04063 -0.0049,-0.115498 -0.0098,-0.169922 -0.09234,-0.05395 -0.169778,-0.255251 -0.277344,-0.302734 -0.07127,-0.03169 -0.180334,-0.02836 -0.269531,-0.05859 -0.04193,-0.01419 -0.07532,-0.03159 -0.11914,-0.04102 -0.05402,-0.01205 -0.108552,-0.01416 -0.150391,-0.03516 -0.166878,-0.08262 -0.256232,-0.349475 -0.462891,-0.34375 -0.08814,0.0019 -0.174031,0.08447 -0.253906,0.08398 -0.07937,-4.37e-4 -0.21291,-0.06325 -0.3125,-0.109375 -0.103451,-0.04802 -0.217409,-0.07364 -0.302734,-0.117187 -0.06893,-0.03519 -0.117497,-0.100252 -0.177735,-0.126953 -0.04612,-0.02041 -0.112549,-0.02313 -0.15039,-0.04102 -0.05382,-0.02547 -0.11073,-0.08042 -0.177735,-0.126953 -0.06357,-0.04394 -0.132269,-0.111047 -0.134765,-0.167969 -0.0029,-0.0659 0.06153,-0.122209 0.06836,-0.185547 0.02174,-0.200345 -0.127646,-0.344526 -0.220703,-0.46289 -0.06893,-0.08797 -0.1496,-0.162733 -0.21875,-0.244141 0.0039,-0.05405 0.0039,-0.06325 0,-0.117187 -0.05236,-0.05074 -0.09701,-0.127122 -0.152344,-0.203125 -0.05002,-0.06853 -0.145625,-0.141872 -0.158203,-0.21875 -0.0155,-0.09458 0.03598,-0.175809 0,-0.267579 -0.05997,-0.152288 -0.273346,-0.08418 -0.246093,0.117188 0.0078,0.0555 0.0857,0.13052 0.109374,0.185547 0.02428,0.05609 0.02035,0.125793 0.04297,0.193359 0.02174,0.06474 0.08677,0.120428 0.109375,0.19336 0.03578,0.115185 0.0355,0.238548 0.06836,0.310546 0.02896,0.06396 0.134037,0.125693 0.07422,0.203125 -0.07976,0.01652 -0.108603,-0.06306 -0.158203,-0.109375 -0.02769,-0.02576 -0.129282,-0.07483 -0.144531,-0.134765 -0.01277,-0.04948 0.0323,-0.117167 0.01758,-0.177735 -0.02896,-0.118723 -0.268683,-0.121966 -0.269531,-0.24414 -4.39e-4,-0.07669 0.0987,-0.086 0.09961,-0.160156 6.53e-4,-0.08116 -0.11077,-0.149931 -0.134766,-0.21875 -0.02194,-0.06309 -0.02501,-0.163197 -0.0332,-0.251954 -0.0078,-0.0833 0.0014,-0.179869 -0.01758,-0.24414 -0.01726,-0.05784 -0.104364,-0.136932 -0.160156,-0.167969 -0.07381,-0.04102 -0.131834,-0.02391 -0.167969,-0.08398 -0.0314,-0.05249 -0.05177,-0.162178 -0.05859,-0.21875 -0.01219,-0.101169 -0.0039,-0.21234 -0.0098,-0.320313 -0.0058,-0.108138 -0.01658,-0.211918 0,-0.328125 0.04173,-0.08136 0.119588,-0.120561 0.16211,-0.201172 0.02964,-0.05609 0.03296,-0.125883 0.06641,-0.185547 0.06172,-0.109888 0.196689,-0.210036 0.287114,-0.318359 0.0975,-0.116692 0.187081,-0.229889 0.24414,-0.363281 0.02048,-0.04734 0.0743,-0.150935 0.06641,-0.208985 -0.01112,-0.08087 -0.162452,-0.147822 -0.150391,-0.24414 0.0078,-0.05968 0.09187,-0.06024 0.117188,-0.119141 0.01297,-0.03042 0.02471,-0.114085 0.02539,-0.15039 9.75e-4,-0.08116 -0.04177,-0.165287 -0.02539,-0.251954 0.01384,-0.07397 0.124989,-0.104362 0.06836,-0.185546 -0.05616,-0.08039 -0.158545,0.04234 -0.220703,-0.0098 -0.05704,-0.04782 0.01231,-0.105371 0.01758,-0.193359 0.0019,-0.03499 -0.02128,-0.0737 -0.01758,-0.09961 0.0049,-0.03762 0.08005,-0.101699 0.06055,-0.126953 -0.03042,-0.03849 -0.06366,-0.11566 -0.111328,-0.177734 0.940081,-0.751983 2.066996,-1.282254 3.298828,-1.50586 h 0.002 c 0.01531,0.02605 0.02691,0.05699 0.06445,0.06836 0.07342,-0.03801 0.147626,0.0029 0.228515,0 0.07878,-0.0029 0.149492,-0.039 0.236328,-0.02539 0.153461,0.02401 0.367367,0.175138 0.488282,0.09375 0.03042,-0.02061 0.02328,-0.05801 0.05078,-0.111328 0.02184,-0.04267 0.05521,-0.08806 0.07617,-0.140625 0.06114,-0.0019 0.122176,-0.002 0.183593,-0.002 z"
     style="fill:#f2f2f2;fill-opacity:1" />
</svg>
