<?xml version="1.0" encoding="UTF-8" standalone="no"?>
<svg
   viewBox="0 0 64 64"
   version="1.1"
   id="svg21"
   sodipodi:docname="folder-github2.svg"
   inkscape:version="1.1.2 (0a00cf5339, 2022-02-04)"
   inkscape:export-filename="/home/josh/.icons/Joyful/places/64x64/folder-blue.png"
   inkscape:export-xdpi="96"
   inkscape:export-ydpi="96"
   xmlns:inkscape="http://www.inkscape.org/namespaces/inkscape"
   xmlns:sodipodi="http://sodipodi.sourceforge.net/DTD/sodipodi-0.dtd"
   xmlns:xlink="http://www.w3.org/1999/xlink"
   xmlns="http://www.w3.org/2000/svg"
   xmlns:svg="http://www.w3.org/2000/svg">
  <sodipodi:namedview
     id="namedview23"
     pagecolor="#ffffff"
     bordercolor="#666666"
     borderopacity="1.0"
     inkscape:pageshadow="2"
     inkscape:pageopacity="0.0"
     inkscape:pagecheckerboard="0"
     showgrid="false"
     inkscape:zoom="11.71622"
     inkscape:cx="29.10495"
     inkscape:cy="33.244511"
     inkscape:window-width="1920"
     inkscape:window-height="991"
     inkscape:window-x="1920"
     inkscape:window-y="32"
     inkscape:window-maximized="1"
     inkscape:current-layer="svg21" />
  <defs
     id="defs9">
    <linearGradient
       id="folder-front"
       x1="0%"
       y1="0%"
       x2="0%"
       y2="100%">
      <stop
         offset="0%"
         style="stop-color:#90CAF9"
         id="stop2" />
      <!-- Blue 200 -->
      <stop
         offset="100%"
         style="stop-color:#64B5F6"
         id="stop4" />
      <!-- Blue 300 -->
    </linearGradient>
    <style
       type="text/css"
       id="style7">
      .folder-back { fill: #2196F3 /* Blue 500 */ }
      .folder-front { fill: url(#folder-front) }
      .lighten { fill: white; fill-opacity: 0.125 }
      .darken { fill: black; fill-opacity: 0.125 }
    </style>
    <style
       id="current-color-scheme"
       type="text/css">.ColorScheme-Text { color:#dedede; } .ColorScheme-Text { color:#dedede; }</style>
    <linearGradient
       inkscape:collect="always"
       xlink:href="#folder-front"
       id="linearGradient1006"
       x1="4.7067872"
       y1="28.044607"
       x2="4.7067872"
       y2="68.836763"
       gradientTransform="scale(1.2747549,0.78446454)"
       gradientUnits="userSpaceOnUse" />
    <linearGradient
       inkscape:collect="always"
       xlink:href="#folder-front"
       id="linearGradient1008"
       x1="4.7067872"
       y1="28.044607"
       x2="4.7067872"
       y2="68.836763"
       gradientTransform="scale(1.2747549,0.78446454)"
       gradientUnits="userSpaceOnUse" />
    <style
       id="current-color-scheme-3"
       type="text/css">
   .ColorScheme-Text { color:#dfdfdf; } .ColorScheme-Highlight { color:#4285f4; } .ColorScheme-NeutralText { color:#ff9800; } .ColorScheme-PositiveText { color:#4caf50; } .ColorScheme-NegativeText { color:#f44336; }
  </style>
    <style
       id="current-color-scheme-6"
       type="text/css">
   .ColorScheme-Text { color:#eeeeee; } .ColorScheme-Highlight { color:#424242; }
  </style>
    <style
       id="current-color-scheme-7"
       type="text/css">
   .ColorScheme-Text { color:#FFFFFF; } .ColorScheme-Highlight { color:#5294e2; }
  </style>
    <linearGradient
       id="arrongin"
       x1="0%"
       x2="0%"
       y1="0%"
       y2="100%">
      <stop
         offset="0%"
         style="stop-color:#dd9b44; stop-opacity:1"
         id="stop9750" />
      <stop
         offset="100%"
         style="stop-color:#ad6c16; stop-opacity:1"
         id="stop9752" />
    </linearGradient>
    <linearGradient
       id="aurora"
       x1="0%"
       x2="0%"
       y1="0%"
       y2="100%">
      <stop
         offset="0%"
         style="stop-color:#09D4DF; stop-opacity:1"
         id="stop9755" />
      <stop
         offset="100%"
         style="stop-color:#9269F4; stop-opacity:1"
         id="stop9757" />
    </linearGradient>
    <linearGradient
       id="fitdance"
       x1="0%"
       x2="0%"
       y1="0%"
       y2="100%">
      <stop
         offset="0%"
         style="stop-color:#1AD6AB; stop-opacity:1"
         id="stop9760" />
      <stop
         offset="100%"
         style="stop-color:#329DB6; stop-opacity:1"
         id="stop9762" />
    </linearGradient>
    <linearGradient
       id="oomox"
       x1="0%"
       x2="0%"
       y1="0%"
       y2="100%">
      <stop
         offset="0%"
         style="stop-color:#efefe7; stop-opacity:1"
         id="stop9765" />
      <stop
         offset="100%"
         style="stop-color:#8f8f8b; stop-opacity:1"
         id="stop9767" />
    </linearGradient>
    <linearGradient
       id="rainblue"
       x1="0%"
       x2="0%"
       y1="0%"
       y2="100%">
      <stop
         offset="0%"
         style="stop-color:#00F260; stop-opacity:1"
         id="stop9770" />
      <stop
         offset="100%"
         style="stop-color:#0575E6; stop-opacity:1"
         id="stop9772" />
    </linearGradient>
    <linearGradient
       id="sunrise"
       x1="0%"
       x2="0%"
       y1="0%"
       y2="100%">
      <stop
         offset="0%"
         style="stop-color: #FF8501; stop-opacity:1"
         id="stop9775" />
      <stop
         offset="100%"
         style="stop-color: #FFCB01; stop-opacity:1"
         id="stop9777" />
    </linearGradient>
    <linearGradient
       id="telinkrin"
       x1="0%"
       x2="0%"
       y1="0%"
       y2="100%">
      <stop
         offset="0%"
         style="stop-color: #b2ced6; stop-opacity:1"
         id="stop9780" />
      <stop
         offset="100%"
         style="stop-color: #6da5b7; stop-opacity:1"
         id="stop9782" />
    </linearGradient>
    <linearGradient
       id="60spsycho"
       x1="0%"
       x2="0%"
       y1="0%"
       y2="100%">
      <stop
         offset="0%"
         style="stop-color: #df5940; stop-opacity:1"
         id="stop9785" />
      <stop
         offset="25%"
         style="stop-color: #d8d15f; stop-opacity:1"
         id="stop9787" />
      <stop
         offset="50%"
         style="stop-color: #e9882a; stop-opacity:1"
         id="stop9789" />
      <stop
         offset="100%"
         style="stop-color: #279362; stop-opacity:1"
         id="stop9791" />
    </linearGradient>
    <linearGradient
       id="90ssummer"
       x1="0%"
       x2="0%"
       y1="0%"
       y2="100%">
      <stop
         offset="0%"
         style="stop-color: #f618c7; stop-opacity:1"
         id="stop9794" />
      <stop
         offset="20%"
         style="stop-color: #94ffab; stop-opacity:1"
         id="stop9796" />
      <stop
         offset="50%"
         style="stop-color: #fbfd54; stop-opacity:1"
         id="stop9798" />
      <stop
         offset="100%"
         style="stop-color: #0f83ae; stop-opacity:1"
         id="stop9800" />
    </linearGradient>
    <style
       id="current-color-scheme-5"
       type="text/css">.ColorScheme-Text { color:#dedede; }</style>
    <style
       type="text/css"
       id="current-color-scheme-35">
   .ColorScheme-Text { color:#F6F6F6; } .ColorScheme-Highlight { color:#ffffff; }
  </style>
    <style
       id="current-color-scheme-9"
       type="text/css">
   .ColorScheme-Text { color:#dfdfdf; } .ColorScheme-Highlight { color:#4285f4; } .ColorScheme-NeutralText { color:#ff9800; } .ColorScheme-PositiveText { color:#4caf50; } .ColorScheme-NegativeText { color:#f44336; }
  </style>
    <style
       id="current-color-scheme-1"
       type="text/css">
   .ColorScheme-Text { color:#dfdfdf; } .ColorScheme-Highlight { color:#4285f4; } .ColorScheme-NeutralText { color:#ff9800; } .ColorScheme-PositiveText { color:#4caf50; } .ColorScheme-NegativeText { color:#f44336; }
  </style>
    <style
       id="current-color-scheme-2"
       type="text/css">.ColorScheme-Text {
        color:#dfdfdf;
      }</style>
    <style
       id="current-color-scheme-70"
       type="text/css">
   .ColorScheme-Text { color:#eeeeee; } .ColorScheme-Highlight { color:#424242; }
  </style>
    <style
       id="current-color-scheme-93"
       type="text/css">
   .ColorScheme-Text { color:#dfdfdf; } .ColorScheme-Highlight { color:#4285f4; } .ColorScheme-NeutralText { color:#ff9800; } .ColorScheme-PositiveText { color:#4caf50; } .ColorScheme-NegativeText { color:#f44336; }
  </style>
    <style
       type="text/css"
       id="current-color-scheme-60">
      .ColorScheme-Text {
        color:#eff0f1;
      }
      </style>
    <style
       id="current-color-scheme-62"
       type="text/css">
   .ColorScheme-Text { color:#dfdfdf; } .ColorScheme-Highlight { color:#4285f4; } .ColorScheme-NeutralText { color:#ff9800; } .ColorScheme-PositiveText { color:#4caf50; } .ColorScheme-NegativeText { color:#f44336; }
  </style>
    <style
       id="current-color-scheme-61"
       type="text/css">.ColorScheme-Text {
        color:#dfdfdf;
      }</style>
    <style
       id="current-color-scheme-8"
       type="text/css">
   .ColorScheme-Text { color:#dfdfdf; } .ColorScheme-Highlight { color:#4285f4; } .ColorScheme-NeutralText { color:#ff9800; } .ColorScheme-PositiveText { color:#4caf50; } .ColorScheme-NegativeText { color:#f44336; }
  </style>
    <style
       id="current-color-scheme-79"
       type="text/css">
   .ColorScheme-Text { color:#d3dae3; } .ColorScheme-Highlight { color:#5294e2; }
  </style>
    <style
       id="current-color-scheme-20"
       type="text/css">
   .ColorScheme-Text { color:#d3dae3; } .ColorScheme-Highlight { color:#5294e2; }
  </style>
    <style
       id="current-color-scheme-23"
       type="text/css">
   .ColorScheme-Text { color:#dfdfdf; } .ColorScheme-Highlight { color:#4285f4; } .ColorScheme-NeutralText { color:#ff9800; } .ColorScheme-PositiveText { color:#4caf50; } .ColorScheme-NegativeText { color:#f44336; }
  </style>
    <style
       id="current-color-scheme-75"
       type="text/css">.ColorScheme-Text {
        color:#dfdfdf;
      }</style>
    <style
       id="current-color-scheme-92"
       type="text/css">
   .ColorScheme-Text { color:#dfdfdf; } .ColorScheme-Highlight { color:#4285f4; } .ColorScheme-NeutralText { color:#ff9800; } .ColorScheme-PositiveText { color:#4caf50; } .ColorScheme-NegativeText { color:#f44336; }
  </style>
    <style
       id="current-color-scheme-67"
       type="text/css">
   .ColorScheme-Text { color:#dfdfdf; } .ColorScheme-Highlight { color:#4285f4; } .ColorScheme-NeutralText { color:#ff9800; } .ColorScheme-PositiveText { color:#4caf50; } .ColorScheme-NegativeText { color:#f44336; }
  </style>
    <style
       id="current-color-scheme-53"
       type="text/css">
   .ColorScheme-Text { color:#FFFFFF; } .ColorScheme-Highlight { color:#5294e2; }
  </style>
    <style
       id="current-color-scheme-56"
       type="text/css">.ColorScheme-Text {
        color:#dfdfdf;
      }</style>
    <style
       id="current-color-scheme-29"
       type="text/css">.ColorScheme-Text { color:#dedede; }</style>
    <style
       type="text/css"
       id="current-color-scheme-12">
      .ColorScheme-Text {
        color:#eff0f1;
      }
      </style>
    <style
       id="current-color-scheme-709"
       type="text/css">
   .ColorScheme-Text { color:#dfdfdf; } .ColorScheme-Highlight { color:#4285f4; } .ColorScheme-NeutralText { color:#ff9800; } .ColorScheme-PositiveText { color:#4caf50; } .ColorScheme-NegativeText { color:#f44336; }
  </style>
  </defs>
  <path
     class="folder-back"
     d="M 6,14.67 C 6,13.1954 7.1953997,12 8.67,12 h 11.126153 c 2,0 1.865602,0.144106 4,2 l 2.300128,2 H 55.33 c 1.4746,0 2.67,1.1954 2.67,2.67 v 6 C 58,23.1954 56.8046,22 55.33,22 H 8.67 C 7.1953997,22 6,23.1954 6,24.67"
     id="path11"
     sodipodi:nodetypes="cssscsscssc"
     style="fill:#3fa1ef;fill-opacity:1" />
  <path
     class="darken"
     d="M 8.67,21 A 3.67,3.67 0 0 0 6,22.15 v 2.52 A 2.67,2.67 0 0 1 8.67,22 H 55.33 A 2.67,2.67 0 0 1 58,24.67 V 22.15 A 3.67,3.67 0 0 0 55.33,21"
     id="path13" />
  <rect
     class="folder-front"
     x="6"
     y="22"
     width="52"
     height="32"
     rx="2.6700001"
     ry="2.6700001"
     id="rect15"
     style="fill:url(#linearGradient1006)" />
  <rect
     class="folder-front"
     x="8.6700001"
     y="19.681915"
     width="46.66"
     height="33.318085"
     id="rect27908"
     style="fill:#f2f2f2;stroke-width:0.989921"
     ry="1.1616622"
     rx="1.1616622" />
  <path
     class="lighten"
     d="M 8.67,22 A 2.67,2.67 0 0 0 6,24.67 2.67,1.67 0 0 1 8.67,23 H 55.33 A 2.67,1.67 0 0 1 58,24.67 2.67,2.67 0 0 0 55.33,22"
     id="path17" />
  <path
     class="darken"
     d="M 8.67,53 A 2.67,1.67 0 0 1 6,51.33 2.67,2.67 0 0 0 8.67,54 H 55.33 A 2.67,2.67 0 0 0 58,51.33 2.67,1.67 0 0 1 55.33,53"
     id="path19" />
  <rect
     class="folder-front"
     x="6"
     y="22"
     width="52"
     height="32"
     rx="2.6700001"
     ry="2.6700001"
     id="rect27795"
     style="fill:url(#linearGradient1008)" />
  <path
     class="darken"
     d="m 8.6700001,53 a 2.67,1.67 0 0 1 -2.67,-1.67 2.67,2.67 0 0 0 2.67,2.67 H 55.33 A 2.67,2.67 0 0 0 58,51.33 2.67,1.67 0 0 1 55.33,53"
     id="path19-3"
     style="fill:#000000;fill-opacity:0.125" />
  <path
     style="fill:#f2f2f2;fill-opacity:1"
     class="ColorScheme-Text"
     d="m 32,30.129883 c -4.432,0 -8,3.568 -8,8 0,3.572969 2.319953,6.580128 5.541016,7.613281 v -1.662109 c -2.02505,0.44688 -2.451172,-0.890625 -2.451172,-0.890625 -0.33119,-0.85462 -0.808594,-1.082031 -0.808594,-1.082031 -0.66103,-0.45857 0.04883,-0.451172 0.04883,-0.451172 0.73072,0.05219 1.115234,0.763672 1.115234,0.763672 0.649401,1.13032 1.704391,0.804594 2.119141,0.615234 0.06615,-0.47773 0.255071,-0.805404 0.462891,-0.990234 -1.6165,-0.1867 -3.017578,-1.220416 -3.017578,-4.055016 0,-0.807401 0.586534,-1.867737 1.052234,-2.384438 -0.0751,-0.1871 -0.326088,-1.339321 0.07031,-2.357421 0,0 0.03819,-0.01202 0.117188,-0.01563 0.2369,-0.0111 0.7698,0.43835 1.8125,1.15625 0.629544,-0.180863 1.435033,-0.265432 1.938,-0.269532 0.567132,-0.0047 1.223838,0.09289 1.815614,0.269532 1.043,-0.7179 1.709313,-1.169203 1.945313,-1.158204 h 0.002 c 0.0789,0.0037 0.117187,0.01563 0.117188,0.01563 0.39732,1.01806 0.146905,2.172275 0.07227,2.359374 C 36.418904,36.123245 37,37.183481 37,37.990883 c 0,2.84182 -1.700866,3.866146 -3.322266,4.049156 0.261006,0.2284 0.326172,0.681284 0.326172,1.371094 0,0.83312 -0.0021,1.37464 -0.0039,1.71875 v 0.740234 C 37.456574,44.985436 40,41.869799 40,38.129883 c 0,-4.432 -3.568,-8 -8,-8 z"
     id="path16689" />
</svg>
