<?xml version="1.0" encoding="UTF-8" standalone="no"?>
<svg
   viewBox="0 0 64 64"
   version="1.1"
   id="svg21"
   sodipodi:docname="folder-publicshare2.svg"
   inkscape:version="1.1.2 (0a00cf5339, 2022-02-04)"
   inkscape:export-filename="/home/josh/.icons/Joyful/places/64x64/folder-blue.png"
   inkscape:export-xdpi="96"
   inkscape:export-ydpi="96"
   xmlns:inkscape="http://www.inkscape.org/namespaces/inkscape"
   xmlns:sodipodi="http://sodipodi.sourceforge.net/DTD/sodipodi-0.dtd"
   xmlns:xlink="http://www.w3.org/1999/xlink"
   xmlns="http://www.w3.org/2000/svg"
   xmlns:svg="http://www.w3.org/2000/svg">
  <sodipodi:namedview
     id="namedview23"
     pagecolor="#ffffff"
     bordercolor="#666666"
     borderopacity="1.0"
     inkscape:pageshadow="2"
     inkscape:pageopacity="0.0"
     inkscape:pagecheckerboard="0"
     showgrid="false"
     inkscape:zoom="10.351478"
     inkscape:cx="26.856068"
     inkscape:cy="35.59878"
     inkscape:window-width="1920"
     inkscape:window-height="991"
     inkscape:window-x="1920"
     inkscape:window-y="32"
     inkscape:window-maximized="1"
     inkscape:current-layer="svg21"
     inkscape:snap-global="false" />
  <defs
     id="defs9">
    <linearGradient
       id="folder-front"
       x1="0%"
       y1="0%"
       x2="0%"
       y2="100%">
      <stop
         offset="0%"
         style="stop-color:#90CAF9"
         id="stop2" />
      <!-- Blue 200 -->
      <stop
         offset="100%"
         style="stop-color:#64B5F6"
         id="stop4" />
      <!-- Blue 300 -->
    </linearGradient>
    <style
       type="text/css"
       id="style7">
      .folder-back { fill: #2196F3 /* Blue 500 */ }
      .folder-front { fill: url(#folder-front) }
      .lighten { fill: white; fill-opacity: 0.125 }
      .darken { fill: black; fill-opacity: 0.125 }
    </style>
    <style
       id="current-color-scheme"
       type="text/css">.ColorScheme-Text { color:#dedede; } .ColorScheme-Text { color:#dedede; }</style>
    <linearGradient
       inkscape:collect="always"
       xlink:href="#folder-front"
       id="linearGradient1006"
       x1="4.7067872"
       y1="28.044607"
       x2="4.7067872"
       y2="68.836763"
       gradientTransform="scale(1.2747549,0.78446454)"
       gradientUnits="userSpaceOnUse" />
    <linearGradient
       inkscape:collect="always"
       xlink:href="#folder-front"
       id="linearGradient1008"
       x1="4.7067872"
       y1="28.044607"
       x2="4.7067872"
       y2="68.836763"
       gradientTransform="scale(1.2747549,0.78446454)"
       gradientUnits="userSpaceOnUse" />
    <style
       id="current-color-scheme-3"
       type="text/css">
   .ColorScheme-Text { color:#dfdfdf; } .ColorScheme-Highlight { color:#4285f4; } .ColorScheme-NeutralText { color:#ff9800; } .ColorScheme-PositiveText { color:#4caf50; } .ColorScheme-NegativeText { color:#f44336; }
  </style>
    <style
       id="current-color-scheme-6"
       type="text/css">
   .ColorScheme-Text { color:#eeeeee; } .ColorScheme-Highlight { color:#424242; }
  </style>
    <style
       id="current-color-scheme-7"
       type="text/css">
   .ColorScheme-Text { color:#FFFFFF; } .ColorScheme-Highlight { color:#5294e2; }
  </style>
    <linearGradient
       id="arrongin"
       x1="0%"
       x2="0%"
       y1="0%"
       y2="100%">
      <stop
         offset="0%"
         style="stop-color:#dd9b44; stop-opacity:1"
         id="stop9750" />
      <stop
         offset="100%"
         style="stop-color:#ad6c16; stop-opacity:1"
         id="stop9752" />
    </linearGradient>
    <linearGradient
       id="aurora"
       x1="0%"
       x2="0%"
       y1="0%"
       y2="100%">
      <stop
         offset="0%"
         style="stop-color:#09D4DF; stop-opacity:1"
         id="stop9755" />
      <stop
         offset="100%"
         style="stop-color:#9269F4; stop-opacity:1"
         id="stop9757" />
    </linearGradient>
    <linearGradient
       id="fitdance"
       x1="0%"
       x2="0%"
       y1="0%"
       y2="100%">
      <stop
         offset="0%"
         style="stop-color:#1AD6AB; stop-opacity:1"
         id="stop9760" />
      <stop
         offset="100%"
         style="stop-color:#329DB6; stop-opacity:1"
         id="stop9762" />
    </linearGradient>
    <linearGradient
       id="oomox"
       x1="0%"
       x2="0%"
       y1="0%"
       y2="100%">
      <stop
         offset="0%"
         style="stop-color:#efefe7; stop-opacity:1"
         id="stop9765" />
      <stop
         offset="100%"
         style="stop-color:#8f8f8b; stop-opacity:1"
         id="stop9767" />
    </linearGradient>
    <linearGradient
       id="rainblue"
       x1="0%"
       x2="0%"
       y1="0%"
       y2="100%">
      <stop
         offset="0%"
         style="stop-color:#00F260; stop-opacity:1"
         id="stop9770" />
      <stop
         offset="100%"
         style="stop-color:#0575E6; stop-opacity:1"
         id="stop9772" />
    </linearGradient>
    <linearGradient
       id="sunrise"
       x1="0%"
       x2="0%"
       y1="0%"
       y2="100%">
      <stop
         offset="0%"
         style="stop-color: #FF8501; stop-opacity:1"
         id="stop9775" />
      <stop
         offset="100%"
         style="stop-color: #FFCB01; stop-opacity:1"
         id="stop9777" />
    </linearGradient>
    <linearGradient
       id="telinkrin"
       x1="0%"
       x2="0%"
       y1="0%"
       y2="100%">
      <stop
         offset="0%"
         style="stop-color: #b2ced6; stop-opacity:1"
         id="stop9780" />
      <stop
         offset="100%"
         style="stop-color: #6da5b7; stop-opacity:1"
         id="stop9782" />
    </linearGradient>
    <linearGradient
       id="60spsycho"
       x1="0%"
       x2="0%"
       y1="0%"
       y2="100%">
      <stop
         offset="0%"
         style="stop-color: #df5940; stop-opacity:1"
         id="stop9785" />
      <stop
         offset="25%"
         style="stop-color: #d8d15f; stop-opacity:1"
         id="stop9787" />
      <stop
         offset="50%"
         style="stop-color: #e9882a; stop-opacity:1"
         id="stop9789" />
      <stop
         offset="100%"
         style="stop-color: #279362; stop-opacity:1"
         id="stop9791" />
    </linearGradient>
    <linearGradient
       id="90ssummer"
       x1="0%"
       x2="0%"
       y1="0%"
       y2="100%">
      <stop
         offset="0%"
         style="stop-color: #f618c7; stop-opacity:1"
         id="stop9794" />
      <stop
         offset="20%"
         style="stop-color: #94ffab; stop-opacity:1"
         id="stop9796" />
      <stop
         offset="50%"
         style="stop-color: #fbfd54; stop-opacity:1"
         id="stop9798" />
      <stop
         offset="100%"
         style="stop-color: #0f83ae; stop-opacity:1"
         id="stop9800" />
    </linearGradient>
    <style
       id="current-color-scheme-5"
       type="text/css">.ColorScheme-Text { color:#dedede; }</style>
    <style
       type="text/css"
       id="current-color-scheme-35">
   .ColorScheme-Text { color:#F6F6F6; } .ColorScheme-Highlight { color:#ffffff; }
  </style>
    <style
       id="current-color-scheme-9"
       type="text/css">
   .ColorScheme-Text { color:#dfdfdf; } .ColorScheme-Highlight { color:#4285f4; } .ColorScheme-NeutralText { color:#ff9800; } .ColorScheme-PositiveText { color:#4caf50; } .ColorScheme-NegativeText { color:#f44336; }
  </style>
    <style
       id="current-color-scheme-1"
       type="text/css">
   .ColorScheme-Text { color:#dfdfdf; } .ColorScheme-Highlight { color:#4285f4; } .ColorScheme-NeutralText { color:#ff9800; } .ColorScheme-PositiveText { color:#4caf50; } .ColorScheme-NegativeText { color:#f44336; }
  </style>
    <style
       id="current-color-scheme-2"
       type="text/css">.ColorScheme-Text {
        color:#dfdfdf;
      }</style>
    <style
       id="current-color-scheme-70"
       type="text/css">
   .ColorScheme-Text { color:#eeeeee; } .ColorScheme-Highlight { color:#424242; }
  </style>
    <style
       id="current-color-scheme-93"
       type="text/css">
   .ColorScheme-Text { color:#dfdfdf; } .ColorScheme-Highlight { color:#4285f4; } .ColorScheme-NeutralText { color:#ff9800; } .ColorScheme-PositiveText { color:#4caf50; } .ColorScheme-NegativeText { color:#f44336; }
  </style>
    <style
       type="text/css"
       id="current-color-scheme-60">
      .ColorScheme-Text {
        color:#eff0f1;
      }
      </style>
    <style
       id="current-color-scheme-62"
       type="text/css">
   .ColorScheme-Text { color:#dfdfdf; } .ColorScheme-Highlight { color:#4285f4; } .ColorScheme-NeutralText { color:#ff9800; } .ColorScheme-PositiveText { color:#4caf50; } .ColorScheme-NegativeText { color:#f44336; }
  </style>
    <style
       id="current-color-scheme-61"
       type="text/css">.ColorScheme-Text {
        color:#dfdfdf;
      }</style>
    <style
       id="current-color-scheme-8"
       type="text/css">
   .ColorScheme-Text { color:#dfdfdf; } .ColorScheme-Highlight { color:#4285f4; } .ColorScheme-NeutralText { color:#ff9800; } .ColorScheme-PositiveText { color:#4caf50; } .ColorScheme-NegativeText { color:#f44336; }
  </style>
    <style
       id="current-color-scheme-79"
       type="text/css">
   .ColorScheme-Text { color:#d3dae3; } .ColorScheme-Highlight { color:#5294e2; }
  </style>
    <style
       id="current-color-scheme-20"
       type="text/css">
   .ColorScheme-Text { color:#d3dae3; } .ColorScheme-Highlight { color:#5294e2; }
  </style>
    <style
       id="current-color-scheme-23"
       type="text/css">
   .ColorScheme-Text { color:#dfdfdf; } .ColorScheme-Highlight { color:#4285f4; } .ColorScheme-NeutralText { color:#ff9800; } .ColorScheme-PositiveText { color:#4caf50; } .ColorScheme-NegativeText { color:#f44336; }
  </style>
    <style
       id="current-color-scheme-75"
       type="text/css">.ColorScheme-Text {
        color:#dfdfdf;
      }</style>
    <style
       id="current-color-scheme-92"
       type="text/css">
   .ColorScheme-Text { color:#dfdfdf; } .ColorScheme-Highlight { color:#4285f4; } .ColorScheme-NeutralText { color:#ff9800; } .ColorScheme-PositiveText { color:#4caf50; } .ColorScheme-NegativeText { color:#f44336; }
  </style>
    <style
       id="current-color-scheme-67"
       type="text/css">
   .ColorScheme-Text { color:#dfdfdf; } .ColorScheme-Highlight { color:#4285f4; } .ColorScheme-NeutralText { color:#ff9800; } .ColorScheme-PositiveText { color:#4caf50; } .ColorScheme-NegativeText { color:#f44336; }
  </style>
    <style
       id="current-color-scheme-53"
       type="text/css">
   .ColorScheme-Text { color:#FFFFFF; } .ColorScheme-Highlight { color:#5294e2; }
  </style>
    <style
       id="current-color-scheme-56"
       type="text/css">.ColorScheme-Text {
        color:#dfdfdf;
      }</style>
    <style
       id="current-color-scheme-29"
       type="text/css">.ColorScheme-Text { color:#dedede; }</style>
    <style
       type="text/css"
       id="current-color-scheme-12">
      .ColorScheme-Text {
        color:#eff0f1;
      }
      </style>
    <style
       id="current-color-scheme-709"
       type="text/css">
   .ColorScheme-Text { color:#dfdfdf; } .ColorScheme-Highlight { color:#4285f4; } .ColorScheme-NeutralText { color:#ff9800; } .ColorScheme-PositiveText { color:#4caf50; } .ColorScheme-NegativeText { color:#f44336; }
  </style>
    <style
       type="text/css"
       id="current-color-scheme-36">
   .ColorScheme-Text { color:#F6F6F6; } .ColorScheme-Highlight { color:#ffffff; }
  </style>
    <style
       id="current-color-scheme-0"
       type="text/css">
   .ColorScheme-Text { color:#dfdfdf; } .ColorScheme-Highlight { color:#4285f4; } .ColorScheme-NeutralText { color:#ff9800; } .ColorScheme-PositiveText { color:#4caf50; } .ColorScheme-NegativeText { color:#f44336; }
  </style>
    <style
       id="current-color-scheme-626"
       type="text/css">
   .ColorScheme-Text { color:#dfdfdf; } .ColorScheme-Highlight { color:#4285f4; } .ColorScheme-NeutralText { color:#ff9800; } .ColorScheme-PositiveText { color:#4caf50; } .ColorScheme-NegativeText { color:#f44336; }
  </style>
    <style
       id="current-color-scheme-18"
       type="text/css">.ColorScheme-Text {
        color:#dfdfdf;
      }</style>
    <style
       id="current-color-scheme-792"
       type="text/css">.ColorScheme-Text {
        color:#dfdfdf;
      }</style>
    <style
       id="current-color-scheme-02"
       type="text/css">
   .ColorScheme-Text { color:#d3dae3; } .ColorScheme-Highlight { color:#5294e2; }
  </style>
  </defs>
  <path
     class="folder-back"
     d="M 6,14.67 C 6,13.1954 7.1953997,12 8.67,12 h 11.126153 c 2,0 1.865602,0.144106 4,2 l 2.300128,2 H 55.33 c 1.4746,0 2.67,1.1954 2.67,2.67 v 6 C 58,23.1954 56.8046,22 55.33,22 H 8.67 C 7.1953997,22 6,23.1954 6,24.67"
     id="path11"
     sodipodi:nodetypes="cssscsscssc"
     style="fill:#3fa1ef;fill-opacity:1" />
  <path
     class="darken"
     d="M 8.67,21 A 3.67,3.67 0 0 0 6,22.15 v 2.52 A 2.67,2.67 0 0 1 8.67,22 H 55.33 A 2.67,2.67 0 0 1 58,24.67 V 22.15 A 3.67,3.67 0 0 0 55.33,21"
     id="path13" />
  <rect
     class="folder-front"
     x="6"
     y="22"
     width="52"
     height="32"
     rx="2.6700001"
     ry="2.6700001"
     id="rect15"
     style="fill:url(#linearGradient1006)" />
  <rect
     class="folder-front"
     x="8.6700001"
     y="19.681915"
     width="46.66"
     height="33.318085"
     id="rect27908"
     style="fill:#f2f2f2;stroke-width:0.989921"
     ry="1.1616622"
     rx="1.1616622" />
  <path
     class="lighten"
     d="M 8.67,22 A 2.67,2.67 0 0 0 6,24.67 2.67,1.67 0 0 1 8.67,23 H 55.33 A 2.67,1.67 0 0 1 58,24.67 2.67,2.67 0 0 0 55.33,22"
     id="path17" />
  <path
     class="darken"
     d="M 8.67,53 A 2.67,1.67 0 0 1 6,51.33 2.67,2.67 0 0 0 8.67,54 H 55.33 A 2.67,2.67 0 0 0 58,51.33 2.67,1.67 0 0 1 55.33,53"
     id="path19" />
  <rect
     class="folder-front"
     x="6"
     y="22"
     width="52"
     height="32"
     rx="2.6700001"
     ry="2.6700001"
     id="rect27795"
     style="fill:url(#linearGradient1008)" />
  <path
     class="darken"
     d="m 8.6700001,53 a 2.67,1.67 0 0 1 -2.67,-1.67 2.67,2.67 0 0 0 2.67,2.67 H 55.33 A 2.67,2.67 0 0 0 58,51.33 2.67,1.67 0 0 1 55.33,53"
     id="path19-3"
     style="fill:#000000;fill-opacity:0.125" />
  <g
     id="g63488">
    <path
       d="m 39,33 c 0,-1.375 -1.125,-2.5 -2.5,-2.5 A 2.508,2.508 0 0 0 34,33 c 0,1.375 1.125,2.5 2.5,2.5 1.375,0 2.5,-1.125 2.5,-2.5 z m 0,10 c 0,-1.375 -1.125,-2.5 -2.5,-2.5 A 2.508,2.508 0 0 0 34,43 c 0,1.375 1.125,2.5 2.5,2.5 1.375,0 2.5,-1.125 2.5,-2.5 z M 38,33 c 0,0.834 -0.666,1.5 -1.5,1.5 -0.834,0 -1.5,-0.666 -1.5,-1.5 0,-0.834 0.666,-1.5 1.5,-1.5 0.834,0 1.5,0.666 1.5,1.5 z m 0,10 c 0,0.834 -0.666,1.5 -1.5,1.5 -0.834,0 -1.5,-0.666 -1.5,-1.5 0,-0.834 0.666,-1.5 1.5,-1.5 0.834,0 1.5,0.666 1.5,1.5 z M 33.734,35.11 A 3.495,3.495 0 0 1 33.24,34.238 l -3.853,2.143 A 2.487,2.487 0 0 0 27.5,35.5 2.508,2.508 0 0 0 25,38 c 0,1.375 1.125,2.5 2.5,2.5 0.755,0 1.427,-0.347 1.887,-0.88 l 3.853,2.142 c 0.122,-0.316 0.29,-0.606 0.494,-0.871 L 29.873,38.746 C 29.948,38.51 30,38.261 30,38 30,37.739 29.948,37.491 29.873,37.254 Z M 29,38 c 0,0.834 -0.666,1.5 -1.5,1.5 -0.834,0 -1.5,-0.666 -1.5,-1.5 0,-0.834 0.666,-1.5 1.5,-1.5 0.834,0 1.5,0.666 1.5,1.5 z"
       style="fill:#f2f2f2;fill-opacity:1"
       class="ColorScheme-Text"
       id="path59442" />
    <ellipse
       style="opacity:1;fill:#f2f2f2;fill-opacity:1;fill-rule:evenodd;stroke:#000000;stroke-width:0;stroke-linecap:round;stroke-linejoin:round;stroke-opacity:1;stroke-miterlimit:4;stroke-dasharray:none"
       id="path62754"
       cx="27.502815"
       cy="38.011127"
       rx="1.8841847"
       ry="1.6088731" />
    <circle
       style="opacity:1;fill:#f2f2f2;fill-opacity:1;fill-rule:evenodd;stroke:#000000;stroke-width:0;stroke-linecap:round;stroke-linejoin:round;stroke-miterlimit:4;stroke-dasharray:none;stroke-opacity:1"
       id="path63372"
       cx="36.479179"
       cy="32.865662"
       r="1.6911327" />
    <circle
       style="opacity:1;fill:#f2f2f2;fill-opacity:1;fill-rule:evenodd;stroke:#000000;stroke-width:0;stroke-linecap:round;stroke-linejoin:round;stroke-miterlimit:4;stroke-dasharray:none;stroke-opacity:1"
       id="path63374"
       cx="36.306026"
       cy="42.888149"
       r="1.7807935" />
    <rect
       style="opacity:1;fill:#f2f2f2;fill-opacity:1;fill-rule:evenodd;stroke:#000000;stroke-width:0;stroke-linecap:round;stroke-linejoin:round;stroke-miterlimit:4;stroke-dasharray:none;stroke-opacity:1"
       id="rect63398"
       width="9.4154968"
       height="1.2101145"
       x="31.605259"
       y="22.562019"
       transform="matrix(0.86931543,0.49425771,0.06277294,0.99802783,0,0)"
       inkscape:transform-center-x="-0.23971549"
       inkscape:transform-center-y="-0.00024372815" />
    <rect
       style="opacity:1;fill:#f2f2f2;fill-opacity:1;fill-rule:evenodd;stroke:#000000;stroke-width:0;stroke-linecap:round;stroke-linejoin:round;stroke-miterlimit:4;stroke-dasharray:none;stroke-opacity:1"
       id="rect63480"
       width="9.4154968"
       height="1.2101145"
       x="-46.589142"
       y="55.201115"
       transform="matrix(-0.86931543,0.49425771,-0.06277294,0.99802783,0,0)"
       inkscape:transform-center-x="0.23971545"
       inkscape:transform-center-y="-0.00024523877" />
  </g>
</svg>
