<?xml version="1.0" encoding="UTF-8" standalone="no"?>
<svg
   width="16"
   height="16"
   version="1.1"
   id="svg9"
   sodipodi:docname="folder-music456.svg"
   inkscape:version="1.1.2 (0a00cf5339, 2022-02-04, custom)"
   xmlns:inkscape="http://www.inkscape.org/namespaces/inkscape"
   xmlns:sodipodi="http://sodipodi.sourceforge.net/DTD/sodipodi-0.dtd"
   xmlns="http://www.w3.org/2000/svg"
   xmlns:svg="http://www.w3.org/2000/svg">
  <sodipodi:namedview
     id="namedview11"
     pagecolor="#ffffff"
     bordercolor="#666666"
     borderopacity="1.0"
     inkscape:pageshadow="2"
     inkscape:pageopacity="0.0"
     inkscape:pagecheckerboard="0"
     showgrid="false"
     inkscape:zoom="38.815295"
     inkscape:cx="7.5228078"
     inkscape:cy="8.8109598"
     inkscape:window-width="1920"
     inkscape:window-height="1001"
     inkscape:window-x="3280"
     inkscape:window-y="32"
     inkscape:window-maximized="1"
     inkscape:current-layer="svg9" />
  <defs
     id="defs3">
    <style
       id="current-color-scheme"
       type="text/css">
   .ColorScheme-Text { color:#d3dae3; } .ColorScheme-Highlight { color:#5294e2; }
  </style>
  </defs>
  <path
     d="M 5,1.3 V 11.648 C 5,11.648 4.5075954,10.8 3,10.8 1.3320425,10.816448 0.1,12.12 0.1,13.5 0.1,14.88 1.343,16 3,16 4.657,16 6,14.88 6,13.5 6,13.452 5.986,13.407 5.982,13.36 H 6 V 5.3 l 9,-1.2 0,6.248 c 0,0 -0.484362,-0.848 -2,-0.848 -1.657,0 -2.9,1.32 -2.9,2.7 0,1.38 1.243,2.5 2.9,2.5 1.657,0 3,-1.12 3,-2.5 0,-0.034 -0.01,-0.066 -0.012,-0.1 H 16 v -12 h -1 z m 1,1 9,-1.2 v 2 L 6,4.3 Z m 7,8.2 c 1.105,0 1.9,0.872 1.9,1.7 0,0.828 -0.795,1.5 -1.9,1.5 -1.105,0 -1.9,-0.672 -1.9,-1.5 0,-0.828 0.795,-1.7 1.9,-1.7 z M 3,11.8 c 1.105,0 1.9,0.872 1.9,1.7 C 4.9,14.328 4.105,15 3,15 1.895,15 1.1,14.328 1.1,13.5 1.1,12.672 1.895,11.8 3,11.8 Z"
     style="fill:#ffffff"
     class="ColorScheme-Text"
     id="path7"
     sodipodi:nodetypes="cccsssccccccsssccccccccccssssssssss" />
</svg>
