<?xml version="1.0" encoding="UTF-8" standalone="no"?>
<svg
   inkscape:version="1.1.2 (0a00cf5339, 2022-02-04)"
   sodipodi:docname="folder-film.svg"
   id="svg7"
   version="1.1"
   viewBox="0 0 16 16"
   height="16"
   width="16"
   xmlns:inkscape="http://www.inkscape.org/namespaces/inkscape"
   xmlns:sodipodi="http://sodipodi.sourceforge.net/DTD/sodipodi-0.dtd"
   xmlns="http://www.w3.org/2000/svg"
   xmlns:svg="http://www.w3.org/2000/svg">
  <sodipodi:namedview
     inkscape:current-layer="svg7"
     inkscape:window-maximized="1"
     inkscape:window-y="32"
     inkscape:window-x="0"
     inkscape:cy="8"
     inkscape:cx="7.9892038"
     inkscape:zoom="46.3125"
     showgrid="false"
     id="namedview9"
     inkscape:window-height="995"
     inkscape:window-width="1920"
     inkscape:pageshadow="2"
     inkscape:pageopacity="0"
     guidetolerance="10"
     gridtolerance="10"
     objecttolerance="10"
     borderopacity="1"
     bordercolor="#666666"
     pagecolor="#ffffff"
     inkscape:pagecheckerboard="0" />
  <defs
     id="defs3">
    <style
       type="text/css"
       id="current-color-scheme">
   .ColorScheme-Text { color:#F6F6F6; } .ColorScheme-Highlight { color:#ffffff; }
  </style>
  </defs>
  <path
     id="path5"
     d="m 12,1.5 c 1.10457,0 2,0.8954305 2,2 v 9 c 0,1.10457 -0.89543,2 -2,2 H 4 c -1.1045695,0 -2,-0.89543 -2,-2 v -9 c 0,-1.1045695 0.8954305,-2 2,-2 z m -7,10 H 3 v 1 c 0,0.512836 0.3860402,0.935507 0.8833789,0.993272 L 4,13.5 h 1 z m 8,0 h -2 v 2 h 1 c 0.552285,0 1,-0.447715 1,-1 v 0 z M 5,8.5 H 3 v 2 h 2 z m 8,0 h -2 v 2 h 2 z M 5,5.5 H 3 v 2 h 2 z m 8,0 h -2 v 2 h 2 z M 5,2.5 H 4 C 3.4871642,2.5 3.0644928,2.8860402 3.0067277,3.3833789 L 3,3.5 v 1 h 2 z m 7,0 h -1 v 2 h 2 v -1 c 0,-0.5522847 -0.447715,-1 -1,-1 z"
     class="ColorScheme-Text"
     style="fill:currentColor" />
</svg>
