<?xml version="1.0" encoding="UTF-8" standalone="no"?>
<svg
   width="22"
   height="22"
   version="1.1"
   id="svg7"
   sodipodi:docname="drive-harddisk.svg"
   inkscape:version="1.1.2 (0a00cf5339, 2022-02-04, custom)"
   xml:space="preserve"
   xmlns:inkscape="http://www.inkscape.org/namespaces/inkscape"
   xmlns:sodipodi="http://sodipodi.sourceforge.net/DTD/sodipodi-0.dtd"
   xmlns:xlink="http://www.w3.org/1999/xlink"
   xmlns="http://www.w3.org/2000/svg"
   xmlns:svg="http://www.w3.org/2000/svg"><sodipodi:namedview
     id="namedview9"
     pagecolor="#ffffff"
     bordercolor="#666666"
     borderopacity="1.0"
     inkscape:pageshadow="2"
     inkscape:pageopacity="0.0"
     inkscape:pagecheckerboard="0"
     showgrid="false"
     inkscape:zoom="24.067675"
     inkscape:cx="15.269444"
     inkscape:cy="9.7433593"
     inkscape:window-width="1920"
     inkscape:window-height="1030"
     inkscape:window-x="1920"
     inkscape:window-y="26"
     inkscape:window-maximized="1"
     inkscape:current-layer="svg7"
     inkscape:showpageshadow="2"
     inkscape:deskcolor="#d1d1d1" /><defs
     id="defs3"><style
       id="current-color-scheme"
       type="text/css">.ColorScheme-Text { color:#ffffff; } .ColorScheme-Text { color:#ffffff; }</style><style
       type="text/css"
       id="current-color-scheme-3">
      .ColorScheme-Text {
        color:#122036;
      }
      </style><linearGradient
       id="linearGradient885"
       x1="26"
       x2="26"
       y1="35"
       y2="7"
       gradientTransform="matrix(0.50927974,0,0,0.50927974,-1.2230185,-2.2803988)"
       gradientUnits="userSpaceOnUse"><stop
         stop-color="#cfd1d3"
         offset="0"
         id="stop12" /><stop
         stop-color="#dddfe2"
         offset="1"
         id="stop14" /></linearGradient><linearGradient
       id="linearGradient893"
       x1="3"
       x2="45"
       y1="42"
       y2="42"
       gradientTransform="matrix(0.50927974,0,0,0.50927974,42.485468,-2.3677285)"
       gradientUnits="userSpaceOnUse"><stop
         stop-color="#1a1a1a"
         offset="0"
         id="stop17" /><stop
         stop-color="#2c2c2e"
         offset=".11054"
         id="stop19" /><stop
         stop-color="#2b2b2d"
         offset=".29001"
         id="stop21" /><stop
         stop-color="#2a2b2d"
         offset=".51187"
         id="stop23" /><stop
         stop-color="#2b2b2d"
         offset=".75173"
         id="stop25" /><stop
         stop-color="#323232"
         offset=".89659"
         id="stop27" /><stop
         stop-color="#171717"
         offset="1"
         id="stop29" /></linearGradient><linearGradient
       id="c"
       x1="450.06"
       x2="450.06"
       y1="544.20001"
       y2="543.42999"
       gradientTransform="matrix(0.33262458,0,0,0.98129344,-142.43467,-519.55849)"
       gradientUnits="userSpaceOnUse"><stop
         stop-color="#3dad86"
         offset="0"
         id="stop2" /><stop
         stop-color="#6be6ba"
         offset="1"
         id="stop4" /></linearGradient><linearGradient
       id="b"
       x1="467.17001"
       x2="467.17001"
       y1="546.84998"
       y2="544.71997"
       gradientTransform="matrix(0.959698,0,0,0.959698,-385.93136,-504.8993)"
       gradientUnits="userSpaceOnUse"><stop
         stop-color="#040404"
         offset="0"
         id="stop7" /><stop
         stop-color="#121212"
         stop-opacity=".90816"
         offset="1"
         id="stop9" /></linearGradient><style
       id="current-color-scheme-36"
       type="text/css">.ColorScheme-Text {
        color:#dfdfdf;
      }</style><linearGradient
       id="linearGradient885-9"
       x1="26"
       x2="26"
       y1="35"
       y2="7"
       gradientTransform="matrix(0.51870538,0,0,0.51870538,-1.3556299,-2.5391214)"
       gradientUnits="userSpaceOnUse"
       xlink:href="#linearGradient885"><stop
         stop-color="#b6b9bf"
         offset="0"
         id="stop13" /><stop
         stop-color="#dddfe2"
         offset="1"
         id="stop15" /></linearGradient><linearGradient
       id="linearGradient893-0"
       x1="3"
       x2="45"
       y1="42"
       y2="42"
       gradientTransform="matrix(0.51870538,0,0,0.51870538,-1.3556299,-2.5391214)"
       gradientUnits="userSpaceOnUse"><stop
         stop-color="#1a1a1a"
         offset="0"
         id="stop18" /><stop
         stop-color="#2c2c2e"
         offset=".11054"
         id="stop20" /><stop
         stop-color="#2b2b2d"
         offset=".29001"
         id="stop22" /><stop
         stop-color="#2a2b2d"
         offset=".51187"
         id="stop24" /><stop
         stop-color="#2b2b2d"
         offset=".75173"
         id="stop26" /><stop
         stop-color="#323232"
         offset=".89659"
         id="stop28" /><stop
         stop-color="#171717"
         offset="1"
         id="stop30" /></linearGradient><linearGradient
       id="b-7"
       x1="467.17001"
       x2="467.17001"
       y1="546.84998"
       y2="544.71997"
       gradientTransform="matrix(0.97744844,0,0,0.97744844,-437.70615,-514.36646)"
       gradientUnits="userSpaceOnUse"><stop
         stop-color="#040404"
         offset="0"
         id="stop38" /><stop
         stop-color="#121212"
         stop-opacity=".90816"
         offset="1"
         id="stop40" /></linearGradient></defs><g
     id="g4947"
     transform="translate(-0.09785572,0.05278139)"><path
       d="M 5.3875401,0.05440511 H 16.280354 c 1.436813,0 2.336507,1.12502009 2.593526,2.47287609 l 3.112233,16.3210648 c 0.257023,1.347908 -1.156713,2.472876 -2.593527,2.472876 H 2.7950501 c -1.436813,0 -2.80868504,-1.11838 -2.59352604,-2.472876 L 2.7939621,2.5272812 c 0.215154,-1.3545478 1.156714,-2.47287609 2.593527,-2.47287609 z"
       fill="url(#linearGradient885-9)"
       id="path56"
       style="fill:url(#linearGradient885-9);fill-opacity:1;stroke-width:0.518705" /><rect
       x="0.20048402"
       y="16.652979"
       width="21.785627"
       height="5.1870532"
       ry="2.5935266"
       fill="url(#linearGradient893-0)"
       id="rect58"
       style="fill:url(#linearGradient893-0);stroke-width:0.518705" /><circle
       cx="18.87388"
       cy="19.246508"
       r="1.0374109"
       fill="url(#b-7)"
       opacity="0.452"
       stroke-width="0.919976"
       id="circle62"
       style="fill:url(#b-7)" /><path
       d="m 18.875437,18.766703 c -0.02087,0 -0.03945,0.0077 -0.0547,0.02329 -0.01525,0.01493 -0.02229,0.03254 -0.02229,0.0537 v 0.385989 c 0,0.02054 0.007,0.03876 0.02229,0.05369 0.01525,0.01494 0.03383,0.02329 0.0547,0.02329 0.02087,0 0.03847,-0.0077 0.0537,-0.02329 0.01525,-0.01494 0.02329,-0.03316 0.02329,-0.05369 v -0.385989 c 0,-0.02117 -0.0081,-0.03813 -0.02329,-0.0537 -0.01524,-0.01494 -0.03281,-0.02329 -0.0537,-0.02329 z m -0.221866,0.113459 c -0.02107,0 -0.03949,2.59e-4 -0.05674,0.0152 -0.0586,0.04357 -0.104466,0.0975 -0.136767,0.162096 -0.0323,0.0646 -0.04864,0.133659 -0.04864,0.206674 0,0.06261 0.013,0.122298 0.03749,0.179316 0.02449,0.05727 0.05693,0.106531 0.09826,0.147912 0.04134,0.04108 0.09093,0.07381 0.147915,0.09826 0.05699,0.02427 0.116713,0.03647 0.179315,0.03647 0.0626,0 0.122327,-0.0122 0.179317,-0.03647 0.057,-0.02427 0.105567,-0.05689 0.146898,-0.09826 0.04133,-0.04108 0.0748,-0.0909 0.09927,-0.147912 0.02449,-0.05727 0.03647,-0.116699 0.03647,-0.179316 0,-0.07301 -0.01631,-0.142064 -0.04864,-0.206674 -0.0323,-0.06461 -0.07718,-0.118405 -0.135757,-0.162096 -0.01685,-0.01307 -0.03647,-0.01832 -0.05775,-0.0152 -0.02128,0 -0.03822,0.01256 -0.05067,0.02938 -0.01283,0.01679 -0.01718,0.03619 -0.01419,0.05674 0.003,0.02117 0.01252,0.03859 0.02938,0.05167 0.03932,0.02988 0.06972,0.06546 0.09117,0.1084 0.02148,0.04295 0.03242,0.08925 0.03242,0.13778 0,0.0417 -0.0081,0.08157 -0.0243,0.119545 -0.01626,0.03796 -0.03816,0.07057 -0.06585,0.09826 -0.02769,0.02738 -0.06033,0.04973 -0.09827,0.06585 -0.03792,0.01619 -0.07782,0.0243 -0.119545,0.0243 -0.04174,0 -0.08162,-0.0082 -0.119547,-0.0243 -0.03792,-0.01619 -0.07058,-0.0379 -0.09826,-0.06585 -0.02768,-0.02738 -0.05061,-0.06024 -0.06687,-0.09826 -0.01626,-0.03797 -0.0243,-0.07779 -0.0243,-0.119545 0,-0.04856 0.01089,-0.09485 0.03242,-0.13778 0.02148,-0.04295 0.05184,-0.07866 0.09117,-0.1084 0.01686,-0.01307 0.02737,-0.0305 0.03039,-0.05167 0.003,-0.02117 -0.0023,-0.03992 -0.0152,-0.05674 -0.01245,-0.01744 -0.02958,-0.02689 -0.05067,-0.02938 z"
       fill="#ffffff"
       id="path64"
       style="stroke-width:0.518705" /><path
       d="m 2.7940131,16.652976 c -1.436813,0 -2.59352604,1.156715 -2.59352604,2.593528 0,0.0305 0.003,0.05994 0.004,0.09018 0.02422,-1.34065 1.10810904,-2.413177 2.45472004,-2.413177 H 19.527503 c 1.34661,0 2.430498,1.072579 2.454721,2.413173 0.001,-0.03023 0.004,-0.05966 0.004,-0.09018 0,-1.436813 -1.156713,-2.593528 -2.593528,-2.593528 H 2.7941981 Z"
       opacity="0.15"
       id="path66"
       style="stroke-width:0.518705" /><rect
       x="4.7936921"
       y="18.901293"
       width="10.508105"
       height="1.0508112"
       ry="0.52540529"
       fill="url(#c)"
       stroke-width="1.05345"
       id="rect3934"
       style="fill:#5189ea;fill-opacity:1" /><path
       id="path4"
       class="ColorScheme-Text"
       d="m 11.097018,2.7127336 c -0.06912,0 -0.13723,0.0014 -0.205824,0.00279 -0.673825,0.017165 -1.3229337,0.1179786 -1.9320927,0.2907138 -0.103248,0.029284 -0.206157,0.061247 -0.307077,0.094587 -0.03124,0.010315 -0.06197,0.021332 -0.09295,0.031993 -0.06927,0.023884 -0.137785,0.04797 -0.205824,0.073722 -0.09848,0.037383 -0.194663,0.077072 -0.290478,0.1182345 -0.09584,0.041121 -0.190774,0.083119 -0.283839,0.1279714 -0.374421,0.180447 -0.726553,0.3915444 -1.050701,0.6273384 -0.03845,0.02797 -0.07519,0.05613 -0.112871,0.08485 -0.07897,0.06009 -0.157026,0.121835 -0.232382,0.185005 -0.07532,0.0632 -0.149036,0.127188 -0.220763,0.193348 -0.107608,0.09919 -0.211432,0.201845 -0.310397,0.30741 -0.197946,0.211052 -0.377226,0.435094 -0.537799,0.669067 -0.05353,0.07797 -0.105322,0.156173 -0.154369,0.236469 -0.02453,0.04015 -0.04792,0.08032 -0.07137,0.121017 -0.07027,0.122144 -0.136121,0.247326 -0.195866,0.374177 -0.01989,0.0423 -0.03937,0.08519 -0.05809,0.127972 -0.07483,0.171136 -0.13935,0.345903 -0.194206,0.524405 -0.02709,0.0891 -0.05249,0.178971 -0.07469,0.269852 v 0.0014 c -0.02221,0.09094 -0.04128,0.181586 -0.0581,0.274025 -0.01682,0.0925 -0.03006,0.185649 -0.0415,0.27959 -0.02279,0.1878 -0.03486,0.378804 -0.03486,0.571698 0,0.192866 0.01207,0.383865 0.03486,0.571699 0.01135,0.09391 0.02459,0.187109 0.0415,0.27959 0.01682,0.09245 0.03598,0.184535 0.0581,0.275417 0.02221,0.09088 0.04734,0.180632 0.07469,0.269851 0.05486,0.178503 0.119404,0.3532693 0.194205,0.5244063 0.03737,0.08554 0.07737,0.169638 0.119511,0.253161 0.04209,0.08351 0.08769,0.166172 0.13445,0.247596 0.02337,0.0407 0.04684,0.08224 0.07137,0.122408 0.04905,0.08028 0.100813,0.158477 0.154368,0.236469 0.160566,0.233974 0.33987,0.45796 0.5378,0.669067 0.09898,0.10553 0.202789,0.208173 0.310396,0.30741 0.07176,0.06619 0.145315,0.130179 0.220764,0.193348 0.07541,0.06321 0.153454,0.124872 0.232382,0.185003 0.355164,0.270525 0.744744,0.508966 1.163572,0.710798 0.09307,0.04479 0.187998,0.08825 0.283838,0.129361 0.191657,0.08227 0.387391,0.157201 0.589256,0.22395 0.100895,0.03336 0.203828,0.06531 0.307077,0.09459 0.67119,0.190353 1.3900187,0.293499 2.1379177,0.293499 0.509887,0 1.006822,-0.0483 1.483928,-0.139099 0.222688,-0.04244 0.440358,-0.09383 0.653991,-0.1544 0.103273,-0.02922 0.206089,-0.06127 0.307075,-0.09459 0.20184,-0.06667 0.39926,-0.141646 0.590916,-0.22395 0.09584,-0.04113 0.189156,-0.08315 0.282179,-0.127971 0.418851,-0.201796 0.810067,-0.441698 1.165231,-0.712188 0.07897,-0.06016 0.155341,-0.121834 0.230724,-0.185003 0.07541,-0.06313 0.149019,-0.127208 0.220762,-0.193348 0.107582,-0.09919 0.211457,-0.201845 0.310397,-0.30741 0.156612,-0.166982 0.301441,-0.341549 0.434887,-0.523013 0.0353,-0.04797 0.07101,-0.09708 0.104572,-0.146054 0.05354,-0.07795 0.103661,-0.156152 0.152708,-0.236469 0.02453,-0.04016 0.04958,-0.0817 0.07304,-0.122408 0.0469,-0.08139 0.09064,-0.164039 0.132789,-0.247596 0.04218,-0.08356 0.08217,-0.167569 0.11951,-0.253161 0.07483,-0.171137 0.139359,-0.3459313 0.194207,-0.5244063 0.02742,-0.08928 0.05249,-0.17897 0.07469,-0.269851 0.02213,-0.09096 0.04285,-0.182958 0.05976,-0.275417 0.01682,-0.09248 0.03006,-0.185663 0.04149,-0.27959 0.02278,-0.187792 0.03486,-0.378804 0.03486,-0.571699 0,-0.192866 -0.01207,-0.383906 -0.03486,-0.571698 -0.01144,-0.09395 -0.02459,-0.187086 -0.04149,-0.279588 -0.01682,-0.09245 -0.03755,-0.183144 -0.05976,-0.274026 -0.02221,-0.09088 -0.04727,-0.182045 -0.07469,-0.271243 -0.05486,-0.178448 -0.119432,-0.353236 -0.194209,-0.524372 -0.01864,-0.04278 -0.03829,-0.08565 -0.05809,-0.127972 -0.05966,-0.126851 -0.12397,-0.250642 -0.194205,-0.372786 -0.02337,-0.04071 -0.0485,-0.08085 -0.07303,-0.121016 -0.04907,-0.0803 -0.09917,-0.159883 -0.152721,-0.237861 -0.160574,-0.233994 -0.34153,-0.45796 -0.539459,-0.669067 -0.09898,-0.105523 -0.202764,-0.208173 -0.310397,-0.30741 -0.07168,-0.06611 -0.14534,-0.130179 -0.220762,-0.193348 -0.07532,-0.0632 -0.151795,-0.124893 -0.230724,-0.185002 -0.152883,-0.116461 -0.312688,-0.226801 -0.478044,-0.331057 -0.218777,-0.1379556 -0.448672,-0.2647899 -0.687187,-0.3797412 -0.09306,-0.04479 -0.18638,-0.088262 -0.282179,-0.1293624 -0.04359,-0.018692 -0.08704,-0.036387 -0.131131,-0.054249 -0.05294,-0.02146 -0.107319,-0.043702 -0.161007,-0.063986 -0.02245,-0.00852 -0.04552,-0.015339 -0.06806,-0.023648 -0.07649,-0.028175 -0.152756,-0.056316 -0.230723,-0.082068 -8.28e-4,-3.738e-4 -0.0024,-6.711e-4 -0.0033,-0.00139 -0.08305,-0.027345 -0.167648,-0.053202 -0.252301,-0.077897 -0.01707,-0.00484 -0.03422,-0.010455 -0.05145,-0.015301 -0.1974,-0.056008 -0.398975,-0.1042233 -0.604196,-0.1446657 -0.06414,-0.012668 -0.127737,-0.02363 -0.192546,-0.034774 -0.04674,-0.00803 -0.09405,-0.016516 -0.141089,-0.023647 -0.350673,-0.053443 -0.709765,-0.083513 -1.077259,-0.089023 -0.04052,-6.23e-4 -0.0821,-0.00139 -0.122831,-0.00139 z m 0,0.3004545 c 0.431151,0 0.852717,0.036322 1.259844,0.1057156 -0.01707,0.037659 -0.0725,0.020741 -0.11951,0.038947 -0.04408,0.017167 -0.06103,0.052405 -0.107892,0.059813 -0.130263,0.020561 -0.237497,-0.027108 -0.350233,-0.023648 -0.005,0.040844 0.0544,0.064756 0.08466,0.077895 0.102179,0.04486 0.186263,0.038865 0.330314,0.036166 0.07383,-0.00139 0.158992,0.018469 0.222424,-0.018083 0.04019,-0.022983 0.03773,-0.0748 0.07137,-0.1029335 0.01434,-0.011907 0.03439,-0.023208 0.0581,-0.033384 0.07076,0.013983 0.1409,0.02852 0.210804,0.044512 -0.01177,0.040429 -0.08863,0.030736 -0.08963,0.08485 0.0498,0.025061 0.166015,-0.012927 0.210803,-0.05564 0.01732,0.00415 0.03423,0.00816 0.05146,0.012519 0.101317,0.025822 0.201307,0.053574 0.300436,0.083459 0.141301,0.042644 0.280177,0.089817 0.416629,0.1404904 -0.02619,0.012946 -0.05498,0.02928 -0.07802,0.029211 -0.05925,-3.115e-4 -0.08335,-0.066236 -0.149389,-0.04173 -0.0058,0.064173 0.08115,0.089982 0.13611,0.1196253 0.0595,0.032121 0.121594,0.063801 0.142749,0.1196255 -0.05825,0.1034943 -0.151749,-0.00487 -0.244002,-0.00556 -0.101664,-6.104e-4 -0.24865,0.1611843 -0.335293,0.02921 0.02154,-0.069926 0.113621,-0.081194 0.136109,-0.1502273 -0.0198,0.00277 -0.03904,0.00886 -0.05809,0.015301 -0.03406,0.011283 -0.06817,0.026084 -0.102913,0.04173 -0.04558,0.02056 -0.09344,0.041291 -0.147729,0.051467 -0.04996,0.00921 -0.09811,0.00721 -0.142748,0.018083 -0.08571,0.021045 -0.146693,0.073519 -0.237363,0.1015424 -0.03538,0.010868 -0.0777,0.00777 -0.11453,0.018083 -0.08648,0.024161 -0.189657,0.068021 -0.27886,0.1084972 -0.0912,0.04126 -0.194011,0.08403 -0.250641,0.125189 -0.03058,0.02208 -0.110643,0.100212 -0.107892,0.125189 0.0033,0.03565 0.08431,0.0484 0.08632,0.08485 -0.0017,0.02208 -0.04718,0.06946 -0.01494,0.101543 0.02934,0.02921 0.08878,0.0061 0.151048,0.01252 0.109447,0.01135 0.181623,0.08637 0.26558,0.125189 0.06348,0.02935 0.157385,0.06474 0.229064,0.07233 0.0984,0.01031 0.209007,-0.02424 0.222422,0.04173 0.01301,0.06341 -0.09365,0.0854 -0.101252,0.12519 0.05303,0.05857 -0.03511,0.08637 -0.03486,0.137708 2.33e-4,0.04154 0.06117,0.104732 0.114533,0.108498 0.07218,0.0048 0.177495,-0.05929 0.207483,-0.119626 0.03563,-0.07188 0.02085,-0.170209 0.08631,-0.222559 0.333778,0.0077 0.615748,-0.12656 0.594237,-0.413125 -0.0024,-0.02831 -0.02206,-0.06487 -0.01494,-0.09598 0.01044,-0.04631 0.105597,-0.08471 0.09295,-0.143272 0.03597,-0.0093 0.05796,-0.03379 0.07635,-0.0612 0.02742,-0.04084 0.04856,-0.08753 0.09959,-0.1029335 0.0033,-0.00139 0.006,-0.00209 0.01,-0.00279 0.02917,-0.00554 0.06087,-9.546e-4 0.09295,0.00696 0.05717,0.01412 0.119336,0.03865 0.187566,0.03477 0.03472,-0.0021 0.07964,-0.0278 0.114531,-0.02365 0.07002,0.0082 0.111717,0.0792 0.164328,0.11267 0.04648,0.02977 0.09602,0.02014 0.107892,0.05981 -0.01376,0.06653 -0.06921,0.06968 -0.06473,0.130753 v 0.0014 c 0.005,0.0549 0.07387,0.0975 0.107892,0.102934 0.0522,0.0082 0.127144,-0.0154 0.179266,-0.03617 0.05626,-0.02229 0.106882,-0.07085 0.156028,-0.104324 0.07019,0.04514 0.139585,0.09167 0.207484,0.139099 0.0075,0.02665 0.01245,0.0505 0.01494,0.06677 0.01003,0.0648 -0.0096,0.114235 -0.0067,0.173874 0.0092,0.10103 0.160826,0.09033 0.235701,0.143272 0.02254,0.01606 0.03107,0.05703 0.04979,0.07789 0.03637,0.04057 0.08067,0.04158 0.08631,0.08485 0.01342,0.103495 -0.111318,0.111234 -0.09959,0.226732 -0.02585,0.04479 -0.09158,0.0432 -0.08632,0.102934 0.0083,0.09459 0.170016,0.02216 0.214124,0.09598 0.02386,0.03967 -0.0041,0.06863 -0.02158,0.125189 0.0556,0.05538 0.05653,0.143155 -0.0415,0.143273 -0.05958,0 -0.07587,-0.05292 -0.13611,-0.06538 -0.03347,-0.007 -0.08017,-0.0061 -0.122831,-0.01252 -0.03646,-0.0055 -0.07998,-0.01462 -0.11453,-0.01808 -0.08842,-0.0088 -0.183415,0.01343 -0.235703,-0.02921 0.08523,-0.09471 0.197489,-0.18829 0.307077,-0.269853 0.03256,-0.02437 0.102903,-0.0416 0.08631,-0.09042 -0.06098,-0.04479 -0.135012,0.0035 -0.192545,0.0306 -0.06041,0.02845 -0.132681,0.06942 -0.200845,0.0779 -0.118462,0.01468 -0.276678,-0.02924 -0.373472,0.02365 -0.01335,0.04521 0.110172,0.02775 0.09295,0.09598 -0.04739,0.0062 -0.09132,0.0097 -0.12781,-0.01808 -0.03332,-0.02506 -0.01498,-0.06278 -0.03652,-0.0779 -0.0367,-0.02548 -0.174044,-0.03216 -0.235702,-0.02365 -0.07524,0.01025 -0.142356,0.0477 -0.151049,0.101542 0.09039,0.03544 0.23943,-0.03623 0.27222,0.05425 -0.04956,0.07457 -0.165051,0.11562 -0.149389,0.215604 0.0058,0.03863 0.06018,0.09024 0.09959,0.09598 0.03961,0.0055 0.06132,-0.02669 0.09959,-0.02365 0.04052,0.0035 0.03211,0.04066 0.07968,0.03477 0.06894,-0.02465 0.106912,-0.105308 0.185906,-0.101542 0.09479,0.09627 -0.08539,0.143338 -0.185906,0.173874 -0.11465,0.03475 -0.264554,0.05408 -0.351894,0.08485 -0.04583,0.01599 -0.217846,0.1556 -0.242341,0.04729 -0.01748,-0.07811 0.08453,-0.05534 0.106232,-0.119625 -0.110872,-0.01807 -0.212821,0.04022 -0.313716,0.07233 -0.14396,0.04555 -0.388523,0.07337 -0.423268,0.208649 -0.0067,0.02707 0.01324,0.07793 -0.0083,0.09598 -0.01716,0.01454 -0.119448,0.01786 -0.164328,0.0306 -0.06911,0.01987 -0.129935,0.0613 -0.172626,0.07094 -0.03224,0.0074 -0.07916,0.0059 -0.09959,0.01252 -0.0569,0.01849 -0.07741,0.08235 -0.142724,0.125191 -0.02676,0.01751 -0.08659,0.03103 -0.107892,0.04868 -0.03712,0.03087 -0.04246,0.108044 -0.107892,0.119626 -0.0416,0.0028 -0.07536,-0.0255 -0.114531,-0.0055 -0.005,0.07643 0.03305,0.180063 -0.0067,0.257334 -0.08484,0.05787 -0.178622,0.09781 -0.287159,0.148837 -0.05999,0.02832 -0.113408,0.03637 -0.185906,0.06676 -0.05145,0.02146 -0.09852,0.07233 -0.157689,0.10154 -0.136759,0.06736 -0.30149,0.1466 -0.300438,0.317147 2.32e-4,0.0369 0.02258,0.07788 0.02821,0.121017 0.0033,0.0254 -0.0033,0.05018 0,0.0779 0.0086,0.06265 0.06273,0.141735 0,0.185001 -0.09642,-0.03308 -0.219723,-0.04411 -0.287157,-0.101542 -0.01848,-0.05912 0.03842,-0.107497 0.02988,-0.161354 -0.0067,-0.04327 -0.08052,-0.121036 -0.122831,-0.126581 -0.04359,-0.0055 -0.08282,0.03365 -0.12781,0.0306 -0.05354,-0.0035 -0.103883,-0.06567 -0.172628,-0.07233 -0.100754,-0.0098 -0.175565,0.01858 -0.287157,0.0055 -0.107945,0.04826 -0.138075,0.135082 -0.270475,0.126587 -0.04666,-0.0028 -0.09051,-0.03246 -0.144409,-0.04173 -0.05842,-0.01011 -0.1466617,-0.02856 -0.2074847,-0.02504 -0.121934,0.0069 -0.210636,0.08107 -0.315375,0.12658 -0.09242,0.04029 -0.223197,0.09041 -0.250641,0.173874 -0.01509,0.04492 -0.0026,0.107258 -0.02158,0.148837 -0.01268,0.02734 -0.03945,0.05187 -0.05644,0.0779 -0.08029,0.122726 -0.147269,0.285281 -0.08631,0.46181 0.009,0.02617 0.08829,0.174639 0.121171,0.204476 0.03696,0.03316 0.14546,0.08255 0.207484,0.08346 0.05245,6.92e-4 0.115142,-0.02299 0.165987,-0.0306 0.05892,-0.0088 0.13236,-0.0093 0.185906,-0.02364 0.154865,-0.04147 0.123829,-0.21638 0.2788587,-0.275416 0.0677,-0.02561 0.146579,-0.03105 0.26558,-0.03617 0.03778,0.02658 0.05502,0.07355 0.04979,0.114061 -0.0042,0.03059 -0.03945,0.05792 -0.0581,0.101543 -0.01624,0.03822 -0.01878,0.08322 -0.03486,0.114061 -0.0213,0.04036 -0.06924,0.07052 -0.08631,0.108498 -0.01118,0.02471 -0.004,0.0556 -0.01328,0.0779 -0.01649,0.03946 -0.08071,0.0665 -0.05146,0.107107 0.153372,0.05102 0.339221,-0.01382 0.473063,0.007 0.05652,0.0086 0.173679,0.06487 0.172627,0.137708 -6.97e-4,0.05448 -0.05105,0.08918 -0.05809,0.148836 -0.0087,0.07499 -0.04582,0.167411 -0.04979,0.228123 -0.0067,0.09943 0.173954,0.271216 0.300437,0.269853 0.136171,-0.0014 0.216049,-0.113709 0.380111,-0.05425 0.05445,0.01966 0.11251,0.09407 0.172627,0.09041 0.04956,-0.0028 0.1229,-0.07632 0.156029,-0.12658 0.04035,-0.06127 0.04327,-0.112377 0.114531,-0.143271 0.0769,-0.03331 0.138977,-0.01802 0.237361,-0.04869 0.04392,-0.01364 0.08159,-0.0369 0.121172,-0.05981 0.03472,-0.01994 0.07123,-0.07243 0.11453,-0.03616 0.05717,0.04777 -0.07005,0.07543 -0.02158,0.12658 0.09936,0.04403 0.150473,-0.08154 0.222423,-0.08346 0.02295,-6.02e-4 0.101905,0.03725 0.14275,0.05981 0.05585,0.03067 0.07498,0.07346 0.136109,0.08346 0.03928,0.0063 0.102483,-0.01186 0.157687,-0.0055 0.07309,0.0087 0.117241,0.0612 0.172627,0.05981 0.06745,-0.0014 0.09992,-0.06336 0.157688,-0.07233 0.126434,-0.01938 0.173395,0.01182 0.229064,0.0779 0.0624,0.0091 0.06405,-0.06067 0.12117,-0.03616 -0.03133,0.0522 0.01141,0.07606 0.03652,0.119625 0.01624,0.02797 0.01306,0.04769 0.02821,0.05981 0.03414,0.02728 0.100948,0.02773 0.151048,0.05425 0.05287,0.02783 0.0821,0.07942 0.14275,0.137709 0.0624,0.0596 0.167312,0.1222258 0.250641,0.1265798 0.07872,0.0041 0.142403,-0.01924 0.207484,-0.01252 0.148177,0.01523 0.239923,0.07652 0.343594,0.143272 0.05792,0.03726 0.110876,0.06388 0.129471,0.108498 0.01308,0.03115 0.0067,0.07217 0.02158,0.107106 0.03165,0.07463 0.161573,0.111666 0.114531,0.240643 0.02154,0.03787 0.06924,0.05142 0.121171,0.07789 0.04151,0.02118 0.07786,0.06488 0.12283,0.07094 0.02909,0.0041 0.06112,-0.0068 0.08631,-0.0055 0.08146,0.0049 0.136901,0.0314 0.207485,0.05425 0.04375,0.01412 0.09868,0.01962 0.127809,0.03617 0.03637,0.02056 0.04148,0.08891 0.08631,0.107106 0.02934,0.0119 0.09559,-0.0049 0.144408,0 0.0769,0.0074 0.181185,0.04757 0.250641,0.04869 0.04218,6.92e-4 0.07712,-0.01494 0.114531,-0.01252 0.08696,0.0055 0.154965,0.05155 0.222425,0.102933 -0.862889,1.165755 -2.251216,2.031273 -3.885766,2.361908 -0.0058,-0.05255 -0.02382,-0.106225 -0.02656,-0.158574 -0.0058,-0.113885 0.0159,-0.193831 -0.0067,-0.299063 -0.01666,-0.0796 -0.03873,-0.201685 -0.07304,-0.251771 -0.03836,-0.05572 -0.188,-0.149599 -0.26392,-0.185002 -0.05013,-0.02326 -0.10973,-0.03175 -0.164328,-0.05425 -0.116646,-0.04793 -0.343847,-0.14955 -0.395049,-0.246233 -0.01483,-0.02783 -0.0123,-0.06491 -0.02821,-0.09598 -0.03107,-0.0614 -0.09628,-0.11465 -0.14275,-0.173874 -0.08848,-0.113007 -0.159839,-0.254707 -0.250641,-0.371395 -0.04591,-0.05926 -0.08577,-0.126675 -0.136109,-0.173874 -0.0295,-0.02783 -0.123996,-0.0541 -0.13611,-0.09598 -0.01616,-0.05545 -0.06589,-0.131458 -0.0581,-0.173874 0.01036,-0.05717 0.142957,-0.102217 0.14275,-0.154401 -2.32e-4,-0.0443 -0.06982,-0.07086 -0.08466,-0.108497 -0.03613,-0.09156 0.0199,-0.144914 0.06307,-0.221167 0.01426,-0.02506 0.02832,-0.06638 0.04315,-0.08485 0.02627,-0.03296 0.07955,-0.04221 0.114531,-0.07789 0.01956,-0.02001 0.03257,-0.06073 0.05809,-0.08902 0.05445,-0.06051 0.14193,-0.0831 0.164327,-0.137708 0.01823,-0.0445 0.02976,-0.267745 0.0083,-0.3421838 -0.01244,-0.04313 -0.06136,-0.07881 -0.07968,-0.119625 -0.0324,-0.0723 -0.03881,-0.151785 -0.127809,-0.150228 -0.05494,6.92e-4 -0.09417,0.05273 -0.129471,0.08485 -0.0084,0.04271 -0.005,0.0885 -0.05809,0.101544 -0.08146,0.02015 -0.112485,-0.07188 -0.207489,-0.09598 -0.03779,-0.0096 -0.09752,-0.0092 -0.121171,-0.01808 -0.06936,-0.02603 -0.09123,-0.110293 -0.164327,-0.143272 -0.06115,-0.02735 -0.114,-0.01779 -0.151048,-0.05981 -0.01542,-0.02894 -0.0042,-0.08226 -0.0083,-0.121016 -0.07837,-0.03847 -0.144182,-0.181831 -0.235598,-0.215648 -0.06057,-0.02257 -0.1532577,-0.0202 -0.2290627,-0.04173 -0.03563,-0.01011 -0.06401,-0.0225 -0.101252,-0.02921 -0.04591,-0.0086 -0.09225,-0.01009 -0.12781,-0.02504 -0.141822,-0.05884 -0.21776,-0.248892 -0.393391,-0.244815 -0.07491,0.0014 -0.147901,0.06016 -0.215784,0.05981 -0.06745,-3.12e-4 -0.180942,-0.04504 -0.265579,-0.0779 -0.08792,-0.0342 -0.184767,-0.05244 -0.257281,-0.08346 -0.05858,-0.02506 -0.09986,-0.0714 -0.151049,-0.09042 -0.03919,-0.01453 -0.09565,-0.01647 -0.127809,-0.02922 -0.04574,-0.01814 -0.09411,-0.05727 -0.15105,-0.09041 -0.05402,-0.03129 -0.112409,-0.07909 -0.11453,-0.119625 -0.0025,-0.04694 0.05229,-0.08704 0.0581,-0.132145 0.01848,-0.142678 -0.108477,-0.245362 -0.187563,-0.32966 -0.05858,-0.06265 -0.127138,-0.115896 -0.185906,-0.173874 0.0033,-0.03849 0.0033,-0.04504 0,-0.08346 -0.0445,-0.03614 -0.08244,-0.09053 -0.129469,-0.144663 -0.04251,-0.04881 -0.123761,-0.10104 -0.134451,-0.155792 -0.01317,-0.06736 0.03058,-0.125209 0,-0.190565 -0.05097,-0.108458 -0.232305,-0.05995 -0.209143,0.08346 0.0066,0.03953 0.07283,0.09296 0.09295,0.132144 0.02063,0.03994 0.01729,0.08959 0.03652,0.137709 0.01848,0.04611 0.07374,0.08577 0.09295,0.137708 0.03041,0.08204 0.03017,0.169892 0.0581,0.221168 0.02461,0.04555 0.113912,0.08952 0.06308,0.144663 -0.06779,0.01176 -0.0923,-0.04491 -0.134451,-0.0779 -0.02353,-0.01835 -0.10987,-0.0533 -0.122831,-0.09598 -0.01085,-0.03524 0.02745,-0.08345 0.01494,-0.12658 -0.02461,-0.08455 -0.228342,-0.08686 -0.229063,-0.173875 -3.73e-4,-0.05462 0.08388,-0.06125 0.08465,-0.11406 5.56e-4,-0.05781 -0.09414,-0.106779 -0.11453,-0.155792 -0.01865,-0.04492 -0.02126,-0.116227 -0.02821,-0.179438 -0.0066,-0.05933 0.0012,-0.128102 -0.01494,-0.173875 -0.01467,-0.04119 -0.0887,-0.09752 -0.136111,-0.119625 -0.06273,-0.02921 -0.11204,-0.01703 -0.142748,-0.05981 -0.02669,-0.03739 -0.044,-0.1155 -0.04979,-0.155791 -0.01036,-0.07205 -0.0033,-0.151225 -0.0083,-0.228122 -0.0049,-0.07701 -0.01409,-0.150927 0,-0.233687 0.03546,-0.05794 0.101632,-0.08586 0.137769,-0.143273 0.02519,-0.03994 0.02801,-0.08965 0.05644,-0.132144 0.05245,-0.07826 0.167157,-0.149586 0.244005,-0.226732 0.08286,-0.08311 0.158993,-0.163725 0.207485,-0.258725 0.01741,-0.03371 0.06314,-0.107494 0.05644,-0.148836 -0.0095,-0.0576 -0.138061,-0.105277 -0.127811,-0.173874 0.0066,-0.04251 0.07808,-0.04291 0.09959,-0.08485 0.01102,-0.02167 0.021,-0.08125 0.02158,-0.107107 8.29e-4,-0.05781 -0.0355,-0.117715 -0.02158,-0.179438 0.01176,-0.05268 0.106223,-0.07433 0.0581,-0.132144 -0.04773,-0.05725 -0.134739,0.03015 -0.187565,-0.007 -0.04848,-0.03406 0.01046,-0.07504 0.01494,-0.137708 0.0016,-0.02492 -0.01809,-0.05249 -0.01494,-0.07094 0.0042,-0.02679 0.06803,-0.07243 0.05146,-0.09042 -0.02585,-0.02741 -0.0541,-0.08237 -0.09461,-0.12658 0.798935,-0.5355523 1.756649,-0.9132049 2.803529,-1.0724547 h 0.0017 c 0.01301,0.018552 0.02287,0.040585 0.05477,0.048685 0.0624,-0.027067 0.125462,0.00208 0.194206,0 0.06695,-0.00208 0.127045,-0.027775 0.200844,-0.018083 0.130419,0.017099 0.312208,0.1247313 0.414968,0.066768 0.02585,-0.014676 0.01978,-0.041316 0.04315,-0.079287 0.01856,-0.030391 0.04692,-0.062715 0.06473,-0.1001515 0.05196,-0.00139 0.103832,-0.00139 0.156028,-0.00139 z"
       style="fill:#888a8d;fill-opacity:1;stroke-width:0.777984" /></g></svg>
