<?xml version="1.0" encoding="UTF-8" standalone="no"?>
<svg
   width="64"
   height="64"
   viewBox="0 0 64 64"
   version="1.1"
   id="svg72"
   sodipodi:docname="application-x-gzip1.svg"
   inkscape:version="1.1.2 (0a00cf5339, 2022-02-04, custom)"
   xmlns:inkscape="http://www.inkscape.org/namespaces/inkscape"
   xmlns:sodipodi="http://sodipodi.sourceforge.net/DTD/sodipodi-0.dtd"
   xmlns="http://www.w3.org/2000/svg"
   xmlns:svg="http://www.w3.org/2000/svg">
  <sodipodi:namedview
     id="namedview74"
     pagecolor="#ffffff"
     bordercolor="#666666"
     borderopacity="1.0"
     inkscape:pageshadow="2"
     inkscape:pageopacity="0.0"
     inkscape:pagecheckerboard="0"
     showgrid="false"
     inkscape:zoom="7.7558965"
     inkscape:cx="55.764024"
     inkscape:cy="27.140641"
     inkscape:window-width="1920"
     inkscape:window-height="992"
     inkscape:window-x="3280"
     inkscape:window-y="30"
     inkscape:window-maximized="1"
     inkscape:current-layer="svg72" />
  <defs
     id="defs7">
    <linearGradient
       id="linear0"
       gradientUnits="userSpaceOnUse"
       x1="8.466666"
       y1="-199.125"
       x2="8.466666"
       y2="-213.941666"
       gradientTransform="matrix(3.779528,0,0,3.779528,-66.284982,815.39726)">
      <stop
         offset="0"
         style="stop-color:rgb(0%,0%,0%);stop-opacity:0.2;"
         id="stop2" />
      <stop
         offset="1"
         style="stop-color:rgb(100%,100%,100%);stop-opacity:0;"
         id="stop4" />
    </linearGradient>
    <linearGradient
       id="linear0-6"
       gradientUnits="userSpaceOnUse"
       x1="8.4666662"
       y1="-199.125"
       x2="8.4666662"
       y2="-213.94167"
       gradientTransform="matrix(3.779528,0,0,3.779528,-1.2e-5,812.59848)">
      <stop
         offset="0"
         style="stop-color:rgb(0%,0%,0%);stop-opacity:0.2;"
         id="stop2-7" />
      <stop
         offset="1"
         style="stop-color:rgb(100%,100%,100%);stop-opacity:0;"
         id="stop4-5" />
    </linearGradient>
  </defs>
  <g
     id="g14960">
    <g
       id="g14912">
      <path
         style="fill:#c37236;fill-opacity:1;fill-rule:nonzero;stroke:none"
         d="m 8,4 h 48 c 2.210938,0 4,1.789062 4,4 v 48 c 0,2.210938 -1.789062,4 -4,4 H 8 C 5.789062,60 4,58.210938 4,56 V 8 C 4,5.789062 5.789062,4 8,4 Z m 0,0"
         id="path9" />
      <path
         style="fill:#fffdfd;fill-opacity:0.4;fill-rule:nonzero;stroke:none"
         d="m 4,32.5 h 56 v 1 H 4 Z m 0,0"
         id="path11" />
      <path
         style="fill:#000000;fill-opacity:0.4;fill-rule:nonzero;stroke:none"
         d="m 4,55 v 1 c 0,2.214844 1.785156,4 4,4 h 48 c 2.214844,0 4,-1.785156 4,-4 v -1 c 0,2.214844 -1.785156,4 -4,4 H 8 C 5.785156,59 4,57.214844 4,55 Z m 0,0"
         id="path13" />
      <path
         style="fill:#000000;fill-opacity:0.2;fill-rule:nonzero;stroke:none"
         d="m 4,56 v 1.5 c 0,2.214844 1.785156,4 4,4 h 48 c 2.214844,0 4,-1.785156 4,-4 V 56 c 0,2.214844 -1.785156,4 -4,4 H 8 C 5.785156,60 4,58.214844 4,56 Z m 0,0"
         id="path15" />
      <path
         style="fill:#ffffff;fill-opacity:0.4;fill-rule:nonzero;stroke:none"
         d="M 8,4 C 5.785156,4 4,5.785156 4,8 v 0.984375 c 0,-2.214844 1.785156,-4 4,-4 h 48 c 2.214844,0 4,1.785156 4,4 V 8 C 60,5.785156 58.214844,4 56,4 Z m 0,0"
         id="path17" />
      <path
         style="fill:#000000;fill-opacity:0.4;fill-rule:nonzero;stroke:none"
         d="m 14,39 c -0.554688,0 -1,-0.445312 -1,-1 v -0.5 c 0,0.554688 0.445312,1 1,1 h 6 c 0.554688,0 1,-0.445312 1,-1 V 38 c 0,0.554688 -0.445312,1 -1,1 z M 14,27.5 V 27 c 0,-0.277344 0.222656,-0.5 0.5,-0.5 h 5 c 0.277344,0 0.5,0.222656 0.5,0.5 v 0.5 C 20,27.222656 19.777344,27 19.5,27 h -5 C 14.222656,27 14,27.222656 14,27.5 Z m 0,0"
         id="path19" />
      <path
         style="fill:#000000;fill-opacity:0.4;fill-rule:nonzero;stroke:none"
         d="m 4,31.5 h 56 v 1 H 4 Z m 0,0"
         id="path21" />
      <path
         style="fill:#000000;fill-opacity:0.2;fill-rule:nonzero;stroke:none"
         d="m 14,22 h 6 c 1.105469,0 2,0.894531 2,2 v 16 c 0,1.105469 -0.894531,2 -2,2 h -6 c -1.105469,0 -2,-0.894531 -2,-2 V 24 c 0,-1.105469 0.894531,-2 2,-2 z m 0,0"
         id="path23" />
      <path
         style="fill:#bdbdbd;fill-opacity:1;fill-rule:nonzero;stroke:none"
         d="m 14,25.5 c -0.554688,0 -1,0.445312 -1,1 v 11 c 0,0.554688 0.445312,1 1,1 h 6 c 0.554688,0 1,-0.445312 1,-1 v -11 c 0,-0.554688 -0.445312,-1 -1,-1 z m 0.5,1 h 5 c 0.277344,0 0.5,0.222656 0.5,0.5 v 10 c 0,0.277344 -0.222656,0.5 -0.5,0.5 h -5 C 14.222656,37.5 14,37.277344 14,37 V 27 c 0,-0.277344 0.222656,-0.5 0.5,-0.5 z m 0,0"
         id="path25" />
      <path
         style="fill:#ffffff;fill-opacity:0.4;fill-rule:nonzero;stroke:none"
         d="m 14,43 c -1.109375,0 -2,-0.890625 -2,-2 v -1 c 0,1.109375 0.890625,2 2,2 h 6 c 1.109375,0 2,-0.890625 2,-2 v 1 c 0,1.109375 -0.890625,2 -2,2 z m 0,0"
         id="path27" />
      <path
         style="fill:#000000;fill-opacity:0.4;fill-rule:nonzero;stroke:none"
         d="m 14,22 c -1.109375,0 -2,0.890625 -2,2 v 1 c 0,-1.109375 0.890625,-2 2,-2 h 6 c 1.109375,0 2,0.890625 2,2 v -1 c 0,-1.109375 -0.890625,-2 -2,-2 z m 0,0"
         id="path29" />
      <path
         style="fill:#ffffff;fill-opacity:0.4;fill-rule:nonzero;stroke:none"
         d="m 14,25.5 c -0.554688,0 -1,0.445312 -1,1 V 27 c 0,-0.554688 0.445312,-1 1,-1 h 6 c 0.554688,0 1,0.445312 1,1 v -0.5 c 0,-0.554688 -0.445312,-1 -1,-1 z M 14,37 v 0.5 c 0,0.277344 0.222656,0.5 0.5,0.5 h 5 C 19.777344,38 20,37.777344 20,37.5 V 37 c 0,0.277344 -0.222656,0.5 -0.5,0.5 h -5 C 14.222656,37.5 14,37.277344 14,37 Z m 0,0"
         id="path31" />
      <path
         style="fill:#dedede;fill-opacity:1;fill-rule:nonzero;stroke:none"
         d="m 15,35 h 4 c 0.550781,0 1,0.449219 1,1 v 4 c 0,0.550781 -0.449219,1 -1,1 h -4 c -0.550781,0 -1,-0.449219 -1,-1 v -4 c 0,-0.550781 0.449219,-1 1,-1 z m 0,0"
         id="path33" />
      <path
         style="fill:#000000;fill-opacity:0.4;fill-rule:nonzero;stroke:none"
         d="m 14,40 v 1 c 0,0.554688 0.445312,1 1,1 h 4 c 0.554688,0 1,-0.445312 1,-1 v -1 c 0,0.554688 -0.445312,1 -1,1 h -4 c -0.554688,0 -1,-0.445312 -1,-1 z m 0,0"
         id="path35" />
      <path
         style="fill:#000000;fill-opacity:0.4;fill-rule:nonzero;stroke:none"
         d="m 14,27 v 1 c 0,0.554688 0.445312,1 1,1 h 4 c 0.554688,0 1,-0.445312 1,-1 v -1 c 0,0.554688 -0.445312,1 -1,1 h -4 c -0.554688,0 -1,-0.445312 -1,-1 z m 0,0"
         id="path37" />
      <path
         style="fill:#ffffff;fill-opacity:0.8;fill-rule:nonzero;stroke:none"
         d="m 14,37 v -1 c 0,-0.554688 0.445312,-1 1,-1 h 4 c 0.554688,0 1,0.445312 1,1 v 1 c 0,-0.554688 -0.445312,-1 -1,-1 h -4 c -0.554688,0 -1,0.445312 -1,1 z m 0,0"
         id="path39" />
      <path
         style="fill:#000000;fill-opacity:0.4;fill-rule:nonzero;stroke:none"
         d="m 44,39 c -0.554688,0 -1,-0.445312 -1,-1 v -0.5 c 0,0.554688 0.445312,1 1,1 h 6 c 0.554688,0 1,-0.445312 1,-1 V 38 c 0,0.554688 -0.445312,1 -1,1 z M 44,27.5 V 27 c 0,-0.277344 0.222656,-0.5 0.5,-0.5 h 5 c 0.277344,0 0.5,0.222656 0.5,0.5 v 0.5 C 50,27.222656 49.777344,27 49.5,27 h -5 C 44.222656,27 44,27.222656 44,27.5 Z m 0,0"
         id="path41" />
      <path
         style="fill:#000000;fill-opacity:0.2;fill-rule:nonzero;stroke:none"
         d="m 44,22 h 6 c 1.105469,0 2,0.894531 2,2 v 16 c 0,1.105469 -0.894531,2 -2,2 h -6 c -1.105469,0 -2,-0.894531 -2,-2 V 24 c 0,-1.105469 0.894531,-2 2,-2 z m 0,0"
         id="path43" />
      <path
         style="fill:#bdbdbd;fill-opacity:1;fill-rule:nonzero;stroke:none"
         d="m 44,25.5 c -0.554688,0 -1,0.445312 -1,1 v 11 c 0,0.554688 0.445312,1 1,1 h 6 c 0.554688,0 1,-0.445312 1,-1 v -11 c 0,-0.554688 -0.445312,-1 -1,-1 z m 0.5,1 h 5 c 0.277344,0 0.5,0.222656 0.5,0.5 v 10 c 0,0.277344 -0.222656,0.5 -0.5,0.5 h -5 C 44.222656,37.5 44,37.277344 44,37 V 27 c 0,-0.277344 0.222656,-0.5 0.5,-0.5 z m 0,0"
         id="path45" />
      <path
         style="fill:#ffffff;fill-opacity:0.4;fill-rule:nonzero;stroke:none"
         d="m 44,25.5 c -0.554688,0 -1,0.445312 -1,1 V 27 c 0,-0.554688 0.445312,-1 1,-1 h 6 c 0.554688,0 1,0.445312 1,1 v -0.5 c 0,-0.554688 -0.445312,-1 -1,-1 z M 44,37 v 0.5 c 0,0.277344 0.222656,0.5 0.5,0.5 h 5 C 49.777344,38 50,37.777344 50,37.5 V 37 c 0,0.277344 -0.222656,0.5 -0.5,0.5 h -5 C 44.222656,37.5 44,37.277344 44,37 Z m 0,0"
         id="path47" />
      <path
         style="fill:#d79d70;fill-opacity:1;fill-rule:nonzero;stroke:none"
         d="m 15,24 h 4 c 0.550781,0 1,0.449219 1,1 v 2 c 0,0.550781 -0.449219,1 -1,1 h -4 c -0.550781,0 -1,-0.449219 -1,-1 v -2 c 0,-0.550781 0.449219,-1 1,-1 z m 0,0"
         id="path49" />
      <path
         style="fill:#d79b6f;fill-opacity:1;fill-rule:nonzero;stroke:none;opacity:1"
         d="m 45,24 h 4 c 0.550781,0 1,0.449219 1,1 v 2 c 0,0.550781 -0.449219,1 -1,1 h -4 c -0.550781,0 -1,-0.449219 -1,-1 v -2 c 0,-0.550781 0.449219,-1 1,-1 z m 0,0"
         id="path51" />
      <path
         style="fill:#fdfdfd;fill-opacity:0.4;fill-rule:nonzero;stroke:none"
         d="m 14,26 v -1 c 0,-0.554688 0.445312,-1 1,-1 h 4 c 0.554688,0 1,0.445312 1,1 v 1 c 0,-0.554688 -0.445312,-1 -1,-1 h -4 c -0.554688,0 -1,0.445312 -1,1 z m 0,0"
         id="path53" />
      <path
         style="fill:#ffffff;fill-opacity:0.4;fill-rule:nonzero;stroke:none"
         d="m 44,43 c -1.109375,0 -2,-0.890625 -2,-2 v -1 c 0,1.109375 0.890625,2 2,2 h 6 c 1.109375,0 2,-0.890625 2,-2 v 1 c 0,1.109375 -0.890625,2 -2,2 z m 0,0"
         id="path55" />
      <path
         style="fill:#000000;fill-opacity:0.4;fill-rule:nonzero;stroke:none"
         d="m 44,22 c -1.109375,0 -2,0.890625 -2,2 v 1 c 0,-1.109375 0.890625,-2 2,-2 h 6 c 1.109375,0 2,0.890625 2,2 v -1 c 0,-1.109375 -0.890625,-2 -2,-2 z m 0,0"
         id="path57" />
      <path
         style="fill:#dedede;fill-opacity:1;fill-rule:nonzero;stroke:none"
         d="m 45,35 h 4 c 0.550781,0 1,0.449219 1,1 v 4 c 0,0.550781 -0.449219,1 -1,1 h -4 c -0.550781,0 -1,-0.449219 -1,-1 v -4 c 0,-0.550781 0.449219,-1 1,-1 z m 0,0"
         id="path59" />
      <path
         style="fill:#000000;fill-opacity:0.4;fill-rule:nonzero;stroke:none"
         d="m 44,40 v 1 c 0,0.554688 0.445312,1 1,1 h 4 c 0.554688,0 1,-0.445312 1,-1 v -1 c 0,0.554688 -0.445312,1 -1,1 h -4 c -0.554688,0 -1,-0.445312 -1,-1 z m 0,0"
         id="path61" />
      <path
         style="fill:#000000;fill-opacity:0.4;fill-rule:nonzero;stroke:none"
         d="m 44,27 v 1 c 0,0.554688 0.445312,1 1,1 h 4 c 0.554688,0 1,-0.445312 1,-1 v -1 c 0,0.554688 -0.445312,1 -1,1 h -4 c -0.554688,0 -1,-0.445312 -1,-1 z m 0,0"
         id="path63" />
      <path
         style="fill:#ffffff;fill-opacity:0.8;fill-rule:nonzero;stroke:none"
         d="m 44,37 v -1 c 0,-0.554688 0.445312,-1 1,-1 h 4 c 0.554688,0 1,0.445312 1,1 v 1 c 0,-0.554688 -0.445312,-1 -1,-1 h -4 c -0.554688,0 -1,0.445312 -1,1 z m 0,0"
         id="path65" />
      <path
         style="fill:#fdfdfd;fill-opacity:0.4;fill-rule:nonzero;stroke:none"
         d="m 44,26 v -1 c 0,-0.554688 0.445312,-1 1,-1 h 4 c 0.554688,0 1,0.445312 1,1 v 1 c 0,-0.554688 -0.445312,-1 -1,-1 h -4 c -0.554688,0 -1,0.445312 -1,1 z m 0,0"
         id="path67" />
    </g>
    <path
       style="fill:url(#linear0-6);fill-rule:nonzero;stroke:none"
       d="m 8,4 h 48 c 2.21094,0 4,1.789062 4,4 v 48 c 0,2.210938 -1.78906,4 -4,4 H 8 C 5.789062,60 4,58.210938 4,56 V 8 C 4,5.789062 5.789062,4 8,4 Z m 0,0"
       id="path71" />
  </g>
</svg>
