<?xml version="1.0" encoding="UTF-8" standalone="no"?>
<svg
   width="22"
   height="22"
   version="1.1"
   id="svg7"
   sodipodi:docname="folder-camera1.svg"
   inkscape:version="1.1.2 (0a00cf5339, 2022-02-04, custom)"
   xmlns:inkscape="http://www.inkscape.org/namespaces/inkscape"
   xmlns:sodipodi="http://sodipodi.sourceforge.net/DTD/sodipodi-0.dtd"
   xmlns="http://www.w3.org/2000/svg"
   xmlns:svg="http://www.w3.org/2000/svg">
  <sodipodi:namedview
     id="namedview9"
     pagecolor="#ffffff"
     bordercolor="#666666"
     borderopacity="1.0"
     inkscape:pageshadow="2"
     inkscape:pageopacity="0.0"
     inkscape:pagecheckerboard="0"
     showgrid="false"
     inkscape:zoom="22.954545"
     inkscape:cx="8.7564356"
     inkscape:cy="10.651485"
     inkscape:window-width="1920"
     inkscape:window-height="992"
     inkscape:window-x="3280"
     inkscape:window-y="30"
     inkscape:window-maximized="1"
     inkscape:current-layer="svg7" />
  <defs
     id="defs3">
    <style
       id="current-color-scheme"
       type="text/css">.ColorScheme-Text { color:#ffffff; } .ColorScheme-Text { color:#ffffff; }</style>
  </defs>
  <path
     class="ColorScheme-Text"
     d="m 3.08,2.42 c -1.46256,0 -2.64,1.17744 -2.64,2.64 v 11.88 c 0,1.46256 1.17744,2.64 2.64,2.64 h 15.84 c 1.46256,0 2.64,-1.17744 2.64,-2.64 V 5.06 c 0,-1.46256 -1.17744,-2.64 -2.64,-2.64 z m 0,1.32 h 15.84 c 0.73128,0 1.32,0.58872 1.32,1.32 V 16.94 L 13.64,10.34 9.047192,15.62 5.72,12.98 1.76,16.94 V 5.06 c 0,-0.73128 0.58872,-1.32 1.32,-1.32 z m 3.3,2.64 c -1.0935276,0 -1.98,0.8864724 -1.98,1.98 0,1.093528 0.8864724,1.98 1.98,1.98 1.093528,0 1.98,-0.886472 1.98,-1.98 0,-1.0935276 -0.886472,-1.98 -1.98,-1.98 z"
     fill="currentColor"
     id="path5"
     style="fill:#ffffff;stroke-width:1.32" />
</svg>
