#define max_toggled_width 11
#define max_toggled_height 11
static unsigned char max_toggled_bits[] = {
   0xfc, 0x07, 0xfc, 0x07, 0x0c, 0x04, 0x0c, 0x04, 0x7f, 0x04, 0x7f, 0x04,
   0x41, 0x04, 0xc1, 0x07, 0xc1, 0x07, 0x41, 0x00, 0x7f, 0x00 };
