<?xml version="1.0" encoding="UTF-8" standalone="no"?>
<svg
   height="64"
   viewBox="0 0 64 64"
   width="64"
   version="1.1"
   id="svg56"
   sodipodi:docname="folder-music.svg"
   inkscape:version="1.1.2 (0a00cf5339, 2022-02-04, custom)"
   xmlns:inkscape="http://www.inkscape.org/namespaces/inkscape"
   xmlns:sodipodi="http://sodipodi.sourceforge.net/DTD/sodipodi-0.dtd"
   xmlns:xlink="http://www.w3.org/1999/xlink"
   xmlns="http://www.w3.org/2000/svg"
   xmlns:svg="http://www.w3.org/2000/svg"
   xmlns:rdf="http://www.w3.org/1999/02/22-rdf-syntax-ns#"
   xmlns:cc="http://creativecommons.org/ns#"
   xmlns:dc="http://purl.org/dc/elements/1.1/">
  <sodipodi:namedview
     id="namedview58"
     pagecolor="#ffffff"
     bordercolor="#666666"
     borderopacity="1.0"
     inkscape:pageshadow="2"
     inkscape:pageopacity="0.0"
     inkscape:pagecheckerboard="0"
     showgrid="false"
     inkscape:zoom="10.835683"
     inkscape:cx="29.255193"
     inkscape:cy="30.501077"
     inkscape:window-width="1920"
     inkscape:window-height="992"
     inkscape:window-x="3280"
     inkscape:window-y="30"
     inkscape:window-maximized="1"
     inkscape:current-layer="svg56"
     inkscape:snap-global="true"
     inkscape:snap-bbox="true"
     inkscape:bbox-paths="true"
     inkscape:bbox-nodes="true"
     inkscape:snap-bbox-edge-midpoints="false"
     inkscape:snap-bbox-midpoints="false"
     inkscape:snap-nodes="true"
     inkscape:object-paths="false"
     inkscape:snap-intersection-paths="false"
     inkscape:object-nodes="false"
     inkscape:snap-midpoints="false"
     inkscape:snap-smooth-nodes="false"
     inkscape:snap-others="false" />
  <title
     id="title2">Template icons dark</title>
  <defs
     id="defs38">
    <linearGradient
       id="g"
       inkscape:swatch="solid">
      <stop
         offset="0"
         stop-color="#fff"
         stop-opacity=".079"
         id="stop4" />
    </linearGradient>
    <linearGradient
       id="f"
       inkscape:swatch="solid">
      <stop
         offset="0"
         stop-color="#66a3e2"
         id="stop7" />
    </linearGradient>
    <linearGradient
       id="c"
       inkscape:swatch="solid">
      <stop
         offset="0"
         stop-opacity=".018"
         id="stop10" />
    </linearGradient>
    <linearGradient
       id="e">
      <stop
         offset="0"
         stop-color="#66a3e2"
         stop-opacity=".388"
         id="stop13" />
      <stop
         offset="1"
         stop-color="#66a3e2"
         stop-opacity=".852"
         id="stop15" />
    </linearGradient>
    <linearGradient
       id="a">
      <stop
         offset="0"
         stop-color="#66a3e2"
         id="stop18" />
      <stop
         offset="1"
         stop-color="#69a5e3"
         id="stop20" />
    </linearGradient>
    <linearGradient
       id="b"
       inkscape:swatch="solid">
      <stop
         offset="0"
         stop-color="#4f8ac6"
         id="stop23"
         style="stop-color:#1e88e0;stop-opacity:1;" />
    </linearGradient>
    <linearGradient
       id="d">
      <stop
         offset="0"
         stop-opacity="0"
         id="stop26" />
      <stop
         offset=".25"
         stop-opacity=".091"
         id="stop28" />
      <stop
         offset="1"
         stop-opacity="0"
         id="stop30" />
    </linearGradient>
    <linearGradient
       xlink:href="#c"
       id="h"
       gradientUnits="userSpaceOnUse"
       gradientTransform="matrix(1.01967,0,0,1.03029,-63.775107,-119.09376)"
       x1="64.666"
       y1="133.777"
       x2="88.203"
       y2="133.777" />
    <linearGradient
       gradientTransform="matrix(0.66667,0,0,0.66667,-74.674,-77.164331)"
       xlink:href="#b"
       id="i"
       x1="116"
       y1="160"
       x2="204"
       y2="160"
       gradientUnits="userSpaceOnUse" />
    <linearGradient
       xlink:href="#d"
       id="j"
       gradientUnits="userSpaceOnUse"
       x1="13"
       y1="17"
       x2="13"
       y2="11"
       gradientTransform="matrix(1.3232,0,0,1.32502,42.708707,-20.833823)" />
    <linearGradient
       xlink:href="#a"
       id="k"
       gradientUnits="userSpaceOnUse"
       x1="87.674"
       y1="59"
       x2="87.674"
       y2="106"
       gradientTransform="translate(-47.673999,-50.5)" />
    <linearGradient
       xlink:href="#g"
       id="l"
       x1="2"
       y1="12.617"
       x2="46"
       y2="12.617"
       gradientUnits="userSpaceOnUse"
       gradientTransform="translate(-69,-48)" />
    <filter
       inkscape:collect="always"
       style="color-interpolation-filters:sRGB"
       id="filter19676"
       x="-0.087565638"
       y="-0.27834537"
       width="1.1751313"
       height="1.5566907">
      <feGaussianBlur
         inkscape:collect="always"
         stdDeviation="1.096352"
         id="feGaussianBlur19678" />
    </filter>
    <linearGradient
       id="linear0"
       gradientUnits="userSpaceOnUse"
       x1="31.999998"
       y1="60"
       x2="31.999998"
       y2="3.999999"
       gradientTransform="translate(-1.0000016,-0.300781)">
      <stop
         offset="0"
         style="stop-color:rgb(0%,0%,0%);stop-opacity:0.2;"
         id="stop2" />
      <stop
         offset="1"
         style="stop-color:rgb(100%,100%,100%);stop-opacity:0;"
         id="stop4-3" />
    </linearGradient>
    <style
       id="current-color-scheme"
       type="text/css">.ColorScheme-Text { color:#dedede; }</style>
  </defs>
  <metadata
     id="metadata2213">
    <rdf:RDF>
      <cc:Work
         rdf:about="">
        <dc:title>Template icons dark</dc:title>
      </cc:Work>
    </rdf:RDF>
  </metadata>
  <g
     id="g916">
    <path
       d="m 6.0000003,8.5026689 c -2,0 -3,1 -3,3.0000001 v 41 c 0,2 1,3 3,3 H 58 c 2,0 3,-1 3,-3 v -41 c 0,-1.333 -1.672011,-3.1154771 -3,-3.0000001 H 35 27 Z"
       fill="url(#i)"
       stroke-width="0.116"
       id="path42"
       style="fill:url(#i)"
       sodipodi:nodetypes="ssssssssccs" />
    <path
       id="path19089"
       style="opacity:0.603222;fill:#000000;fill-opacity:1;filter:url(#filter19676)"
       d="m 36.248047,11.701888 h -2.048828 -8 -16.9999996 c -1.999999,0 -3,1 -3,3 v 6.447265 c 0.137216,9.36e-4 0.321485,8.9e-4 0.449218,0.002 0.138715,0.0011 0.223615,0.0027 0.351563,0.0039 v -5.652384 c 0,-2 1.000001,-3 2.9999996,-3 h 17 8 1.248047 z" />
    <path
       d="m 10,12.502669 c -1.9999997,0 -2.9999997,1 -2.9999997,3 v 37 c 0,2 1,3 2.9999997,3 h 48 c 2,0 3,-1 3,-3 v -37 c 0,-1.333 -1.672011,-2.884523 -3,-3 H 35 27 Z"
       fill="url(#i)"
       stroke-width="0.116"
       id="path1979"
       style="fill:#ffffff"
       sodipodi:nodetypes="ssssssssccs" />
    <path
       style="fill:#47a4f5;fill-opacity:1;marker:none"
       d="m 57.999999,8.5000002 c 1.333,0 3,1.6599998 3,2.9999998 v 41 c 0,2 -1,3 -3,3 H 6.0000011 c -2,0 -3,-1 -3,-3 v -34 c 0,-1.333 1.667,-3 3,-3 H 27.000001 l 7.999998,-6.9999998 z"
       fill="url(#k)"
       stroke-width="1.205"
       paint-order="fill markers stroke"
       id="path46" />
    <path
       id="path7451"
       style="fill:#88c7f9;fill-opacity:1;marker:none"
       d="m 34.999999,8.5000002 -8,6.9999998 h -21 c -1.333,0 -3,1.667 -3,3 v 0.798828 c 0,-1.333 1.667,-3 3,-3 H 27.5 l 8,-6.9999998 h 22.499999 c 1.333,0 3,1.6599998 3,2.9999998 V 11.5 c 0,-1.34 -1.667,-2.9999998 -3,-2.9999998 z"
       sodipodi:nodetypes="ccsscsccscssc" />
    <path
       id="path9408"
       style="fill:#000000;fill-opacity:0.398505;marker:none"
       d="M 2.9999983,51.699219 V 52.5 c 0,2 1,3 3,3 H 57.999998 c 2,0 3.000001,-1 3.000001,-3 v -0.800781 c 0,2 -1.000001,3 -3.000001,3 H 5.9999983 c -2,0 -3,-1 -3,-3 z" />
    <path
       id="path12094"
       style="fill:#000000;fill-opacity:0.2;marker:none"
       d="m 2.9882804,52.46556 v 0.800781 c 0,2 1,3 2.9999999,3 H 57.98828 c 2,0 3.000001,-1 3.000001,-3 V 52.46556 c 0,2 -1.000001,3 -3.000001,3 H 5.9882804 c -2,0 -3,-1 -3,-3 z" />
    <path
       id="path19680"
       style="fill:#88c7f9;fill-opacity:1"
       d="M 35.289091,8.5026689 H 35 27 6 c -2,0 -3,1 -3,3.0000001 v 0.800781 c 0,-2 1,-3.0000001 3,-3.0000001 h 21 8 0.29495 c -0.0032,-0.204272 -0.0033,-0.565639 -0.0059,-0.800781 z"
       sodipodi:nodetypes="cccsscsccccc" />
    <g
       id="g882"
       transform="matrix(0.9075,0,0,0.9075,44.76128,-1.712285)"
       style="stroke-width:1.21212">
      <path
         d="m -5.250517,29.477564 -11.0661,2.85795 c -0.83133,0.22254 -1.50135,1.107555 -1.50135,1.9674 v 13.6338 c -0.843,-0.441 -1.92585,-0.619485 -3.0483,-0.32811 -2.025449,0.52578 -3.294899,2.2257 -2.860649,3.79545 0.434175,1.56975 2.430449,2.44635 4.455899,1.9206 1.61595,-0.41946 2.73,-1.6065 2.9076,-2.85795 l 0.04692,-12.8838 10.50315,-2.81115 v 10.1664 c -0.843,-0.441 -1.92465,-0.619485 -3.0471,-0.32811 -2.02545,0.52578 -3.2949,2.2257 -2.86065,3.79545 0.434175,1.56975 2.4291,2.44635 4.45455,1.9206 1.61595,-0.41946 2.73,-1.6065 2.9076,-2.85795 l 0.04692,-16.7715 c 0,-0.644895 -0.399405,-1.128 -0.938355,-1.21872 z"
         style="fill:#3571a2;fill-opacity:1;stroke-width:1.81818"
         class="ColorScheme-Text"
         id="path19336" />
      <path
         d="m -5.250517,27.878 -11.0661,2.85795 c -0.83133,0.22254 -1.50135,1.107555 -1.50135,1.9674 v 13.6338 c -0.843,-0.441 -1.92585,-0.619485 -3.0483,-0.32811 -2.02545,0.52578 -3.2949,2.2257 -2.86065,3.79545 0.434175,1.56975 2.43045,2.44635 4.4559,1.9206 1.61595,-0.41946 2.73,-1.6065 2.9076,-2.85795 l 0.04692,-12.8838 10.50315,-2.81115 v 10.1664 c -0.843,-0.441 -1.92465,-0.619485 -3.0471,-0.32811 -2.02545,0.52578 -3.2949,2.2257 -2.86065,3.79545 0.434175,1.56975 2.4291,2.44635 4.45455,1.9206 1.61595,-0.41946 2.73,-1.6065 2.9076,-2.85795 l 0.04692,-16.7715 c 0,-0.644895 -0.399405,-1.128 -0.938355,-1.21872 z"
         style="fill:#b1d4f0;fill-opacity:1;stroke-width:1.81818"
         class="ColorScheme-Text"
         id="path21953" />
      <path
         d="m -5.250517,28.578 -11.066101,2.85795 c -0.83133,0.22254 -1.50135,1.107555 -1.50135,1.9674 v 13.6338 c -0.843,-0.441 -1.92585,-0.619485 -3.0483,-0.32811 -2.02545,0.52578 -3.2949,2.2257 -2.86065,3.79545 0.434175,1.56975 2.43045,2.44635 4.4559,1.9206 1.61595,-0.41946 2.73,-1.6065 2.9076,-2.85795 l 0.04692,-12.8838 10.50315,-2.81115 v 10.1664 c -0.843,-0.441 -1.92465,-0.619485 -3.0471,-0.32811 -2.02545,0.52578 -3.2949,2.2257 -2.86065,3.79545 0.434175,1.56975 2.4291,2.44635 4.45455,1.9206 1.61595,-0.41946 2.730001,-1.6065 2.907601,-2.85795 l 0.04692,-16.7715 c 0,-0.644895 -0.399405,-1.128 -0.938355,-1.21872 z"
         style="fill:#8fcaf8;fill-opacity:1;stroke-width:1.81818"
         class="ColorScheme-Text"
         id="path15387" />
    </g>
  </g>
</svg>
