<?xml version="1.0" encoding="UTF-8" standalone="no"?>
<svg
   width="64"
   height="64"
   viewBox="0 0 64 64"
   version="1.1"
   id="svg24"
   sodipodi:docname="folder.svg"
   inkscape:version="1.1.2 (0a00cf5339, 2022-02-04, custom)"
   xmlns:inkscape="http://www.inkscape.org/namespaces/inkscape"
   xmlns:sodipodi="http://sodipodi.sourceforge.net/DTD/sodipodi-0.dtd"
   xmlns="http://www.w3.org/2000/svg"
   xmlns:svg="http://www.w3.org/2000/svg">
  <sodipodi:namedview
     id="namedview26"
     pagecolor="#ffffff"
     bordercolor="#666666"
     borderopacity="1.0"
     inkscape:pageshadow="2"
     inkscape:pageopacity="0.0"
     inkscape:pagecheckerboard="0"
     showgrid="false"
     inkscape:zoom="11.421864"
     inkscape:cx="26.221639"
     inkscape:cy="29.898797"
     inkscape:window-width="1920"
     inkscape:window-height="990"
     inkscape:window-x="1920"
     inkscape:window-y="32"
     inkscape:window-maximized="1"
     inkscape:current-layer="svg24" />
  <defs
     id="defs7">
    <linearGradient
       id="linear0"
       gradientUnits="userSpaceOnUse"
       x1="31.999998"
       y1="60"
       x2="31.999998"
       y2="3.999999">
      <stop
         offset="0"
         style="stop-color:rgb(0%,0%,0%);stop-opacity:0.2;"
         id="stop2" />
      <stop
         offset="1"
         style="stop-color:rgb(100%,100%,100%);stop-opacity:0;"
         id="stop4" />
    </linearGradient>
    <filter
       inkscape:collect="always"
       style="color-interpolation-filters:sRGB"
       id="filter74410"
       x="-0.026325426"
       y="-0.28455929"
       width="1.0526509"
       height="1.5691186">
      <feGaussianBlur
         inkscape:collect="always"
         stdDeviation="0.15091148"
         id="feGaussianBlur74412" />
    </filter>
  </defs>
  <g
     id="g968"
     transform="translate(-0.125516,-1.9268235)">
    <path
       d="M 8.4754458,10.3424 H 24.661473 c 2.837499,0 2.959504,0.107719 5.828524,2.379713 2.954099,2.231477 3.582269,2.294218 7.043667,2.294218 l 18.23708,-0.198051 c 2.411387,-0.0189 4.352968,1.941317 4.352968,4.352589 v 25.587913 c 0,2.411462 -1.941355,4.352968 -4.352968,4.352968 H 8.4765797 c -2.4114616,0 -4.3529676,-1.941355 -4.3529676,-4.352968 V 14.695065 c 0,-2.411462 1.9413548,-4.352967 4.3529676,-4.352967 z"
       fill="#57B0FF"
       id="path1799"
       style="fill:#1e94f3;fill-opacity:1;stroke-width:3.7796"
       sodipodi:nodetypes="cscccsssssscc" />
    <path
       id="rect23575"
       style="opacity:0.653639;mix-blend-mode:normal;fill:#241c1c;fill-opacity:1;stroke-width:1.04617;filter:url(#filter74410)"
       d="m 2.9265688,4.3879273 c -0.7419341,0 -1.3393998,0.473698 -1.3393998,1.0622938 V 5.660729 c 0,-0.5885961 0.5974657,-1.0628074 1.3393998,-1.0628074 H 14.005858 c 0.741935,0 1.3394,0.4742113 1.3394,1.0628074 V 5.4502211 c 0,-0.5885958 -0.597465,-1.0622938 -1.3394,-1.0622938 z"
       sodipodi:nodetypes="sscsscsss"
       transform="matrix(3.779602,0,0,3.779602,0.12474485,1.5436715)" />
    <rect
       x="6.1226616"
       y="18.533632"
       width="52.001999"
       height="35.99773"
       rx="4.3529677"
       ry="4.0415993"
       fill="#80C3FF"
       id="rect1050"
       style="fill:#ffffff;fill-opacity:1;stroke-width:3.67867" />
    <rect
       x="4.1235633"
       y="20.533632"
       width="56.002365"
       height="35.99773"
       rx="4.3529677"
       ry="4.0415993"
       fill="#80C3FF"
       id="rect41"
       style="fill:#3fa3f5;fill-opacity:1;stroke-width:3.67867" />
    <path
       d="m 8.4769085,20.533632 c -2.4114238,0 -4.3533455,1.902009 -4.3533455,4.265659 v 0.88866 c 0,-2.3014 1.9421107,-4.154161 4.3533455,-4.154161 H 55.771066 c 2.411424,0 4.353345,1.852912 4.353345,4.154161 v -0.88866 c 0,-2.363612 -1.94211,-4.265659 -4.353345,-4.265659 z"
       fill="#ffffff"
       opacity="0.1"
       stroke-width="1.00001"
       id="path49"
       style="opacity:0.8;fill:#99d0fa;fill-opacity:1" />
    <path
       d="m 8.4769085,56.531362 c -2.4114238,0 -4.3533455,-1.902009 -4.3533455,-4.265659 v -0.88866 c 0,2.3014 1.9421107,4.154161 4.3533455,4.154161 H 55.77107 c 2.411423,0 4.353345,-1.852912 4.353345,-4.154161 v 0.88866 c 0,2.363612 -1.942111,4.265659 -4.353345,4.265659 z"
       fill="#ffffff"
       opacity="0.1"
       stroke-width="1.00001"
       id="path1030"
       style="opacity:0;fill:#000000;fill-opacity:1" />
    <path
       id="path37"
       style="opacity:0.8;fill:#99d0fa;fill-opacity:1;stroke-width:3.7796"
       d="m 8.4751745,10.342098 c -2.4107024,0.0011 -4.3515624,1.942709 -4.3515624,4.353515 v 1 c 0,-2.410806 1.94086,-4.352461 4.3515624,-4.353515 h 0.00195 16.1835935 c 2.837499,0 2.961058,0.108864 5.830079,2.380859 2.954099,2.231477 3.581571,2.292969 7.042968,2.292969 l 18.236326,-0.197265 c 2.411386,-0.0189 4.35352,1.94029 4.35352,4.351563 v -0.998048 c 0,-2.411273 -1.942134,-4.372414 -4.35352,-4.353516 l -18.236326,0.199219 c -3.461397,0 -4.088869,-0.06345 -7.042968,-2.294922 -2.869021,-2.271994 -2.99258,-2.380859 -5.830079,-2.380859 H 8.4771278 Z" />
    <path
       id="rect71683"
       style="fill:#000000;fill-opacity:0.2;stroke-width:3.67867"
       d="m 4.123563,52.470542 v 0.998038 c 0,2.239052 1.9419719,4.042969 4.353516,4.042969 h 47.296874 c 2.411545,0 4.353516,-1.803917 4.353516,-4.042969 v -0.998038 c 0,2.23904 -1.941971,4.041007 -4.353516,4.041007 H 8.477079 c -2.4115441,0 -4.353516,-1.801967 -4.353516,-4.041007 z" />
    <path
       id="path72066"
       style="fill:#000000;fill-opacity:0.4;stroke-width:3.67867"
       d="m 4.123563,51.490356 v 0.998037 c 0,2.239052 1.9419719,4.042969 4.353516,4.042969 h 47.296874 c 2.411545,0 4.353516,-1.803917 4.353516,-4.042969 v -0.998037 c 0,2.23904 -1.941971,4.041006 -4.353516,4.041006 H 8.477079 c -2.4115441,0 -4.353516,-1.801966 -4.353516,-4.041006 z" />
  </g>
</svg>
