<?xml version="1.0" encoding="UTF-8" standalone="no"?>
<svg
   height="64"
   viewBox="0 0 64 64"
   width="64"
   version="1.1"
   id="svg56"
   sodipodi:docname="folder-documents (copy 1).svg"
   inkscape:version="1.1.2 (0a00cf5339, 2022-02-04, custom)"
   xmlns:inkscape="http://www.inkscape.org/namespaces/inkscape"
   xmlns:sodipodi="http://sodipodi.sourceforge.net/DTD/sodipodi-0.dtd"
   xmlns:xlink="http://www.w3.org/1999/xlink"
   xmlns="http://www.w3.org/2000/svg"
   xmlns:svg="http://www.w3.org/2000/svg"
   xmlns:rdf="http://www.w3.org/1999/02/22-rdf-syntax-ns#"
   xmlns:cc="http://creativecommons.org/ns#"
   xmlns:dc="http://purl.org/dc/elements/1.1/">
  <sodipodi:namedview
     id="namedview58"
     pagecolor="#ffffff"
     bordercolor="#666666"
     borderopacity="1.0"
     inkscape:pageshadow="2"
     inkscape:pageopacity="0.0"
     inkscape:pagecheckerboard="0"
     showgrid="false"
     inkscape:zoom="9.0322038"
     inkscape:cx="28.232312"
     inkscape:cy="39.46988"
     inkscape:window-width="1920"
     inkscape:window-height="992"
     inkscape:window-x="3280"
     inkscape:window-y="30"
     inkscape:window-maximized="1"
     inkscape:current-layer="svg56"
     inkscape:snap-global="true"
     inkscape:snap-bbox="true"
     inkscape:bbox-paths="true"
     inkscape:bbox-nodes="true"
     inkscape:snap-bbox-edge-midpoints="true"
     inkscape:snap-bbox-midpoints="true"
     inkscape:snap-nodes="true"
     inkscape:object-paths="true"
     inkscape:snap-intersection-paths="true"
     inkscape:object-nodes="true"
     inkscape:snap-midpoints="true"
     inkscape:snap-smooth-nodes="true" />
  <title
     id="title2">Template icons dark</title>
  <defs
     id="defs38">
    <linearGradient
       id="g"
       inkscape:swatch="solid">
      <stop
         offset="0"
         stop-color="#fff"
         stop-opacity=".079"
         id="stop4" />
    </linearGradient>
    <linearGradient
       id="f"
       inkscape:swatch="solid">
      <stop
         offset="0"
         stop-color="#66a3e2"
         id="stop7" />
    </linearGradient>
    <linearGradient
       id="c"
       inkscape:swatch="solid">
      <stop
         offset="0"
         stop-opacity=".018"
         id="stop10" />
    </linearGradient>
    <linearGradient
       id="e">
      <stop
         offset="0"
         stop-color="#66a3e2"
         stop-opacity=".388"
         id="stop13" />
      <stop
         offset="1"
         stop-color="#66a3e2"
         stop-opacity=".852"
         id="stop15" />
    </linearGradient>
    <linearGradient
       id="a">
      <stop
         offset="0"
         stop-color="#66a3e2"
         id="stop18" />
      <stop
         offset="1"
         stop-color="#69a5e3"
         id="stop20" />
    </linearGradient>
    <linearGradient
       id="b"
       inkscape:swatch="solid">
      <stop
         offset="0"
         stop-color="#4f8ac6"
         id="stop23"
         style="stop-color:#1e88e0;stop-opacity:1;" />
    </linearGradient>
    <linearGradient
       id="d">
      <stop
         offset="0"
         stop-opacity="0"
         id="stop26" />
      <stop
         offset=".25"
         stop-opacity=".091"
         id="stop28" />
      <stop
         offset="1"
         stop-opacity="0"
         id="stop30" />
    </linearGradient>
    <linearGradient
       xlink:href="#c"
       id="h"
       gradientUnits="userSpaceOnUse"
       gradientTransform="matrix(1.01967,0,0,1.03029,-63.775107,-119.09376)"
       x1="64.666"
       y1="133.777"
       x2="88.203"
       y2="133.777" />
    <linearGradient
       gradientTransform="matrix(0.66667,0,0,0.66667,-74.674,-77.164331)"
       xlink:href="#b"
       id="i"
       x1="116"
       y1="160"
       x2="204"
       y2="160"
       gradientUnits="userSpaceOnUse" />
    <linearGradient
       xlink:href="#d"
       id="j"
       gradientUnits="userSpaceOnUse"
       x1="13"
       y1="17"
       x2="13"
       y2="11"
       gradientTransform="matrix(1.3232,0,0,1.32502,42.708707,-20.833823)" />
    <linearGradient
       xlink:href="#a"
       id="k"
       gradientUnits="userSpaceOnUse"
       x1="87.674"
       y1="59"
       x2="87.674"
       y2="106"
       gradientTransform="translate(-47.673999,-50.5)" />
    <linearGradient
       xlink:href="#g"
       id="l"
       x1="2"
       y1="12.617"
       x2="46"
       y2="12.617"
       gradientUnits="userSpaceOnUse"
       gradientTransform="translate(-69,-48)" />
    <filter
       inkscape:collect="always"
       style="color-interpolation-filters:sRGB"
       id="filter19676"
       x="-0.087565638"
       y="-0.27834537"
       width="1.1751313"
       height="1.5566907">
      <feGaussianBlur
         inkscape:collect="always"
         stdDeviation="1.096352"
         id="feGaussianBlur19678" />
    </filter>
    <linearGradient
       id="linear0"
       gradientUnits="userSpaceOnUse"
       x1="31.999998"
       y1="60"
       x2="31.999998"
       y2="3.999999"
       gradientTransform="translate(-1.0000016,-0.300781)">
      <stop
         offset="0"
         style="stop-color:rgb(0%,0%,0%);stop-opacity:0.2;"
         id="stop2" />
      <stop
         offset="1"
         style="stop-color:rgb(100%,100%,100%);stop-opacity:0;"
         id="stop4-3" />
    </linearGradient>
  </defs>
  <metadata
     id="metadata2213">
    <rdf:RDF>
      <cc:Work
         rdf:about="">
        <dc:title>Template icons dark</dc:title>
      </cc:Work>
    </rdf:RDF>
  </metadata>
  <g
     id="g20940">
    <path
       d="m 6.0000003,8.5026689 c -2,0 -3,1 -3,3.0000001 v 41 c 0,2 1,3 3,3 H 58 c 2,0 3,-1 3,-3 v -41 c 0,-1.333 -1.672011,-3.1154771 -3,-3.0000001 H 35 27 Z"
       fill="url(#i)"
       stroke-width="0.116"
       id="path42"
       style="fill:url(#i)"
       sodipodi:nodetypes="ssssssssccs" />
    <path
       id="path19089"
       style="opacity:0.603222;fill:#000000;fill-opacity:1;filter:url(#filter19676)"
       d="m 36.248047,11.701888 h -2.048828 -8 -16.9999996 c -1.999999,0 -3,1 -3,3 v 6.447265 c 0.137216,9.36e-4 0.321485,8.9e-4 0.449218,0.002 0.138715,0.0011 0.223615,0.0027 0.351563,0.0039 v -5.652384 c 0,-2 1.000001,-3 2.9999996,-3 h 17 8 1.248047 z" />
    <path
       d="m 10,12.502669 c -1.9999997,0 -2.9999997,1 -2.9999997,3 v 37 c 0,2 1,3 2.9999997,3 h 48 c 2,0 3,-1 3,-3 v -37 c 0,-1.333 -1.672011,-2.884523 -3,-3 H 35 27 Z"
       fill="url(#i)"
       stroke-width="0.116"
       id="path1979"
       style="fill:#ffffff"
       sodipodi:nodetypes="ssssssssccs" />
    <path
       style="fill:#47a4f5;fill-opacity:1;marker:none"
       d="m 57.999999,8.5000002 c 1.333,0 3,1.6599998 3,2.9999998 v 41 c 0,2 -1,3 -3,3 H 6.0000011 c -2,0 -3,-1 -3,-3 v -34 c 0,-1.333 1.667,-3 3,-3 H 27.000001 l 7.999998,-6.9999998 z"
       fill="url(#k)"
       stroke-width="1.205"
       paint-order="fill markers stroke"
       id="path46" />
    <path
       id="path7451"
       style="fill:#88c7f9;fill-opacity:1;marker:none"
       d="m 34.999999,8.5000002 -8,6.9999998 h -21 c -1.333,0 -3,1.667 -3,3 v 0.798828 c 0,-1.333 1.667,-3 3,-3 H 27.5 l 8,-6.9999998 h 22.499999 c 1.333,0 3,1.6599998 3,2.9999998 V 11.5 c 0,-1.34 -1.667,-2.9999998 -3,-2.9999998 z"
       sodipodi:nodetypes="ccsscsccscssc" />
    <path
       id="path9408"
       style="fill:#000000;fill-opacity:0.398505;marker:none"
       d="M 2.9999983,51.699219 V 52.5 c 0,2 1,3 3,3 H 57.999998 c 2,0 3.000001,-1 3.000001,-3 v -0.800781 c 0,2 -1.000001,3 -3.000001,3 H 5.9999983 c -2,0 -3,-1 -3,-3 z" />
    <path
       id="path12094"
       style="fill:#000000;fill-opacity:0.2;marker:none"
       d="m 2.9882804,52.46556 v 0.800781 c 0,2 1,3 2.9999999,3 H 57.98828 c 2,0 3.000001,-1 3.000001,-3 V 52.46556 c 0,2 -1.000001,3 -3.000001,3 H 5.9882804 c -2,0 -3,-1 -3,-3 z" />
    <path
       id="path19680"
       style="fill:#88c7f9;fill-opacity:1"
       d="M 35.289091,8.5026689 H 35 27 6 c -2,0 -3,1 -3,3.0000001 v 0.800781 c 0,-2 1,-3.0000001 3,-3.0000001 h 21 8 0.29495 c -0.0032,-0.204272 -0.0033,-0.565639 -0.0059,-0.800781 z"
       sodipodi:nodetypes="cccsscsccccc" />
    <g
       id="g20926"
       transform="translate(-47.410154,-12.448562)">
      <path
         id="path4245"
         style="opacity:1;fill:#3571a2;fill-opacity:1;stroke-width:1.5;marker:none"
         d="m 72.660156,36.851562 c -0.4155,0 -0.75,0.3345 -0.75,0.75 v 0.599609 c 0,-0.4155 0.3345,-0.75 0.75,-0.75 h 8.25 v -0.599609 z m 8.25,6 v 0.599609 h 6 v -0.599609 z m -6,6 v 0.599609 h 9 v -0.599609 z m 0,3 v 0.599609 h 9 v -0.599609 z m 0,3 v 0.599609 h 6 v -0.599609 z m -4.5,3 v 0.599609 c 0,0.831001 0.669,1.5 1.5,1.5 h 15 c 0.831,0 1.5,-0.668999 1.5,-1.5 v -0.599609 c 0,0.831 -0.669,1.5 -1.5,1.5 h -15 c -0.831,0 -1.5,-0.669 -1.5,-1.5 z" />
      <path
         d="m 71.910156,35.351562 c -0.831,0 -1.5,0.669 -1.5,1.5 v 21 c 0,0.831 0.669,1.5 1.5,1.5 h 15 c 0.831,0 1.5,-0.669 1.5,-1.5 v -15 c 0,-0.831 -6.669,-7.5 -7.5,-7.5 z m 0.75,1.5 h 8.25 v 6 h 6 v 14.25 c 0,0.4155 -0.3345,0.75 -0.75,0.75 h -13.5 a 0.7485,0.7485 0 0 1 -0.75,-0.75 v -19.5 c 0,-0.4155 0.3345,-0.75 0.75,-0.75 z m 2.25,10.5 v 1.5 h 9 v -1.5 z m 0,3 v 1.5 h 9 v -1.5 z m 0,3 v 1.5 h 6 v -1.5 z"
         fill="#dedede"
         overflow="visible"
         style="opacity:1;fill:#8fcaf8;fill-opacity:1;stroke-width:1.5;marker:none"
         color="#bebebe"
         id="path4633" />
      <path
         id="path4591"
         style="opacity:1;fill:#b1d4f0;fill-opacity:1;stroke-width:1.5;marker:none"
         d="m 71.910156,35.351562 c -0.831006,0 -1.500004,0.669 -1.500004,1.5 v 0.599609 c 0,-0.831 0.668998,-1.5 1.500004,-1.5 h 9 c 0.831,0 7.5,6.669 7.5,7.5 v -0.599609 c 0,-0.831 -6.669,-7.5 -7.5,-7.5 z m 3,12 v 0.599609 h 9 v -0.599609 z m 0,3 v 0.599609 h 9 v -0.599609 z m 0,3 v 0.599609 h 6 v -0.599609 z m -3,3.75 v 0.599609 a 0.7485,0.7485 0 0 0 0.75,0.75 h 13.5 c 0.4155,0 0.75,-0.3345 0.75,-0.75 v -0.599609 c 0,0.4155 -0.3345,0.75 -0.75,0.75 h -13.5 a 0.7485,0.7485 0 0 1 -0.75,-0.75 z" />
    </g>
  </g>
</svg>
