<?xml version="1.0" encoding="UTF-8" standalone="no"?>
<svg
   height="64"
   viewBox="0 0 64 64"
   width="64"
   version="1.1"
   id="svg56"
   sodipodi:docname="folder-documents.svg"
   inkscape:version="1.1.2 (0a00cf5339, 2022-02-04, custom)"
   xmlns:inkscape="http://www.inkscape.org/namespaces/inkscape"
   xmlns:sodipodi="http://sodipodi.sourceforge.net/DTD/sodipodi-0.dtd"
   xmlns:xlink="http://www.w3.org/1999/xlink"
   xmlns="http://www.w3.org/2000/svg"
   xmlns:svg="http://www.w3.org/2000/svg"
   xmlns:rdf="http://www.w3.org/1999/02/22-rdf-syntax-ns#"
   xmlns:cc="http://creativecommons.org/ns#"
   xmlns:dc="http://purl.org/dc/elements/1.1/">
  <sodipodi:namedview
     id="namedview58"
     pagecolor="#ffffff"
     bordercolor="#666666"
     borderopacity="1.0"
     inkscape:pageshadow="2"
     inkscape:pageopacity="0.0"
     inkscape:pagecheckerboard="0"
     showgrid="false"
     inkscape:zoom="9.5620385"
     inkscape:cx="35.243531"
     inkscape:cy="27.922916"
     inkscape:window-width="1920"
     inkscape:window-height="993"
     inkscape:window-x="3280"
     inkscape:window-y="35"
     inkscape:window-maximized="1"
     inkscape:current-layer="svg56"
     inkscape:snap-global="true"
     inkscape:snap-bbox="true"
     inkscape:bbox-paths="true"
     inkscape:bbox-nodes="true"
     inkscape:snap-bbox-edge-midpoints="true"
     inkscape:snap-bbox-midpoints="true"
     inkscape:snap-nodes="true"
     inkscape:object-paths="true"
     inkscape:snap-intersection-paths="true"
     inkscape:object-nodes="true"
     inkscape:snap-midpoints="true"
     inkscape:snap-smooth-nodes="true"
     inkscape:snap-others="true" />
  <title
     id="title2">Template icons dark</title>
  <defs
     id="defs38">
    <inkscape:path-effect
       effect="fillet_chamfer"
       id="path-effect8852"
       is_visible="true"
       lpeversion="1"
       satellites_param="F,0,0,1,0,0.5,0,1 @ F,0,0,1,0,0.5,0,1 @ F,0,0,1,0,0.5,0,1 @ F,0,1,1,0,0.5,0,1 @ F,0,0,1,0,0.5,0,1 | F,0,0,1,0,0.5,0,1 @ F,0,0,1,0,0.5,0,1 @ F,0,1,1,0,0.5,0,1 @ F,0,1,1,0,0.5,0,1 @ F,0,0,1,0,0.5,0,1 @ F,0,0,1,0,0.5,0,1 | F,0,0,1,0,0.2,0,1 @ F,0,0,1,0,0.2,0,1 @ F,0,0,1,0,0.2,0,1 @ F,0,0,1,0,0.2,0,1 | F,0,0,1,0,0.2,0,1 @ F,0,0,1,0,0.2,0,1 @ F,0,0,1,0,0.2,0,1 @ F,0,0,1,0,0.2,0,1 | F,0,0,1,0,0.2,0,1 @ F,0,0,1,0,0.2,0,1 @ F,0,0,1,0,0.2,0,1 @ F,0,0,1,0,0.2,0,1"
       unit="px"
       method="auto"
       mode="F"
       radius="0.5"
       chamfer_steps="1"
       flexible="false"
       use_knot_distance="true"
       apply_no_radius="true"
       apply_with_radius="true"
       only_selected="true"
       hide_knots="false" />
    <inkscape:path-effect
       effect="fillet_chamfer"
       id="path-effect8828"
       is_visible="true"
       lpeversion="1"
       satellites_param="F,0,0,1,0,0.5,0,1 @ F,0,0,1,0,0.5,0,1 @ F,0,0,1,0,0.5,0,1 @ F,0,1,1,0,0.5,0,1 @ F,0,0,1,0,0.5,0,1 | F,0,0,1,0,0.5,0,1 @ F,0,0,1,0,0.5,0,1 @ F,0,1,1,0,0.5,0,1 @ F,0,1,1,0,0.5,0,1 @ F,0,0,1,0,0.5,0,1 @ F,0,0,1,0,0.5,0,1 | F,0,0,1,0,0.2,0,1 @ F,0,0,1,0,0.2,0,1 @ F,0,0,1,0,0.2,0,1 @ F,0,0,1,0,0.2,0,1 | F,0,0,1,0,0.2,0,1 @ F,0,0,1,0,0.2,0,1 @ F,0,0,1,0,0.2,0,1 @ F,0,0,1,0,0.2,0,1 | F,0,0,1,0,0.2,0,1 @ F,0,0,1,0,0.2,0,1 @ F,0,0,1,0,0.2,0,1 @ F,0,0,1,0,0.2,0,1"
       unit="px"
       method="auto"
       mode="F"
       radius="0.5"
       chamfer_steps="1"
       flexible="false"
       use_knot_distance="true"
       apply_no_radius="true"
       apply_with_radius="true"
       only_selected="true"
       hide_knots="false" />
    <inkscape:path-effect
       effect="fillet_chamfer"
       id="path-effect8804"
       is_visible="true"
       lpeversion="1"
       satellites_param="F,0,0,1,0,0.5,0,1 @ F,0,0,1,0,0.5,0,1 @ F,0,0,1,0,0.5,0,1 @ F,0,1,1,0,0.5,0,1 @ F,0,0,1,0,0.5,0,1 | F,0,0,1,0,0.5,0,1 @ F,0,0,1,0,0.5,0,1 @ F,0,1,1,0,0.5,0,1 @ F,0,1,1,0,0.5,0,1 @ F,0,0,1,0,0.5,0,1 @ F,0,0,1,0,0.5,0,1 | F,0,0,1,0,0.2,0,1 @ F,0,0,1,0,0.2,0,1 @ F,0,0,1,0,0.2,0,1 @ F,0,0,1,0,0.2,0,1 | F,0,0,1,0,0.2,0,1 @ F,0,0,1,0,0.2,0,1 @ F,0,0,1,0,0.2,0,1 @ F,0,0,1,0,0.2,0,1 | F,0,0,1,0,0.2,0,1 @ F,0,0,1,0,0.2,0,1 @ F,0,0,1,0,0.2,0,1 @ F,0,0,1,0,0.2,0,1"
       unit="px"
       method="auto"
       mode="F"
       radius="0.5"
       chamfer_steps="1"
       flexible="false"
       use_knot_distance="true"
       apply_no_radius="true"
       apply_with_radius="true"
       only_selected="true"
       hide_knots="false" />
    <inkscape:path-effect
       effect="fillet_chamfer"
       id="path-effect8528"
       is_visible="true"
       lpeversion="1"
       satellites_param="F,0,0,1,0,0.5,0,1 @ F,0,0,1,0,0.5,0,1 @ F,0,0,1,0,0.5,0,1 @ F,0,1,1,0,0.5,0,1 @ F,0,0,1,0,0.5,0,1 | F,0,0,1,0,0.5,0,1 @ F,0,0,1,0,0.5,0,1 @ F,0,1,1,0,0.5,0,1 @ F,0,1,1,0,0.5,0,1 @ F,0,0,1,0,0.5,0,1 @ F,0,0,1,0,0.5,0,1 | F,0,0,1,0,0.2,0,1 @ F,0,0,1,0,0.2,0,1 @ F,0,0,1,0,0.2,0,1 @ F,0,0,1,0,0.2,0,1 | F,0,0,1,0,0.2,0,1 @ F,0,0,1,0,0.2,0,1 @ F,0,0,1,0,0.2,0,1 @ F,0,0,1,0,0.2,0,1 | F,0,0,1,0,0.2,0,1 @ F,0,0,1,0,0.2,0,1 @ F,0,0,1,0,0.2,0,1 @ F,0,0,1,0,0.2,0,1"
       unit="px"
       method="auto"
       mode="F"
       radius="0.5"
       chamfer_steps="1"
       flexible="false"
       use_knot_distance="true"
       apply_no_radius="true"
       apply_with_radius="true"
       only_selected="true"
       hide_knots="false" />
    <inkscape:path-effect
       effect="fillet_chamfer"
       id="path-effect4250"
       is_visible="true"
       lpeversion="1"
       satellites_param="F,0,0,1,0,0.5,0,1 @ F,0,0,1,0,0.5,0,1 @ F,0,0,1,0,0.5,0,1 @ F,0,1,1,0,0.5,0,1 @ F,0,0,1,0,0.5,0,1 | F,0,0,1,0,0.5,0,1 @ F,0,0,1,0,0.5,0,1 @ F,0,1,1,0,0.5,0,1 @ F,0,1,1,0,0.5,0,1 @ F,0,0,1,0,0.5,0,1 @ F,0,0,1,0,0.5,0,1 | F,0,0,1,0,0.2,0,1 @ F,0,0,1,0,0.2,0,1 @ F,0,0,1,0,0.2,0,1 @ F,0,0,1,0,0.2,0,1 | F,0,0,1,0,0.2,0,1 @ F,0,0,1,0,0.2,0,1 @ F,0,0,1,0,0.2,0,1 @ F,0,0,1,0,0.2,0,1 | F,0,0,1,0,0.2,0,1 @ F,0,0,1,0,0.2,0,1 @ F,0,0,1,0,0.2,0,1 @ F,0,0,1,0,0.2,0,1"
       unit="px"
       method="auto"
       mode="F"
       radius="0.5"
       chamfer_steps="1"
       flexible="false"
       use_knot_distance="true"
       apply_no_radius="true"
       apply_with_radius="true"
       only_selected="true"
       hide_knots="false" />
    <linearGradient
       id="g"
       inkscape:swatch="solid">
      <stop
         offset="0"
         stop-color="#fff"
         stop-opacity=".079"
         id="stop4" />
    </linearGradient>
    <linearGradient
       id="f"
       inkscape:swatch="solid">
      <stop
         offset="0"
         stop-color="#66a3e2"
         id="stop7" />
    </linearGradient>
    <linearGradient
       id="c"
       inkscape:swatch="solid">
      <stop
         offset="0"
         stop-opacity=".018"
         id="stop10" />
    </linearGradient>
    <linearGradient
       id="e">
      <stop
         offset="0"
         stop-color="#66a3e2"
         stop-opacity=".388"
         id="stop13" />
      <stop
         offset="1"
         stop-color="#66a3e2"
         stop-opacity=".852"
         id="stop15" />
    </linearGradient>
    <linearGradient
       id="a">
      <stop
         offset="0"
         stop-color="#66a3e2"
         id="stop18" />
      <stop
         offset="1"
         stop-color="#69a5e3"
         id="stop20" />
    </linearGradient>
    <linearGradient
       id="b"
       inkscape:swatch="solid">
      <stop
         offset="0"
         stop-color="#4f8ac6"
         id="stop23"
         style="stop-color:#1e88e0;stop-opacity:1;" />
    </linearGradient>
    <linearGradient
       id="d">
      <stop
         offset="0"
         stop-opacity="0"
         id="stop26" />
      <stop
         offset=".25"
         stop-opacity=".091"
         id="stop28" />
      <stop
         offset="1"
         stop-opacity="0"
         id="stop30" />
    </linearGradient>
    <linearGradient
       xlink:href="#c"
       id="h"
       gradientUnits="userSpaceOnUse"
       gradientTransform="matrix(1.01967,0,0,1.03029,-63.775107,-119.09376)"
       x1="64.666"
       y1="133.777"
       x2="88.203"
       y2="133.777" />
    <linearGradient
       gradientTransform="matrix(0.66667,0,0,0.66667,-74.674,-77.164331)"
       xlink:href="#b"
       id="i"
       x1="116"
       y1="160"
       x2="204"
       y2="160"
       gradientUnits="userSpaceOnUse" />
    <linearGradient
       xlink:href="#d"
       id="j"
       gradientUnits="userSpaceOnUse"
       x1="13"
       y1="17"
       x2="13"
       y2="11"
       gradientTransform="matrix(1.3232,0,0,1.32502,42.708707,-20.833823)" />
    <linearGradient
       xlink:href="#a"
       id="k"
       gradientUnits="userSpaceOnUse"
       x1="87.674"
       y1="59"
       x2="87.674"
       y2="106"
       gradientTransform="translate(-47.673999,-50.5)" />
    <linearGradient
       xlink:href="#g"
       id="l"
       x1="2"
       y1="12.617"
       x2="46"
       y2="12.617"
       gradientUnits="userSpaceOnUse"
       gradientTransform="translate(-69,-48)" />
    <filter
       inkscape:collect="always"
       style="color-interpolation-filters:sRGB"
       id="filter19676"
       x="-0.087565638"
       y="-0.27834537"
       width="1.1751313"
       height="1.5566907">
      <feGaussianBlur
         inkscape:collect="always"
         stdDeviation="1.096352"
         id="feGaussianBlur19678" />
    </filter>
    <linearGradient
       id="linear0"
       gradientUnits="userSpaceOnUse"
       x1="31.999998"
       y1="60"
       x2="31.999998"
       y2="3.999999"
       gradientTransform="translate(-1.0000016,-0.300781)">
      <stop
         offset="0"
         style="stop-color:rgb(0%,0%,0%);stop-opacity:0.2;"
         id="stop2" />
      <stop
         offset="1"
         style="stop-color:rgb(100%,100%,100%);stop-opacity:0;"
         id="stop4-3" />
    </linearGradient>
    <style
       id="current-color-scheme"
       type="text/css">.ColorScheme-Text { color:#dedede; }</style>
    <style
       id="current-color-scheme-3"
       type="text/css">
   .ColorScheme-Text { color:#FFFFFF; } .ColorScheme-Highlight { color:#5294e2; }
  </style>
    <linearGradient
       id="arrongin"
       x1="0%"
       x2="0%"
       y1="0%"
       y2="100%">
      <stop
         offset="0%"
         style="stop-color:#dd9b44; stop-opacity:1"
         id="stop3" />
      <stop
         offset="100%"
         style="stop-color:#ad6c16; stop-opacity:1"
         id="stop5" />
    </linearGradient>
    <linearGradient
       id="aurora"
       x1="0%"
       x2="0%"
       y1="0%"
       y2="100%">
      <stop
         offset="0%"
         style="stop-color:#09D4DF; stop-opacity:1"
         id="stop8" />
      <stop
         offset="100%"
         style="stop-color:#9269F4; stop-opacity:1"
         id="stop10-6" />
    </linearGradient>
    <linearGradient
       id="fitdance"
       x1="0%"
       x2="0%"
       y1="0%"
       y2="100%">
      <stop
         offset="0%"
         style="stop-color:#1AD6AB; stop-opacity:1"
         id="stop13-7" />
      <stop
         offset="100%"
         style="stop-color:#329DB6; stop-opacity:1"
         id="stop15-5" />
    </linearGradient>
    <linearGradient
       id="oomox"
       x1="0%"
       x2="0%"
       y1="0%"
       y2="100%">
      <stop
         offset="0%"
         style="stop-color:#efefe7; stop-opacity:1"
         id="stop18-3" />
      <stop
         offset="100%"
         style="stop-color:#8f8f8b; stop-opacity:1"
         id="stop20-5" />
    </linearGradient>
    <linearGradient
       id="rainblue"
       x1="0%"
       x2="0%"
       y1="0%"
       y2="100%">
      <stop
         offset="0%"
         style="stop-color:#00F260; stop-opacity:1"
         id="stop23-6" />
      <stop
         offset="100%"
         style="stop-color:#0575E6; stop-opacity:1"
         id="stop25" />
    </linearGradient>
    <linearGradient
       id="sunrise"
       x1="0%"
       x2="0%"
       y1="0%"
       y2="100%">
      <stop
         offset="0%"
         style="stop-color: #FF8501; stop-opacity:1"
         id="stop28-2" />
      <stop
         offset="100%"
         style="stop-color: #FFCB01; stop-opacity:1"
         id="stop30-9" />
    </linearGradient>
    <linearGradient
       id="telinkrin"
       x1="0%"
       x2="0%"
       y1="0%"
       y2="100%">
      <stop
         offset="0%"
         style="stop-color: #b2ced6; stop-opacity:1"
         id="stop33" />
      <stop
         offset="100%"
         style="stop-color: #6da5b7; stop-opacity:1"
         id="stop35" />
    </linearGradient>
    <linearGradient
       id="60spsycho"
       x1="0%"
       x2="0%"
       y1="0%"
       y2="100%">
      <stop
         offset="0%"
         style="stop-color: #df5940; stop-opacity:1"
         id="stop38" />
      <stop
         offset="25%"
         style="stop-color: #d8d15f; stop-opacity:1"
         id="stop40" />
      <stop
         offset="50%"
         style="stop-color: #e9882a; stop-opacity:1"
         id="stop42" />
      <stop
         offset="100%"
         style="stop-color: #279362; stop-opacity:1"
         id="stop44" />
    </linearGradient>
    <linearGradient
       id="90ssummer"
       x1="0%"
       x2="0%"
       y1="0%"
       y2="100%">
      <stop
         offset="0%"
         style="stop-color: #f618c7; stop-opacity:1"
         id="stop47" />
      <stop
         offset="20%"
         style="stop-color: #94ffab; stop-opacity:1"
         id="stop49" />
      <stop
         offset="50%"
         style="stop-color: #fbfd54; stop-opacity:1"
         id="stop51" />
      <stop
         offset="100%"
         style="stop-color: #0f83ae; stop-opacity:1"
         id="stop53" />
    </linearGradient>
  </defs>
  <metadata
     id="metadata2213">
    <rdf:RDF>
      <cc:Work
         rdf:about="">
        <dc:title>Template icons dark</dc:title>
      </cc:Work>
    </rdf:RDF>
  </metadata>
  <g
     id="g925">
    <path
       d="m 6.0000003,8.5026689 c -2,0 -3,1 -3,3.0000001 v 41 c 0,2 1,3 3,3 H 58 c 2,0 3,-1 3,-3 v -41 c 0,-1.333 -1.672011,-3.1154771 -3,-3.0000001 H 35 27 Z"
       fill="url(#i)"
       stroke-width="0.116"
       id="path42"
       style="fill:url(#i)"
       sodipodi:nodetypes="ssssssssccs" />
    <path
       id="path19089"
       style="opacity:0.603222;fill:#000000;fill-opacity:1;filter:url(#filter19676)"
       d="m 36.248047,11.701888 h -2.048828 -8 -16.9999996 c -1.999999,0 -3,1 -3,3 v 6.447265 c 0.137216,9.36e-4 0.321485,8.9e-4 0.449218,0.002 0.138715,0.0011 0.223615,0.0027 0.351563,0.0039 v -5.652384 c 0,-2 1.000001,-3 2.9999996,-3 h 17 8 1.248047 z" />
    <path
       d="m 10,12.502669 c -1.9999997,0 -2.9999997,1 -2.9999997,3 v 37 c 0,2 1,3 2.9999997,3 h 48 c 2,0 3,-1 3,-3 v -37 c 0,-1.333 -1.672011,-2.884523 -3,-3 H 35 27 Z"
       fill="url(#i)"
       stroke-width="0.116"
       id="path1979"
       style="fill:#ffffff"
       sodipodi:nodetypes="ssssssssccs" />
    <path
       style="fill:#47a4f5;fill-opacity:1;marker:none"
       d="m 57.999999,8.5000002 c 1.333,0 3,1.6599998 3,2.9999998 v 41 c 0,2 -1,3 -3,3 H 6.0000011 c -2,0 -3,-1 -3,-3 v -34 c 0,-1.333 1.667,-3 3,-3 H 27.000001 l 7.999998,-6.9999998 z"
       fill="url(#k)"
       stroke-width="1.205"
       paint-order="fill markers stroke"
       id="path46" />
    <path
       id="path7451"
       style="fill:#88c7f9;fill-opacity:1;marker:none"
       d="m 34.999999,8.5000002 -8,6.9999998 h -21 c -1.333,0 -3,1.667 -3,3 v 0.798828 c 0,-1.333 1.667,-3 3,-3 H 27.5 l 8,-6.9999998 h 22.499999 c 1.333,0 3,1.6599998 3,2.9999998 V 11.5 c 0,-1.34 -1.667,-2.9999998 -3,-2.9999998 z"
       sodipodi:nodetypes="ccsscsccscssc" />
    <path
       id="path9408"
       style="fill:#000000;fill-opacity:0.398505;marker:none"
       d="M 2.9999983,51.699219 V 52.5 c 0,2 1,3 3,3 H 57.999998 c 2,0 3.000001,-1 3.000001,-3 v -0.800781 c 0,2 -1.000001,3 -3.000001,3 H 5.9999983 c -2,0 -3,-1 -3,-3 z" />
    <path
       id="path12094"
       style="fill:#000000;fill-opacity:0.2;marker:none"
       d="m 2.9882804,52.46556 v 0.800781 c 0,2 1,3 2.9999999,3 H 57.98828 c 2,0 3.000001,-1 3.000001,-3 V 52.46556 c 0,2 -1.000001,3 -3.000001,3 H 5.9882804 c -2,0 -3,-1 -3,-3 z" />
    <path
       id="path19680"
       style="fill:#88c7f9;fill-opacity:1"
       d="M 35.289091,8.5026689 H 35 27 6 c -2,0 -3,1 -3,3.0000001 v 0.800781 c 0,-2 1,-3.0000001 3,-3.0000001 h 21 8 0.29495 c -0.0032,-0.204272 -0.0033,-0.565639 -0.0059,-0.800781 z"
       sodipodi:nodetypes="cccsscsccccc" />
    <g
       id="g25604"
       transform="matrix(1.2,0,0,1.2,-8.7993717,-6.4685932)"
       style="stroke-width:0.833333">
      <path
         fill="currentColor"
         class="ColorScheme-Text"
         d="m 26.199219,43.682161 0,-18.2 a 0.5,0.5 135 0 1 0.5,-0.5 l 10.10038,0 a 1.1079252,1.1079252 24.289371 0 1 0.830795,0.374933 l 3.838029,4.350134 a 1.3224696,1.3224696 69.289371 0 1 0.330795,0.874933 l 0,13.1 a 0.5,0.5 135 0 1 -0.5,0.5 H 26.699219 a 0.5,0.5 45 0 1 -0.5,-0.5 z m 2.0595,-1.059562 h 11.48 a 0.5,0.5 135 0 0 0.5,-0.5 V 31.482161 a 0.5,0.5 45 0 0 -0.5,-0.5 h -2.83912 a 0.5,0.5 45 0 1 -0.5,-0.5 v -3.439562 a 0.5,0.5 45 0 0 -0.5,-0.5 l -7.64088,0 a 0.5,0.5 135 0 0 -0.5,0.5 l 0,15.08 a 0.5,0.5 45 0 0 0.5,0.5 z m 0.940001,-1.7612 v -1.16 a 0.2,0.2 135 0 1 0.2,-0.2 h 9.200879 a 0.2,0.2 45 0 1 0.2,0.2 l 0,1.16 a 0.2,0.2 135 0 1 -0.2,0.2 H 29.39872 a 0.2,0.2 45 0 1 -0.2,-0.2 z m 1.39e-4,-3 -2.81e-4,-1.16 a 0.19995142,0.19995142 134.99304 0 1 0.199951,-0.2 h 9.20069 a 0.20004872,0.20004872 44.993022 0 1 0.200049,0.2 l 2.82e-4,1.16 a 0.19995129,0.19995129 134.99302 0 1 -0.199951,0.2 h -9.200691 a 0.2000486,0.2000486 44.99304 0 1 -0.200049,-0.2 z m 0,-3 -2.81e-4,-1.16 a 0.19995142,0.19995142 134.99304 0 1 0.199951,-0.2 h 9.2 a 0.20004872,0.20004872 44.993022 0 1 0.200049,0.2 l 2.82e-4,1.16 a 0.19995129,0.19995129 134.99302 0 1 -0.199951,0.2 h -9.200001 a 0.2000486,0.2000486 44.99304 0 1 -0.200049,-0.2 z"
         overflow="visible"
         id="path58"
         sodipodi:nodetypes="cccccccccccccccccccccccccccc"
         inkscape:path-effect="#path-effect4250"
         inkscape:original-d="m 26.199219,44.182161 v -19.2 h 11.10038 l 4.499619,5.1 v 14.1 z m 1.5595,-1.559562 h 12.48 V 30.982161 h -3.83912 v -4.439562 h -8.64088 z m 1.440001,-1.5612 v -1.56 h 9.600879 v 1.56 z m 1.88e-4,-3 -3.79e-4,-1.56 h 9.60069 l 3.8e-4,1.56 z m 0,-3 -3.79e-4,-1.56 h 9.6 l 3.8e-4,1.56 z"
         style="fill:#8fcaf8;fill-opacity:1;stroke-width:0.833333" />
      <path
         id="path8824"
         style="opacity:1;fill:#e3e3e3;fill-opacity:0.4;stroke-width:0.833333"
         class="ColorScheme-Text"
         d="m 26.699219,24.982161 a 0.5,0.5 0 0 0 -0.5,0.5 v 0.40039 a 0.5,0.5 0 0 1 0.5,-0.5 h 10.101562 a 1.1079252,1.1079252 0 0 1 0.830078,0.375 l 3.837891,4.34961 a 1.3224696,1.3224696 0 0 1 0.332031,0.875 V 30.58177 a 1.3224696,1.3224696 0 0 0 -0.332031,-0.875 l -3.837891,-4.349609 a 1.1079252,1.1079252 0 0 0 -0.830078,-0.375 z m 2.699218,8.519531 a 0.19995142,0.19995142 0 0 0 -0.199218,0.199219 v 0.40039 a 0.19995142,0.19995142 0 0 1 0.199218,-0.199218 h 9.201172 a 0.20004872,0.20004872 0 0 1 0.199219,0.199218 v -0.40039 a 0.20004872,0.20004872 0 0 0 -0.199219,-0.199219 z m 0,3 a 0.19995142,0.19995142 0 0 0 -0.199218,0.199219 v 0.40039 a 0.19995142,0.19995142 0 0 1 0.199218,-0.199218 h 9.201172 a 0.20004872,0.20004872 0 0 1 0.201172,0.199218 v -0.40039 a 0.20004872,0.20004872 0 0 0 -0.201172,-0.199219 z m 0.002,3 a 0.2,0.2 0 0 0 -0.201171,0.199219 v 0.40039 a 0.2,0.2 0 0 1 0.201171,-0.199218 h 9.199219 a 0.2,0.2 0 0 1 0.201172,0.199218 v -0.40039 a 0.2,0.2 0 0 0 -0.201172,-0.199219 z m -1.640625,2.621094 v 0.40039 a 0.5,0.5 0 0 0 0.5,0.5 h 11.480469 a 0.5,0.5 0 0 0 0.5,-0.5 v -0.40039 a 0.5,0.5 0 0 1 -0.5,0.5 H 28.259812 a 0.5,0.5 0 0 1 -0.5,-0.5 z" />
      <path
         id="path8524"
         style="opacity:1;fill:#252525;fill-opacity:0.4;stroke-width:0.833333"
         class="ColorScheme-Text"
         d="m 28.258719,26.542599 a 0.5,0.5 0 0 0 -0.5,0.5 v 0.40039 a 0.5,0.5 0 0 1 0.5,-0.5 h 7.640625 a 0.5,0.5 0 0 1 0.5,0.5 v -0.40039 a 0.5,0.5 0 0 0 -0.5,-0.5 z m 8.140625,3.939453 v 0.40039 a 0.5,0.5 0 0 0 0.5,0.5 h 2.839844 a 0.5,0.5 0 0 1 0.5,0.5 v -0.40039 a 0.5,0.5 0 0 0 -0.5,-0.5 h -2.839844 a 0.5,0.5 0 0 1 -0.5,-0.5 z m -7.201172,4.378906 v 0.400391 a 0.2000486,0.2000486 0 0 0 0.201172,0.199219 h 9.199219 a 0.19995129,0.19995129 0 0 0 0.199219,-0.199219 v -0.400391 a 0.19995129,0.19995129 0 0 1 -0.199219,0.201172 h -9.199219 a 0.2000486,0.2000486 0 0 1 -0.201172,-0.201172 z m 0,3 v 0.400391 a 0.2000486,0.2000486 0 0 0 0.201172,0.199219 h 9.199219 a 0.19995129,0.19995129 0 0 0 0.201172,-0.199219 v -0.400391 a 0.19995129,0.19995129 0 0 1 -0.201172,0.201172 h -9.199219 a 0.2000486,0.2000486 0 0 1 -0.201172,-0.201172 z m 0,3 v 0.400391 a 0.2,0.2 0 0 0 0.201172,0.199219 h 9.199219 a 0.2,0.2 0 0 0 0.201172,-0.199219 v -0.400391 a 0.2,0.2 0 0 1 -0.201172,0.201172 h -9.199219 a 0.2,0.2 0 0 1 -0.201172,-0.201172 z m -3,2.820313 v 0.40039 a 0.5,0.5 0 0 0 0.5,0.5 h 14.601563 a 0.5,0.5 0 0 0 0.5,-0.5 v -0.40039 a 0.5,0.5 0 0 1 -0.5,0.5 H 26.698172 a 0.5,0.5 0 0 1 -0.5,-0.5 z" />
    </g>
  </g>
</svg>
