<?xml version="1.0" encoding="UTF-8" standalone="no"?>
<svg
   height="64"
   viewBox="0 0 64 64"
   width="64"
   version="1.1"
   id="svg56"
   sodipodi:docname="folder-remote2.svg"
   inkscape:version="1.1.2 (0a00cf5339, 2022-02-04, custom)"
   xmlns:inkscape="http://www.inkscape.org/namespaces/inkscape"
   xmlns:sodipodi="http://sodipodi.sourceforge.net/DTD/sodipodi-0.dtd"
   xmlns:xlink="http://www.w3.org/1999/xlink"
   xmlns="http://www.w3.org/2000/svg"
   xmlns:svg="http://www.w3.org/2000/svg"
   xmlns:rdf="http://www.w3.org/1999/02/22-rdf-syntax-ns#"
   xmlns:cc="http://creativecommons.org/ns#"
   xmlns:dc="http://purl.org/dc/elements/1.1/">
  <sodipodi:namedview
     id="namedview58"
     pagecolor="#ffffff"
     bordercolor="#666666"
     borderopacity="1.0"
     inkscape:pageshadow="2"
     inkscape:pageopacity="0.0"
     inkscape:pagecheckerboard="0"
     showgrid="false"
     inkscape:zoom="6.509503"
     inkscape:cx="17.973723"
     inkscape:cy="57.377653"
     inkscape:window-width="1920"
     inkscape:window-height="1020"
     inkscape:window-x="1360"
     inkscape:window-y="30"
     inkscape:window-maximized="1"
     inkscape:current-layer="svg56"
     inkscape:snap-global="true"
     inkscape:snap-bbox="true"
     inkscape:bbox-paths="true"
     inkscape:bbox-nodes="false"
     inkscape:snap-bbox-edge-midpoints="false"
     inkscape:snap-bbox-midpoints="false"
     inkscape:snap-nodes="true"
     inkscape:object-paths="false"
     inkscape:snap-intersection-paths="true"
     inkscape:object-nodes="true"
     inkscape:snap-midpoints="true" />
  <title
     id="title2">Template icons dark</title>
  <defs
     id="defs38">
    <linearGradient
       id="linearGradient12289"
       inkscape:swatch="solid">
      <stop
         style="stop-color:#00fa00;stop-opacity:1;"
         offset="0"
         id="stop12287" />
    </linearGradient>
    <linearGradient
       id="linearGradient12283"
       inkscape:swatch="solid">
      <stop
         style="stop-color:#000000;stop-opacity:1;"
         offset="0"
         id="stop12281" />
    </linearGradient>
    <linearGradient
       id="linearGradient12277"
       inkscape:swatch="solid">
      <stop
         style="stop-color:#000000;stop-opacity:1;"
         offset="0"
         id="stop12275" />
    </linearGradient>
    <linearGradient
       id="g"
       inkscape:swatch="solid">
      <stop
         offset="0"
         stop-color="#fff"
         stop-opacity=".079"
         id="stop4" />
    </linearGradient>
    <linearGradient
       id="f"
       inkscape:swatch="solid">
      <stop
         offset="0"
         stop-color="#66a3e2"
         id="stop7"
         style="stop-color:#80b3ff;stop-opacity:1;" />
    </linearGradient>
    <linearGradient
       id="c"
       inkscape:swatch="solid">
      <stop
         offset="0"
         stop-opacity=".018"
         id="stop10" />
    </linearGradient>
    <linearGradient
       id="e">
      <stop
         offset="0"
         stop-color="#66a3e2"
         stop-opacity=".388"
         id="stop13" />
      <stop
         offset="1"
         stop-color="#66a3e2"
         stop-opacity=".852"
         id="stop15" />
    </linearGradient>
    <linearGradient
       id="a">
      <stop
         offset="0"
         stop-color="#66a3e2"
         id="stop18" />
      <stop
         offset="1"
         stop-color="#69a5e3"
         id="stop20" />
    </linearGradient>
    <linearGradient
       id="b"
       inkscape:swatch="solid">
      <stop
         offset="0"
         stop-color="#4f8ac6"
         id="stop23"
         style="stop-color:#1e88e0;stop-opacity:1;" />
    </linearGradient>
    <linearGradient
       id="d">
      <stop
         offset="0"
         stop-opacity="0"
         id="stop26" />
      <stop
         offset=".25"
         stop-opacity=".091"
         id="stop28" />
      <stop
         offset="1"
         stop-opacity="0"
         id="stop30" />
    </linearGradient>
    <linearGradient
       xlink:href="#c"
       id="h"
       gradientUnits="userSpaceOnUse"
       gradientTransform="matrix(1.01967,0,0,1.03029,-63.775107,-119.09376)"
       x1="64.666"
       y1="133.777"
       x2="88.203"
       y2="133.777" />
    <linearGradient
       gradientTransform="matrix(0.66667,0,0,0.66667,-74.674,-77.164331)"
       xlink:href="#b"
       id="i"
       x1="116"
       y1="160"
       x2="204"
       y2="160"
       gradientUnits="userSpaceOnUse" />
    <linearGradient
       xlink:href="#d"
       id="j"
       gradientUnits="userSpaceOnUse"
       x1="13"
       y1="17"
       x2="13"
       y2="11"
       gradientTransform="matrix(1.3232,0,0,1.32502,42.708707,-20.833823)" />
    <linearGradient
       xlink:href="#a"
       id="k"
       gradientUnits="userSpaceOnUse"
       x1="87.674"
       y1="59"
       x2="87.674"
       y2="106"
       gradientTransform="translate(-47.673999,-50.5)" />
    <linearGradient
       xlink:href="#g"
       id="l"
       x1="2"
       y1="12.617"
       x2="46"
       y2="12.617"
       gradientUnits="userSpaceOnUse"
       gradientTransform="translate(-69,-48)" />
    <filter
       inkscape:collect="always"
       style="color-interpolation-filters:sRGB"
       id="filter19676"
       x="-0.087565638"
       y="-0.27834537"
       width="1.1751313"
       height="1.5566907">
      <feGaussianBlur
         inkscape:collect="always"
         stdDeviation="1.096352"
         id="feGaussianBlur19678" />
    </filter>
    <style
       id="current-color-scheme"
       type="text/css">
   .ColorScheme-Text { color:#d3dae3; } .ColorScheme-Highlight { color:#5294e2; }
  </style>
    <style
       id="current-color-scheme-36"
       type="text/css">
   .ColorScheme-Text { color:#d3dae3; } .ColorScheme-Highlight { color:#5294e2; }
  </style>
    <style
       id="current-color-scheme-3"
       type="text/css">.ColorScheme-Text { color:#dedede; }</style>
  </defs>
  <metadata
     id="metadata2213">
    <rdf:RDF>
      <cc:Work
         rdf:about="">
        <dc:title>Template icons dark</dc:title>
      </cc:Work>
    </rdf:RDF>
  </metadata>
  <path
     style="fill:#00abbf;fill-opacity:1;fill-rule:nonzero;stroke:none"
     d="M -46.38308,-22.157313"
     id="path7107" />
  <g
     id="g27757">
    <path
       d="m 6.0000003,8.5026689 c -2,0 -3,1 -3,3.0000001 v 41 c 0,2 1,3 3,3 H 58 c 2,0 3,-1 3,-3 v -41 c 0,-1.333 -1.672011,-3.1154771 -3,-3.0000001 H 35 27 Z"
       fill="url(#i)"
       stroke-width="0.116"
       id="path42"
       style="fill:url(#i)"
       sodipodi:nodetypes="ssssssssccs" />
    <path
       id="path19089"
       style="opacity:0.603222;fill:#000000;fill-opacity:1;filter:url(#filter19676)"
       d="m 36.248047,11.701888 h -2.048828 -8 -16.9999996 c -1.999999,0 -3,1 -3,3 v 6.447265 c 0.137216,9.36e-4 0.321485,8.9e-4 0.449218,0.002 0.138715,0.0011 0.223615,0.0027 0.351563,0.0039 v -5.652384 c 0,-2 1.000001,-3 2.9999996,-3 h 17 8 1.248047 z" />
    <path
       d="m 10,12.502669 c -1.9999997,0 -2.9999997,1 -2.9999997,3 v 37 c 0,2 1,3 2.9999997,3 h 48 c 2,0 3,-1 3,-3 v -37 c 0,-1.333 -1.672011,-2.884523 -3,-3 H 35 27 Z"
       fill="url(#i)"
       stroke-width="0.116"
       id="path1979"
       style="fill:#ffffff"
       sodipodi:nodetypes="ssssssssccs" />
    <path
       style="fill:#47a4f5;fill-opacity:1;marker:none"
       d="m 57.999999,8.5000002 c 1.333,0 3,1.6599998 3,2.9999998 v 41 c 0,2 -1,3 -3,3 H 6.0000011 c -2,0 -3,-1 -3,-3 v -34 c 0,-1.333 1.667,-3 3,-3 H 27.000001 l 7.999998,-6.9999998 z"
       fill="url(#k)"
       stroke-width="1.205"
       paint-order="fill markers stroke"
       id="path46" />
    <path
       id="path7451"
       style="fill:#88c7f9;fill-opacity:1;marker:none"
       d="m 34.999999,8.5000002 -8,6.9999998 h -21 c -1.333,0 -3,1.667 -3,3 v 0.798828 c 0,-1.333 1.667,-3 3,-3 H 27.5 l 8,-6.9999998 h 22.499999 c 1.333,0 3,1.6599998 3,2.9999998 V 11.5 c 0,-1.34 -1.667,-2.9999998 -3,-2.9999998 z"
       sodipodi:nodetypes="ccsscsccscssc" />
    <path
       id="path9408"
       style="fill:#000000;fill-opacity:0.398505;marker:none"
       d="M 2.9999983,51.699219 V 52.5 c 0,2 1,3 3,3 H 57.999998 c 2,0 3.000001,-1 3.000001,-3 v -0.800781 c 0,2 -1.000001,3 -3.000001,3 H 5.9999983 c -2,0 -3,-1 -3,-3 z" />
    <path
       id="path12094"
       style="fill:#000000;fill-opacity:0.2;marker:none"
       d="m 2.9882804,52.46556 v 0.800781 c 0,2 1,3 2.9999999,3 H 57.98828 c 2,0 3.000001,-1 3.000001,-3 V 52.46556 c 0,2 -1.000001,3 -3.000001,3 H 5.9882804 c -2,0 -3,-1 -3,-3 z" />
    <path
       id="path19680"
       style="fill:#88c7f9;fill-opacity:1"
       d="M 35.289091,8.5026689 H 35 27 6 c -2,0 -3,1 -3,3.0000001 v 0.800781 c 0,-2 1,-3.0000001 3,-3.0000001 h 21 8 0.29495 c -0.0032,-0.204272 -0.0033,-0.565639 -0.0059,-0.800781 z"
       sodipodi:nodetypes="cccsscsccccc" />
    <g
       id="g27158"
       transform="translate(68.036589,-16.635)">
      <g
         class="symbol"
         transform="translate(-48.04072,39.387737)"
         id="g29"
         style="opacity:1;fill:#8fcaf8;fill-opacity:1">
        <circle
           cx="5"
           cy="12"
           r="4"
           id="circle21"
           style="fill:#8fcaf8;fill-opacity:1" />
        <circle
           cx="19"
           cy="5"
           r="4"
           id="circle23"
           style="fill:#8fcaf8;fill-opacity:1" />
        <circle
           cx="19"
           cy="19"
           r="4"
           id="circle25"
           style="fill:#8fcaf8;fill-opacity:1" />
        <path
           d="M 14.17,6.287 8.926,8.912 a 5,5 0 0 1 0.9,1.798 L 15.07,8.088 A 5,5 0 0 1 14.17,6.287 Z M 9.83,13.29 a 5,5 0 0 1 -0.9,1.8 l 5.24,2.62 a 5,5 0 0 1 0.9,-1.8 z"
           id="path27-7"
           style="fill:#8fcaf8;fill-opacity:1" />
      </g>
      <g
         class="symbol"
         transform="translate(-48.04072,39.288)"
         id="g19661"
         style="opacity:1;fill:#b1d4f0;fill-opacity:1">
        <circle
           cx="5"
           cy="12"
           r="4"
           id="circle19653"
           style="fill:#b1d4f0;fill-opacity:1" />
        <circle
           cx="19"
           cy="5"
           r="4"
           id="circle19655"
           style="fill:#b1d4f0;fill-opacity:1" />
        <circle
           cx="19"
           cy="19"
           r="4"
           id="circle19657"
           style="fill:#b1d4f0;fill-opacity:1" />
        <path
           d="M 14.17,6.287 8.926,8.912 a 5,5 0 0 1 0.9,1.798 L 15.07,8.088 A 5,5 0 0 1 14.17,6.287 Z M 9.83,13.29 a 5,5 0 0 1 -0.9,1.8 l 5.24,2.62 a 5,5 0 0 1 0.9,-1.8 z"
           id="path19659"
           style="fill:#b1d4f0;fill-opacity:1" />
      </g>
      <g
         class="symbol"
         transform="translate(-48.04072,40.388)"
         id="g22052"
         style="opacity:1;fill:#3571a2;fill-opacity:1">
        <circle
           cx="5"
           cy="12"
           r="4"
           id="circle22044"
           style="fill:#3571a2;fill-opacity:1" />
        <circle
           cx="19"
           cy="5"
           r="4"
           id="circle22046"
           style="fill:#3571a2;fill-opacity:1" />
        <circle
           cx="19"
           cy="19"
           r="4"
           id="circle22048"
           style="fill:#3571a2;fill-opacity:1" />
        <path
           d="M 14.17,6.287 8.926,8.912 a 5,5 0 0 1 0.9,1.798 L 15.07,8.088 A 5,5 0 0 1 14.17,6.287 Z M 9.83,13.29 a 5,5 0 0 1 -0.9,1.8 l 5.24,2.62 a 5,5 0 0 1 0.9,-1.8 z"
           id="path22050"
           style="fill:#3571a2;fill-opacity:1" />
      </g>
      <g
         class="symbol"
         transform="translate(-48.032458,39.818)"
         id="g24443"
         style="opacity:1;fill:#8fcaf8;fill-opacity:1">
        <circle
           cx="5"
           cy="12"
           r="4"
           id="circle24435"
           style="fill:#8fcaf8;fill-opacity:1" />
        <circle
           cx="19"
           cy="5"
           r="4"
           id="circle24437"
           style="fill:#8fcaf8;fill-opacity:1" />
        <circle
           cx="19"
           cy="19"
           r="4"
           id="circle24439"
           style="fill:#8fcaf8;fill-opacity:1" />
        <path
           d="M 14.17,6.287 8.926,8.912 a 5,5 0 0 1 0.9,1.798 L 15.07,8.088 A 5,5 0 0 1 14.17,6.287 Z M 9.83,13.29 a 5,5 0 0 1 -0.9,1.8 l 5.24,2.62 a 5,5 0 0 1 0.9,-1.8 z"
           id="path24441"
           style="fill:#8fcaf8;fill-opacity:1" />
      </g>
    </g>
  </g>
</svg>
