<?xml version="1.0" encoding="UTF-8" standalone="no"?>
<svg
   width="64"
   height="64"
   viewBox="0 0 64 64"
   version="1.1"
   id="svg24"
   sodipodi:docname="folder.svg"
   inkscape:version="1.1.2 (0a00cf5339, 2022-02-04, custom)"
   xmlns:inkscape="http://www.inkscape.org/namespaces/inkscape"
   xmlns:sodipodi="http://sodipodi.sourceforge.net/DTD/sodipodi-0.dtd"
   xmlns="http://www.w3.org/2000/svg"
   xmlns:svg="http://www.w3.org/2000/svg">
  <sodipodi:namedview
     id="namedview26"
     pagecolor="#ffffff"
     bordercolor="#666666"
     borderopacity="1.0"
     inkscape:pageshadow="2"
     inkscape:pageopacity="0.0"
     inkscape:pagecheckerboard="0"
     showgrid="false"
     inkscape:zoom="7.085128"
     inkscape:cx="43.61248"
     inkscape:cy="28.016431"
     inkscape:window-width="1920"
     inkscape:window-height="990"
     inkscape:window-x="1920"
     inkscape:window-y="32"
     inkscape:window-maximized="1"
     inkscape:current-layer="svg24"
     inkscape:object-nodes="false"
     inkscape:snap-nodes="false" />
  <defs
     id="defs7">
    <linearGradient
       id="linear0"
       gradientUnits="userSpaceOnUse"
       x1="31.999998"
       y1="60"
       x2="31.999998"
       y2="3.999999">
      <stop
         offset="0"
         style="stop-color:rgb(0%,0%,0%);stop-opacity:0.2;"
         id="stop2" />
      <stop
         offset="1"
         style="stop-color:rgb(100%,100%,100%);stop-opacity:0;"
         id="stop4" />
    </linearGradient>
    <filter
       inkscape:collect="always"
       style="color-interpolation-filters:sRGB"
       id="filter862"
       x="-0.040714799"
       y="-0.47787109"
       width="1.0814296"
       height="1.9557422">
      <feGaussianBlur
         inkscape:collect="always"
         stdDeviation="0.94366138"
         id="feGaussianBlur864" />
    </filter>
  </defs>
  <g
     id="g6012">
    <path
       d="M 8.3499298,8.4155765 H 24.535957 c 2.837499,0 2.959504,0.107719 5.828524,2.3797135 2.954099,2.231477 3.582269,2.294218 7.043667,2.294218 l 18.23708,-0.198051 c 2.411387,-0.0189 4.352968,1.941317 4.352968,4.352589 v 25.587913 c 0,2.411462 -1.941355,4.352968 -4.352968,4.352968 H 8.3510637 c -2.4114616,0 -4.3529676,-1.941355 -4.3529676,-4.352968 V 12.768242 c 0,-2.411462 1.9413548,-4.3529675 4.3529676,-4.3529675 z"
       fill="#57B0FF"
       id="path1799"
       style="fill:#1e88e0;fill-opacity:1;stroke-width:3.7796"
       sodipodi:nodetypes="cscccsssssscc" />
    <path
       id="rect23575"
       style="opacity:0.25;mix-blend-mode:normal;fill:#241c1c;fill-opacity:1;stroke-width:4.05918;filter:url(#filter862)"
       d="m 9.615644,17.477837 c -2.9997312,0 -5.4153589,1.763833 -5.4153589,3.955492 v 0.783835 c 0,-2.191661 2.4156277,-3.957405 5.4153589,-3.957405 H 54.41058 c 2.999735,0 5.415359,1.765744 5.415359,3.957405 v -0.783835 c 0,-2.191659 -2.415624,-3.955492 -5.415359,-3.955492 z"
       sodipodi:nodetypes="sscsscsss" />
    <rect
       x="3.9980474"
       y="18.60681"
       width="56.002365"
       height="35.99773"
       rx="4.3529677"
       ry="4.0415993"
       fill="#80C3FF"
       id="rect41"
       style="fill:#47a4f5;fill-opacity:1;stroke-width:3.67867" />
    <path
       d="m 8.3513925,18.606808 c -2.4114238,0 -4.3533455,1.902009 -4.3533455,4.265659 v 0.88866 c 0,-2.3014 1.9421107,-4.15416 4.3533455,-4.15416 H 55.64555 c 2.411424,0 4.353345,1.852912 4.353345,4.154161 v -0.88866 c 0,-2.363612 -1.94211,-4.265659 -4.353345,-4.265659 z"
       fill="#ffffff"
       opacity="0.1"
       stroke-width="1.00001"
       id="path49"
       style="opacity:0.8;fill:#99d0fa;fill-opacity:1" />
    <path
       d="m 8.3513925,54.604539 c -2.4114238,0 -4.3533455,-1.902009 -4.3533455,-4.265659 v -0.88866 c 0,2.3014 1.9421107,4.154161 4.3533455,4.154161 H 55.645554 c 2.411423,0 4.353345,-1.852912 4.353345,-4.154161 v 0.88866 c 0,2.363612 -1.942111,4.265659 -4.353345,4.265659 z"
       fill="#ffffff"
       opacity="0.1"
       stroke-width="1.00001"
       id="path1030"
       style="opacity:0;fill:#000000;fill-opacity:1" />
    <path
       id="path37"
       style="opacity:0.8;fill:#99d0fa;fill-opacity:1;stroke-width:3.7796"
       d="M 8.3496585,8.4152745 C 5.9389561,8.4163745 3.9980961,10.357984 3.9980961,12.76879 v 1 c 0,-2.410806 1.94086,-4.3524615 4.3515624,-4.3535155 h 0.00195 16.1835935 c 2.837499,0 2.898789,0.362401 5.743666,2.5289135 3.046119,2.015035 3.582068,1.947909 7.129381,2.144915 l 18.236326,-0.197265 c 2.411386,-0.0189 4.35352,1.94029 4.35352,4.351562 v -0.998048 c 0,-2.411272 -1.942134,-4.372413 -4.35352,-4.353515 l -18.236326,0.199219 c -3.461397,0 -4.088869,-0.06345 -7.042968,-2.294922 C 27.49626,8.5241395 27.372701,8.4152745 24.535202,8.4152745 H 8.3516118 Z"
       sodipodi:nodetypes="sscscsccccscccscs" />
    <path
       id="rect71683"
       style="fill:#000000;fill-opacity:0.2;stroke-width:3.67867"
       d="m 3.998047,50.543719 v 0.998038 c 0,2.239052 1.9419719,4.042969 4.353516,4.042969 h 47.296874 c 2.411545,0 4.353516,-1.803917 4.353516,-4.042969 v -0.998038 c 0,2.23904 -1.941971,4.041007 -4.353516,4.041007 H 8.351563 c -2.4115441,0 -4.353516,-1.801967 -4.353516,-4.041007 z" />
    <path
       id="path72066"
       style="fill:#000000;fill-opacity:0.4;stroke-width:3.67867"
       d="m 3.998047,49.563532 v 0.998037 c 0,2.239052 1.9419719,4.042969 4.353516,4.042969 h 47.296874 c 2.411545,0 4.353516,-1.803917 4.353516,-4.042969 v -0.998037 c 0,2.239041 -1.941971,4.041007 -4.353516,4.041007 H 8.351563 c -2.4115441,0 -4.353516,-1.801966 -4.353516,-4.041007 z" />
  </g>
</svg>
