<?xml version="1.0" encoding="UTF-8" standalone="no"?>
<svg
   height="64"
   viewBox="0 0 64 64"
   width="64"
   version="1.1"
   id="svg56"
   sodipodi:docname="user-home.svg"
   inkscape:version="1.1.2 (0a00cf5339, 2022-02-04, custom)"
   xmlns:inkscape="http://www.inkscape.org/namespaces/inkscape"
   xmlns:sodipodi="http://sodipodi.sourceforge.net/DTD/sodipodi-0.dtd"
   xmlns:xlink="http://www.w3.org/1999/xlink"
   xmlns="http://www.w3.org/2000/svg"
   xmlns:svg="http://www.w3.org/2000/svg"
   xmlns:rdf="http://www.w3.org/1999/02/22-rdf-syntax-ns#"
   xmlns:cc="http://creativecommons.org/ns#"
   xmlns:dc="http://purl.org/dc/elements/1.1/">
  <sodipodi:namedview
     id="namedview58"
     pagecolor="#ffffff"
     bordercolor="#666666"
     borderopacity="1.0"
     inkscape:pageshadow="2"
     inkscape:pageopacity="0.0"
     inkscape:pagecheckerboard="0"
     showgrid="false"
     inkscape:zoom="8.3229048"
     inkscape:cx="35.684657"
     inkscape:cy="38.147739"
     inkscape:window-width="1920"
     inkscape:window-height="1020"
     inkscape:window-x="1360"
     inkscape:window-y="30"
     inkscape:window-maximized="1"
     inkscape:current-layer="svg56"
     inkscape:snap-global="true"
     inkscape:snap-bbox="true"
     inkscape:bbox-paths="true"
     inkscape:bbox-nodes="false"
     inkscape:snap-bbox-edge-midpoints="false"
     inkscape:snap-bbox-midpoints="false"
     inkscape:snap-nodes="true"
     inkscape:object-paths="false"
     inkscape:snap-intersection-paths="true"
     inkscape:object-nodes="true"
     inkscape:snap-midpoints="true" />
  <title
     id="title2">Template icons dark</title>
  <defs
     id="defs38">
    <linearGradient
       id="g"
       inkscape:swatch="solid">
      <stop
         offset="0"
         stop-color="#fff"
         stop-opacity=".079"
         id="stop4" />
    </linearGradient>
    <linearGradient
       id="f"
       inkscape:swatch="solid">
      <stop
         offset="0"
         stop-color="#66a3e2"
         id="stop7" />
    </linearGradient>
    <linearGradient
       id="c"
       inkscape:swatch="solid">
      <stop
         offset="0"
         stop-opacity=".018"
         id="stop10" />
    </linearGradient>
    <linearGradient
       id="e">
      <stop
         offset="0"
         stop-color="#66a3e2"
         stop-opacity=".388"
         id="stop13" />
      <stop
         offset="1"
         stop-color="#66a3e2"
         stop-opacity=".852"
         id="stop15" />
    </linearGradient>
    <linearGradient
       id="a">
      <stop
         offset="0"
         stop-color="#66a3e2"
         id="stop18" />
      <stop
         offset="1"
         stop-color="#69a5e3"
         id="stop20" />
    </linearGradient>
    <linearGradient
       id="b"
       inkscape:swatch="solid">
      <stop
         offset="0"
         stop-color="#4f8ac6"
         id="stop23"
         style="stop-color:#1e88e0;stop-opacity:1;" />
    </linearGradient>
    <linearGradient
       id="d">
      <stop
         offset="0"
         stop-opacity="0"
         id="stop26" />
      <stop
         offset=".25"
         stop-opacity=".091"
         id="stop28" />
      <stop
         offset="1"
         stop-opacity="0"
         id="stop30" />
    </linearGradient>
    <linearGradient
       xlink:href="#c"
       id="h"
       gradientUnits="userSpaceOnUse"
       gradientTransform="matrix(1.01967,0,0,1.03029,-63.775107,-119.09376)"
       x1="64.666"
       y1="133.777"
       x2="88.203"
       y2="133.777" />
    <linearGradient
       gradientTransform="matrix(0.66667,0,0,0.66667,-74.674,-77.164331)"
       xlink:href="#b"
       id="i"
       x1="116"
       y1="160"
       x2="204"
       y2="160"
       gradientUnits="userSpaceOnUse" />
    <linearGradient
       xlink:href="#d"
       id="j"
       gradientUnits="userSpaceOnUse"
       x1="13"
       y1="17"
       x2="13"
       y2="11"
       gradientTransform="matrix(1.3232,0,0,1.32502,42.708707,-20.833823)" />
    <linearGradient
       xlink:href="#a"
       id="k"
       gradientUnits="userSpaceOnUse"
       x1="87.674"
       y1="59"
       x2="87.674"
       y2="106"
       gradientTransform="translate(-47.673999,-50.5)" />
    <linearGradient
       xlink:href="#g"
       id="l"
       x1="2"
       y1="12.617"
       x2="46"
       y2="12.617"
       gradientUnits="userSpaceOnUse"
       gradientTransform="translate(-69,-48)" />
    <filter
       inkscape:collect="always"
       style="color-interpolation-filters:sRGB"
       id="filter19676"
       x="-0.087565638"
       y="-0.27834537"
       width="1.1751313"
       height="1.5566907">
      <feGaussianBlur
         inkscape:collect="always"
         stdDeviation="1.096352"
         id="feGaussianBlur19678" />
    </filter>
    <style
       id="current-color-scheme"
       type="text/css">.ColorScheme-Text { color:#dedede; }</style>
  </defs>
  <metadata
     id="metadata2213">
    <rdf:RDF>
      <cc:Work
         rdf:about="">
        <dc:title>Template icons dark</dc:title>
      </cc:Work>
    </rdf:RDF>
  </metadata>
  <g
     id="g12532">
    <path
       d="m 6.0000003,8.5026689 c -2,0 -3,1 -3,3.0000001 v 41 c 0,2 1,3 3,3 H 58 c 2,0 3,-1 3,-3 v -41 c 0,-1.333 -1.672011,-3.1154771 -3,-3.0000001 H 35 27 Z"
       fill="url(#i)"
       stroke-width="0.116"
       id="path42"
       style="fill:url(#i)"
       sodipodi:nodetypes="ssssssssccs" />
    <path
       id="path19089"
       style="opacity:0.603222;fill:#000000;fill-opacity:1;filter:url(#filter19676)"
       d="m 36.248047,11.701888 h -2.048828 -8 -16.9999996 c -1.999999,0 -3,1 -3,3 v 6.447265 c 0.137216,9.36e-4 0.321485,8.9e-4 0.449218,0.002 0.138715,0.0011 0.223615,0.0027 0.351563,0.0039 v -5.652384 c 0,-2 1.000001,-3 2.9999996,-3 h 17 8 1.248047 z" />
    <path
       d="m 10,12.502669 c -1.9999997,0 -2.9999997,1 -2.9999997,3 v 37 c 0,2 1,3 2.9999997,3 h 48 c 2,0 3,-1 3,-3 v -37 c 0,-1.333 -1.672011,-2.884523 -3,-3 H 35 27 Z"
       fill="url(#i)"
       stroke-width="0.116"
       id="path1979"
       style="fill:#ffffff"
       sodipodi:nodetypes="ssssssssccs" />
    <path
       style="fill:#47a4f5;fill-opacity:1;marker:none"
       d="m 57.999999,8.5000002 c 1.333,0 3,1.6599998 3,2.9999998 v 41 c 0,2 -1,3 -3,3 H 6.000001 c -2,0 -3,-1 -3,-3 v -34 c 0,-1.333 1.667,-3 3,-3 h 21 l 7.999998,-6.9999998 z"
       fill="url(#k)"
       stroke-width="1.205"
       paint-order="fill markers stroke"
       id="path46" />
    <path
       id="path7451"
       style="fill:#88c7f9;fill-opacity:1;marker:none"
       d="m 34.999999,8.5000002 -8,6.9999998 h -21 c -1.333,0 -3,1.667 -3,3 v 0.798828 c 0,-1.333 1.667,-3 3,-3 H 27.5 l 8,-6.9999998 h 22.499999 c 1.333,0 3,1.6599998 3,2.9999998 V 11.5 c 0,-1.34 -1.667,-2.9999998 -3,-2.9999998 z"
       sodipodi:nodetypes="ccsscsccscssc" />
    <path
       id="path9408"
       style="fill:#000000;fill-opacity:0.398505;marker:none"
       d="M 2.9999983,51.699219 V 52.5 c 0,2 1,3 3,3 H 57.999998 c 2,0 3.000001,-1 3.000001,-3 v -0.800781 c 0,2 -1.000001,3 -3.000001,3 H 5.9999983 c -2,0 -3,-1 -3,-3 z" />
    <path
       id="path12094"
       style="fill:#000000;fill-opacity:0.2;marker:none"
       d="m 2.9882804,52.46556 v 0.800781 c 0,2 1,3 2.9999999,3 H 57.98828 c 2,0 3.000001,-1 3.000001,-3 V 52.46556 c 0,2 -1.000001,3 -3.000001,3 H 5.9882804 c -2,0 -3,-1 -3,-3 z" />
    <path
       id="path19680"
       style="fill:#88c7f9;fill-opacity:1"
       d="M 35.289091,8.5026689 H 35 27 6 c -2,0 -3,1 -3,3.0000001 v 0.800781 c 0,-2 1,-3.0000001 3,-3.0000001 h 21 8 0.29495 c -0.0032,-0.204272 -0.0033,-0.565639 -0.0059,-0.800781 z"
       sodipodi:nodetypes="cccsscsccccc" />
    <g
       id="g12358"
       transform="translate(0,1.286779)">
      <path
         id="path3531"
         style="fill:#3571a2;fill-opacity:1;stroke-width:1.5"
         class="ColorScheme-Text"
         d="m 31.999985,24.184674 -7.5,7.5 v 0.599609 l 7.5,-7.5 7.5,7.5 v -0.599609 z m -9,9 -1.074219,1.076172 c -0.293804,0.293805 -0.766741,0.293805 -1.060546,0 -0.06845,-0.06845 -0.119695,-0.149056 -0.15625,-0.232422 -0.12124,0.274769 -0.06954,0.606246 0.15625,0.832031 0.293805,0.293805 0.766742,0.293805 1.060546,0 l 1.074219,-1.076172 z m 18,0 v 0.599609 l 1.076172,1.076172 c 0.293805,0.293805 0.766742,0.293805 1.060547,0 0.225785,-0.225785 0.275537,-0.557262 0.154297,-0.832031 -0.03656,0.08337 -0.08585,0.163972 -0.154297,0.232422 -0.293805,0.293805 -0.766742,0.293805 -1.060547,0 z m -9,4.177734 c -0.831,0 -1.5,0.669 -1.5,1.5 v 0.59961 c 0,-0.831 0.669,-1.5 1.5,-1.5 0.831,0 1.5,0.669 1.5,1.5 v -0.59961 c 0,-0.831 -0.669,-1.5 -1.5,-1.5 z m -9,6 v 0.59961 c 0,0.831001 0.669,1.5 1.5,1.5 h 1.5 3 1.5 v -0.59961 h -1.5 -3 -1.5 c -0.831,0 -1.5,-0.668999 -1.5,-1.5 z m 18,0 c 0,0.831001 -0.669,1.5 -1.5,1.5 h -1.5 -1.5 -1.5 -1.5 v 0.59961 h 1.5 1.5 1.5 1.5 c 0.831,0 1.5,-0.668999 1.5,-1.5 z" />
      <path
         d="m 31.999986,22.370221 c -0.191715,0 -0.38337,0.07283 -0.53028,0.21972 l -10.605449,10.60845 c -0.293805,0.293806 -0.293805,0.76674 0,1.060545 0.293805,0.293805 0.76674,0.293805 1.060544,0 l 1.0752,-1.075199 v 7.1778 1.499999 1.5 c 0,0.831 0.669,1.5 1.5,1.5 h 1.5 3 1.5 v -6 c 0,-0.831 0.669,-1.5 1.5,-1.5 0.831,0 1.5,0.669 1.5,1.5 v 6 h 1.5 1.5 1.5 1.5 c 0.831,0 1.5,-0.669 1.5,-1.5 v -1.5 -1.5 -1.5 -5.6778 l 1.0752,1.0752 c 0.293805,0.293805 0.76674,0.293805 1.060545,0 0.293805,-0.293805 0.293805,-0.766739 0,-1.060545 l -10.60545,-10.60845 c -0.146901,-0.146901 -0.338565,-0.21972 -0.53028,-0.21972 z m 0,1.8135 7.5,7.5 v 7.1778 1.5 1.5 1.5 h -1.5 -1.5 -1.5 v -4.5 c 0,-1.662 -1.338,-3 -3,-3 -1.662,0 -3,1.338 -3,3 v 4.5 h -1.5 -1.5 -1.5 v -1.5 -1.5 -1.5 -7.1778 z"
         style="fill:#8fcaf8;fill-opacity:1;stroke-width:1.5"
         class="ColorScheme-Text"
         id="path3429" />
      <path
         id="path3115"
         style="fill:#b1d4f0;fill-opacity:1;stroke-width:1.5"
         class="ColorScheme-Text"
         d="m 31.999986,22.370221 c -0.191715,0 -0.382387,0.07186 -0.529297,0.21875 L 20.86522,33.198346 c -0.225414,0.225414 -0.276722,0.555575 -0.15625,0.830078 0.03656,-0.08337 0.0878,-0.162018 0.15625,-0.230469 L 31.470689,23.18858 c 0.14691,-0.14689 0.337582,-0.21875 0.529297,-0.21875 0.191715,0 0.384349,0.07185 0.53125,0.21875 l 10.605469,10.609375 c 0.06845,0.06845 0.117741,0.147103 0.154297,0.230469 0.120472,-0.274503 0.07112,-0.604664 -0.154297,-0.830078 L 32.531236,22.588971 c -0.146901,-0.146901 -0.339535,-0.21875 -0.53125,-0.21875 z m 0,13.490234 c -1.662,0 -3,1.338001 -3,3 v 0.59961 c 0,-1.661999 1.338,-3 3,-3 1.662,0 3,1.338001 3,3 v -0.59961 c 0,-1.661999 -1.338,-3 -3,-3 z m -7.5,7.5 v 0.59961 h 1.5 1.5 1.5 v -0.59961 h -1.5 -1.5 z m 10.5,0 v 0.59961 h 1.5 1.5 1.5 v -0.59961 h -1.5 -1.5 z" />
    </g>
  </g>
</svg>
