#define max_toggled_hover55_width 11
#define max_toggled_hover55_height 11
static unsigned char max_toggled_hover55_bits[] = {
   0xfc, 0x07, 0x04, 0x04, 0x04, 0x04, 0x04, 0x04, 0x7f, 0x04, 0x41, 0x04,
   0x41, 0x04, 0x41, 0x04, 0xc1, 0x07, 0x41, 0x00, 0x7f, 0x00 };
