<?xml version="1.0" encoding="UTF-8" standalone="no"?>
<svg
   id="svg6"
   version="1.1"
   viewBox="0 0 16 16"
   sodipodi:docname="folder-git.svg"
   inkscape:version="1.1.2 (0a00cf5339, 2022-02-04)"
   xmlns:inkscape="http://www.inkscape.org/namespaces/inkscape"
   xmlns:sodipodi="http://sodipodi.sourceforge.net/DTD/sodipodi-0.dtd"
   xmlns="http://www.w3.org/2000/svg"
   xmlns:svg="http://www.w3.org/2000/svg">
  <sodipodi:namedview
     id="namedview6"
     pagecolor="#ffffff"
     bordercolor="#666666"
     borderopacity="1.0"
     inkscape:pageshadow="2"
     inkscape:pageopacity="0.0"
     inkscape:pagecheckerboard="0"
     showgrid="false"
     inkscape:zoom="39.5625"
     inkscape:cx="7.6840442"
     inkscape:cy="7.9873618"
     inkscape:window-width="1920"
     inkscape:window-height="995"
     inkscape:window-x="1920"
     inkscape:window-y="32"
     inkscape:window-maximized="1"
     inkscape:current-layer="svg6" />
  <defs
     id="defs3051">
    <style
       id="current-color-scheme"
       type="text/css">.ColorScheme-Text {
        color:#dfdfdf;
      }</style>
  </defs>
  <g
     id="g1150">
    <path
       id="circle4175"
       d="m4.601912 1a1.6990443 1.7500001 0 0 0-1.6990445 1.7500003 1.6990443 1.7500001 0 0 0 1.1326963 1.6474613v7.2050774a1.6990443 1.7500001 0 0 0-1.1326963 1.647463 1.6990443 1.7500001 0 0 0 1.6990445 1.749998 1.6990443 1.7500001 0 0 0 1.6990442-1.749998 1.6990443 1.7500001 0 0 0-1.086238-1.631511c0.2158883-1.39215 1.3709978-2.451823 2.7852823-2.451823 2.0301935 0 3.6756325-1.5621863 3.9157645-3.5843102a1.6990443 1.7500001 0 0 0 1.181367-1.6656903 1.6990443 1.7500001 0 0 0-1.699042-1.7500008 1.6990443 1.7500001 0 0 0-1.6990454 1.7500008 1.6990443 1.7500001 0 0 0 1.0862374 1.6315104c-0.215888 1.392153-1.370997 2.4518234-2.7852815 2.4518234-1.1134873 0-2.1129693 0.4718437-2.8317404 1.2281904v-4.8307301a1.6990443 1.7500001 0 0 0 1.1326961-1.6474613 1.6990443 1.7500001 0 0 0-1.6990442-1.7500003zm0 1.1666667a0.5663481 0.58333342 0 0 1 0.5663481 0.5833336 0.5663481 0.58333342 0 0 1-0.5663481 0.5833336 0.5663481 0.58333342 0 0 1-0.5663482-0.5833336 0.5663481 0.58333342 0 0 1 0.5663482-0.5833336zm6.796178 1.1666672a0.5663481 0.58333342 0 0 1 0.566347 0.5833336 0.5663481 0.58333342 0 0 1-0.566347 0.5833334 0.5663481 0.58333342 0 0 1-0.56635-0.5833334 0.5663481 0.58333342 0 0 1 0.56635-0.5833336zm-6.796178 9.3333321a0.5663481 0.58333342 0 0 1 0.5663481 0.583336 0.5663481 0.58333342 0 0 1-0.5663481 0.583334 0.5663481 0.58333342 0 0 1-0.5663482-0.583334 0.5663481 0.58333342 0 0 1 0.5663482-0.583336z"
       style="fill:#dfdfdf;fill-opacity:1" />
    <circle
       style="fill:#dfdfdf;fill-opacity:1;fill-rule:evenodd;stroke:#000000;stroke-width:0;stroke-linecap:round;stroke-linejoin:round;stroke-miterlimit:4;stroke-dasharray:none"
       id="path958"
       cx="4.5794806"
       cy="2.7332065"
       r="0.62219602" />
    <circle
       style="fill:#dfdfdf;fill-opacity:1;fill-rule:evenodd;stroke:#000000;stroke-width:0;stroke-linecap:round;stroke-linejoin:round;stroke-miterlimit:4;stroke-dasharray:none"
       id="path1062"
       cx="11.425627"
       cy="3.9442549"
       r="0.76595438" />
    <circle
       style="fill:#dfdfdf;fill-opacity:1;fill-rule:evenodd;stroke:#000000;stroke-width:0;stroke-linecap:round;stroke-linejoin:round;stroke-miterlimit:4;stroke-dasharray:none"
       id="path1064"
       cx="4.5962553"
       cy="13.232282"
       r="0.67962116" />
  </g>
</svg>
