<?xml version="1.0" encoding="UTF-8" standalone="no"?>
<svg
   width="16"
   height="16"
   version="1.1"
   id="svg7"
   sodipodi:docname="folder-publicshare.svg"
   inkscape:version="1.1.2 (0a00cf5339, 2022-02-04)"
   xmlns:inkscape="http://www.inkscape.org/namespaces/inkscape"
   xmlns:sodipodi="http://sodipodi.sourceforge.net/DTD/sodipodi-0.dtd"
   xmlns="http://www.w3.org/2000/svg"
   xmlns:svg="http://www.w3.org/2000/svg">
  <sodipodi:namedview
     id="namedview9"
     pagecolor="#ffffff"
     bordercolor="#666666"
     borderopacity="1.0"
     inkscape:pageshadow="2"
     inkscape:pageopacity="0.0"
     inkscape:pagecheckerboard="0"
     showgrid="false"
     inkscape:zoom="30.977849"
     inkscape:cx="6.7628969"
     inkscape:cy="7.166411"
     inkscape:window-width="1920"
     inkscape:window-height="995"
     inkscape:window-x="1920"
     inkscape:window-y="32"
     inkscape:window-maximized="1"
     inkscape:current-layer="svg7" />
  <defs
     id="defs3">
    <style
       id="current-color-scheme"
       type="text/css">
   .ColorScheme-Text { color:#d3dae3; } .ColorScheme-Highlight { color:#5294e2; }
  </style>
  </defs>
  <g
     id="g5946"
     transform="translate(0,0.5)">
    <path
       d="M 15,2.5 C 15,1.125 13.875,0 12.5,0 11.121111,0.0043914 10.004391,1.1211112 10,2.5 10,3.875 11.125,5 12.5,5 13.875,5 15,3.875 15,2.5 Z m 0,10 C 15,11.125 13.875,10 12.5,10 c -1.378889,0.0044 -2.495609,1.121111 -2.5,2.5 0,1.375 1.125,2.5 2.5,2.5 1.375,0 2.5,-1.125 2.5,-2.5 z M 14,2.5 C 14,3.334 13.334,4 12.5,4 11.666,4 11,3.334 11,2.5 11,1.666 11.666,1 12.5,1 13.334,1 14,1.666 14,2.5 Z m 0,10 C 14,13.334 13.334,14 12.5,14 11.666,14 11,13.334 11,12.5 11,11.666 11.666,11 12.5,11 13.334,11 14,11.666 14,12.5 Z M 10.633764,4.1296653 c -0.205703,-0.2654252 -0.37208,-0.5591106 -0.494,-0.872 L 5.387,5.881 C 4.9171563,5.3254412 4.2275895,5.0034972 3.5,5 2.1211112,5.0043914 1.0043914,6.1211112 1,7.5 1,8.875 2.125,10 3.5,10 4.255,10 4.927,9.653 5.387,9.12 l 4.814397,2.833475 c 0.122,-0.316 0.29,-0.606 0.494,-0.871 L 5.873,8.246 C 5.948,8.01 6,7.761 6,7.5 6,7.239 5.948,6.991 5.873,6.754 Z M 5,7.5 C 5,8.334 4.334,9 3.5,9 2.666,9 2,8.334 2,7.5 2,6.666 2.666,6 3.5,6 4.334,6 5,6.666 5,7.5 Z"
       style="fill:currentColor"
       class="ColorScheme-Text"
       id="path5"
       sodipodi:nodetypes="sccsssccsssssssssssscccccsccccsccsssss" />
    <ellipse
       style="fill:#d3dae3;fill-opacity:1;fill-rule:evenodd;stroke:#000000;stroke-width:0;stroke-linecap:round;stroke-linejoin:round"
       id="path1399"
       cx="3.506947"
       cy="7.527565"
       rx="1.5726612"
       ry="1.5666544" />
    <circle
       style="fill:#d3dae3;fill-opacity:1;fill-rule:evenodd;stroke:#000000;stroke-width:0;stroke-linecap:round;stroke-linejoin:round"
       id="path5756"
       cx="12.505868"
       cy="2.5083919"
       r="1.9591038" />
    <circle
       style="fill:#d3dae3;fill-opacity:1;fill-rule:evenodd;stroke:#000000;stroke-width:0;stroke-linecap:round;stroke-linejoin:round"
       id="path5860"
       cx="12.537405"
       cy="12.464927"
       r="1.9416082" />
  </g>
</svg>
