<?xml version="1.0" encoding="UTF-8" standalone="no"?>
<svg
   width="16"
   height="16"
   version="1.1"
   id="svg62"
   sodipodi:docname="folder-txt2.svg"
   inkscape:version="1.1.2 (0a00cf5339, 2022-02-04, custom)"
   xmlns:inkscape="http://www.inkscape.org/namespaces/inkscape"
   xmlns:sodipodi="http://sodipodi.sourceforge.net/DTD/sodipodi-0.dtd"
   xmlns="http://www.w3.org/2000/svg"
   xmlns:svg="http://www.w3.org/2000/svg">
  <sodipodi:namedview
     id="namedview64"
     pagecolor="#ffffff"
     bordercolor="#666666"
     borderopacity="1.0"
     inkscape:pageshadow="2"
     inkscape:pageopacity="0.0"
     inkscape:pagecheckerboard="0"
     showgrid="false"
     inkscape:zoom="14.797937"
     inkscape:cx="27.807931"
     inkscape:cy="15.508919"
     inkscape:window-width="1920"
     inkscape:window-height="1020"
     inkscape:window-x="3280"
     inkscape:window-y="30"
     inkscape:window-maximized="1"
     inkscape:current-layer="svg62" />
  <defs
     id="defs56">
    <inkscape:path-effect
       effect="fillet_chamfer"
       id="path-effect1503"
       is_visible="true"
       lpeversion="1"
       satellites_param="F,0,0,1,0,0.5,0,1 @ F,0,0,1,0,0.5,0,1 @ F,0,0,1,0,0.5,0,1 @ F,0,0,1,0,0.5,0,1 @ F,0,0,1,0,0.5,0,1 | F,0,0,1,0,0.5,0,1 @ F,0,0,1,0,0.5,0,1 @ F,0,0,1,0,0.5,0,1 @ F,0,0,1,0,0.5,0,1 @ F,0,0,1,0,0.5,0,1 @ F,0,0,1,0,0.5,0,1 | F,0,1,1,0,0.25,0,1 @ F,0,1,1,0,0.25,0,1 @ F,0,1,1,0,0.25,0,1 @ F,0,1,1,0,0.25,0,1 | F,0,1,1,0,0.25,0,1 @ F,0,1,1,0,0.25,0,1 @ F,0,1,1,0,0.25,0,1 @ F,0,1,1,0,0.25,0,1 | F,0,1,1,0,0.25,0,1 @ F,0,1,1,0,0.25,0,1 @ F,0,1,1,0,0.25,0,1 @ F,0,1,1,0,0.25,0,1 | F,0,1,1,0,0.25,0,1 @ F,0,1,1,0,0.25,0,1 @ F,0,1,1,0,0.25,0,1 @ F,0,1,1,0,0.25,0,1"
       unit="px"
       method="auto"
       mode="F"
       radius="0.25"
       chamfer_steps="1"
       flexible="false"
       use_knot_distance="true"
       apply_no_radius="true"
       apply_with_radius="true"
       only_selected="true"
       hide_knots="false" />
    <style
       id="current-color-scheme"
       type="text/css">
   .ColorScheme-Text { color:#FFFFFF; } .ColorScheme-Highlight { color:#5294e2; }
  </style>
    <linearGradient
       id="arrongin"
       x1="0%"
       x2="0%"
       y1="0%"
       y2="100%">
      <stop
         offset="0%"
         style="stop-color:#dd9b44; stop-opacity:1"
         id="stop3" />
      <stop
         offset="100%"
         style="stop-color:#ad6c16; stop-opacity:1"
         id="stop5" />
    </linearGradient>
    <linearGradient
       id="aurora"
       x1="0%"
       x2="0%"
       y1="0%"
       y2="100%">
      <stop
         offset="0%"
         style="stop-color:#09D4DF; stop-opacity:1"
         id="stop8" />
      <stop
         offset="100%"
         style="stop-color:#9269F4; stop-opacity:1"
         id="stop10" />
    </linearGradient>
    <linearGradient
       id="fitdance"
       x1="0%"
       x2="0%"
       y1="0%"
       y2="100%">
      <stop
         offset="0%"
         style="stop-color:#1AD6AB; stop-opacity:1"
         id="stop13" />
      <stop
         offset="100%"
         style="stop-color:#329DB6; stop-opacity:1"
         id="stop15" />
    </linearGradient>
    <linearGradient
       id="oomox"
       x1="0%"
       x2="0%"
       y1="0%"
       y2="100%">
      <stop
         offset="0%"
         style="stop-color:#efefe7; stop-opacity:1"
         id="stop18" />
      <stop
         offset="100%"
         style="stop-color:#8f8f8b; stop-opacity:1"
         id="stop20" />
    </linearGradient>
    <linearGradient
       id="rainblue"
       x1="0%"
       x2="0%"
       y1="0%"
       y2="100%">
      <stop
         offset="0%"
         style="stop-color:#00F260; stop-opacity:1"
         id="stop23" />
      <stop
         offset="100%"
         style="stop-color:#0575E6; stop-opacity:1"
         id="stop25" />
    </linearGradient>
    <linearGradient
       id="sunrise"
       x1="0%"
       x2="0%"
       y1="0%"
       y2="100%">
      <stop
         offset="0%"
         style="stop-color: #FF8501; stop-opacity:1"
         id="stop28" />
      <stop
         offset="100%"
         style="stop-color: #FFCB01; stop-opacity:1"
         id="stop30" />
    </linearGradient>
    <linearGradient
       id="telinkrin"
       x1="0%"
       x2="0%"
       y1="0%"
       y2="100%">
      <stop
         offset="0%"
         style="stop-color: #b2ced6; stop-opacity:1"
         id="stop33" />
      <stop
         offset="100%"
         style="stop-color: #6da5b7; stop-opacity:1"
         id="stop35" />
    </linearGradient>
    <linearGradient
       id="60spsycho"
       x1="0%"
       x2="0%"
       y1="0%"
       y2="100%">
      <stop
         offset="0%"
         style="stop-color: #df5940; stop-opacity:1"
         id="stop38" />
      <stop
         offset="25%"
         style="stop-color: #d8d15f; stop-opacity:1"
         id="stop40" />
      <stop
         offset="50%"
         style="stop-color: #e9882a; stop-opacity:1"
         id="stop42" />
      <stop
         offset="100%"
         style="stop-color: #279362; stop-opacity:1"
         id="stop44" />
    </linearGradient>
    <linearGradient
       id="90ssummer"
       x1="0%"
       x2="0%"
       y1="0%"
       y2="100%">
      <stop
         offset="0%"
         style="stop-color: #f618c7; stop-opacity:1"
         id="stop47" />
      <stop
         offset="20%"
         style="stop-color: #94ffab; stop-opacity:1"
         id="stop49" />
      <stop
         offset="50%"
         style="stop-color: #fbfd54; stop-opacity:1"
         id="stop51" />
      <stop
         offset="100%"
         style="stop-color: #0f83ae; stop-opacity:1"
         id="stop53" />
    </linearGradient>
  </defs>
  <g
     id="g3003">
    <g
       transform="matrix(1,0,0,-1,-552,68)"
       id="g60"
       style="fill:#dedede;opacity:1;fill-opacity:1">
      <path
         fill="currentColor"
         class="ColorScheme-Text"
         d="m 553.4,52.5 v 15 a 0.5,0.5 45 0 0 0.5,0.5 h 8.35 a 1.1473123,1.1473123 156.45237 0 0 0.84039,-0.366243 l 3.26922,-3.517514 A 1.2724247,1.2724247 111.45237 0 0 566.7,63.25 V 52.5 A 0.5,0.5 45 0 0 566.2,52 h -12.3 a 0.5,0.5 135 0 0 -0.5,0.5 z m 1.5,0.5 h 10.3 a 0.5,0.5 45 0 1 0.5,0.5 v 9 a 0.5,0.5 135 0 1 -0.5,0.5 h -2.7 a 0.5,0.5 135 0 0 -0.5,0.5 v 3 a 0.5,0.5 135 0 1 -0.5,0.5 h -6.6 a 0.5,0.5 45 0 1 -0.5,-0.5 v -13 a 0.5,0.5 135 0 1 0.5,-0.5 z m 1.1,2.05 v 0.5 a 0.25,0.25 45 0 0 0.25,0.25 h 7.5 A 0.25,0.25 135 0 0 564,55.55 v -0.5 a 0.25,0.25 45 0 0 -0.25,-0.25 h -7.5 A 0.25,0.25 135 0 0 556,55.05 Z m 0,2.6 v 0.5 a 0.25,0.25 45 0 0 0.25,0.25 h 7.5 A 0.25,0.25 135 0 0 564,58.15 v -0.5 a 0.25,0.25 45 0 0 -0.25,-0.25 h -7.5 A 0.25,0.25 135 0 0 556,57.65 Z m 0,2.6 v 0.5 a 0.25,0.25 45 0 0 0.25,0.25 h 7.5 A 0.25,0.25 135 0 0 564,60.75 v -0.5 A 0.25,0.25 45 0 0 563.75,60 h -7.5 A 0.25,0.25 135 0 0 556,60.25 Z m 0,2.7 v 0.5 a 0.25,0.25 45 0 0 0.25,0.25 h 3.8 a 0.25,0.25 135 0 0 0.25,-0.25 v -0.5 a 0.25,0.25 45 0 0 -0.25,-0.25 h -3.8 A 0.25,0.25 135 0 0 556,62.95 Z"
         overflow="visible"
         id="path58"
         style="fill:#dedede;fill-opacity:1"
         inkscape:path-effect="#path-effect1503"
         inkscape:original-d="m 553.4,52 v 16 h 9.35 l 3.95,-4.25 V 52 Z m 1,1 h 11.3 V 63 H 562 v 4 h -7.6 z m 1.6,1.8 v 1 h 8 v -1 z m 0,2.6 v 1 h 8 v -1 z m 0,2.6 v 1 h 8 v -1 z m 0,2.7 v 1 h 4.3 v -1 z"
         sodipodi:nodetypes="ccccccccccccccccccccccccccccccccc" />
    </g>
  </g>
</svg>
