<?xml version="1.0" encoding="UTF-8" standalone="no"?>
<svg
   height="16"
   viewBox="0 0 16 16"
   width="16"
   version="1.1"
   id="svg6"
   sodipodi:docname="folder-vid.svg"
   inkscape:version="1.1.2 (0a00cf5339, 2022-02-04, custom)"
   xmlns:inkscape="http://www.inkscape.org/namespaces/inkscape"
   xmlns:sodipodi="http://sodipodi.sourceforge.net/DTD/sodipodi-0.dtd"
   xmlns:xlink="http://www.w3.org/1999/xlink"
   xmlns="http://www.w3.org/2000/svg"
   xmlns:svg="http://www.w3.org/2000/svg"
   xmlns:rdf="http://www.w3.org/1999/02/22-rdf-syntax-ns#"
   xmlns:cc="http://creativecommons.org/ns#"
   xmlns:dc="http://purl.org/dc/elements/1.1/">
  <metadata
     id="metadata10">
    <rdf:RDF>
      <cc:Work
         rdf:about="">
        <dc:format>image/svg+xml</dc:format>
        <dc:type
           rdf:resource="http://purl.org/dc/dcmitype/StillImage" />
      </cc:Work>
    </rdf:RDF>
  </metadata>
  <sodipodi:namedview
     pagecolor="#ffffff"
     bordercolor="#666666"
     borderopacity="1"
     objecttolerance="10"
     gridtolerance="10"
     guidetolerance="10"
     inkscape:pageopacity="0"
     inkscape:pageshadow="2"
     inkscape:window-width="1920"
     inkscape:window-height="1020"
     id="namedview8"
     showgrid="false"
     inkscape:zoom="14.75"
     inkscape:cx="4.8813559"
     inkscape:cy="13.525424"
     inkscape:window-x="1360"
     inkscape:window-y="30"
     inkscape:window-maximized="1"
     inkscape:current-layer="svg6"
     inkscape:pagecheckerboard="0" />
  <defs
     id="defs2">
    <style
       type="text/css"
       id="current-color-scheme">
      .ColorScheme-Text {
        color:#122036;
      }
      </style>
    <linearGradient
       inkscape:collect="always"
       xlink:href="#linearGradient7401"
       id="linearGradient7403"
       x1="2.9855165"
       y1="34.99794"
       x2="25"
       y2="6"
       gradientUnits="userSpaceOnUse"
       gradientTransform="scale(0.26458333)" />
    <linearGradient
       inkscape:collect="always"
       id="linearGradient7401">
      <stop
         style="stop-color:#9557da;stop-opacity:1;"
         offset="0"
         id="stop7397" />
      <stop
         style="stop-color:#a778da;stop-opacity:1"
         offset="1"
         id="stop7399" />
    </linearGradient>
  </defs>
  <path
     d="M 8,3 C 5.230004,3 3.0000069,5.230004 3.0000069,7.9999857 3.0000069,10.769996 5.230004,13 8.0000001,13 10.769996,13 12.999993,10.769996 12.999993,7.9999857 12.999993,5.230004 10.769996,3 8,3 Z"
     fill="currentColor"
     style="color:#122036;fill:#ffffff;fill-opacity:1;stroke:none;stroke-width:0.714285"
     class="ColorScheme-Text"
     id="path4-3"
     sodipodi:nodetypes="sssss" />
  <g
     id="g999"
     transform="scale(1.8897637)">
    <path
       id="path3474"
       style="fill:url(#linearGradient7403);fill-opacity:1;stroke-width:0.129564"
       d="m 1.4185181,0.5291667 c -0.49262012,0 -0.88935139,0.3967313 -0.88935139,0.8893514 v 0.6981486 4.9314819 c 0,0.49262 0.39673127,0.8893514 0.88935139,0.8893514 H 7.0481486 C 7.5407687,7.9375 7.9375,7.5407686 7.9375,7.0481486 V 2.1166667 1.4185181 C 7.9375,0.925898 7.5407687,0.5291667 7.0481486,0.5291667 Z M 1.3229167,1.0583334 H 1.8520834 V 1.5875 H 1.3229167 Z m 1.0583334,0 H 2.9104167 V 1.5875 H 2.3812501 Z m 1.0583333,0 H 3.96875 V 1.5875 H 3.4395834 Z m 1.0583333,0 H 5.0270834 V 1.5875 H 4.4979167 Z m 1.0583333,0 H 6.0854167 V 1.5875 H 5.55625 Z m 1.0583333,0 H 7.14375 V 1.5875 H 6.6145833 Z M 1.3229167,6.8791666 H 1.8520834 V 7.4083333 H 1.3229167 Z m 1.0583334,0 H 2.9104167 V 7.4083333 H 2.3812501 Z m 1.0583333,0 H 3.96875 V 7.4083333 H 3.4395834 Z m 1.0583333,0 H 5.0270834 V 7.4083333 H 4.4979167 Z m 1.0583333,0 H 6.0854167 V 7.4083333 H 5.55625 Z m 1.0583333,0 H 7.14375 V 7.4083333 H 6.6145833 Z" />
    <path
       style="color:#000000;fill:#ffffff;stroke-width:1.13863;-inkscape-stroke:none"
       d="m 3.5532191,2.9494762 1.6074307,1.0443319 a 0.27875865,0.28977075 0 0 1 0,0.4914502 L 3.5759114,5.514847 A 0.26203377,0.27238516 0 0 1 3.175,5.2838649 V 3.1673843 A 0.24720213,0.25696762 0 0 1 3.5532191,2.9494762 Z"
       id="path3825" />
  </g>
</svg>
