<?xml version="1.0" encoding="UTF-8" standalone="no"?>
<svg
   id="svg6"
   version="1.1"
   viewBox="0 0 16 16"
   sodipodi:docname="folder-html2.svg"
   inkscape:version="1.1.2 (0a00cf5339, 2022-02-04, custom)"
   xmlns:inkscape="http://www.inkscape.org/namespaces/inkscape"
   xmlns:sodipodi="http://sodipodi.sourceforge.net/DTD/sodipodi-0.dtd"
   xmlns="http://www.w3.org/2000/svg"
   xmlns:svg="http://www.w3.org/2000/svg">
  <sodipodi:namedview
     id="namedview6"
     pagecolor="#ffffff"
     bordercolor="#666666"
     borderopacity="1.0"
     inkscape:pageshadow="2"
     inkscape:pageopacity="0.0"
     inkscape:pagecheckerboard="0"
     showgrid="false"
     inkscape:zoom="45.4375"
     inkscape:cx="7.0756534"
     inkscape:cy="7.9339752"
     inkscape:window-width="1920"
     inkscape:window-height="1016"
     inkscape:window-x="1920"
     inkscape:window-y="32"
     inkscape:window-maximized="1"
     inkscape:current-layer="svg6" />
  <defs
     id="defs3051">
    <style
       id="current-color-scheme"
       type="text/css">.ColorScheme-Text {
        color:#dfdfdf;
      }</style>
  </defs>
  <path
     id="path4"
     class="ColorScheme-Text"
     d="m8.0585938 0.21875c-0.0813182 0-0.1614739 0.00196219-0.2421876 0.00390625-0.7928705 0.02410638-1.5566588 0.16566185-2.2734374 0.40820313-0.1214897 0.04111692-0.2425785 0.08599945-0.3613282 0.1328125-0.0367589 0.01448326-0.0729184 0.02995259-0.109375 0.04492187-0.081513 0.03353508-0.1621272 0.06735605-0.2421875 0.10351563-0.1158733 0.05248969-0.2290533 0.10821862-0.3417969 0.16601562-0.1127727 0.0577387-0.224478 0.1167096-0.3339843 0.1796875-0.4405703 0.2533697-0.8549133 0.5497758-1.2363281 0.8808594-0.0452419 0.03927-0.0884775 0.078811-0.1328126 0.1191406-0.0929209 0.0843723-0.1847676 0.1710678-0.2734374 0.2597656-0.088631 0.0887465-0.1753665 0.1785874-0.2597657 0.2714844-0.1266182 0.1392824-0.2487857 0.2834156-0.3652343 0.4316406-0.2329169 0.2963432-0.4438698 0.610926-0.6328126 0.9394531-0.0629873 0.10948-0.1239282 0.2192854-0.1816406 0.3320313-0.0288611 0.0563778-0.0563908 0.1127762-0.08398435 0.1699219-0.08268311 0.1715052-0.16016861 0.3472756-0.23046875 0.5253906-0.02340088 0.0593911-0.04632354 0.119616-0.06835938 0.1796875-0.0880458 0.2402959-0.16396819 0.4856898-0.22851562 0.7363281-0.0318837 0.1251102-0.06175964 0.251298-0.08789062 0.3789063v0.0019531c-0.026131 0.127686-0.04856614 0.2549703-0.06835938 0.3847656-0.01979324 0.1298829-0.03537262 0.2606734-0.04882812 0.3925782-0.02681352 0.2636926-0.04101563 0.5318875-0.04101563 0.8027343 0 0.270808 0.01420211 0.5389931 0.04101563 0.8027344 0.013358 0.1318561 0.02893737 0.2627245 0.04882812 0.3925781 0.01979324 0.1298051 0.04232589 0.2591105 0.06835938 0.3867188 0.02613098 0.1276083 0.05571441 0.2536304 0.08789062 0.3789066 0.06454743 0.250638 0.14049907 0.496032 0.22851562 0.736328 0.04397417 0.120114 0.09103464 0.238192 0.140625 0.355469 0.04953188 0.117265 0.10318181 0.233325 0.15820313 0.347656 0.02749605 0.057155 0.05512325 0.115477 0.08398435 0.171875 0.0577222 0.112717 0.118624 0.222522 0.1816406 0.332031 0.188933 0.328527 0.3999152 0.643032 0.6328126 0.939453 0.1164681 0.148177 0.2386161 0.2923 0.3652343 0.431641 0.0844382 0.092926 0.1709885 0.182786 0.2597657 0.271484 0.0887283 0.088747 0.1805652 0.175335 0.2734374 0.259766 0.4179106 0.37985 0.8763182 0.714651 1.3691407 0.998047 0.1095161 0.06289 0.2212116 0.123921 0.3339843 0.18164 0.2255164 0.115516 0.4558307 0.22073 0.6933594 0.314453 0.1187205 0.046852 0.2398385 0.091706 0.3613282 0.132813 0.7897699 0.267279 1.6355958 0.412109 2.515625 0.412109 0.5999693 0 1.1846968-0.06783 1.7460937-0.195312 0.2620315-0.059586 0.5181575-0.131744 0.7695315-0.216797 0.121519-0.04102 0.2425-0.086029 0.361328-0.132813 0.237499-0.093606 0.469796-0.198888 0.695312-0.314453 0.112773-0.057738 0.222574-0.116738 0.332032-0.179687 0.492851-0.283347 0.953183-0.620198 1.371093-1 0.092921-0.08447 0.182786-0.171068 0.271485-0.259766 0.088728-0.088649 0.175347-0.178616 0.259765-0.271484 0.126589-0.139283 0.248815-0.283416 0.365235-0.431641 0.184282-0.234464 0.354698-0.479576 0.511719-0.734375 0.041536-0.067362 0.083557-0.136307 0.123046-0.205078 0.062988-0.109451 0.121975-0.219256 0.179688-0.332031 0.028861-0.056378 0.058344-0.11473 0.085937-0.171875 0.055187-0.114282 0.10665-0.230332 0.15625-0.347656 0.04963-0.117326 0.09669-0.235287 0.140625-0.355469 0.088046-0.240296 0.163978-0.485729 0.228516-0.736328 0.032274-0.1253637 0.06176-0.2512983 0.087891-0.3789066 0.026033-0.1277152 0.050421-0.2568943 0.070312-0.3867188 0.019793-0.1298536 0.035373-0.2606929 0.048828-0.3925781 0.026814-0.2636829 0.041016-0.5318876 0.041016-0.8027344 0-0.2708079-0.014202-0.5390514-0.041016-0.8027343-0.013455-0.1319145-0.028937-0.2626953-0.048828-0.3925782-0.019793-0.129805-0.044181-0.2571573-0.070312-0.3847656s-0.055617-0.2556131-0.087891-0.3808594c-0.064547-0.2506091-0.140528-0.4960322-0.228516-0.7363281-0.021938-0.0600715-0.045056-0.1202672-0.068359-0.1796875-0.070203-0.178115-0.145872-0.3519323-0.228516-0.5234375-0.027496-0.0571554-0.057076-0.1135246-0.085937-0.1699219-0.057722-0.1127459-0.116681-0.2244946-0.179688-0.3339844-0.188942-0.3285563-0.401868-0.6430321-0.634765-0.9394531-0.116468-0.1481667-0.238587-0.2922999-0.365235-0.4316406-0.08434-0.092829-0.171017-0.1827865-0.259765-0.2714844-0.088631-0.0887464-0.178612-0.1753641-0.271485-0.2597656-0.179894-0.1635248-0.367931-0.3184558-0.5625-0.4648437-0.257429-0.1937066-0.527939-0.3717974-0.808593-0.5332032-0.109507-0.0628904-0.219308-0.1239311-0.332032-0.1816406-0.051287-0.0262448-0.102424-0.0510935-0.154297-0.0761719-0.062304-0.03013293-0.12628-0.06136321-0.189453-0.08984372-0.026423-0.011956-0.053557-0.02153875-0.080078-0.03320313-0.089996-0.03956168-0.179743-0.07907481-0.271484-0.11523437-9.75e-4 -5.2491e-4 -0.002931-9.4222e-4 -0.003906-0.00195313-0.097719-0.03839524-0.197266-0.07470264-0.296875-0.109375-0.020086-0.00680422-0.040266-0.01468016-0.060547-0.02148437-0.232273-0.07863735-0.46946-0.14633893-0.7109378-0.203125-0.0754678-0.01778819-0.1503048-0.03317843-0.2265624-0.04882813-0.0549922-0.01127556-0.1106628-0.02319119-0.1660157-0.03320313-0.4126257-0.07504082-0.8351591-0.11726262-1.2675781-0.125-0.0476793-8.7482e-4 -0.0966082-0.00195312-0.1445312-0.00195312zm0 0.421875c0.5073213 0 1.0033668 0.05100108 1.4824218 0.1484375-0.0200857 0.05287851-0.0853111 0.02912308-0.140625 0.0546875-0.0518719 0.02410638-0.071805 0.07358363-0.1269531 0.08398438-0.1532758 0.02886933-0.2794556-0.03806329-0.4121094-0.03320313-0.0058502 0.05734985 0.0640108 0.09092589 0.0996094 0.10937495 0.1202318 0.0629878 0.2191715 0.0545722 0.3886719 0.0507813 0.0868757-0.0019441 0.1870797 0.0259326 0.2617187-0.0253906 0.0472893-0.0322715 0.0443979-0.10502791 0.0839844-0.14453128 0.0168681-0.01671893 0.0404733-0.03258612 0.0683594-0.046875 0.0832681 0.01963505 0.1657925 0.04004608 0.2480471 0.0625-0.0138461 0.05676665-0.1042892 0.04315699-0.105469 0.11914058 0.0585997 0.0351877 0.195346-0.0181506 0.248047-0.07812495 0.020378 0.00583219 0.040266 0.01145432 0.060547 0.01757813 0.119217 0.03625676 0.236872 0.07522492 0.353515 0.11718752 0.166264 0.0598771 0.329675 0.1261129 0.490235 0.1972656-0.030811 0.018177-0.064691 0.0411128-0.091797 0.0410156-0.069715-4.374e-4 -0.098081-0.0930036-0.175781-0.0585937-0.006826 0.0901073 0.095482 0.1263463 0.160156 0.1679687 0.070008 0.0451023 0.143076 0.0895842 0.167969 0.1679688-0.068545 0.1453187-0.178559-0.0068405-0.28711-0.0078125-0.119627-8.554e-4 -0.292581 0.2263237-0.394531 0.0410156 0.025351-0.0981849 0.133694-0.1140065 0.160156-0.2109375-0.023303 0.0038881-0.045933 0.0124445-0.068359 0.0214844-0.040074 0.0158441-0.080211 0.0366258-0.121094 0.0585937-0.053627 0.0288694-0.109944 0.0579768-0.173828 0.0722656-0.058795 0.0129282-0.115444 0.0101298-0.167969 0.0253907-0.1008476 0.0295497-0.1726081 0.1032303-0.2792966 0.1425781-0.0416341 0.0152609-0.0914253 0.0109074-0.1347656 0.0253906-0.101755 0.0339239-0.2231624 0.0955091-0.328125 0.1523438-0.1073127 0.057933-0.2282879 0.1179842-0.2949219 0.1757812-0.0359789 0.0310078-0.1301904 0.1407104-0.1269531 0.1757813 0.0039001 0.0500596 0.0992029 0.0679534 0.1015624 0.1191406-0.00195 0.0310078-0.055507 0.0975342-0.0175781 0.1425781 0.0345163 0.0410197 0.1044701 0.0085382 0.1777344 0.0175782 0.1287828 0.0159413 0.2137093 0.1212794 0.3125 0.1757812 0.0746878 0.0412141 0.1851905 0.090909 0.2695313 0.1015625 0.1157856 0.0144833 0.2459334-0.0340408 0.2617182 0.0585937 0.01531 0.0890382-0.110199 0.1199089-0.1191401 0.1757813 0.0624023 0.0822339-0.0413082 0.1212735-0.0410157 0.1933594 2.732e-4 0.0583219 0.0719831 0.1470559 0.1347657 0.1523437 0.0849261 0.0068042 0.2088541-0.0832562 0.2441401-0.1679687 0.041928-0.1009358 0.024525-0.238995 0.101563-0.3125 0.392745 0.0107895 0.724531-0.1777058 0.699219-0.5800781-0.002925-0.0397562-0.025964-0.0910923-0.017578-0.1347657 0.012285-0.0650289 0.124254-0.1189379 0.109375-0.2011719 0.042316-0.0130252 0.068198-0.047445 0.089843-0.0859374 0.032274-0.05735 0.057126-0.1229036 0.117188-0.1445313 0.0039-0.0019441 0.007136-0.0029341 0.011719-0.0039063 0.034321-0.0077762 0.071621-0.0013446 0.109375 0.0097657 0.067277 0.0198294 0.140418 0.0542715 0.220703 0.0488281 0.040854-0.0029161 0.093707-0.0390353 0.134765-0.0332031 0.082391 0.0114699 0.131455 0.1112054 0.19336 0.1582031 0.054699 0.0417973 0.11299 0.028287 0.126953 0.0839844-0.016186 0.0934122-0.081437 0.0978411-0.076172 0.1835937v0.0019531c0.00585 0.0770822 0.086918 0.1369009 0.126953 0.1445313 0.061427 0.01147 0.149608-0.0216202 0.210938-0.0507813 0.066205-0.0312994 0.125764-0.0994866 0.183593-0.1464843 0.082586 0.0633764 0.164246 0.1287089 0.244141 0.1953125 0.008775 0.0374232 0.014653 0.0709072 0.017578 0.09375 0.011798 0.0909821-0.011323 0.1604001-0.007812 0.2441406 0.010823 0.1418583 0.189239 0.1268406 0.277343 0.2011719 0.026521 0.0225511 0.036558 0.0800779 0.058594 0.109375 0.042804 0.056961 0.094923 0.0583886 0.101563 0.1191406 0.015795 0.1453187-0.130985 0.1561857-0.117188 0.3183594-0.030421 0.0628904-0.107764 0.0606644-0.101562 0.1445312 0.00975 0.1328184 0.200052 0.0311178 0.251953 0.1347657 0.028081 0.0556973-0.004915 0.0963662-0.025391 0.1757812 0.065425 0.0777625 0.066519 0.2010066-0.048828 0.2011719-0.070105 0-0.089271-0.0743003-0.160156-0.0917969-0.039392-0.0098175-0.094345-0.0085382-0.144532-0.0175781-0.042901-0.0077763-0.094116-0.0205304-0.134765-0.0253907-0.104046-0.0123447-0.215819 0.0188616-0.277344-0.0410156 0.100292-0.1329836 0.23238-0.2643815 0.361328-0.3789062 0.038319-0.0342155 0.121083-0.0584151 0.101563-0.1269532-0.071763-0.0628904-0.158866 0.0048652-0.226563 0.0429688-0.07108 0.0399505-0.156121 0.0974773-0.236328 0.109375-0.139391 0.0206071-0.325559-0.0410601-0.439453 0.0332031-0.015698 0.0634737 0.129636 0.0389621 0.109375 0.1347657-0.055772 0.0087482-0.10746 0.0135878-0.150391-0.0253907-0.039196-0.0351875-0.017617-0.0881458-0.042968-0.109375-0.043194-0.0357707-0.204792-0.0451591-0.277344-0.0332031-0.088533 0.0143861-0.167506 0.0669832-0.177734 0.1425781 0.106356 0.049768 0.28173-0.0508726 0.320312 0.0761719-0.058307 0.1047072-0.194209 0.1623439-0.175781 0.3027344 0.006825 0.0542393 0.070805 0.1267075 0.117187 0.1347656 0.046607 0.0077763 0.072151-0.0374801 0.117188-0.0332031 0.047679 0.0048601 0.037783 0.0570904 0.09375 0.0488281 0.081123-0.0346043 0.1258-0.147866 0.21875-0.1425781 0.111534 0.1351707-0.100469 0.2012643-0.21875 0.2441406-0.134906 0.048796-0.311294 0.0759338-0.414063 0.1191406-0.053919 0.0224539-0.256334 0.2184806-0.285156 0.0664063-0.020573-0.1096743 0.099474-0.0777059 0.125-0.1679688-0.13046-0.02537-0.25042 0.05647-0.369141 0.1015625-0.169393 0.0639597-0.457163 0.1030144-0.498046 0.2929688-0.007802 0.0380064 0.015585 0.1094247-0.009766 0.1347656-0.020183 0.0204127-0.140551 0.0250834-0.19336 0.0429687-0.081318 0.0278975-0.152891 0.086069-0.203124 0.0996094-0.03793 0.0104008-0.093153 0.0083438-0.117188 0.0175782-0.066985 0.0259532-0.0911163 0.1156222-0.1679688 0.1757812-0.0314936 0.0245924-0.1018946 0.0435726-0.1269531 0.0683594-0.0436816 0.0433526-0.0499642 0.1517066-0.1269531 0.1679687-0.0489468 0.0038882-0.0886854-0.035807-0.1347656-0.0078125-0.0058502 0.1073123 0.0388917 0.2528299-0.0078125 0.3613282-0.099834 0.0812618-0.2101802 0.1373359-0.3378907 0.2089843-0.0705926 0.0397561-0.1334439 0.0510778-0.21875 0.09375-0.0605497 0.030133-0.1159292 0.1015681-0.1855468 0.1425781-0.1609201 0.0945788-0.354754 0.2058428-0.3535156 0.4453126 2.73e-4 0.0518092 0.0265728 0.1093546 0.0332031 0.1699218 0.0039001 0.0356736-0.0039002 0.0704452 0 0.109375 0.0100429 0.0879689 0.0738102 0.1990137 0 0.2597656-0.1134553-0.046463-0.2585421-0.0619286-0.3378907-0.1425781-0.0217433-0.0830115 0.0451992-0.1509384 0.0351563-0.2265625-0.0078003-0.0607519-0.0947555-0.1699483-0.1445313-0.1777344-0.0512869-0.0077762-0.0974461 0.0472457-0.1503906 0.0429688-0.0629873-0.0048602-0.1222359-0.0922018-0.203125-0.1015625-0.1185547-0.0138028-0.2065824 0.0260867-0.3378906 0.0078125-0.1271155 0.0677506-0.162568 0.1896612-0.3183594 0.1777344-0.0548945-0.0038882-0.1065055-0.0455686-0.1699218-0.0585938-0.0687402-0.0141916-0.172573-0.0401136-0.2441407-0.0351562-0.1434766 0.0097203-0.2478491 0.1138232-0.3710937 0.1777344-0.1087459 0.0565722-0.2626287 0.1269525-0.2949219 0.2441406-0.0177457 0.0630848-0.0029648 0.150604-0.0253906 0.2089844-0.0149181 0.0383952-0.046418 0.0728362-0.0664063 0.109375-0.094481 0.1723217-0.1732862 0.4005695-0.1015625 0.6484374 0.0106279 0.0367429 0.1038887 0.2452149 0.1425781 0.2871094 0.0434868 0.0465603 0.1711592 0.1159044 0.2441407 0.1171875 0.0617198 9.721e-4 0.1354842-0.0322764 0.1953125-0.0429687 0.0693251-0.0123448 0.1557431-0.013082 0.21875-0.0332032 0.1822246-0.0582246 0.1457054-0.3038239 0.328125-0.3867187 0.0796605-0.0359652 0.172475-0.0435881 0.3125-0.0507813 0.0444616 0.0373262 0.0647365 0.1032633 0.0585937 0.1601563-0.0048752 0.0429638-0.046421 0.0813207-0.0683593 0.1425781-0.0191109 0.0536562-0.0221 0.1168426-0.0410157 0.1601563-0.0250584 0.0566694-0.081467 0.0990181-0.1015625 0.1523437-0.013163 0.0347015-0.0047046 0.0780562-0.015625 0.109375-0.0194032 0.0554058-0.0949657 0.093381-0.0605468 0.1503906 0.1804695 0.0716389 0.3991527-0.0193953 0.5566406 0.0097657 0.0664975 0.0120532 0.2043633 0.0910822 0.203125 0.1933593-8.191e-4 0.076499-0.0600716 0.1252245-0.0683594 0.2089844-0.0102379 0.1052905-0.0539135 0.2350654-0.0585938 0.3203125-0.0078002 0.1396129 0.2046861 0.3808209 0.3535157 0.3789059 0.1602277-0.001944 0.2542181-0.1596593 0.4472656-0.0761715 0.0640599 0.0276057 0.1323861 0.1320855 0.203125 0.1269535 0.0583072-0.003889 0.1446118-0.1071555 0.1835937-0.1777348 0.0474844-0.0860247 0.0509223-0.1577901 0.1347657-0.2011718 0.0904834-0.0467547 0.1635306-0.0252984 0.2792969-0.0683594 0.0516769-0.019149 0.0960006-0.0518101 0.1425781-0.0839844 0.040854-0.0279945 0.0838199-0.1017059 0.1347656-0.0507812 0.0672775 0.0670701-0.0824303 0.1059206-0.0253906 0.1777344 0.1169166 0.0618211 0.1770563-0.1144949 0.2617187-0.1171876 0.0270085-8.456e-4 0.1199092 0.0522962 0.1679688 0.0839844 0.0657174 0.043061 0.0882278 0.1031514 0.1601562 0.1171875 0.0462164 0.0087483 0.1205894-0.016658 0.1855474-0.0078125 0.085998 0.0122476 0.137953 0.0859285 0.203124 0.0839844 0.079369-0.0019441 0.117578-0.088965 0.185547-0.1015625 0.148771-0.0272169 0.204029 0.0165946 0.269532 0.109375 0.07342 0.0127336 0.075368-0.0851912 0.142578-0.0507813-0.036857 0.0732913 0.013424 0.1067989 0.042969 0.1679688 0.01911 0.0392701 0.015359 0.066974 0.033203 0.083984 0.040171 0.038298 0.118783 0.038943 0.177734 0.076172 0.062207 0.039076 0.096606 0.111515 0.167969 0.19336 0.07342 0.083692 0.196872 0.17162 0.294922 0.177734 0.092628 0.005832 0.167561-0.027007 0.24414-0.017578 0.174356 0.021385 0.28231 0.107448 0.404297 0.201172 0.068155 0.052295 0.130464 0.089695 0.152344 0.152344 0.015405 0.043741 0.007839 0.101341 0.025391 0.15039 0.037246 0.104795 0.190118 0.156792 0.134765 0.337891 0.025351 0.05317 0.081473 0.072204 0.142578 0.109375 0.04885 0.029744 0.091607 0.091094 0.144531 0.099609 0.034225 0.005832 0.071922-0.009465 0.101563-0.007812 0.095846 0.006804 0.161087 0.044094 0.244141 0.076171 0.051482 0.019831 0.116118 0.02755 0.15039 0.050782 0.042804 0.028869 0.048804 0.124836 0.101563 0.15039 0.034516 0.016719 0.112482-0.006804 0.169922 0 0.090483 0.010401 0.213194 0.066804 0.294921 0.06836 0.049631 9.72e-4 0.090753-0.02098 0.134766-0.017578 0.10233 0.007776 0.182341 0.072367 0.261719 0.144531-1.015335 1.636862-2.648938 2.852154-4.5722658 3.316406-0.0068252-0.073777-0.0280322-0.149151-0.03125-0.222656-0.0068252-0.159909 0.0187085-0.272164-0.0078124-0.419922-0.0195984-0.111764-0.0455709-0.283189-0.0859376-0.353516-0.0451441-0.078248-0.221214-0.210056-0.3105468-0.259765-0.0589897-0.032661-0.1291142-0.044581-0.1933594-0.076172-0.1372559-0.067265-0.4045961-0.209949-0.4648438-0.345703-0.0174531-0.039076-0.0144824-0.091141-0.0332031-0.134766-0.0365638-0.086219-0.1132887-0.160982-0.1679687-0.244141-0.1041047-0.158674-0.1880774-0.357638-0.2949219-0.521484-0.054017-0.083206-0.1009324-0.177867-0.1601563-0.24414-0.0347113-0.039077-0.1459012-0.075958-0.1601562-0.134766-0.0190132-0.07786-0.0775247-0.184584-0.0683594-0.244141 0.012188-0.08029 0.1682125-0.143525 0.1679688-0.216797-2.73e-4 -0.06221-0.0821465-0.099504-0.0996094-0.152343-0.0425116-0.128561 0.0234192-0.203478 0.0742188-0.310547 0.0167706-0.035188 0.033328-0.093197 0.0507812-0.119141 0.0309087-0.046269 0.0936093-0.059267 0.1347656-0.109375 0.0230109-0.028092 0.0383283-0.085273 0.0683594-0.125 0.0640599-0.084955 0.1670041-0.116676 0.1933594-0.193359 0.0214508-0.062502 0.035019-0.375946 0.0097656-0.480469-0.0146255-0.060558-0.0722017-0.110668-0.09375-0.167969-0.0381239-0.101528-0.0456717-0.2131244-0.1503906-0.2109372-0.064645 9.72e-4 -0.1108072 0.0740382-0.1523438 0.1191402-0.0099453 0.059975-0.0057619 0.124265-0.0683594 0.142578-0.0958461 0.028288-0.1323526-0.100929-0.2441406-0.134765-0.0444616-0.013511-0.1147506-0.012949-0.1425781-0.025391-0.0816106-0.036548-0.1073514-0.1548641-0.1933594-0.2011716-0.0719577-0.0383953-0.1341405-0.0249821-0.1777343-0.0839844-0.0181358-0.0406309-0.0048905-0.1154978-0.0097657-0.1699219-0.0923359-0.0539477-0.1697777-0.2552506-0.2773437-0.3027343-0.0712752-0.0316884-0.1803349-0.0283636-0.2695313-0.0585938-0.0419266-0.0141917-0.0753225-0.0315869-0.1191406-0.0410156-0.054017-0.0120532-0.1085518-0.0141604-0.1503906-0.0351563-0.1668775-0.0826226-0.2562315-0.3494752-0.4628907-0.34375-0.0881433 0.0019441-0.1740312 0.0844704-0.2539062 0.0839844-0.079368-4.374e-4 -0.2129098-0.0632521-0.3125-0.109375-0.1034514-0.0480183-0.2174089-0.0736405-0.3027344-0.1171875-0.0689351-0.0351875-0.1174965-0.1002514-0.1777344-0.1269531-0.0461192-0.0204127-0.1125494-0.0231302-0.1503906-0.0410157-0.053822-0.0254672-0.1107297-0.0804219-0.1777344-0.1269531-0.0635723-0.0439358-0.1322695-0.1110466-0.1347656-0.1679687-0.0029251-0.0659038 0.0615341-0.1222093 0.0683594-0.1855469 0.0217433-0.2003454-0.1276456-0.3445264-0.2207031-0.4628906-0.0689351-0.0879689-0.1496004-0.1627329-0.21875-0.2441407 0.0039001-0.0540449 0.0039001-0.0632494 0-0.1171874-0.0523595-0.0507402-0.0970104-0.1271219-0.1523438-0.203125-0.0500194-0.0685284-0.1456251-0.1418721-0.1582031-0.21875-0.0155031-0.0945788 0.0359789-0.1758087 0-0.2675782-0.0599648-0.1522881-0.273346-0.0841785-0.2460938 0.1171875 0.0078004 0.055503 0.0857012 0.1305202 0.109375 0.1855469 0.0242786 0.0560862 0.0203479 0.1257935 0.0429688 0.1933594 0.0217433 0.0647373 0.0867737 0.1204277 0.109375 0.1933594 0.0357838 0.1151857 0.0355006 0.2385485 0.0683594 0.3105468 0.0289586 0.0639597 0.1340372 0.125693 0.0742187 0.203125-0.079758 0.0165246-0.108603-0.0630577-0.1582031-0.109375-0.027691-0.0257588-0.1292817-0.0748301-0.1445312-0.1347656-0.0127731-0.0494764 0.0323011-0.1171671 0.0175781-0.1777344-0.0289586-0.1187239-0.268683-0.121966-0.2695313-0.2441406-4.387e-4 -0.0766933 0.0987026-0.086 0.0996094-0.1601562 6.533e-4 -0.0811648-0.11077-0.1499302-0.1347656-0.21875-0.0219383-0.063085-0.0250127-0.163197-0.0332032-0.2519532-0.0078002-0.0833031 0.0014351-0.1798699-0.0175781-0.2441406-0.0172581-0.0578359-0.1043646-0.1369317-0.1601562-0.1679688-0.0738103-0.0410197-0.1318339-0.0239128-0.1679688-0.0839843-0.0313962-0.0524897-0.0517685-0.1621778-0.0585937-0.21875-0.012188-0.101169-0.0039154-0.2123393-0.0097656-0.3203125-0.0058504-0.1081385-0.0165758-0.2119187 0-0.328125 0.0417315-0.081359 0.119588-0.1205613 0.1621093-0.2011719 0.0296411-0.0560862 0.0329625-0.1258836 0.0664063-0.1855469 0.0617198-0.1098881 0.1966844-0.2100361 0.2871094-0.3183594 0.0975036-0.1166923 0.1870814-0.2298893 0.2441406-0.3632812 0.0204757-0.0473379 0.074304-0.1509347 0.0664062-0.2089844-0.0111154-0.080873-0.1624518-0.147822-0.1503906-0.2441406 0.0078003-0.0596827 0.0918658-0.0602452 0.1171875-0.1191406 0.012968-0.0304246 0.0247081-0.1140853 0.0253906-0.1503906 9.751e-4 -0.0811648-0.0417712-0.1652869-0.0253906-0.2519532 0.0138455-0.0739716 0.1249895-0.1043628 0.0683594-0.1855468-0.0561621-0.0803871-0.1585446 0.0423352-0.2207031-0.0097657-0.0570398-0.0478239 0.0123129-0.1053711 0.0175781-0.1933593 0.00195-0.0349933-0.0212834-0.0736951-0.0175781-0.0996094 0.0048751-0.0376176 0.0800476-0.1016997 0.0605468-0.1269532-0.0304211-0.0384924-0.0636586-0.1156604-0.1113281-0.1777343 0.9400816-0.7519829 2.0669961-1.2822533 3.2988281-1.5058594h0.0019532c0.015308 0.02605044 0.0269142 0.0569866 0.0644531 0.06835938 0.0734202-0.03800644 0.1476266 0.00291609 0.2285156 0 0.078783-0.00291611 0.1494914-0.03899907 0.2363281-0.02539063 0.153461 0.02400917 0.367367 0.17513819 0.4882813 0.09375 0.0304211-0.02060706 0.0232852-0.05801219 0.0507812-0.11132813 0.0218408-0.04267217 0.0552086-0.08805753 0.0761719-0.140625 0.0611348-0.00194406 0.1221761-0.00195312 0.1835938-0.00195312z"
     style="fill:#00a5ff;fill-opacity:1" />
  <path
     style="fill:#00ff6e;fill-opacity:1;stroke-width:0.0234828"
     d="M 9.8026846,15.237492 C 9.794108,15.223614 9.784469,15.082486 9.7812648,14.923874 9.7752728,14.627272 9.7304229,14.346467 9.6757029,14.262953 9.6224286,14.181647 9.4090166,14.031494 9.2684116,13.976392 9.1221282,13.919064 8.9060448,13.794217 8.8029256,13.707448 8.763338,13.674137 8.7254598,13.610588 8.7058654,13.544606 8.688191,13.48509 8.629644,13.374417 8.5757612,13.298665 8.5218782,13.222914 8.4218243,13.058229 8.3534191,12.932699 8.1713186,12.598526 8.0935023,12.484421 7.9939182,12.405549 c -0.060522,-0.04793 -0.1002119,-0.103364 -0.1239973,-0.17317 -0.048718,-0.142979 -0.046297,-0.15466 0.0548,-0.264337 0.0858,-0.09308 0.088214,-0.09954 0.054401,-0.145515 -0.01946,-0.02646 -0.050202,-0.08056 -0.068314,-0.120223 -0.031261,-0.06845 -0.029439,-0.08018 0.035899,-0.231086 0.042882,-0.09904 0.1011642,-0.189131 0.1545971,-0.238964 0.047172,-0.04399 0.085767,-0.09104 0.085767,-0.104545 0,-0.01351 0.053494,-0.07762 0.1188762,-0.142486 0.1181529,-0.117212 0.1189724,-0.118958 0.1347191,-0.286997 0.019487,-0.207953 0.00268,-0.32171 -0.064946,-0.439665 -0.028616,-0.04991 -0.059181,-0.115507 -0.067922,-0.145769 -0.021435,-0.07421 -0.075071,-0.1320492 -0.1224499,-0.1320492 -0.059233,0 -0.1743437,0.1073682 -0.1743437,0.1626162 0,0.05547 -0.0381,0.101483 -0.084027,0.101483 -0.017164,0 -0.063901,-0.02871 -0.1038599,-0.06379 C 7.7831588,10.145972 7.712323,10.110822 7.6657045,10.102942 7.56171,10.085373 7.5508036,10.078157 7.4743894,9.9763695 7.4377356,9.9275446 7.380951,9.8845601 7.3324991,9.8689622 7.2182902,9.832195 7.1966988,9.8093377 7.1966988,9.7251988 c 0,-0.053586 -0.026719,-0.1091757 -0.096552,-0.2008814 C 6.9636349,9.3450467 6.9413436,9.3297983 6.7565337,9.2892705 6.3543989,9.2010848 6.3836261,9.2143604 6.2115499,9.041725 6.0088387,8.8383549 5.9785853,8.8298777 5.7261161,8.9057052 5.6409294,8.9312905 5.6180571,8.9294303 5.5060336,8.8878076 5.1654776,8.7612732 5.0429903,8.7069531 4.9560844,8.643919 4.9039391,8.6060972 4.8296613,8.568353 4.7910225,8.5600431 4.7096414,8.5425411 4.538363,8.4231954 4.4586223,8.3284289 L 4.4035693,8.2630021 4.4483859,8.145889 C 4.4865335,8.046203 4.4895538,8.0152255 4.4686824,7.9377149 4.4436675,7.8448169 4.2404522,7.5568326 4.117594,7.4401741 4.072311,7.3971761 4.049519,7.3543751 4.049519,7.3123361 c 0,-0.061565 -0.018297,-0.089678 -0.2357741,-0.3622684 -0.092156,-0.1155108 -0.092641,-0.1170709 -0.07962,-0.2565042 0.011564,-0.1238414 0.0076,-0.145788 -0.033827,-0.1872141 -0.086643,-0.086643 -0.2107043,-0.035776 -0.235533,0.096572 -0.011581,0.061732 -0.00178,0.096104 0.05161,0.1809353 0.036249,0.0576 0.072664,0.1443412 0.080923,0.1927593 0.00826,0.048418 0.039748,0.1259253 0.069977,0.1722382 0.030228,0.046313 0.067874,0.1519758 0.083657,0.2348065 0.015783,0.082831 0.049807,0.1847597 0.075609,0.2265082 0.044252,0.071601 0.061998,0.1477401 0.034435,0.1477401 -0.00686,0 -0.071989,-0.051995 -0.1447233,-0.1155433 C 3.5846081,7.5273486 3.5840622,7.5263716 3.5963555,7.4277854 3.6114509,7.3067288 3.6043521,7.2950662 3.4663051,7.2141247 3.3399476,7.1400372 3.3235782,7.0991487 3.3876605,7.0176814 3.4491842,6.9394667 3.4453048,6.902187 3.3655768,6.8054631 3.2939799,6.7186038 3.2585734,6.5651526 3.257664,6.3377719 3.2570342,6.1803079 3.1985834,6.1040737 3.0050128,6.0082531 2.8870737,5.9498714 2.8703638,5.8911864 2.8511812,5.4679989 L 2.8356706,5.1258188 2.9252748,5.0173852 C 2.9745572,4.9577468 3.0308841,4.860765 3.0504459,4.80187 3.0759692,4.7250267 3.1337222,4.6440775 3.2549651,4.515207 3.4464804,4.3116437 3.5431446,4.1785666 3.6210627,4.0112035 3.6932469,3.8561565 3.6895534,3.8064447 3.5983494,3.7054926 3.5049485,3.6021091 3.5030191,3.5761413 3.5842748,3.5160665 3.6606395,3.4596076 3.6862571,3.3379455 3.6530145,3.1896106 3.6332697,3.1015054 3.6361476,3.0786073 3.6748322,3.0160143 3.75839,2.880815 3.7105056,2.7990596 3.5774012,2.8496658 c -0.032876,0.012499 -0.068864,0.017109 -0.079973,0.010243 -0.023716,-0.014657 -0.00637,-0.2275061 0.028036,-0.3439998 0.020634,-0.069867 0.017441,-0.092082 -0.023114,-0.1608179 -0.02588,-0.043864 -0.047055,-0.084159 -0.047055,-0.089543 0,-0.00538 0.096561,-0.081458 0.2145805,-0.1690516 0.6663632,-0.4945728 1.5167781,-0.9173047 2.305365,-1.14597202 0.4616757,-0.13387253 0.710319,-0.18291036 0.7624286,-0.15036735 0.031459,0.0196462 0.1227717,0.0264918 0.301593,0.0226101 0.2329241,-0.005056 0.273133,1.8685e-4 0.4379092,0.0571011 0.224322,0.0774818 0.2598369,0.0661197 0.3464075,-0.11082413 l 0.061907,-0.12653303 0.398385,0.0145286 c 0.3378797,0.012322 0.6942479,0.0488009 1.129705,0.11563984 0.089555,0.0137459 0.1114489,0.0526299 0.029634,0.0526299 -0.021862,0 -0.066659,0.0211671 -0.099549,0.047038 -0.055368,0.0435522 -0.075975,0.0459239 -0.2780712,0.0320048 -0.2217552,-0.0152731 -0.2510526,-0.005489 -0.1789522,0.0597605 0.085815,0.0776611 0.1962077,0.10328749 0.4449411,0.10328749 0.2656977,0 0.245578,0.00839 0.3807865,-0.1587287 0.046527,-0.0575063 0.052122,-0.0587805 0.1528341,-0.0348066 0.1058652,0.0252007 0.1316732,0.0524549 0.071527,0.0755352 -0.018157,0.006967 -0.033012,0.0314159 -0.033012,0.0543299 0,0.055619 0.075333,0.054612 0.1873617,-0.0025 l 0.08663,-0.0441652 0.143611,0.0466323 c 0.07899,0.025648 0.271249,0.096359 0.427251,0.1571352 0.216557,0.084368 0.275086,0.1152901 0.24747,0.1307446 -0.02462,0.013781 -0.05174,0.00933 -0.08496,-0.013933 -0.069,-0.048331 -0.12703,-0.04371 -0.12703,0.010115 0,0.029317 0.03906,0.069421 0.115543,0.1186278 0.06355,0.040886 0.138157,0.098699 0.165795,0.1284729 0.0457,0.049227 0.04703,0.056807 0.01474,0.083605 -0.02926,0.024288 -0.04778,0.024477 -0.105272,0.00107 -0.130076,-0.052949 -0.165847,-0.052102 -0.278073,0.00658 -0.125298,0.065517 -0.18161,0.071786 -0.220786,0.024582 -0.02263,-0.027264 -0.01362,-0.048118 0.05232,-0.1211088 0.0728,-0.080582 0.099,-0.1320633 0.06721,-0.1320633 -0.0068,0 -0.08659,0.034256 -0.177208,0.076125 -0.09062,0.041869 -0.218055,0.085976 -0.283192,0.098018 -0.06514,0.012041 -0.1710866,0.050865 -0.2354458,0.086276 -0.064359,0.035411 -0.1665349,0.076108 -0.2270576,0.090439 -0.1139061,0.026971 -0.5217903,0.2311243 -0.6388835,0.3197719 -0.036668,0.02776 -0.086187,0.08705 -0.1100413,0.1317546 l -0.043372,0.081282 0.051966,0.042357 c 0.042723,0.034822 0.049498,0.055515 0.038089,0.1163299 -0.017913,0.095484 0.012965,0.1204174 0.1491279,0.1204174 0.090892,0 0.1290742,0.015076 0.2530498,0.099912 0.1885238,0.1290063 0.2435812,0.149594 0.4428936,0.165612 0.1921549,0.015443 0.2206269,0.052594 0.1204435,0.1571632 -0.037907,0.039567 -0.054822,0.075799 -0.046054,0.098649 0.00762,0.019863 -9.948e-4,0.057321 -0.01915,0.08324 -0.044705,0.063826 -0.041524,0.108602 0.012606,0.1774169 0.1136213,0.1444461 0.3511824,0.0072 0.3825714,-0.2210196 0.0086,-0.062555 0.0272,-0.1280352 0.04132,-0.1455124 0.01412,-0.017477 0.09824,-0.043222 0.186934,-0.057212 0.378863,-0.059758 0.541548,-0.2336029 0.537773,-0.5746638 -0.0014,-0.1273161 0.0069,-0.1751275 0.03653,-0.2090784 0.0211,-0.024209 0.08048,-0.1083907 0.131967,-0.1870702 0.05148,-0.07868 0.107861,-0.1511122 0.125282,-0.1609615 0.01819,-0.010284 0.08396,-0.00271 0.154501,0.017799 0.08582,0.024947 0.158655,0.03123 0.24173,0.02085 0.11578,-0.014466 0.120784,-0.012804 0.190465,0.06327 0.03936,0.042969 0.09869,0.088443 0.13186,0.1010519 0.06763,0.025715 0.07565,0.06133 0.02799,0.124348 -0.06375,0.084285 -0.03826,0.1929192 0.0568,0.2420761 0.09361,0.048407 0.251844,-7.313e-4 0.375886,-0.116726 l 0.05924,-0.055399 0.116823,0.09282 c 0.129932,0.1032355 0.15445,0.1646035 0.134172,0.3358246 -0.01585,0.1337936 0.02789,0.204086 0.149692,0.2405783 0.0496,0.014862 0.10659,0.050753 0.126636,0.079759 0.02005,0.029006 0.06368,0.085413 0.09697,0.1253498 0.0744,0.089267 0.07499,0.1123145 0.0055,0.2145829 -0.03026,0.044534 -0.05502,0.1009023 -0.05502,0.1252637 0,0.024361 -0.02563,0.06806 -0.05696,0.097107 -0.07214,0.066889 -0.06584,0.1506767 0.01294,0.1721743 0.18822,0.051362 0.187259,0.050737 0.18278,0.1187777 -0.0024,0.035843 -0.0051,0.080024 -0.0062,0.098181 -10e-4,0.018157 0.0042,0.063287 0.01167,0.1002889 0.0096,0.047828 0.0032,0.075868 -0.02227,0.096994 -0.03065,0.025442 -0.04574,0.022373 -0.104855,-0.021333 -0.06877,-0.050844 -0.341937,-0.1073611 -0.527537,-0.1091444 -0.04468,-4.292e-4 -0.08641,-0.00915 -0.09273,-0.019385 -0.01185,-0.01917 0.219364,-0.2684987 0.367805,-0.3966246 0.174339,-0.1504797 0.02091,-0.1797645 -0.237859,-0.045401 -0.167996,0.08723 -0.182623,0.090821 -0.31912,0.078344 -0.166479,-0.015217 -0.272146,0.00697 -0.282219,0.059247 -0.0039,0.020312 0.0016,0.036932 0.0123,0.036932 0.01068,0 0.03864,0.014541 0.06214,0.032313 0.04034,0.030509 0.03862,0.032351 -0.03072,0.033012 -0.06188,5.899e-4 -0.07741,-0.00983 -0.09869,-0.0662 -0.02763,-0.073193 -0.0817,-0.09648 -0.224019,-0.09648 -0.132635,0 -0.204527,0.025931 -0.245575,0.088578 -0.03162,0.048251 -0.03246,0.059636 -0.0058,0.077583 0.0172,0.011568 0.06845,0.016612 0.113888,0.011209 0.102649,-0.012207 0.170479,0.00431 0.170479,0.041515 0,0.0156 -0.03466,0.069852 -0.07703,0.1205607 -0.08645,0.1034738 -0.100259,0.1991316 -0.04097,0.2837837 0.03135,0.044764 0.04847,0.049786 0.131092,0.038462 0.05312,-0.00728 0.100877,-0.00356 0.10829,0.00843 0.02361,0.03821 0.07348,0.022925 0.15301,-0.046901 0.07799,-0.068475 0.14376,-0.073444 0.14376,-0.010861 0,0.068023 -0.149979,0.1364294 -0.532811,0.2430189 -0.06911,0.019242 -0.174855,0.065568 -0.234983,0.102946 -0.06013,0.037378 -0.119951,0.061393 -0.132939,0.053366 -0.04163,-0.025729 -0.0253,-0.093864 0.03141,-0.1310182 0.06531,-0.042789 0.07252,-0.101061 0.01252,-0.101061 -0.04024,0 -0.487751,0.1578665 -0.668865,0.2359535 -0.112648,0.048568 -0.168965,0.1246251 -0.168965,0.2281906 0,0.080154 -0.0038,0.084675 -0.08253,0.097109 -0.04539,0.00717 -0.133399,0.036673 -0.195571,0.065555 -0.06217,0.028883 -0.148438,0.059155 -0.191704,0.067272 C 10.018541,5.050757 9.9750046,5.07961 9.935774,5.131044 9.90407,5.172609 9.838921,5.2313699 9.7909974,5.2616227 9.7430734,5.2918757 9.6949554,5.3400577 9.6840676,5.368695 9.6575896,5.438339 9.6218896,5.457321 9.5319591,5.449573 l -0.075211,-0.00648 0.013599,0.1456283 c 0.00748,0.080096 0.00518,0.1676424 -0.0051,0.1945486 -0.019932,0.052139 -0.2973742,0.2275244 -0.4639358,0.2932769 -0.05447,0.021503 -0.1599604,0.08426 -0.2344224,0.1394606 -0.074462,0.0552 -0.1750968,0.1276105 -0.2236332,0.1609116 -0.052199,0.035814 -0.1079192,0.1011825 -0.1364031,0.1600224 -0.041495,0.085717 -0.046163,0.1214796 -0.033754,0.2585724 0.00792,0.087504 0.024682,0.2121505 0.037248,0.2769934 0.015295,0.078926 0.015542,0.1252014 7.461e-4,0.1399969 -0.028689,0.028689 -0.310571,-0.063185 -0.3272546,-0.1066617 -0.00658,-0.017158 -0.00145,-0.072669 0.01142,-0.1233553 C 8.1396065,6.808022 8.0190389,6.6639084 7.8744559,6.7184825 7.8153886,6.740778 7.7951707,6.7369778 7.7112737,6.6878107 7.6234005,6.6363136 7.6001004,6.6326112 7.4284261,6.6428639 7.2539667,6.6532831 7.2348554,6.659351 7.1452547,6.732772 7.0924076,6.7760764 7.0254167,6.8125949 6.9963862,6.8139244 6.9673556,6.8152537 6.8594218,6.7940956 6.7565333,6.7669062 6.5249763,6.7057149 6.4743373,6.7163413 6.1834566,6.8871641 5.9205143,7.04158 5.8651651,7.1008191 5.8479397,7.2462611 c -0.0074,0.062504 -0.042459,0.1634868 -0.079603,0.2293023 -0.0931,0.1649639 -0.1425681,0.3725497 -0.1261691,0.5294483 0.015485,0.1481545 0.1387539,0.4112022 0.2160398,0.4610155 0.1193374,0.076917 0.195669,0.087343 0.369797,0.050508 C 6.5474091,8.4489692 6.5563442,8.4440702 6.6441356,8.28836 6.6877976,8.210919 6.7489891,8.1285994 6.7801169,8.1054263 c 0.067518,-0.050263 0.3045099,-0.088849 0.3450546,-0.056179 0.036434,0.029358 0.034984,0.1363832 -0.00285,0.2104425 -0.016699,0.032686 -0.037591,0.094093 -0.046427,0.1364587 -0.00884,0.042366 -0.038169,0.10674 -0.065186,0.1430536 -0.027017,0.036314 -0.055985,0.095736 -0.064375,0.1320495 -0.00839,0.036314 -0.032221,0.098587 -0.052959,0.1383844 -0.054428,0.1044514 -0.021498,0.1163394 0.3033245,0.1094994 0.2559501,-0.00539 0.2799923,-0.00231 0.3453284,0.044297 0.095008,0.067768 0.1039353,0.1109976 0.054024,0.2616179 -0.023412,0.070651 -0.054744,0.1982486 -0.069628,0.2835495 -0.025124,0.1439865 -0.023768,0.1615469 0.018922,0.245228 0.051662,0.1012664 0.1998416,0.2381962 0.2793638,0.2581552 0.02886,0.0072 0.094963,-0.0025 0.1468945,-0.021599 0.263163,-0.096905 0.2879166,-0.096212 0.4239192,0.01187 0.046039,0.03659 0.1013909,0.06652 0.1230044,0.06652 0.054807,0 0.1741238,-0.1250781 0.2215126,-0.2322084 0.056123,-0.1268762 0.1039404,-0.1616757 0.2599023,-0.1891479 0.090157,-0.015881 0.1747233,-0.049539 0.2474733,-0.098496 0.1458109,-0.098123 0.1903393,-0.094177 0.124627,0.011045 -0.061969,0.099229 0.066611,0.1569477 0.1483718,0.066603 0.078798,-0.087071 0.1121608,-0.091976 0.2151414,-0.031625 0.052617,0.030836 0.1135126,0.075784 0.1353237,0.099885 0.031299,0.034585 0.067927,0.043851 0.1737976,0.043965 0.09683,1.101e-4 0.152502,0.012306 0.200165,0.043871 0.08589,0.056879 0.116203,0.055319 0.213806,-0.011004 0.106963,-0.072683 0.215852,-0.072829 0.284572,-3.808e-4 0.05373,0.056644 0.116264,0.071575 0.139862,0.033393 0.0075,-0.012105 0.02351,-0.022008 0.03561,-0.022008 0.0121,0 0.017,0.0081 0.01088,0.018009 -0.0061,0.00991 0.01179,0.067481 0.0398,0.127947 0.04307,0.092965 0.06621,0.1157721 0.149874,0.1477221 0.07261,0.02773 0.125424,0.07189 0.198457,0.165935 0.13942,0.179533 0.282848,0.25016 0.469239,0.231064 0.161391,-0.01653 0.259832,0.01093 0.422009,0.117747 0.179358,0.118132 0.239004,0.183388 0.256909,0.281075 0.0089,0.04837 0.05126,0.139327 0.09422,0.202131 0.05567,0.08139 0.07442,0.128852 0.06529,0.165245 -0.0164,0.06534 -0.0065,0.07833 0.139412,0.182095 0.09386,0.06677 0.143288,0.08683 0.220083,0.08933 0.05447,0.0018 0.17432,0.03035 0.266332,0.0635 0.143382,0.05166 0.172431,0.07104 0.203221,0.135609 0.03416,0.07163 0.04162,0.07535 0.151823,0.07557 0.06374,1.33e-4 0.165419,0.01551 0.225942,0.03417 0.06884,0.02123 0.144874,0.0289 0.20307,0.0205 0.10091,-0.01457 0.214466,0.02551 0.281206,0.09926 0.03527,0.03897 0.02909,0.05279 -0.124547,0.278556 -0.972118,1.428516 -2.390065,2.465355 -4.043826,2.956946 -0.3305763,0.09827 -0.3239805,0.09708 -0.3454064,0.06241 z"
     id="path3215" />
</svg>
