<?xml version="1.0" encoding="UTF-8" standalone="no"?>
<svg
   height="16"
   viewBox="0 0 16 16"
   width="16"
   version="1.1"
   id="svg6"
   sodipodi:docname="folder-video5.svg"
   inkscape:version="1.1.2 (0a00cf5339, 2022-02-04, custom)"
   xmlns:inkscape="http://www.inkscape.org/namespaces/inkscape"
   xmlns:sodipodi="http://sodipodi.sourceforge.net/DTD/sodipodi-0.dtd"
   xmlns="http://www.w3.org/2000/svg"
   xmlns:svg="http://www.w3.org/2000/svg"
   xmlns:rdf="http://www.w3.org/1999/02/22-rdf-syntax-ns#"
   xmlns:cc="http://creativecommons.org/ns#"
   xmlns:dc="http://purl.org/dc/elements/1.1/">
  <metadata
     id="metadata10">
    <rdf:RDF>
      <cc:Work
         rdf:about="">
        <dc:format>image/svg+xml</dc:format>
        <dc:type
           rdf:resource="http://purl.org/dc/dcmitype/StillImage" />
      </cc:Work>
    </rdf:RDF>
  </metadata>
  <sodipodi:namedview
     pagecolor="#ffffff"
     bordercolor="#666666"
     borderopacity="1"
     objecttolerance="10"
     gridtolerance="10"
     guidetolerance="10"
     inkscape:pageopacity="0"
     inkscape:pageshadow="2"
     inkscape:window-width="1920"
     inkscape:window-height="1020"
     id="namedview8"
     showgrid="false"
     inkscape:zoom="32.850353"
     inkscape:cx="6.3317432"
     inkscape:cy="6.894903"
     inkscape:window-x="3280"
     inkscape:window-y="30"
     inkscape:window-maximized="1"
     inkscape:current-layer="svg6"
     inkscape:pagecheckerboard="0" />
  <defs
     id="defs2">
    <style
       type="text/css"
       id="current-color-scheme">
      .ColorScheme-Text {
        color:#122036;
      }
      </style>
  </defs>
  <g
     id="g3755">
    <path
       id="path3474"
       style="fill:#ae62e3;fill-opacity:1;stroke-width:0.228564"
       d="m 14.1,2.6806647 c 0,-0.9309356 -0.653334,-1.680664 -1.464578,-1.680664 H 11.485715 3.3645793 c -0.811245,0 -1.464579,0.7497284 -1.464579,1.680664 V 13.319335 c 0,0.930936 0.653334,1.680664 1.464579,1.680664 h 8.1211357 1.149707 c 0.811244,0 1.464578,-0.749728 1.464578,-1.680664 z m -0.871428,-0.08068 4.08e-4,1.8999838 h -1.871183 l -4.08e-4,-1.8999838 z m 0,2.9999838 V 7.5000004 H 11.357389 V 5.5999682 Z m 0,3.0000001 V 10.499968 H 11.357389 V 8.5999683 Z m 0,2.9999997 v 1.900031 H 11.357389 V 11.599968 Z M 4.6421489,2.599952 4.6426287,4.4999682 H 2.7719091 L 2.7714293,2.599952 Z m 0,3.0000162 v 1.9 H 2.7714293 v -1.9 z m 0,3.0000001 4.798e-4,1.8999997 H 2.7719091 L 2.7714293,8.5999683 Z m 0,2.9999997 v 1.9 H 2.7714293 v -1.9 z"
       sodipodi:nodetypes="sscsssscssscccccccccccccccccccccccccccccccccccccccc" />
  </g>
  <rect
     style="opacity:1;fill:#ffffff;fill-opacity:1;stroke:none;stroke-width:1.06659"
     id="rect3786"
     width="0.83345139"
     height="0.86041784"
     x="3.29619"
     y="3.117573" />
  <rect
     style="opacity:1;fill:#ffffff;fill-opacity:1;stroke:none;stroke-width:1.06659"
     id="rect4858"
     width="0.83345139"
     height="0.86041784"
     x="3.2826424"
     y="6.1030197" />
  <rect
     style="opacity:1;fill:#ffffff;fill-opacity:1;stroke:none;stroke-width:1.067;stroke-miterlimit:4;stroke-dasharray:none;stroke-opacity:1"
     id="rect4896"
     width="0.83345139"
     height="0.86041784"
     x="3.3047559"
     y="9.126977" />
  <rect
     style="opacity:1;fill:#ffffff;fill-opacity:1;stroke:none;stroke-width:1.067;stroke-miterlimit:4;stroke-dasharray:none;stroke-opacity:1"
     id="rect4916"
     width="0.83345139"
     height="0.86041784"
     x="3.2986042"
     y="12.117034" />
  <rect
     style="opacity:1;fill:#ffffff;fill-opacity:1;stroke:none;stroke-width:1.067;stroke-miterlimit:4;stroke-dasharray:none;stroke-opacity:1"
     id="rect4918"
     width="0.83345139"
     height="0.86041784"
     x="11.88394"
     y="12.128636" />
  <rect
     style="opacity:1;fill:#ffffff;fill-opacity:1;stroke:none;stroke-width:1.067;stroke-miterlimit:4;stroke-dasharray:none;stroke-opacity:1"
     id="rect4920"
     width="0.83345139"
     height="0.86041784"
     x="11.874627"
     y="9.1284084" />
  <rect
     style="opacity:1;fill:#ffffff;fill-opacity:1;stroke:none;stroke-width:1.067;stroke-miterlimit:4;stroke-dasharray:none;stroke-opacity:1"
     id="rect4922"
     width="0.83345139"
     height="0.86041784"
     x="11.884907"
     y="6.1110101" />
  <rect
     style="opacity:1;fill:#ffffff;fill-opacity:1;stroke:none;stroke-width:1.067;stroke-miterlimit:4;stroke-dasharray:none;stroke-opacity:1"
     id="rect4924"
     width="0.83345139"
     height="0.86041784"
     x="11.889738"
     y="3.123054" />
</svg>
